  0
SECTION
  2
BLOCKS
  0
ENDSEC
  0
SECTION
  2
ENTITIES
  0
LINE
  8
0
 10
17
 20
15
 11
17
 21
30
  0
LINE
  8
0
 10
17
 20
30
 11
0
 21
30
  0
LINE
  8
0
 10
0
 20
30
 11
0
 21
25
  0
LINE
  8
0
 10
0
 20
25
 11
-5
 21
25
  0
LINE
  8
0
 10
-5
 20
25
 11
-5
 21
20
  0
LINE
  8
0
 10
-5
 20
20
 11
0
 21
20
  0
LINE
  8
0
 10
0
 20
20
 11
0
 21
13.9
  0
LINE
  8
0
 10
0
 20
13.9
 11
2.67497
 21
13.9
  0
LINE
  8
0
 10
2.67497
 20
13.9
 11
2.67497
 21
15.15
  0
LINE
  8
0
 10
2.67497
 20
15.15
 11
4.32498
 21
15.15
  0
LINE
  8
0
 10
4.32498
 20
15.15
 11
4.325
 21
13.9
  0
LINE
  8
0
 10
4.325
 20
13.9
 11
6.5
 21
13.9
  0
LINE
  8
0
 10
6.5
 20
13.9
 11
6.5
 21
11.1
  0
LINE
  8
0
 10
6.5
 20
11.1
 11
4.325
 21
11.1
  0
LINE
  8
0
 10
4.325
 20
11.1
 11
4.325
 21
9.85001
  0
LINE
  8
0
 10
4.325
 20
9.85001
 11
2.67499
 21
9.85001
  0
LINE
  8
0
 10
2.67499
 20
9.85001
 11
2.67499
 21
11.1
  0
LINE
  8
0
 10
2.67499
 20
11.1
 11
0
 21
11.1
  0
LINE
  8
0
 10
0
 20
11.1
 11
0
 21
5
  0
LINE
  8
0
 10
0
 20
5
 11
-5
 21
5
  0
LINE
  8
0
 10
-5
 20
5
 11
-5
 21
0
  0
LINE
  8
0
 10
-5
 20
0
 11
5
 21
0
  0
LINE
  8
0
 10
5
 20
0
 11
5
 21
-4.98999
  0
LINE
  8
0
 10
5
 20
-4.98999
 11
10
 21
-4.98999
  0
LINE
  8
0
 10
10
 20
-4.98999
 11
10
 21
0
  0
LINE
  8
0
 10
10
 20
0
 11
16.1
 21
0
  0
LINE
  8
0
 10
16.1
 20
0
 11
16.1
 21
2.66498
  0
LINE
  8
0
 10
16.1
 20
2.66498
 11
14.85
 21
2.66498
  0
LINE
  8
0
 10
14.85
 20
2.66498
 11
14.85
 21
4.31499
  0
LINE
  8
0
 10
14.85
 20
4.31499
 11
16.1
 21
4.31499
  0
LINE
  8
0
 10
16.1
 20
4.31499
 11
16.1
 21
6.48999
  0
LINE
  8
0
 10
16.1
 20
6.48999
 11
18.9
 21
6.48999
  0
LINE
  8
0
 10
18.9
 20
6.48999
 11
18.9
 21
4.31499
  0
LINE
  8
0
 10
18.9
 20
4.31499
 11
20.15
 21
4.31499
  0
LINE
  8
0
 10
20.15
 20
4.31499
 11
20.15
 21
2.66498
  0
LINE
  8
0
 10
20.15
 20
2.66498
 11
18.9
 21
2.66498
  0
LINE
  8
0
 10
18.9
 20
2.66498
 11
18.9
 21
0
  0
LINE
  8
0
 10
18.9
 20
0
 11
25
 21
0
  0
LINE
  8
0
 10
25
 20
0
 11
25
 21
-4.98999
  0
LINE
  8
0
 10
25
 20
-4.98999
 11
30
 21
-4.98999
  0
LINE
  8
0
 10
30
 20
-4.98999
 11
30
 21
15
  0
LINE
  8
0
 10
30
 20
15
 11
17
 21
15
  0
LINE
  8
0
 10
12
 20
20.5
 11
12
 21
27.5
  0
LINE
  8
0
 10
12
 20
27.5
 11
14.5
 21
27.5
  0
LINE
  8
0
 10
14.5
 20
27.5
 11
14.5
 21
20.5
  0
LINE
  8
0
 10
14.5
 20
20.5
 11
12
 21
20.5
  0
ENDSEC
  0
SECTION
  2
OBJECTS
  0
DICTIONARY
  0
ENDSEC
  0
EOF
