  0
SECTION
  2
HEADER
  9
$ACADVER
  1
AC1014
  9
$HANDSEED
  5
FFFF
  9
$MEASUREMENT
 70
     1
  0
ENDSEC
  0
SECTION
  2
TABLES
  0
TABLE
  2
VPORT
  5
8
330
0
100
AcDbSymbolTable
 70
     4
  0
VPORT
  5
2E
330
8
100
AcDbSymbolTableRecord
100
AcDbViewportTableRecord
  2
*ACTIVE
 70
     0
 10
0.0
 20
0.0
 11
1.0
 21
1.0
 12
210.0
 22
148.5
 13
0.0
 23
0.0
 14
10.0
 24
10.0
 15
10.0
 25
10.0
 16
0.0
 26
0.0
 36
1.0
 17
0.0
 27
0.0
 37
0.0
 40
341.0
 41
1.24
 42
50.0
 43
0.0
 44
0.0
 50
0.0
 51
0.0
 71
     0
 72
   100
 73
     1
 74
     3
 75
     0
 76
     0
 77
     0
 78
     0
  0
ENDTAB
  0
TABLE
  2
LTYPE
  5
5
330
0
100
AcDbSymbolTable
 70
     1
  0
LTYPE
  5
14
330
5
100
AcDbSymbolTableRecord
100
AcDbLinetypeTableRecord
  2
BYBLOCK
 70
     0
  3

 72
    65
 73
     0
 40
0.0
  0
LTYPE
  5
15
330
5
100
AcDbSymbolTableRecord
100
AcDbLinetypeTableRecord
  2
BYLAYER
 70
     0
  3

 72
    65
 73
     0
 40
0.0
  0
LTYPE
  5
16
330
5
100
AcDbSymbolTableRecord
100
AcDbLinetypeTableRecord
  2
CONTINUOUS
 70
     0
  3
Solid line
 72
    65
 73
     0
 40
0.0
  0
ENDTAB
  0
TABLE
  2
LAYER
  5
2
100
AcDbSymbolTable
 70
2
  0
LAYER
  5
50
100
AcDbSymbolTableRecord
100
AcDbLayerTableRecord
  2
0
 70
0
  6
CONTINUOUS
  0
LAYER
  5
51
100
AcDbSymbolTableRecord
100
AcDbLayerTableRecord
  2
Ebene_1
 70
0
  6
CONTINUOUS
  0
ENDTAB
  0
TABLE
  2
STYLE
  5
3
330
0
100
AcDbSymbolTable
 70
     1
  0
STYLE
  5
11
330
3
100
AcDbSymbolTableRecord
100
AcDbTextStyleTableRecord
  2
STANDARD
 70
     0
 40
0.0
 41
1.0
 50
0.0
 71
     0
 42
2.5
  3
txt
  4

  0
ENDTAB
  0
TABLE
  2
VIEW
  5
6
330
0
100
AcDbSymbolTable
 70
     0
  0
ENDTAB
  0
TABLE
  2
UCS
  5
7
330
0
100
AcDbSymbolTable
 70
     0
  0
ENDTAB
  0
TABLE
  2
APPID
  5
9
330
0
100
AcDbSymbolTable
 70
     2
  0
APPID
  5
12
330
9
100
AcDbSymbolTableRecord
100
AcDbRegAppTableRecord
  2
ACAD
 70
     0
  0
ENDTAB
  0
TABLE
  2
DIMSTYLE
  5
A
330
0
100
AcDbSymbolTable
 70
     1
  0
DIMSTYLE
105
27
330
A
100
AcDbSymbolTableRecord
100
AcDbDimStyleTableRecord
  2
ISO-25
 70
     0
  3

  4

  5

  6

  7

 40
1.0
 41
2.5
 42
0.625
 43
3.75
 44
1.25
 45
0.0
 46
0.0
 47
0.0
 48
0.0
140
2.5
141
2.5
142
0.0
143
0.03937007874016
144
1.0
145
0.0
146
1.0
147
0.625
 71
     0
 72
     0
 73
     0
 74
     0
 75
     0
 76
     0
 77
     1
 78
     8
170
     0
171
     3
172
     1
173
     0
174
     0
175
     0
176
     0
177
     0
178
     0
270
     2
271
     2
272
     2
273
     2
274
     3
340
11
275
     0
280
     0
281
     0
282
     0
283
     0
284
     8
285
     0
286
     0
287
     3
288
     0
  0
ENDTAB
  0
TABLE
  2
BLOCK_RECORD
  5
1
330
0
100
AcDbSymbolTable
 70
     1
  0
BLOCK_RECORD
  5
1F
330
1
100
AcDbSymbolTableRecord
100
AcDbBlockTableRecord
  2
*MODEL_SPACE
  0
BLOCK_RECORD
  5
1B
330
1
100
AcDbSymbolTableRecord
100
AcDbBlockTableRecord
  2
*PAPER_SPACE
  0
ENDTAB
  0
ENDSEC
  0
SECTION
  2
BLOCKS
  0
BLOCK
  5
20
330
1F
100
AcDbEntity
  8
0
100
AcDbBlockBegin
  2
*MODEL_SPACE
 70
     0
 10
0.0
 20
0.0
 30
0.0
  3
*MODEL_SPACE
  1

  0
ENDBLK
  5
21
330
1F
100
AcDbEntity
  8
0
100
AcDbBlockEnd
  0
BLOCK
  5
1C
330
1B
100
AcDbEntity
 67
     1
  8
0
100
AcDbBlockBegin
  2
*PAPER_SPACE
  1

  0
ENDBLK
  5
1D
330
1B
100
AcDbEntity
 67
     1
  8
0
100
AcDbBlockEnd
  0
ENDSEC
  0
SECTION
  2
ENTITIES
  0
LWPOLYLINE
  5
100
100
AcDbEntity
  8
Ebene_1
 62
7
100
AcDbPolyline
 90
5
 70
0
 10
127.882706
 20
176.730698
 30
0.0
 10
82.882706
 20
176.730698
 30
0.0
 10
82.882706
 20
76.730686
 30
0.0
 10
127.882706
 20
76.730686
 30
0.0
 10
127.882706
 20
176.730698
 30
0.0
  0
LWPOLYLINE
  5
101
100
AcDbEntity
  8
Ebene_1
 62
7
100
AcDbPolyline
 90
51
 70
0
 10
93.288506
 20
170.233598
 30
0.0
 10
93.101606
 20
170.257305
 30
0.0
 10
92.919206
 20
170.304097
 30
0.0
 10
92.744006
 20
170.373397
 30
0.0
 10
92.579006
 20
170.464199
 30
0.0
 10
92.426606
 20
170.574898
 30
0.0
 10
92.289306
 20
170.703899
 30
0.0
 10
92.169206
 20
170.848998
 30
0.0
 10
92.068206
 20
171.008098
 30
0.0
 10
91.988006
 20
171.178498
 30
0.0
 10
91.929806
 20
171.357698
 30
0.0
 10
91.894506
 20
171.542697
 30
0.0
 10
91.882706
 20
171.730697
 30
0.0
 10
91.894506
 20
171.918699
 30
0.0
 10
91.929806
 20
172.103699
 30
0.0
 10
91.988006
 20
172.282898
 30
0.0
 10
92.068206
 20
172.453299
 30
0.0
 10
92.169206
 20
172.612398
 30
0.0
 10
92.289306
 20
172.757497
 30
0.0
 10
92.426606
 20
172.886498
 30
0.0
 10
92.579006
 20
172.997197
 30
0.0
 10
92.744006
 20
173.087898
 30
0.0
 10
92.919206
 20
173.157299
 30
0.0
 10
93.101606
 20
173.204097
 30
0.0
 10
93.288506
 20
173.227691
 30
0.0
 10
93.476906
 20
173.227699
 30
0.0
 10
93.663806
 20
173.204106
 30
0.0
 10
93.846206
 20
173.157299
 30
0.0
 10
94.021406
 20
173.087898
 30
0.0
 10
94.186406
 20
172.997197
 30
0.0
 10
94.338806
 20
172.886498
 30
0.0
 10
94.476206
 20
172.757497
 30
0.0
 10
94.596206
 20
172.612398
 30
0.0
 10
94.697206
 20
172.453299
 30
0.0
 10
94.777406
 20
172.282898
 30
0.0
 10
94.835606
 20
172.103699
 30
0.0
 10
94.870906
 20
171.918699
 30
0.0
 10
94.882706
 20
171.730697
 30
0.0
 10
94.870907
 20
171.542697
 30
0.0
 10
94.835606
 20
171.357698
 30
0.0
 10
94.777406
 20
171.178498
 30
0.0
 10
94.697206
 20
171.008098
 30
0.0
 10
94.596206
 20
170.848998
 30
0.0
 10
94.476206
 20
170.703899
 30
0.0
 10
94.338806
 20
170.574898
 30
0.0
 10
94.186406
 20
170.464199
 30
0.0
 10
94.021406
 20
170.373397
 30
0.0
 10
93.846206
 20
170.304097
 30
0.0
 10
93.663806
 20
170.257299
 30
0.0
 10
93.476906
 20
170.233593
 30
0.0
 10
93.288506
 20
170.233598
 30
0.0
  0
LWPOLYLINE
  5
102
100
AcDbEntity
  8
Ebene_1
 62
7
100
AcDbPolyline
 90
51
 70
0
 10
117.288506
 20
170.233598
 30
0.0
 10
117.101606
 20
170.257305
 30
0.0
 10
116.919206
 20
170.304097
 30
0.0
 10
116.744006
 20
170.373397
 30
0.0
 10
116.579006
 20
170.464199
 30
0.0
 10
116.426606
 20
170.574898
 30
0.0
 10
116.289206
 20
170.703899
 30
0.0
 10
116.169206
 20
170.848998
 30
0.0
 10
116.068206
 20
171.008098
 30
0.0
 10
115.988006
 20
171.178498
 30
0.0
 10
115.929806
 20
171.357698
 30
0.0
 10
115.894506
 20
171.542697
 30
0.0
 10
115.882706
 20
171.730697
 30
0.0
 10
115.894506
 20
171.918699
 30
0.0
 10
115.929806
 20
172.103699
 30
0.0
 10
115.988006
 20
172.282898
 30
0.0
 10
116.068206
 20
172.453299
 30
0.0
 10
116.169206
 20
172.612398
 30
0.0
 10
116.289206
 20
172.757497
 30
0.0
 10
116.426606
 20
172.886498
 30
0.0
 10
116.579006
 20
172.997197
 30
0.0
 10
116.744006
 20
173.087898
 30
0.0
 10
116.919206
 20
173.157299
 30
0.0
 10
117.101606
 20
173.204097
 30
0.0
 10
117.288506
 20
173.227691
 30
0.0
 10
117.476906
 20
173.227699
 30
0.0
 10
117.663806
 20
173.204106
 30
0.0
 10
117.846206
 20
173.157299
 30
0.0
 10
118.021406
 20
173.087898
 30
0.0
 10
118.186406
 20
172.997197
 30
0.0
 10
118.338806
 20
172.886498
 30
0.0
 10
118.476106
 20
172.757497
 30
0.0
 10
118.596206
 20
172.612398
 30
0.0
 10
118.697206
 20
172.453299
 30
0.0
 10
118.777406
 20
172.282898
 30
0.0
 10
118.835606
 20
172.103699
 30
0.0
 10
118.870906
 20
171.918699
 30
0.0
 10
118.882706
 20
171.730697
 30
0.0
 10
118.870907
 20
171.542697
 30
0.0
 10
118.835606
 20
171.357698
 30
0.0
 10
118.777406
 20
171.178498
 30
0.0
 10
118.697206
 20
171.008098
 30
0.0
 10
118.596206
 20
170.848998
 30
0.0
 10
118.476106
 20
170.703899
 30
0.0
 10
118.338806
 20
170.574898
 30
0.0
 10
118.186406
 20
170.464199
 30
0.0
 10
118.021406
 20
170.373397
 30
0.0
 10
117.846206
 20
170.304097
 30
0.0
 10
117.663806
 20
170.257299
 30
0.0
 10
117.476906
 20
170.233593
 30
0.0
 10
117.288506
 20
170.233598
 30
0.0
  0
LWPOLYLINE
  5
103
100
AcDbEntity
  8
Ebene_1
 62
7
100
AcDbPolyline
 90
5
 70
0
 10
90.382706
 20
159.230699
 30
0.0
 10
90.382706
 20
164.230698
 30
0.0
 10
120.382706
 20
164.230698
 30
0.0
 10
120.382706
 20
159.230699
 30
0.0
 10
90.382706
 20
159.230699
 30
0.0
  0
LWPOLYLINE
  5
104
100
AcDbEntity
  8
Ebene_1
 62
7
100
AcDbPolyline
 90
51
 70
0
 10
93.068806
 20
142.740599
 30
0.0
 10
92.445806
 20
142.819299
 30
0.0
 10
91.837606
 20
142.975399
 30
0.0
 10
91.253806
 20
143.206598
 30
0.0
 10
90.703606
 20
143.509098
 30
0.0
 10
90.195606
 20
143.878098
 30
0.0
 10
89.737906
 20
144.307999
 30
0.0
 10
89.337606
 20
144.791798
 30
0.0
 10
89.001206
 20
145.321899
 30
0.0
 10
88.733806
 20
145.890097
 30
0.0
 10
88.539806
 20
146.487197
 30
0.0
 10
88.422106
 20
147.103997
 30
0.0
 10
88.382706
 20
147.730697
 30
0.0
 10
88.422106
 20
148.357399
 30
0.0
 10
88.539806
 20
148.974097
 30
0.0
 10
88.733806
 20
149.571299
 30
0.0
 10
89.001206
 20
150.139497
 30
0.0
 10
89.337606
 20
150.669598
 30
0.0
 10
89.737906
 20
151.153398
 30
0.0
 10
90.195606
 20
151.583298
 30
0.0
 10
90.703606
 20
151.952298
 30
0.0
 10
91.253806
 20
152.254798
 30
0.0
 10
91.837606
 20
152.485997
 30
0.0
 10
92.445806
 20
152.642097
 30
0.0
 10
93.068806
 20
152.720798
 30
0.0
 10
93.696706
 20
152.720798
 30
0.0
 10
94.319606
 20
152.642097
 30
0.0
 10
94.927806
 20
152.485997
 30
0.0
 10
95.511616
 20
152.254798
 30
0.0
 10
96.061846
 20
151.952298
 30
0.0
 10
96.569836
 20
151.583298
 30
0.0
 10
97.027556
 20
151.153398
 30
0.0
 10
97.427796
 20
150.669598
 30
0.0
 10
97.764256
 20
150.139497
 30
0.0
 10
98.031606
 20
149.571299
 30
0.0
 10
98.225636
 20
148.974097
 30
0.0
 10
98.343296
 20
148.357399
 30
0.0
 10
98.382706
 20
147.730697
 30
0.0
 10
98.343296
 20
147.103997
 30
0.0
 10
98.225636
 20
146.487197
 30
0.0
 10
98.031606
 20
145.890097
 30
0.0
 10
97.764256
 20
145.321899
 30
0.0
 10
97.427796
 20
144.791798
 30
0.0
 10
97.027556
 20
144.307999
 30
0.0
 10
96.569836
 20
143.878098
 30
0.0
 10
96.061846
 20
143.509098
 30
0.0
 10
95.511616
 20
143.206598
 30
0.0
 10
94.927806
 20
142.975399
 30
0.0
 10
94.319606
 20
142.819299
 30
0.0
 10
93.696706
 20
142.740599
 30
0.0
 10
93.068806
 20
142.740599
 30
0.0
  0
LWPOLYLINE
  5
105
100
AcDbEntity
  8
Ebene_1
 62
7
100
AcDbPolyline
 90
51
 70
0
 10
117.068706
 20
142.740599
 30
0.0
 10
116.445806
 20
142.819299
 30
0.0
 10
115.837606
 20
142.975399
 30
0.0
 10
115.253796
 20
143.206598
 30
0.0
 10
114.703566
 20
143.509098
 30
0.0
 10
114.195576
 20
143.878098
 30
0.0
 10
113.737856
 20
144.307999
 30
0.0
 10
113.337616
 20
144.791798
 30
0.0
 10
113.001156
 20
145.321899
 30
0.0
 10
112.733806
 20
145.890097
 30
0.0
 10
112.539776
 20
146.487197
 30
0.0
 10
112.422116
 20
147.103997
 30
0.0
 10
112.382706
 20
147.730697
 30
0.0
 10
112.422116
 20
148.357399
 30
0.0
 10
112.539776
 20
148.974097
 30
0.0
 10
112.733806
 20
149.571299
 30
0.0
 10
113.001156
 20
150.139497
 30
0.0
 10
113.337616
 20
150.669598
 30
0.0
 10
113.737856
 20
151.153398
 30
0.0
 10
114.195576
 20
151.583298
 30
0.0
 10
114.703566
 20
151.952298
 30
0.0
 10
115.253796
 20
152.254798
 30
0.0
 10
115.837606
 20
152.485997
 30
0.0
 10
116.445806
 20
152.642097
 30
0.0
 10
117.068706
 20
152.720798
 30
0.0
 10
117.696606
 20
152.720798
 30
0.0
 10
118.319606
 20
152.642097
 30
0.0
 10
118.927806
 20
152.485997
 30
0.0
 10
119.511606
 20
152.254798
 30
0.0
 10
120.061806
 20
151.952298
 30
0.0
 10
120.569806
 20
151.583298
 30
0.0
 10
121.027506
 20
151.153398
 30
0.0
 10
121.427806
 20
150.669598
 30
0.0
 10
121.764206
 20
150.139497
 30
0.0
 10
122.031606
 20
149.571299
 30
0.0
 10
122.225606
 20
148.974097
 30
0.0
 10
122.343306
 20
148.357399
 30
0.0
 10
122.382706
 20
147.730697
 30
0.0
 10
122.343306
 20
147.103997
 30
0.0
 10
122.225606
 20
146.487197
 30
0.0
 10
122.031606
 20
145.890097
 30
0.0
 10
121.764206
 20
145.321899
 30
0.0
 10
121.427806
 20
144.791798
 30
0.0
 10
121.027506
 20
144.307999
 30
0.0
 10
120.569806
 20
143.878098
 30
0.0
 10
120.061806
 20
143.509098
 30
0.0
 10
119.511606
 20
143.206598
 30
0.0
 10
118.927806
 20
142.975399
 30
0.0
 10
118.319606
 20
142.819299
 30
0.0
 10
117.696606
 20
142.740599
 30
0.0
 10
117.068706
 20
142.740599
 30
0.0
  0
LWPOLYLINE
  5
106
100
AcDbEntity
  8
Ebene_1
 62
7
100
AcDbPolyline
 90
51
 70
0
 10
93.068806
 20
100.740601
 30
0.0
 10
92.445806
 20
100.819284
 30
0.0
 10
91.837606
 20
100.975410
 30
0.0
 10
91.253806
 20
101.206606
 30
0.0
 10
90.703606
 20
101.509092
 30
0.0
 10
90.195606
 20
101.878097
 30
0.0
 10
89.737906
 20
102.308007
 30
0.0
 10
89.337606
 20
102.791792
 30
0.0
 10
89.001206
 20
103.321890
 30
0.0
 10
88.733806
 20
103.890088
 30
0.0
 10
88.539806
 20
104.487298
 30
0.0
 10
88.422106
 20
105.104010
 30
0.0
 10
88.382706
 20
105.730685
 30
0.0
 10
88.422106
 20
106.357387
 30
0.0
 10
88.539806
 20
106.974184
 30
0.0
 10
88.733806
 20
107.571310
 30
0.0
 10
89.001206
 20
108.139508
 30
0.0
 10
89.337606
 20
108.669606
 30
0.0
 10
89.737906
 20
109.153391
 30
0.0
 10
90.195606
 20
109.583300
 30
0.0
 10
90.703606
 20
109.952306
 30
0.0
 10
91.253806
 20
110.254792
 30
0.0
 10
91.837606
 20
110.485988
 30
0.0
 10
92.445806
 20
110.642085
 30
0.0
 10
93.068806
 20
110.720797
 30
0.0
 10
93.696706
 20
110.720797
 30
0.0
 10
94.319606
 20
110.642085
 30
0.0
 10
94.927806
 20
110.485988
 30
0.0
 10
95.511616
 20
110.254792
 30
0.0
 10
96.061846
 20
109.952306
 30
0.0
 10
96.569836
 20
109.583300
 30
0.0
 10
97.027556
 20
109.153391
 30
0.0
 10
97.427796
 20
108.669606
 30
0.0
 10
97.764256
 20
108.139508
 30
0.0
 10
98.031606
 20
107.571310
 30
0.0
 10
98.225636
 20
106.974184
 30
0.0
 10
98.343296
 20
106.357387
 30
0.0
 10
98.382706
 20
105.730685
 30
0.0
 10
98.343296
 20
105.104010
 30
0.0
 10
98.225636
 20
104.487298
 30
0.0
 10
98.031606
 20
103.890088
 30
0.0
 10
97.764256
 20
103.321890
 30
0.0
 10
97.427796
 20
102.791792
 30
0.0
 10
97.027556
 20
102.308007
 30
0.0
 10
96.569836
 20
101.878097
 30
0.0
 10
96.061846
 20
101.509092
 30
0.0
 10
95.511616
 20
101.206606
 30
0.0
 10
94.927806
 20
100.975410
 30
0.0
 10
94.319606
 20
100.819284
 30
0.0
 10
93.696706
 20
100.740601
 30
0.0
 10
93.068806
 20
100.740601
 30
0.0
  0
LWPOLYLINE
  5
107
100
AcDbEntity
  8
Ebene_1
 62
7
100
AcDbPolyline
 90
51
 70
0
 10
117.068706
 20
100.740601
 30
0.0
 10
116.445806
 20
100.819284
 30
0.0
 10
115.837606
 20
100.975410
 30
0.0
 10
115.253796
 20
101.206606
 30
0.0
 10
114.703566
 20
101.509092
 30
0.0
 10
114.195576
 20
101.878097
 30
0.0
 10
113.737856
 20
102.308007
 30
0.0
 10
113.337616
 20
102.791792
 30
0.0
 10
113.001156
 20
103.321890
 30
0.0
 10
112.733806
 20
103.890088
 30
0.0
 10
112.539776
 20
104.487298
 30
0.0
 10
112.422116
 20
105.104010
 30
0.0
 10
112.382706
 20
105.730685
 30
0.0
 10
112.422116
 20
106.357387
 30
0.0
 10
112.539776
 20
106.974184
 30
0.0
 10
112.733806
 20
107.571310
 30
0.0
 10
113.001156
 20
108.139508
 30
0.0
 10
113.337616
 20
108.669606
 30
0.0
 10
113.737856
 20
109.153391
 30
0.0
 10
114.195576
 20
109.583300
 30
0.0
 10
114.703566
 20
109.952306
 30
0.0
 10
115.253796
 20
110.254792
 30
0.0
 10
115.837606
 20
110.485988
 30
0.0
 10
116.445806
 20
110.642085
 30
0.0
 10
117.068706
 20
110.720797
 30
0.0
 10
117.696606
 20
110.720797
 30
0.0
 10
118.319606
 20
110.642085
 30
0.0
 10
118.927806
 20
110.485988
 30
0.0
 10
119.511606
 20
110.254792
 30
0.0
 10
120.061806
 20
109.952306
 30
0.0
 10
120.569806
 20
109.583300
 30
0.0
 10
121.027506
 20
109.153391
 30
0.0
 10
121.427806
 20
108.669606
 30
0.0
 10
121.764206
 20
108.139508
 30
0.0
 10
122.031606
 20
107.571310
 30
0.0
 10
122.225606
 20
106.974184
 30
0.0
 10
122.343306
 20
106.357387
 30
0.0
 10
122.382706
 20
105.730685
 30
0.0
 10
122.343306
 20
105.104010
 30
0.0
 10
122.225606
 20
104.487298
 30
0.0
 10
122.031606
 20
103.890088
 30
0.0
 10
121.764206
 20
103.321890
 30
0.0
 10
121.427806
 20
102.791792
 30
0.0
 10
121.027506
 20
102.308007
 30
0.0
 10
120.569806
 20
101.878097
 30
0.0
 10
120.061806
 20
101.509092
 30
0.0
 10
119.511606
 20
101.206606
 30
0.0
 10
118.927806
 20
100.975410
 30
0.0
 10
118.319606
 20
100.819284
 30
0.0
 10
117.696606
 20
100.740601
 30
0.0
 10
117.068706
 20
100.740601
 30
0.0
  0
LWPOLYLINE
  5
108
100
AcDbEntity
  8
Ebene_1
 62
7
100
AcDbPolyline
 90
5
 70
0
 10
90.382706
 20
89.230704
 30
0.0
 10
90.382706
 20
94.230694
 30
0.0
 10
120.382706
 20
94.230694
 30
0.0
 10
120.382706
 20
89.230704
 30
0.0
 10
90.382706
 20
89.230704
 30
0.0
  0
LWPOLYLINE
  5
109
100
AcDbEntity
  8
Ebene_1
 62
7
100
AcDbPolyline
 90
51
 70
0
 10
93.288506
 20
80.233685
 30
0.0
 10
93.101606
 20
80.257392
 30
0.0
 10
92.919206
 20
80.304099
 30
0.0
 10
92.744006
 20
80.373498
 30
0.0
 10
92.579006
 20
80.464204
 30
0.0
 10
92.426606
 20
80.574892
 30
0.0
 10
92.289306
 20
80.703895
 30
0.0
 10
92.169206
 20
80.848986
 30
0.0
 10
92.068206
 20
81.008103
 30
0.0
 10
91.988006
 20
81.178509
 30
0.0
 10
91.929806
 20
81.357691
 30
0.0
 10
91.894506
 20
81.542688
 30
0.0
 10
91.882706
 20
81.730705
 30
0.0
 10
91.894506
 20
81.918693
 30
0.0
 10
91.929806
 20
82.103689
 30
0.0
 10
91.988006
 20
82.282901
 30
0.0
 10
92.068206
 20
82.453306
 30
0.0
 10
92.169206
 20
82.612395
 30
0.0
 10
92.289306
 20
82.757485
 30
0.0
 10
92.426606
 20
82.886489
 30
0.0
 10
92.579006
 20
82.997205
 30
0.0
 10
92.744006
 20
83.087996
 30
0.0
 10
92.919206
 20
83.157310
 30
0.0
 10
93.101606
 20
83.204102
 30
0.0
 10
93.288506
 20
83.227809
 30
0.0
 10
93.476906
 20
83.227809
 30
0.0
 10
93.663806
 20
83.204102
 30
0.0
 10
93.846206
 20
83.157310
 30
0.0
 10
94.021406
 20
83.087996
 30
0.0
 10
94.186406
 20
82.997205
 30
0.0
 10
94.338806
 20
82.886489
 30
0.0
 10
94.476206
 20
82.757485
 30
0.0
 10
94.596206
 20
82.612395
 30
0.0
 10
94.697206
 20
82.453306
 30
0.0
 10
94.777406
 20
82.282901
 30
0.0
 10
94.835606
 20
82.103689
 30
0.0
 10
94.870906
 20
81.918693
 30
0.0
 10
94.882706
 20
81.730705
 30
0.0
 10
94.870907
 20
81.542688
 30
0.0
 10
94.835606
 20
81.357691
 30
0.0
 10
94.777406
 20
81.178509
 30
0.0
 10
94.697206
 20
81.008103
 30
0.0
 10
94.596206
 20
80.848986
 30
0.0
 10
94.476206
 20
80.703895
 30
0.0
 10
94.338806
 20
80.574892
 30
0.0
 10
94.186406
 20
80.464204
 30
0.0
 10
94.021406
 20
80.373498
 30
0.0
 10
93.846206
 20
80.304099
 30
0.0
 10
93.663806
 20
80.257307
 30
0.0
 10
93.476906
 20
80.233600
 30
0.0
 10
93.288506
 20
80.233685
 30
0.0
  0
LWPOLYLINE
  5
10a
100
AcDbEntity
  8
Ebene_1
 62
7
100
AcDbPolyline
 90
51
 70
0
 10
117.288506
 20
80.233685
 30
0.0
 10
117.101606
 20
80.257392
 30
0.0
 10
116.919206
 20
80.304099
 30
0.0
 10
116.744006
 20
80.373498
 30
0.0
 10
116.579006
 20
80.464204
 30
0.0
 10
116.426606
 20
80.574892
 30
0.0
 10
116.289206
 20
80.703895
 30
0.0
 10
116.169206
 20
80.848986
 30
0.0
 10
116.068206
 20
81.008103
 30
0.0
 10
115.988006
 20
81.178509
 30
0.0
 10
115.929806
 20
81.357691
 30
0.0
 10
115.894506
 20
81.542688
 30
0.0
 10
115.882706
 20
81.730705
 30
0.0
 10
115.894506
 20
81.918693
 30
0.0
 10
115.929806
 20
82.103689
 30
0.0
 10
115.988006
 20
82.282901
 30
0.0
 10
116.068206
 20
82.453306
 30
0.0
 10
116.169206
 20
82.612395
 30
0.0
 10
116.289206
 20
82.757485
 30
0.0
 10
116.426606
 20
82.886489
 30
0.0
 10
116.579006
 20
82.997205
 30
0.0
 10
116.744006
 20
83.087996
 30
0.0
 10
116.919206
 20
83.157310
 30
0.0
 10
117.101606
 20
83.204102
 30
0.0
 10
117.288506
 20
83.227809
 30
0.0
 10
117.476906
 20
83.227809
 30
0.0
 10
117.663806
 20
83.204102
 30
0.0
 10
117.846206
 20
83.157310
 30
0.0
 10
118.021406
 20
83.087996
 30
0.0
 10
118.186406
 20
82.997205
 30
0.0
 10
118.338806
 20
82.886489
 30
0.0
 10
118.476106
 20
82.757485
 30
0.0
 10
118.596206
 20
82.612395
 30
0.0
 10
118.697206
 20
82.453306
 30
0.0
 10
118.777406
 20
82.282901
 30
0.0
 10
118.835606
 20
82.103689
 30
0.0
 10
118.870906
 20
81.918693
 30
0.0
 10
118.882706
 20
81.730705
 30
0.0
 10
118.870907
 20
81.542688
 30
0.0
 10
118.835606
 20
81.357691
 30
0.0
 10
118.777406
 20
81.178509
 30
0.0
 10
118.697206
 20
81.008103
 30
0.0
 10
118.596206
 20
80.848986
 30
0.0
 10
118.476106
 20
80.703895
 30
0.0
 10
118.338806
 20
80.574892
 30
0.0
 10
118.186406
 20
80.464204
 30
0.0
 10
118.021406
 20
80.373498
 30
0.0
 10
117.846206
 20
80.304099
 30
0.0
 10
117.663806
 20
80.257307
 30
0.0
 10
117.476906
 20
80.233600
 30
0.0
 10
117.288506
 20
80.233685
 30
0.0
  0
LWPOLYLINE
  5
10b
100
AcDbEntity
  8
Ebene_1
 62
7
100
AcDbPolyline
 90
12
 70
0
 10
82.882706
 20
176.730698
 30
0.0
 10
37.882706
 20
176.730698
 30
0.0
 10
37.882706
 20
164.730697
 30
0.0
 10
73.382706
 20
164.730697
 30
0.0
 10
73.382706
 20
156.730699
 30
0.0
 10
37.882706
 20
156.730699
 30
0.0
 10
37.882706
 20
96.730703
 30
0.0
 10
73.382706
 20
96.730703
 30
0.0
 10
73.382706
 20
88.730691
 30
0.0
 10
37.882706
 20
88.730691
 30
0.0
 10
37.882706
 20
76.730686
 30
0.0
 10
82.882706
 20
76.730686
 30
0.0
  0
LWPOLYLINE
  5
10c
100
AcDbEntity
  8
Ebene_1
 62
7
100
AcDbPolyline
 90
51
 70
0
 10
48.288506
 20
170.233598
 30
0.0
 10
48.101606
 20
170.257305
 30
0.0
 10
47.919206
 20
170.304097
 30
0.0
 10
47.744006
 20
170.373397
 30
0.0
 10
47.579006
 20
170.464199
 30
0.0
 10
47.426606
 20
170.574898
 30
0.0
 10
47.289306
 20
170.703899
 30
0.0
 10
47.169206
 20
170.848998
 30
0.0
 10
47.068206
 20
171.008098
 30
0.0
 10
46.988006
 20
171.178498
 30
0.0
 10
46.929806
 20
171.357698
 30
0.0
 10
46.894506
 20
171.542697
 30
0.0
 10
46.882706
 20
171.730697
 30
0.0
 10
46.894506
 20
171.918699
 30
0.0
 10
46.929806
 20
172.103699
 30
0.0
 10
46.988006
 20
172.282898
 30
0.0
 10
47.068206
 20
172.453299
 30
0.0
 10
47.169206
 20
172.612398
 30
0.0
 10
47.289306
 20
172.757497
 30
0.0
 10
47.426606
 20
172.886498
 30
0.0
 10
47.579006
 20
172.997197
 30
0.0
 10
47.744006
 20
173.087898
 30
0.0
 10
47.919206
 20
173.157299
 30
0.0
 10
48.101606
 20
173.204097
 30
0.0
 10
48.288506
 20
173.227691
 30
0.0
 10
48.476906
 20
173.227699
 30
0.0
 10
48.663806
 20
173.204106
 30
0.0
 10
48.846206
 20
173.157299
 30
0.0
 10
49.021406
 20
173.087898
 30
0.0
 10
49.186406
 20
172.997197
 30
0.0
 10
49.338806
 20
172.886498
 30
0.0
 10
49.476206
 20
172.757497
 30
0.0
 10
49.596206
 20
172.612398
 30
0.0
 10
49.697206
 20
172.453299
 30
0.0
 10
49.777406
 20
172.282898
 30
0.0
 10
49.835606
 20
172.103699
 30
0.0
 10
49.870906
 20
171.918699
 30
0.0
 10
49.882706
 20
171.730697
 30
0.0
 10
49.870906
 20
171.542697
 30
0.0
 10
49.835606
 20
171.357698
 30
0.0
 10
49.777406
 20
171.178498
 30
0.0
 10
49.697206
 20
171.008098
 30
0.0
 10
49.596206
 20
170.848998
 30
0.0
 10
49.476206
 20
170.703899
 30
0.0
 10
49.338806
 20
170.574898
 30
0.0
 10
49.186406
 20
170.464199
 30
0.0
 10
49.021406
 20
170.373397
 30
0.0
 10
48.846206
 20
170.304097
 30
0.0
 10
48.663806
 20
170.257299
 30
0.0
 10
48.476906
 20
170.233593
 30
0.0
 10
48.288506
 20
170.233598
 30
0.0
  0
LWPOLYLINE
  5
10d
100
AcDbEntity
  8
Ebene_1
 62
7
100
AcDbPolyline
 90
51
 70
0
 10
72.288506
 20
170.233598
 30
0.0
 10
72.101606
 20
170.257305
 30
0.0
 10
71.919206
 20
170.304097
 30
0.0
 10
71.744006
 20
170.373397
 30
0.0
 10
71.579006
 20
170.464199
 30
0.0
 10
71.426606
 20
170.574898
 30
0.0
 10
71.289206
 20
170.703899
 30
0.0
 10
71.169206
 20
170.848998
 30
0.0
 10
71.068206
 20
171.008098
 30
0.0
 10
70.988006
 20
171.178498
 30
0.0
 10
70.929806
 20
171.357698
 30
0.0
 10
70.894506
 20
171.542697
 30
0.0
 10
70.882706
 20
171.730697
 30
0.0
 10
70.894506
 20
171.918699
 30
0.0
 10
70.929806
 20
172.103699
 30
0.0
 10
70.988006
 20
172.282898
 30
0.0
 10
71.068206
 20
172.453299
 30
0.0
 10
71.169206
 20
172.612398
 30
0.0
 10
71.289206
 20
172.757497
 30
0.0
 10
71.426606
 20
172.886498
 30
0.0
 10
71.579006
 20
172.997197
 30
0.0
 10
71.744006
 20
173.087898
 30
0.0
 10
71.919206
 20
173.157299
 30
0.0
 10
72.101606
 20
173.204097
 30
0.0
 10
72.288506
 20
173.227691
 30
0.0
 10
72.476906
 20
173.227699
 30
0.0
 10
72.663806
 20
173.204106
 30
0.0
 10
72.846206
 20
173.157299
 30
0.0
 10
73.021406
 20
173.087898
 30
0.0
 10
73.186406
 20
172.997197
 30
0.0
 10
73.338806
 20
172.886498
 30
0.0
 10
73.476106
 20
172.757497
 30
0.0
 10
73.596206
 20
172.612398
 30
0.0
 10
73.697206
 20
172.453299
 30
0.0
 10
73.777406
 20
172.282898
 30
0.0
 10
73.835606
 20
172.103699
 30
0.0
 10
73.870906
 20
171.918699
 30
0.0
 10
73.882706
 20
171.730697
 30
0.0
 10
73.870906
 20
171.542697
 30
0.0
 10
73.835606
 20
171.357698
 30
0.0
 10
73.777406
 20
171.178498
 30
0.0
 10
73.697206
 20
171.008098
 30
0.0
 10
73.596206
 20
170.848998
 30
0.0
 10
73.476106
 20
170.703899
 30
0.0
 10
73.338806
 20
170.574898
 30
0.0
 10
73.186406
 20
170.464199
 30
0.0
 10
73.021406
 20
170.373397
 30
0.0
 10
72.846206
 20
170.304097
 30
0.0
 10
72.663806
 20
170.257299
 30
0.0
 10
72.476906
 20
170.233593
 30
0.0
 10
72.288506
 20
170.233598
 30
0.0
  0
LWPOLYLINE
  5
10e
100
AcDbEntity
  8
Ebene_1
 62
7
100
AcDbPolyline
 90
51
 70
0
 10
48.225706
 20
145.235598
 30
0.0
 10
47.914306
 20
145.274999
 30
0.0
 10
47.610206
 20
145.352997
 30
0.0
 10
47.318306
 20
145.468598
 30
0.0
 10
47.043106
 20
145.619897
 30
0.0
 10
46.789106
 20
145.804397
 30
0.0
 10
46.560306
 20
146.019298
 30
0.0
 10
46.360206
 20
146.261197
 30
0.0
 10
46.191906
 20
146.526296
 30
0.0
 10
46.058306
 20
146.810398
 30
0.0
 10
45.961306
 20
147.108998
 30
0.0
 10
45.902406
 20
147.417399
 30
0.0
 10
45.882707
 20
147.730697
 30
0.0
 10
45.902405
 20
148.043997
 30
0.0
 10
45.961306
 20
148.352398
 30
0.0
 10
46.058306
 20
148.650998
 30
0.0
 10
46.191906
 20
148.935097
 30
0.0
 10
46.360206
 20
149.200197
 30
0.0
 10
46.560306
 20
149.442098
 30
0.0
 10
46.789106
 20
149.656999
 30
0.0
 10
47.043106
 20
149.841499
 30
0.0
 10
47.318306
 20
149.992798
 30
0.0
 10
47.610206
 20
150.108298
 30
0.0
 10
47.914306
 20
150.186397
 30
0.0
 10
48.225706
 20
150.225798
 30
0.0
 10
48.539706
 20
150.225798
 30
0.0
 10
48.851206
 20
150.186397
 30
0.0
 10
49.155306
 20
150.108298
 30
0.0
 10
49.447206
 20
149.992798
 30
0.0
 10
49.722306
 20
149.841499
 30
0.0
 10
49.976306
 20
149.656999
 30
0.0
 10
50.205106
 20
149.442098
 30
0.0
 10
50.405256
 20
149.200197
 30
0.0
 10
50.573486
 20
148.935097
 30
0.0
 10
50.707156
 20
148.650998
 30
0.0
 10
50.804166
 20
148.352398
 30
0.0
 10
50.863006
 20
148.043997
 30
0.0
 10
50.882705
 20
147.730697
 30
0.0
 10
50.863007
 20
147.417399
 30
0.0
 10
50.804166
 20
147.108998
 30
0.0
 10
50.707156
 20
146.810398
 30
0.0
 10
50.573486
 20
146.526296
 30
0.0
 10
50.405256
 20
146.261197
 30
0.0
 10
50.205106
 20
146.019298
 30
0.0
 10
49.976306
 20
145.804397
 30
0.0
 10
49.722306
 20
145.619897
 30
0.0
 10
49.447206
 20
145.468598
 30
0.0
 10
49.155306
 20
145.352997
 30
0.0
 10
48.851206
 20
145.274999
 30
0.0
 10
48.539706
 20
145.235598
 30
0.0
 10
48.225706
 20
145.235598
 30
0.0
  0
LWPOLYLINE
  5
10f
100
AcDbEntity
  8
Ebene_1
 62
7
100
AcDbPolyline
 90
51
 70
0
 10
72.225706
 20
145.235598
 30
0.0
 10
71.914206
 20
145.274999
 30
0.0
 10
71.610106
 20
145.352997
 30
0.0
 10
71.318206
 20
145.468598
 30
0.0
 10
71.043106
 20
145.619897
 30
0.0
 10
70.789106
 20
145.804397
 30
0.0
 10
70.560306
 20
146.019298
 30
0.0
 10
70.360156
 20
146.261197
 30
0.0
 10
70.191926
 20
146.526296
 30
0.0
 10
70.058256
 20
146.810398
 30
0.0
 10
69.961246
 20
147.108998
 30
0.0
 10
69.902406
 20
147.417399
 30
0.0
 10
69.882707
 20
147.730697
 30
0.0
 10
69.902405
 20
148.043997
 30
0.0
 10
69.961246
 20
148.352398
 30
0.0
 10
70.058256
 20
148.650998
 30
0.0
 10
70.191926
 20
148.935097
 30
0.0
 10
70.360156
 20
149.200197
 30
0.0
 10
70.560306
 20
149.442098
 30
0.0
 10
70.789106
 20
149.656999
 30
0.0
 10
71.043106
 20
149.841499
 30
0.0
 10
71.318206
 20
149.992798
 30
0.0
 10
71.610106
 20
150.108298
 30
0.0
 10
71.914206
 20
150.186397
 30
0.0
 10
72.225706
 20
150.225798
 30
0.0
 10
72.539706
 20
150.225798
 30
0.0
 10
72.851106
 20
150.186397
 30
0.0
 10
73.155206
 20
150.108298
 30
0.0
 10
73.447106
 20
149.992798
 30
0.0
 10
73.722306
 20
149.841499
 30
0.0
 10
73.976306
 20
149.656999
 30
0.0
 10
74.205106
 20
149.442098
 30
0.0
 10
74.405206
 20
149.200197
 30
0.0
 10
74.573506
 20
148.935097
 30
0.0
 10
74.707106
 20
148.650998
 30
0.0
 10
74.804106
 20
148.352398
 30
0.0
 10
74.863006
 20
148.043997
 30
0.0
 10
74.882705
 20
147.730697
 30
0.0
 10
74.863007
 20
147.417399
 30
0.0
 10
74.804106
 20
147.108998
 30
0.0
 10
74.707106
 20
146.810398
 30
0.0
 10
74.573506
 20
146.526296
 30
0.0
 10
74.405206
 20
146.261197
 30
0.0
 10
74.205106
 20
146.019298
 30
0.0
 10
73.976306
 20
145.804397
 30
0.0
 10
73.722306
 20
145.619897
 30
0.0
 10
73.447106
 20
145.468598
 30
0.0
 10
73.155206
 20
145.352997
 30
0.0
 10
72.851106
 20
145.274999
 30
0.0
 10
72.539706
 20
145.235598
 30
0.0
 10
72.225706
 20
145.235598
 30
0.0
  0
LWPOLYLINE
  5
110
100
AcDbEntity
  8
Ebene_1
 62
7
100
AcDbPolyline
 90
51
 70
0
 10
48.225706
 20
103.235586
 30
0.0
 10
47.914306
 20
103.274985
 30
0.0
 10
47.610206
 20
103.353104
 30
0.0
 10
47.318306
 20
103.468589
 30
0.0
 10
47.043106
 20
103.619888
 30
0.0
 10
46.789106
 20
103.804405
 30
0.0
 10
46.560306
 20
104.019289
 30
0.0
 10
46.360206
 20
104.261210
 30
0.0
 10
46.191906
 20
104.526301
 30
0.0
 10
46.058306
 20
104.810386
 30
0.0
 10
45.961306
 20
105.109006
 30
0.0
 10
45.902406
 20
105.417390
 30
0.0
 10
45.882707
 20
105.730685
 30
0.0
 10
45.902405
 20
106.044008
 30
0.0
 10
45.961306
 20
106.352392
 30
0.0
 10
46.058306
 20
106.651011
 30
0.0
 10
46.191906
 20
106.935096
 30
0.0
 10
46.360206
 20
107.200188
 30
0.0
 10
46.560306
 20
107.442109
 30
0.0
 10
46.789106
 20
107.656993
 30
0.0
 10
47.043106
 20
107.841509
 30
0.0
 10
47.318306
 20
107.992809
 30
0.0
 10
47.610206
 20
108.108407
 30
0.0
 10
47.914306
 20
108.186385
 30
0.0
 10
48.225706
 20
108.225811
 30
0.0
 10
48.539706
 20
108.225811
 30
0.0
 10
48.851206
 20
108.186385
 30
0.0
 10
49.155306
 20
108.108407
 30
0.0
 10
49.447206
 20
107.992809
 30
0.0
 10
49.722306
 20
107.841509
 30
0.0
 10
49.976306
 20
107.656993
 30
0.0
 10
50.205106
 20
107.442109
 30
0.0
 10
50.405256
 20
107.200188
 30
0.0
 10
50.573486
 20
106.935096
 30
0.0
 10
50.707156
 20
106.651011
 30
0.0
 10
50.804166
 20
106.352392
 30
0.0
 10
50.863006
 20
106.044008
 30
0.0
 10
50.882705
 20
105.730685
 30
0.0
 10
50.863007
 20
105.417390
 30
0.0
 10
50.804166
 20
105.109006
 30
0.0
 10
50.707156
 20
104.810386
 30
0.0
 10
50.573486
 20
104.526301
 30
0.0
 10
50.405256
 20
104.261210
 30
0.0
 10
50.205106
 20
104.019289
 30
0.0
 10
49.976306
 20
103.804405
 30
0.0
 10
49.722306
 20
103.619888
 30
0.0
 10
49.447206
 20
103.468589
 30
0.0
 10
49.155306
 20
103.353104
 30
0.0
 10
48.851206
 20
103.274985
 30
0.0
 10
48.539706
 20
103.235586
 30
0.0
 10
48.225706
 20
103.235586
 30
0.0
  0
LWPOLYLINE
  5
111
100
AcDbEntity
  8
Ebene_1
 62
7
100
AcDbPolyline
 90
51
 70
0
 10
72.225706
 20
103.235586
 30
0.0
 10
71.914206
 20
103.274985
 30
0.0
 10
71.610106
 20
103.353104
 30
0.0
 10
71.318206
 20
103.468589
 30
0.0
 10
71.043106
 20
103.619888
 30
0.0
 10
70.789106
 20
103.804405
 30
0.0
 10
70.560306
 20
104.019289
 30
0.0
 10
70.360156
 20
104.261210
 30
0.0
 10
70.191926
 20
104.526301
 30
0.0
 10
70.058256
 20
104.810386
 30
0.0
 10
69.961246
 20
105.109006
 30
0.0
 10
69.902406
 20
105.417390
 30
0.0
 10
69.882707
 20
105.730685
 30
0.0
 10
69.902405
 20
106.044008
 30
0.0
 10
69.961246
 20
106.352392
 30
0.0
 10
70.058256
 20
106.651011
 30
0.0
 10
70.191926
 20
106.935096
 30
0.0
 10
70.360156
 20
107.200188
 30
0.0
 10
70.560306
 20
107.442109
 30
0.0
 10
70.789106
 20
107.656993
 30
0.0
 10
71.043106
 20
107.841509
 30
0.0
 10
71.318206
 20
107.992809
 30
0.0
 10
71.610106
 20
108.108407
 30
0.0
 10
71.914206
 20
108.186385
 30
0.0
 10
72.225706
 20
108.225811
 30
0.0
 10
72.539706
 20
108.225811
 30
0.0
 10
72.851106
 20
108.186385
 30
0.0
 10
73.155206
 20
108.108407
 30
0.0
 10
73.447106
 20
107.992809
 30
0.0
 10
73.722306
 20
107.841509
 30
0.0
 10
73.976306
 20
107.656993
 30
0.0
 10
74.205106
 20
107.442109
 30
0.0
 10
74.405206
 20
107.200188
 30
0.0
 10
74.573506
 20
106.935096
 30
0.0
 10
74.707106
 20
106.651011
 30
0.0
 10
74.804106
 20
106.352392
 30
0.0
 10
74.863006
 20
106.044008
 30
0.0
 10
74.882705
 20
105.730685
 30
0.0
 10
74.863007
 20
105.417390
 30
0.0
 10
74.804106
 20
105.109006
 30
0.0
 10
74.707106
 20
104.810386
 30
0.0
 10
74.573506
 20
104.526301
 30
0.0
 10
74.405206
 20
104.261210
 30
0.0
 10
74.205106
 20
104.019289
 30
0.0
 10
73.976306
 20
103.804405
 30
0.0
 10
73.722306
 20
103.619888
 30
0.0
 10
73.447106
 20
103.468589
 30
0.0
 10
73.155206
 20
103.353104
 30
0.0
 10
72.851106
 20
103.274985
 30
0.0
 10
72.539706
 20
103.235586
 30
0.0
 10
72.225706
 20
103.235586
 30
0.0
  0
LWPOLYLINE
  5
112
100
AcDbEntity
  8
Ebene_1
 62
7
100
AcDbPolyline
 90
51
 70
0
 10
48.288506
 20
80.233685
 30
0.0
 10
48.101606
 20
80.257392
 30
0.0
 10
47.919206
 20
80.304099
 30
0.0
 10
47.744006
 20
80.373498
 30
0.0
 10
47.579006
 20
80.464204
 30
0.0
 10
47.426606
 20
80.574892
 30
0.0
 10
47.289306
 20
80.703895
 30
0.0
 10
47.169206
 20
80.848986
 30
0.0
 10
47.068206
 20
81.008103
 30
0.0
 10
46.988006
 20
81.178509
 30
0.0
 10
46.929806
 20
81.357691
 30
0.0
 10
46.894506
 20
81.542688
 30
0.0
 10
46.882706
 20
81.730705
 30
0.0
 10
46.894506
 20
81.918693
 30
0.0
 10
46.929806
 20
82.103689
 30
0.0
 10
46.988006
 20
82.282901
 30
0.0
 10
47.068206
 20
82.453306
 30
0.0
 10
47.169206
 20
82.612395
 30
0.0
 10
47.289306
 20
82.757485
 30
0.0
 10
47.426606
 20
82.886489
 30
0.0
 10
47.579006
 20
82.997205
 30
0.0
 10
47.744006
 20
83.087996
 30
0.0
 10
47.919206
 20
83.157310
 30
0.0
 10
48.101606
 20
83.204102
 30
0.0
 10
48.288506
 20
83.227809
 30
0.0
 10
48.476906
 20
83.227809
 30
0.0
 10
48.663806
 20
83.204102
 30
0.0
 10
48.846206
 20
83.157310
 30
0.0
 10
49.021406
 20
83.087996
 30
0.0
 10
49.186406
 20
82.997205
 30
0.0
 10
49.338806
 20
82.886489
 30
0.0
 10
49.476206
 20
82.757485
 30
0.0
 10
49.596206
 20
82.612395
 30
0.0
 10
49.697206
 20
82.453306
 30
0.0
 10
49.777406
 20
82.282901
 30
0.0
 10
49.835606
 20
82.103689
 30
0.0
 10
49.870906
 20
81.918693
 30
0.0
 10
49.882706
 20
81.730705
 30
0.0
 10
49.870906
 20
81.542688
 30
0.0
 10
49.835606
 20
81.357691
 30
0.0
 10
49.777406
 20
81.178509
 30
0.0
 10
49.697206
 20
81.008103
 30
0.0
 10
49.596206
 20
80.848986
 30
0.0
 10
49.476206
 20
80.703895
 30
0.0
 10
49.338806
 20
80.574892
 30
0.0
 10
49.186406
 20
80.464204
 30
0.0
 10
49.021406
 20
80.373498
 30
0.0
 10
48.846206
 20
80.304099
 30
0.0
 10
48.663806
 20
80.257307
 30
0.0
 10
48.476906
 20
80.233600
 30
0.0
 10
48.288506
 20
80.233685
 30
0.0
  0
LWPOLYLINE
  5
113
100
AcDbEntity
  8
Ebene_1
 62
7
100
AcDbPolyline
 90
51
 70
0
 10
72.288506
 20
80.233685
 30
0.0
 10
72.101606
 20
80.257392
 30
0.0
 10
71.919206
 20
80.304099
 30
0.0
 10
71.744006
 20
80.373498
 30
0.0
 10
71.579006
 20
80.464204
 30
0.0
 10
71.426606
 20
80.574892
 30
0.0
 10
71.289206
 20
80.703895
 30
0.0
 10
71.169206
 20
80.848986
 30
0.0
 10
71.068206
 20
81.008103
 30
0.0
 10
70.988006
 20
81.178509
 30
0.0
 10
70.929806
 20
81.357691
 30
0.0
 10
70.894506
 20
81.542688
 30
0.0
 10
70.882706
 20
81.730705
 30
0.0
 10
70.894506
 20
81.918693
 30
0.0
 10
70.929806
 20
82.103689
 30
0.0
 10
70.988006
 20
82.282901
 30
0.0
 10
71.068206
 20
82.453306
 30
0.0
 10
71.169206
 20
82.612395
 30
0.0
 10
71.289206
 20
82.757485
 30
0.0
 10
71.426606
 20
82.886489
 30
0.0
 10
71.579006
 20
82.997205
 30
0.0
 10
71.744006
 20
83.087996
 30
0.0
 10
71.919206
 20
83.157310
 30
0.0
 10
72.101606
 20
83.204102
 30
0.0
 10
72.288506
 20
83.227809
 30
0.0
 10
72.476906
 20
83.227809
 30
0.0
 10
72.663806
 20
83.204102
 30
0.0
 10
72.846206
 20
83.157310
 30
0.0
 10
73.021406
 20
83.087996
 30
0.0
 10
73.186406
 20
82.997205
 30
0.0
 10
73.338806
 20
82.886489
 30
0.0
 10
73.476106
 20
82.757485
 30
0.0
 10
73.596206
 20
82.612395
 30
0.0
 10
73.697206
 20
82.453306
 30
0.0
 10
73.777406
 20
82.282901
 30
0.0
 10
73.835606
 20
82.103689
 30
0.0
 10
73.870906
 20
81.918693
 30
0.0
 10
73.882706
 20
81.730705
 30
0.0
 10
73.870906
 20
81.542688
 30
0.0
 10
73.835606
 20
81.357691
 30
0.0
 10
73.777406
 20
81.178509
 30
0.0
 10
73.697206
 20
81.008103
 30
0.0
 10
73.596206
 20
80.848986
 30
0.0
 10
73.476106
 20
80.703895
 30
0.0
 10
73.338806
 20
80.574892
 30
0.0
 10
73.186406
 20
80.464204
 30
0.0
 10
73.021406
 20
80.373498
 30
0.0
 10
72.846206
 20
80.304099
 30
0.0
 10
72.663806
 20
80.257307
 30
0.0
 10
72.476906
 20
80.233600
 30
0.0
 10
72.288506
 20
80.233685
 30
0.0
  0
LWPOLYLINE
  5
114
100
AcDbEntity
  8
Ebene_1
 62
7
100
AcDbPolyline
 90
8
 70
0
 10
127.882707
 20
76.730686
 30
0.0
 10
187.382706
 20
76.730686
 30
0.0
 10
187.382706
 20
96.730703
 30
0.0
 10
172.882706
 20
96.730703
 30
0.0
 10
172.882706
 20
156.730699
 30
0.0
 10
187.382706
 20
156.730699
 30
0.0
 10
187.382706
 20
176.730698
 30
0.0
 10
127.882707
 20
176.730698
 30
0.0
  0
LWPOLYLINE
  5
115
100
AcDbEntity
  8
Ebene_1
 62
7
100
AcDbPolyline
 90
51
 70
0
 10
138.288506
 20
170.233598
 30
0.0
 10
138.101607
 20
170.257305
 30
0.0
 10
137.919207
 20
170.304097
 30
0.0
 10
137.744007
 20
170.373397
 30
0.0
 10
137.579007
 20
170.464199
 30
0.0
 10
137.426607
 20
170.574898
 30
0.0
 10
137.289307
 20
170.703899
 30
0.0
 10
137.169207
 20
170.848998
 30
0.0
 10
137.068207
 20
171.008098
 30
0.0
 10
136.988007
 20
171.178498
 30
0.0
 10
136.929807
 20
171.357698
 30
0.0
 10
136.894507
 20
171.542697
 30
0.0
 10
136.882707
 20
171.730697
 30
0.0
 10
136.894506
 20
171.918699
 30
0.0
 10
136.929807
 20
172.103699
 30
0.0
 10
136.988007
 20
172.282898
 30
0.0
 10
137.068207
 20
172.453299
 30
0.0
 10
137.169207
 20
172.612398
 30
0.0
 10
137.289307
 20
172.757497
 30
0.0
 10
137.426607
 20
172.886498
 30
0.0
 10
137.579007
 20
172.997197
 30
0.0
 10
137.744007
 20
173.087898
 30
0.0
 10
137.919207
 20
173.157299
 30
0.0
 10
138.101607
 20
173.204097
 30
0.0
 10
138.288506
 20
173.227691
 30
0.0
 10
138.476906
 20
173.227699
 30
0.0
 10
138.663807
 20
173.204106
 30
0.0
 10
138.846207
 20
173.157299
 30
0.0
 10
139.021407
 20
173.087898
 30
0.0
 10
139.186407
 20
172.997197
 30
0.0
 10
139.338807
 20
172.886498
 30
0.0
 10
139.476207
 20
172.757497
 30
0.0
 10
139.596207
 20
172.612398
 30
0.0
 10
139.697207
 20
172.453299
 30
0.0
 10
139.777407
 20
172.282898
 30
0.0
 10
139.835607
 20
172.103699
 30
0.0
 10
139.870907
 20
171.918699
 30
0.0
 10
139.882706
 20
171.730697
 30
0.0
 10
139.870907
 20
171.542697
 30
0.0
 10
139.835607
 20
171.357698
 30
0.0
 10
139.777407
 20
171.178498
 30
0.0
 10
139.697207
 20
171.008098
 30
0.0
 10
139.596207
 20
170.848998
 30
0.0
 10
139.476207
 20
170.703899
 30
0.0
 10
139.338807
 20
170.574898
 30
0.0
 10
139.186407
 20
170.464199
 30
0.0
 10
139.021407
 20
170.373397
 30
0.0
 10
138.846207
 20
170.304097
 30
0.0
 10
138.663807
 20
170.257299
 30
0.0
 10
138.476906
 20
170.233593
 30
0.0
 10
138.288506
 20
170.233598
 30
0.0
  0
LWPOLYLINE
  5
116
100
AcDbEntity
  8
Ebene_1
 62
7
100
AcDbPolyline
 90
51
 70
0
 10
162.288507
 20
170.233598
 30
0.0
 10
162.101606
 20
170.257305
 30
0.0
 10
161.919207
 20
170.304097
 30
0.0
 10
161.744007
 20
170.373397
 30
0.0
 10
161.579007
 20
170.464199
 30
0.0
 10
161.426607
 20
170.574898
 30
0.0
 10
161.289207
 20
170.703899
 30
0.0
 10
161.169207
 20
170.848998
 30
0.0
 10
161.068207
 20
171.008098
 30
0.0
 10
160.988007
 20
171.178498
 30
0.0
 10
160.929807
 20
171.357698
 30
0.0
 10
160.894506
 20
171.542697
 30
0.0
 10
160.882707
 20
171.730697
 30
0.0
 10
160.894506
 20
171.918699
 30
0.0
 10
160.929807
 20
172.103699
 30
0.0
 10
160.988007
 20
172.282898
 30
0.0
 10
161.068207
 20
172.453299
 30
0.0
 10
161.169207
 20
172.612398
 30
0.0
 10
161.289207
 20
172.757497
 30
0.0
 10
161.426607
 20
172.886498
 30
0.0
 10
161.579007
 20
172.997197
 30
0.0
 10
161.744007
 20
173.087898
 30
0.0
 10
161.919207
 20
173.157299
 30
0.0
 10
162.101606
 20
173.204097
 30
0.0
 10
162.288507
 20
173.227691
 30
0.0
 10
162.476907
 20
173.227699
 30
0.0
 10
162.663807
 20
173.204106
 30
0.0
 10
162.846207
 20
173.157299
 30
0.0
 10
163.021407
 20
173.087898
 30
0.0
 10
163.186407
 20
172.997197
 30
0.0
 10
163.338807
 20
172.886498
 30
0.0
 10
163.476107
 20
172.757497
 30
0.0
 10
163.596207
 20
172.612398
 30
0.0
 10
163.697207
 20
172.453299
 30
0.0
 10
163.777406
 20
172.282898
 30
0.0
 10
163.835607
 20
172.103699
 30
0.0
 10
163.870907
 20
171.918699
 30
0.0
 10
163.882706
 20
171.730697
 30
0.0
 10
163.870907
 20
171.542697
 30
0.0
 10
163.835607
 20
171.357698
 30
0.0
 10
163.777406
 20
171.178498
 30
0.0
 10
163.697207
 20
171.008098
 30
0.0
 10
163.596207
 20
170.848998
 30
0.0
 10
163.476107
 20
170.703899
 30
0.0
 10
163.338807
 20
170.574898
 30
0.0
 10
163.186407
 20
170.464199
 30
0.0
 10
163.021407
 20
170.373397
 30
0.0
 10
162.846207
 20
170.304097
 30
0.0
 10
162.663807
 20
170.257299
 30
0.0
 10
162.476907
 20
170.233593
 30
0.0
 10
162.288507
 20
170.233598
 30
0.0
  0
LWPOLYLINE
  5
117
100
AcDbEntity
  8
Ebene_1
 62
7
100
AcDbPolyline
 90
5
 70
0
 10
176.882707
 20
165.480699
 30
0.0
 10
176.882707
 20
167.980697
 30
0.0
 10
183.882707
 20
167.980697
 30
0.0
 10
183.882707
 20
165.480699
 30
0.0
 10
176.882707
 20
165.480699
 30
0.0
  0
LWPOLYLINE
  5
118
100
AcDbEntity
  8
Ebene_1
 62
7
100
AcDbPolyline
 90
51
 70
0
 10
138.225707
 20
145.235598
 30
0.0
 10
137.914307
 20
145.274999
 30
0.0
 10
137.610207
 20
145.352997
 30
0.0
 10
137.318307
 20
145.468598
 30
0.0
 10
137.043107
 20
145.619897
 30
0.0
 10
136.789107
 20
145.804397
 30
0.0
 10
136.560307
 20
146.019298
 30
0.0
 10
136.360206
 20
146.261197
 30
0.0
 10
136.191907
 20
146.526296
 30
0.0
 10
136.058307
 20
146.810398
 30
0.0
 10
135.961307
 20
147.108998
 30
0.0
 10
135.902406
 20
147.417399
 30
0.0
 10
135.882707
 20
147.730697
 30
0.0
 10
135.902406
 20
148.043997
 30
0.0
 10
135.961307
 20
148.352398
 30
0.0
 10
136.058307
 20
148.650998
 30
0.0
 10
136.191907
 20
148.935097
 30
0.0
 10
136.360206
 20
149.200197
 30
0.0
 10
136.560307
 20
149.442098
 30
0.0
 10
136.789107
 20
149.656999
 30
0.0
 10
137.043107
 20
149.841499
 30
0.0
 10
137.318307
 20
149.992798
 30
0.0
 10
137.610207
 20
150.108298
 30
0.0
 10
137.914307
 20
150.186397
 30
0.0
 10
138.225707
 20
150.225798
 30
0.0
 10
138.539707
 20
150.225798
 30
0.0
 10
138.851207
 20
150.186397
 30
0.0
 10
139.155307
 20
150.108298
 30
0.0
 10
139.447206
 20
149.992798
 30
0.0
 10
139.722307
 20
149.841499
 30
0.0
 10
139.976307
 20
149.656999
 30
0.0
 10
140.205107
 20
149.442098
 30
0.0
 10
140.405257
 20
149.200197
 30
0.0
 10
140.573487
 20
148.935097
 30
0.0
 10
140.707157
 20
148.650998
 30
0.0
 10
140.804167
 20
148.352398
 30
0.0
 10
140.863007
 20
148.043997
 30
0.0
 10
140.882706
 20
147.730697
 30
0.0
 10
140.863008
 20
147.417399
 30
0.0
 10
140.804167
 20
147.108998
 30
0.0
 10
140.707157
 20
146.810398
 30
0.0
 10
140.573487
 20
146.526296
 30
0.0
 10
140.405257
 20
146.261197
 30
0.0
 10
140.205107
 20
146.019298
 30
0.0
 10
139.976307
 20
145.804397
 30
0.0
 10
139.722307
 20
145.619897
 30
0.0
 10
139.447206
 20
145.468598
 30
0.0
 10
139.155307
 20
145.352997
 30
0.0
 10
138.851207
 20
145.274999
 30
0.0
 10
138.539707
 20
145.235598
 30
0.0
 10
138.225707
 20
145.235598
 30
0.0
  0
LWPOLYLINE
  5
119
100
AcDbEntity
  8
Ebene_1
 62
7
100
AcDbPolyline
 90
51
 70
0
 10
162.225707
 20
145.235598
 30
0.0
 10
161.914207
 20
145.274999
 30
0.0
 10
161.610107
 20
145.352997
 30
0.0
 10
161.318207
 20
145.468598
 30
0.0
 10
161.043107
 20
145.619897
 30
0.0
 10
160.789107
 20
145.804397
 30
0.0
 10
160.560307
 20
146.019298
 30
0.0
 10
160.360157
 20
146.261197
 30
0.0
 10
160.191927
 20
146.526296
 30
0.0
 10
160.058257
 20
146.810398
 30
0.0
 10
159.961247
 20
147.108998
 30
0.0
 10
159.902406
 20
147.417399
 30
0.0
 10
159.882707
 20
147.730697
 30
0.0
 10
159.902406
 20
148.043997
 30
0.0
 10
159.961247
 20
148.352398
 30
0.0
 10
160.058257
 20
148.650998
 30
0.0
 10
160.191927
 20
148.935097
 30
0.0
 10
160.360157
 20
149.200197
 30
0.0
 10
160.560307
 20
149.442098
 30
0.0
 10
160.789107
 20
149.656999
 30
0.0
 10
161.043107
 20
149.841499
 30
0.0
 10
161.318207
 20
149.992798
 30
0.0
 10
161.610107
 20
150.108298
 30
0.0
 10
161.914207
 20
150.186397
 30
0.0
 10
162.225707
 20
150.225798
 30
0.0
 10
162.539707
 20
150.225798
 30
0.0
 10
162.851107
 20
150.186397
 30
0.0
 10
163.155207
 20
150.108298
 30
0.0
 10
163.447107
 20
149.992798
 30
0.0
 10
163.722307
 20
149.841499
 30
0.0
 10
163.976307
 20
149.656999
 30
0.0
 10
164.205107
 20
149.442098
 30
0.0
 10
164.405207
 20
149.200197
 30
0.0
 10
164.573507
 20
148.935097
 30
0.0
 10
164.707107
 20
148.650998
 30
0.0
 10
164.804107
 20
148.352398
 30
0.0
 10
164.863007
 20
148.043997
 30
0.0
 10
164.882706
 20
147.730697
 30
0.0
 10
164.863008
 20
147.417399
 30
0.0
 10
164.804107
 20
147.108998
 30
0.0
 10
164.707107
 20
146.810398
 30
0.0
 10
164.573507
 20
146.526296
 30
0.0
 10
164.405207
 20
146.261197
 30
0.0
 10
164.205107
 20
146.019298
 30
0.0
 10
163.976307
 20
145.804397
 30
0.0
 10
163.722307
 20
145.619897
 30
0.0
 10
163.447107
 20
145.468598
 30
0.0
 10
163.155207
 20
145.352997
 30
0.0
 10
162.851107
 20
145.274999
 30
0.0
 10
162.539707
 20
145.235598
 30
0.0
 10
162.225707
 20
145.235598
 30
0.0
  0
LWPOLYLINE
  5
11a
100
AcDbEntity
  8
Ebene_1
 62
7
100
AcDbPolyline
 90
51
 70
0
 10
138.225707
 20
103.235586
 30
0.0
 10
137.914307
 20
103.274985
 30
0.0
 10
137.610207
 20
103.353104
 30
0.0
 10
137.318307
 20
103.468589
 30
0.0
 10
137.043107
 20
103.619888
 30
0.0
 10
136.789107
 20
103.804405
 30
0.0
 10
136.560307
 20
104.019289
 30
0.0
 10
136.360206
 20
104.261210
 30
0.0
 10
136.191907
 20
104.526301
 30
0.0
 10
136.058307
 20
104.810386
 30
0.0
 10
135.961307
 20
105.109006
 30
0.0
 10
135.902406
 20
105.417390
 30
0.0
 10
135.882707
 20
105.730685
 30
0.0
 10
135.902406
 20
106.044008
 30
0.0
 10
135.961307
 20
106.352392
 30
0.0
 10
136.058307
 20
106.651011
 30
0.0
 10
136.191907
 20
106.935096
 30
0.0
 10
136.360206
 20
107.200188
 30
0.0
 10
136.560307
 20
107.442109
 30
0.0
 10
136.789107
 20
107.656993
 30
0.0
 10
137.043107
 20
107.841509
 30
0.0
 10
137.318307
 20
107.992809
 30
0.0
 10
137.610207
 20
108.108407
 30
0.0
 10
137.914307
 20
108.186385
 30
0.0
 10
138.225707
 20
108.225811
 30
0.0
 10
138.539707
 20
108.225811
 30
0.0
 10
138.851207
 20
108.186385
 30
0.0
 10
139.155307
 20
108.108407
 30
0.0
 10
139.447206
 20
107.992809
 30
0.0
 10
139.722307
 20
107.841509
 30
0.0
 10
139.976307
 20
107.656993
 30
0.0
 10
140.205107
 20
107.442109
 30
0.0
 10
140.405257
 20
107.200188
 30
0.0
 10
140.573487
 20
106.935096
 30
0.0
 10
140.707157
 20
106.651011
 30
0.0
 10
140.804167
 20
106.352392
 30
0.0
 10
140.863007
 20
106.044008
 30
0.0
 10
140.882706
 20
105.730685
 30
0.0
 10
140.863008
 20
105.417390
 30
0.0
 10
140.804167
 20
105.109006
 30
0.0
 10
140.707157
 20
104.810386
 30
0.0
 10
140.573487
 20
104.526301
 30
0.0
 10
140.405257
 20
104.261210
 30
0.0
 10
140.205107
 20
104.019289
 30
0.0
 10
139.976307
 20
103.804405
 30
0.0
 10
139.722307
 20
103.619888
 30
0.0
 10
139.447206
 20
103.468589
 30
0.0
 10
139.155307
 20
103.353104
 30
0.0
 10
138.851207
 20
103.274985
 30
0.0
 10
138.539707
 20
103.235586
 30
0.0
 10
138.225707
 20
103.235586
 30
0.0
  0
LWPOLYLINE
  5
11b
100
AcDbEntity
  8
Ebene_1
 62
7
100
AcDbPolyline
 90
51
 70
0
 10
162.225707
 20
103.235586
 30
0.0
 10
161.914207
 20
103.274985
 30
0.0
 10
161.610107
 20
103.353104
 30
0.0
 10
161.318207
 20
103.468589
 30
0.0
 10
161.043107
 20
103.619888
 30
0.0
 10
160.789107
 20
103.804405
 30
0.0
 10
160.560307
 20
104.019289
 30
0.0
 10
160.360157
 20
104.261210
 30
0.0
 10
160.191927
 20
104.526301
 30
0.0
 10
160.058257
 20
104.810386
 30
0.0
 10
159.961247
 20
105.109006
 30
0.0
 10
159.902406
 20
105.417390
 30
0.0
 10
159.882707
 20
105.730685
 30
0.0
 10
159.902406
 20
106.044008
 30
0.0
 10
159.961247
 20
106.352392
 30
0.0
 10
160.058257
 20
106.651011
 30
0.0
 10
160.191927
 20
106.935096
 30
0.0
 10
160.360157
 20
107.200188
 30
0.0
 10
160.560307
 20
107.442109
 30
0.0
 10
160.789107
 20
107.656993
 30
0.0
 10
161.043107
 20
107.841509
 30
0.0
 10
161.318207
 20
107.992809
 30
0.0
 10
161.610107
 20
108.108407
 30
0.0
 10
161.914207
 20
108.186385
 30
0.0
 10
162.225707
 20
108.225811
 30
0.0
 10
162.539707
 20
108.225811
 30
0.0
 10
162.851107
 20
108.186385
 30
0.0
 10
163.155207
 20
108.108407
 30
0.0
 10
163.447107
 20
107.992809
 30
0.0
 10
163.722307
 20
107.841509
 30
0.0
 10
163.976307
 20
107.656993
 30
0.0
 10
164.205107
 20
107.442109
 30
0.0
 10
164.405207
 20
107.200188
 30
0.0
 10
164.573507
 20
106.935096
 30
0.0
 10
164.707107
 20
106.651011
 30
0.0
 10
164.804107
 20
106.352392
 30
0.0
 10
164.863007
 20
106.044008
 30
0.0
 10
164.882706
 20
105.730685
 30
0.0
 10
164.863008
 20
105.417390
 30
0.0
 10
164.804107
 20
105.109006
 30
0.0
 10
164.707107
 20
104.810386
 30
0.0
 10
164.573507
 20
104.526301
 30
0.0
 10
164.405207
 20
104.261210
 30
0.0
 10
164.205107
 20
104.019289
 30
0.0
 10
163.976307
 20
103.804405
 30
0.0
 10
163.722307
 20
103.619888
 30
0.0
 10
163.447107
 20
103.468589
 30
0.0
 10
163.155207
 20
103.353104
 30
0.0
 10
162.851107
 20
103.274985
 30
0.0
 10
162.539707
 20
103.235586
 30
0.0
 10
162.225707
 20
103.235586
 30
0.0
  0
LWPOLYLINE
  5
11c
100
AcDbEntity
  8
Ebene_1
 62
7
100
AcDbPolyline
 90
5
 70
0
 10
176.882707
 20
85.480704
 30
0.0
 10
176.882707
 20
87.980685
 30
0.0
 10
183.882707
 20
87.980685
 30
0.0
 10
183.882707
 20
85.480704
 30
0.0
 10
176.882707
 20
85.480704
 30
0.0
  0
LWPOLYLINE
  5
11d
100
AcDbEntity
  8
Ebene_1
 62
7
100
AcDbPolyline
 90
51
 70
0
 10
138.288506
 20
80.233685
 30
0.0
 10
138.101607
 20
80.257392
 30
0.0
 10
137.919207
 20
80.304099
 30
0.0
 10
137.744007
 20
80.373498
 30
0.0
 10
137.579007
 20
80.464204
 30
0.0
 10
137.426607
 20
80.574892
 30
0.0
 10
137.289307
 20
80.703895
 30
0.0
 10
137.169207
 20
80.848986
 30
0.0
 10
137.068207
 20
81.008103
 30
0.0
 10
136.988007
 20
81.178509
 30
0.0
 10
136.929807
 20
81.357691
 30
0.0
 10
136.894507
 20
81.542688
 30
0.0
 10
136.882707
 20
81.730705
 30
0.0
 10
136.894506
 20
81.918693
 30
0.0
 10
136.929807
 20
82.103689
 30
0.0
 10
136.988007
 20
82.282901
 30
0.0
 10
137.068207
 20
82.453306
 30
0.0
 10
137.169207
 20
82.612395
 30
0.0
 10
137.289307
 20
82.757485
 30
0.0
 10
137.426607
 20
82.886489
 30
0.0
 10
137.579007
 20
82.997205
 30
0.0
 10
137.744007
 20
83.087996
 30
0.0
 10
137.919207
 20
83.157310
 30
0.0
 10
138.101607
 20
83.204102
 30
0.0
 10
138.288506
 20
83.227809
 30
0.0
 10
138.476906
 20
83.227809
 30
0.0
 10
138.663807
 20
83.204102
 30
0.0
 10
138.846207
 20
83.157310
 30
0.0
 10
139.021407
 20
83.087996
 30
0.0
 10
139.186407
 20
82.997205
 30
0.0
 10
139.338807
 20
82.886489
 30
0.0
 10
139.476207
 20
82.757485
 30
0.0
 10
139.596207
 20
82.612395
 30
0.0
 10
139.697207
 20
82.453306
 30
0.0
 10
139.777407
 20
82.282901
 30
0.0
 10
139.835607
 20
82.103689
 30
0.0
 10
139.870907
 20
81.918693
 30
0.0
 10
139.882706
 20
81.730705
 30
0.0
 10
139.870907
 20
81.542688
 30
0.0
 10
139.835607
 20
81.357691
 30
0.0
 10
139.777407
 20
81.178509
 30
0.0
 10
139.697207
 20
81.008103
 30
0.0
 10
139.596207
 20
80.848986
 30
0.0
 10
139.476207
 20
80.703895
 30
0.0
 10
139.338807
 20
80.574892
 30
0.0
 10
139.186407
 20
80.464204
 30
0.0
 10
139.021407
 20
80.373498
 30
0.0
 10
138.846207
 20
80.304099
 30
0.0
 10
138.663807
 20
80.257307
 30
0.0
 10
138.476906
 20
80.233600
 30
0.0
 10
138.288506
 20
80.233685
 30
0.0
  0
LWPOLYLINE
  5
11e
100
AcDbEntity
  8
Ebene_1
 62
7
100
AcDbPolyline
 90
51
 70
0
 10
162.288507
 20
80.233685
 30
0.0
 10
162.101606
 20
80.257392
 30
0.0
 10
161.919207
 20
80.304099
 30
0.0
 10
161.744007
 20
80.373498
 30
0.0
 10
161.579007
 20
80.464204
 30
0.0
 10
161.426607
 20
80.574892
 30
0.0
 10
161.289207
 20
80.703895
 30
0.0
 10
161.169207
 20
80.848986
 30
0.0
 10
161.068207
 20
81.008103
 30
0.0
 10
160.988007
 20
81.178509
 30
0.0
 10
160.929807
 20
81.357691
 30
0.0
 10
160.894506
 20
81.542688
 30
0.0
 10
160.882707
 20
81.730705
 30
0.0
 10
160.894506
 20
81.918693
 30
0.0
 10
160.929807
 20
82.103689
 30
0.0
 10
160.988007
 20
82.282901
 30
0.0
 10
161.068207
 20
82.453306
 30
0.0
 10
161.169207
 20
82.612395
 30
0.0
 10
161.289207
 20
82.757485
 30
0.0
 10
161.426607
 20
82.886489
 30
0.0
 10
161.579007
 20
82.997205
 30
0.0
 10
161.744007
 20
83.087996
 30
0.0
 10
161.919207
 20
83.157310
 30
0.0
 10
162.101606
 20
83.204102
 30
0.0
 10
162.288507
 20
83.227809
 30
0.0
 10
162.476907
 20
83.227809
 30
0.0
 10
162.663807
 20
83.204102
 30
0.0
 10
162.846207
 20
83.157310
 30
0.0
 10
163.021407
 20
83.087996
 30
0.0
 10
163.186407
 20
82.997205
 30
0.0
 10
163.338807
 20
82.886489
 30
0.0
 10
163.476107
 20
82.757485
 30
0.0
 10
163.596207
 20
82.612395
 30
0.0
 10
163.697207
 20
82.453306
 30
0.0
 10
163.777406
 20
82.282901
 30
0.0
 10
163.835607
 20
82.103689
 30
0.0
 10
163.870907
 20
81.918693
 30
0.0
 10
163.882706
 20
81.730705
 30
0.0
 10
163.870907
 20
81.542688
 30
0.0
 10
163.835607
 20
81.357691
 30
0.0
 10
163.777406
 20
81.178509
 30
0.0
 10
163.697207
 20
81.008103
 30
0.0
 10
163.596207
 20
80.848986
 30
0.0
 10
163.476107
 20
80.703895
 30
0.0
 10
163.338807
 20
80.574892
 30
0.0
 10
163.186407
 20
80.464204
 30
0.0
 10
163.021407
 20
80.373498
 30
0.0
 10
162.846207
 20
80.304099
 30
0.0
 10
162.663807
 20
80.257307
 30
0.0
 10
162.476907
 20
80.233600
 30
0.0
 10
162.288507
 20
80.233685
 30
0.0
  0
LWPOLYLINE
  5
11f
100
AcDbEntity
  8
Ebene_1
 62
7
100
AcDbPolyline
 90
4
 70
0
 10
82.882706
 20
76.730686
 30
0.0
 10
82.882706
 20
-23.269325
 30
0.0
 10
127.882706
 20
-23.269325
 30
0.0
 10
127.882706
 20
76.730686
 30
0.0
  0
LWPOLYLINE
  5
120
100
AcDbEntity
  8
Ebene_1
 62
7
100
AcDbPolyline
 90
51
 70
0
 10
93.288506
 20
70.233586
 30
0.0
 10
93.101606
 20
70.257293
 30
0.0
 10
92.919206
 20
70.304086
 30
0.0
 10
92.744006
 20
70.373385
 30
0.0
 10
92.579006
 20
70.464187
 30
0.0
 10
92.426606
 20
70.574886
 30
0.0
 10
92.289306
 20
70.703887
 30
0.0
 10
92.169206
 20
70.848986
 30
0.0
 10
92.068206
 20
71.008086
 30
0.0
 10
91.988006
 20
71.178486
 30
0.0
 10
91.929806
 20
71.357686
 30
0.0
 10
91.894506
 20
71.542686
 30
0.0
 10
91.882706
 20
71.730685
 30
0.0
 10
91.894506
 20
71.918687
 30
0.0
 10
91.929806
 20
72.103687
 30
0.0
 10
91.988006
 20
72.282887
 30
0.0
 10
92.068206
 20
72.453287
 30
0.0
 10
92.169206
 20
72.612387
 30
0.0
 10
92.289306
 20
72.757486
 30
0.0
 10
92.426606
 20
72.886487
 30
0.0
 10
92.579006
 20
72.997186
 30
0.0
 10
92.744006
 20
73.087886
 30
0.0
 10
92.919206
 20
73.157287
 30
0.0
 10
93.101606
 20
73.204085
 30
0.0
 10
93.288506
 20
73.227679
 30
0.0
 10
93.476906
 20
73.227688
 30
0.0
 10
93.663806
 20
73.204094
 30
0.0
 10
93.846206
 20
73.157287
 30
0.0
 10
94.021406
 20
73.087886
 30
0.0
 10
94.186406
 20
72.997186
 30
0.0
 10
94.338806
 20
72.886487
 30
0.0
 10
94.476206
 20
72.757486
 30
0.0
 10
94.596206
 20
72.612387
 30
0.0
 10
94.697206
 20
72.453287
 30
0.0
 10
94.777406
 20
72.282887
 30
0.0
 10
94.835606
 20
72.103687
 30
0.0
 10
94.870906
 20
71.918687
 30
0.0
 10
94.882706
 20
71.730685
 30
0.0
 10
94.870907
 20
71.542686
 30
0.0
 10
94.835606
 20
71.357686
 30
0.0
 10
94.777406
 20
71.178486
 30
0.0
 10
94.697206
 20
71.008086
 30
0.0
 10
94.596206
 20
70.848986
 30
0.0
 10
94.476206
 20
70.703887
 30
0.0
 10
94.338806
 20
70.574886
 30
0.0
 10
94.186406
 20
70.464187
 30
0.0
 10
94.021406
 20
70.373385
 30
0.0
 10
93.846206
 20
70.304086
 30
0.0
 10
93.663806
 20
70.257288
 30
0.0
 10
93.476906
 20
70.233581
 30
0.0
 10
93.288506
 20
70.233586
 30
0.0
  0
LWPOLYLINE
  5
121
100
AcDbEntity
  8
Ebene_1
 62
7
100
AcDbPolyline
 90
51
 70
0
 10
117.288506
 20
70.233586
 30
0.0
 10
117.101606
 20
70.257293
 30
0.0
 10
116.919206
 20
70.304086
 30
0.0
 10
116.744006
 20
70.373385
 30
0.0
 10
116.579006
 20
70.464187
 30
0.0
 10
116.426606
 20
70.574886
 30
0.0
 10
116.289206
 20
70.703887
 30
0.0
 10
116.169206
 20
70.848986
 30
0.0
 10
116.068206
 20
71.008086
 30
0.0
 10
115.988006
 20
71.178486
 30
0.0
 10
115.929806
 20
71.357686
 30
0.0
 10
115.894506
 20
71.542686
 30
0.0
 10
115.882706
 20
71.730685
 30
0.0
 10
115.894506
 20
71.918687
 30
0.0
 10
115.929806
 20
72.103687
 30
0.0
 10
115.988006
 20
72.282887
 30
0.0
 10
116.068206
 20
72.453287
 30
0.0
 10
116.169206
 20
72.612387
 30
0.0
 10
116.289206
 20
72.757486
 30
0.0
 10
116.426606
 20
72.886487
 30
0.0
 10
116.579006
 20
72.997186
 30
0.0
 10
116.744006
 20
73.087886
 30
0.0
 10
116.919206
 20
73.157287
 30
0.0
 10
117.101606
 20
73.204085
 30
0.0
 10
117.288506
 20
73.227679
 30
0.0
 10
117.476906
 20
73.227688
 30
0.0
 10
117.663806
 20
73.204094
 30
0.0
 10
117.846206
 20
73.157287
 30
0.0
 10
118.021406
 20
73.087886
 30
0.0
 10
118.186406
 20
72.997186
 30
0.0
 10
118.338806
 20
72.886487
 30
0.0
 10
118.476106
 20
72.757486
 30
0.0
 10
118.596206
 20
72.612387
 30
0.0
 10
118.697206
 20
72.453287
 30
0.0
 10
118.777406
 20
72.282887
 30
0.0
 10
118.835606
 20
72.103687
 30
0.0
 10
118.870906
 20
71.918687
 30
0.0
 10
118.882706
 20
71.730685
 30
0.0
 10
118.870907
 20
71.542686
 30
0.0
 10
118.835606
 20
71.357686
 30
0.0
 10
118.777406
 20
71.178486
 30
0.0
 10
118.697206
 20
71.008086
 30
0.0
 10
118.596206
 20
70.848986
 30
0.0
 10
118.476106
 20
70.703887
 30
0.0
 10
118.338806
 20
70.574886
 30
0.0
 10
118.186406
 20
70.464187
 30
0.0
 10
118.021406
 20
70.373385
 30
0.0
 10
117.846206
 20
70.304086
 30
0.0
 10
117.663806
 20
70.257288
 30
0.0
 10
117.476906
 20
70.233581
 30
0.0
 10
117.288506
 20
70.233586
 30
0.0
  0
LWPOLYLINE
  5
122
100
AcDbEntity
  8
Ebene_1
 62
7
100
AcDbPolyline
 90
5
 70
0
 10
90.382706
 20
59.230687
 30
0.0
 10
90.382706
 20
64.230686
 30
0.0
 10
120.382706
 20
64.230686
 30
0.0
 10
120.382706
 20
59.230687
 30
0.0
 10
90.382706
 20
59.230687
 30
0.0
  0
LWPOLYLINE
  5
123
100
AcDbEntity
  8
Ebene_1
 62
7
100
AcDbPolyline
 90
51
 70
0
 10
93.068806
 20
42.740587
 30
0.0
 10
92.445806
 20
42.819287
 30
0.0
 10
91.837606
 20
42.975387
 30
0.0
 10
91.253806
 20
43.206587
 30
0.0
 10
90.703606
 20
43.509087
 30
0.0
 10
90.195606
 20
43.878086
 30
0.0
 10
89.737906
 20
44.307987
 30
0.0
 10
89.337606
 20
44.791787
 30
0.0
 10
89.001206
 20
45.321887
 30
0.0
 10
88.733806
 20
45.890085
 30
0.0
 10
88.539806
 20
46.487186
 30
0.0
 10
88.422106
 20
47.103985
 30
0.0
 10
88.382706
 20
47.730685
 30
0.0
 10
88.422106
 20
48.357388
 30
0.0
 10
88.539806
 20
48.974086
 30
0.0
 10
88.733806
 20
49.571288
 30
0.0
 10
89.001206
 20
50.139486
 30
0.0
 10
89.337606
 20
50.669586
 30
0.0
 10
89.737906
 20
51.153386
 30
0.0
 10
90.195606
 20
51.583287
 30
0.0
 10
90.703606
 20
51.952286
 30
0.0
 10
91.253806
 20
52.254786
 30
0.0
 10
91.837606
 20
52.485986
 30
0.0
 10
92.445806
 20
52.642086
 30
0.0
 10
93.068806
 20
52.720786
 30
0.0
 10
93.696706
 20
52.720786
 30
0.0
 10
94.319606
 20
52.642086
 30
0.0
 10
94.927806
 20
52.485986
 30
0.0
 10
95.511616
 20
52.254786
 30
0.0
 10
96.061846
 20
51.952286
 30
0.0
 10
96.569836
 20
51.583287
 30
0.0
 10
97.027556
 20
51.153386
 30
0.0
 10
97.427796
 20
50.669586
 30
0.0
 10
97.764256
 20
50.139486
 30
0.0
 10
98.031606
 20
49.571288
 30
0.0
 10
98.225636
 20
48.974086
 30
0.0
 10
98.343296
 20
48.357388
 30
0.0
 10
98.382706
 20
47.730685
 30
0.0
 10
98.343296
 20
47.103985
 30
0.0
 10
98.225636
 20
46.487186
 30
0.0
 10
98.031606
 20
45.890085
 30
0.0
 10
97.764256
 20
45.321887
 30
0.0
 10
97.427796
 20
44.791787
 30
0.0
 10
97.027556
 20
44.307987
 30
0.0
 10
96.569836
 20
43.878086
 30
0.0
 10
96.061846
 20
43.509087
 30
0.0
 10
95.511616
 20
43.206587
 30
0.0
 10
94.927806
 20
42.975387
 30
0.0
 10
94.319606
 20
42.819287
 30
0.0
 10
93.696706
 20
42.740587
 30
0.0
 10
93.068806
 20
42.740587
 30
0.0
  0
LWPOLYLINE
  5
124
100
AcDbEntity
  8
Ebene_1
 62
7
100
AcDbPolyline
 90
51
 70
0
 10
117.068706
 20
42.740587
 30
0.0
 10
116.445806
 20
42.819287
 30
0.0
 10
115.837606
 20
42.975387
 30
0.0
 10
115.253796
 20
43.206587
 30
0.0
 10
114.703566
 20
43.509087
 30
0.0
 10
114.195576
 20
43.878086
 30
0.0
 10
113.737856
 20
44.307987
 30
0.0
 10
113.337616
 20
44.791787
 30
0.0
 10
113.001156
 20
45.321887
 30
0.0
 10
112.733806
 20
45.890085
 30
0.0
 10
112.539776
 20
46.487186
 30
0.0
 10
112.422116
 20
47.103985
 30
0.0
 10
112.382706
 20
47.730685
 30
0.0
 10
112.422116
 20
48.357388
 30
0.0
 10
112.539776
 20
48.974086
 30
0.0
 10
112.733806
 20
49.571288
 30
0.0
 10
113.001156
 20
50.139486
 30
0.0
 10
113.337616
 20
50.669586
 30
0.0
 10
113.737856
 20
51.153386
 30
0.0
 10
114.195576
 20
51.583287
 30
0.0
 10
114.703566
 20
51.952286
 30
0.0
 10
115.253796
 20
52.254786
 30
0.0
 10
115.837606
 20
52.485986
 30
0.0
 10
116.445806
 20
52.642086
 30
0.0
 10
117.068706
 20
52.720786
 30
0.0
 10
117.696606
 20
52.720786
 30
0.0
 10
118.319606
 20
52.642086
 30
0.0
 10
118.927806
 20
52.485986
 30
0.0
 10
119.511606
 20
52.254786
 30
0.0
 10
120.061806
 20
51.952286
 30
0.0
 10
120.569806
 20
51.583287
 30
0.0
 10
121.027506
 20
51.153386
 30
0.0
 10
121.427806
 20
50.669586
 30
0.0
 10
121.764206
 20
50.139486
 30
0.0
 10
122.031606
 20
49.571288
 30
0.0
 10
122.225606
 20
48.974086
 30
0.0
 10
122.343306
 20
48.357388
 30
0.0
 10
122.382706
 20
47.730685
 30
0.0
 10
122.343306
 20
47.103985
 30
0.0
 10
122.225606
 20
46.487186
 30
0.0
 10
122.031606
 20
45.890085
 30
0.0
 10
121.764206
 20
45.321887
 30
0.0
 10
121.427806
 20
44.791787
 30
0.0
 10
121.027506
 20
44.307987
 30
0.0
 10
120.569806
 20
43.878086
 30
0.0
 10
120.061806
 20
43.509087
 30
0.0
 10
119.511606
 20
43.206587
 30
0.0
 10
118.927806
 20
42.975387
 30
0.0
 10
118.319606
 20
42.819287
 30
0.0
 10
117.696606
 20
42.740587
 30
0.0
 10
117.068706
 20
42.740587
 30
0.0
  0
LWPOLYLINE
  5
125
100
AcDbEntity
  8
Ebene_1
 62
7
100
AcDbPolyline
 90
51
 70
0
 10
93.068806
 20
0.740589
 30
0.0
 10
92.445806
 20
0.819273
 30
0.0
 10
91.837606
 20
0.975398
 30
0.0
 10
91.253806
 20
1.206594
 30
0.0
 10
90.703606
 20
1.509080
 30
0.0
 10
90.195606
 20
1.878086
 30
0.0
 10
89.737906
 20
2.307995
 30
0.0
 10
89.337606
 20
2.791780
 30
0.0
 10
89.001206
 20
3.321878
 30
0.0
 10
88.733806
 20
3.890076
 30
0.0
 10
88.539806
 20
4.487287
 30
0.0
 10
88.422106
 20
5.103999
 30
0.0
 10
88.382706
 20
5.730673
 30
0.0
 10
88.422106
 20
6.357376
 30
0.0
 10
88.539806
 20
6.974172
 30
0.0
 10
88.733806
 20
7.571298
 30
0.0
 10
89.001206
 20
8.139496
 30
0.0
 10
89.337606
 20
8.669594
 30
0.0
 10
89.737906
 20
9.153380
 30
0.0
 10
90.195606
 20
9.583289
 30
0.0
 10
90.703606
 20
9.952294
 30
0.0
 10
91.253806
 20
10.254780
 30
0.0
 10
91.837606
 20
10.485976
 30
0.0
 10
92.445806
 20
10.642074
 30
0.0
 10
93.068806
 20
10.720785
 30
0.0
 10
93.696706
 20
10.720785
 30
0.0
 10
94.319606
 20
10.642074
 30
0.0
 10
94.927806
 20
10.485976
 30
0.0
 10
95.511616
 20
10.254780
 30
0.0
 10
96.061846
 20
9.952294
 30
0.0
 10
96.569836
 20
9.583289
 30
0.0
 10
97.027556
 20
9.153380
 30
0.0
 10
97.427796
 20
8.669594
 30
0.0
 10
97.764256
 20
8.139496
 30
0.0
 10
98.031606
 20
7.571298
 30
0.0
 10
98.225636
 20
6.974172
 30
0.0
 10
98.343296
 20
6.357376
 30
0.0
 10
98.382706
 20
5.730673
 30
0.0
 10
98.343296
 20
5.103999
 30
0.0
 10
98.225636
 20
4.487287
 30
0.0
 10
98.031606
 20
3.890076
 30
0.0
 10
97.764256
 20
3.321878
 30
0.0
 10
97.427796
 20
2.791780
 30
0.0
 10
97.027556
 20
2.307995
 30
0.0
 10
96.569836
 20
1.878086
 30
0.0
 10
96.061846
 20
1.509080
 30
0.0
 10
95.511616
 20
1.206594
 30
0.0
 10
94.927806
 20
0.975398
 30
0.0
 10
94.319606
 20
0.819273
 30
0.0
 10
93.696706
 20
0.740589
 30
0.0
 10
93.068806
 20
0.740589
 30
0.0
  0
LWPOLYLINE
  5
126
100
AcDbEntity
  8
Ebene_1
 62
7
100
AcDbPolyline
 90
51
 70
0
 10
117.068706
 20
0.740589
 30
0.0
 10
116.445806
 20
0.819273
 30
0.0
 10
115.837606
 20
0.975398
 30
0.0
 10
115.253796
 20
1.206594
 30
0.0
 10
114.703566
 20
1.509080
 30
0.0
 10
114.195576
 20
1.878086
 30
0.0
 10
113.737856
 20
2.307995
 30
0.0
 10
113.337616
 20
2.791780
 30
0.0
 10
113.001156
 20
3.321878
 30
0.0
 10
112.733806
 20
3.890076
 30
0.0
 10
112.539776
 20
4.487287
 30
0.0
 10
112.422116
 20
5.103999
 30
0.0
 10
112.382706
 20
5.730673
 30
0.0
 10
112.422116
 20
6.357376
 30
0.0
 10
112.539776
 20
6.974172
 30
0.0
 10
112.733806
 20
7.571298
 30
0.0
 10
113.001156
 20
8.139496
 30
0.0
 10
113.337616
 20
8.669594
 30
0.0
 10
113.737856
 20
9.153380
 30
0.0
 10
114.195576
 20
9.583289
 30
0.0
 10
114.703566
 20
9.952294
 30
0.0
 10
115.253796
 20
10.254780
 30
0.0
 10
115.837606
 20
10.485976
 30
0.0
 10
116.445806
 20
10.642074
 30
0.0
 10
117.068706
 20
10.720785
 30
0.0
 10
117.696606
 20
10.720785
 30
0.0
 10
118.319606
 20
10.642074
 30
0.0
 10
118.927806
 20
10.485976
 30
0.0
 10
119.511606
 20
10.254780
 30
0.0
 10
120.061806
 20
9.952294
 30
0.0
 10
120.569806
 20
9.583289
 30
0.0
 10
121.027506
 20
9.153380
 30
0.0
 10
121.427806
 20
8.669594
 30
0.0
 10
121.764206
 20
8.139496
 30
0.0
 10
122.031606
 20
7.571298
 30
0.0
 10
122.225606
 20
6.974172
 30
0.0
 10
122.343306
 20
6.357376
 30
0.0
 10
122.382706
 20
5.730673
 30
0.0
 10
122.343306
 20
5.103999
 30
0.0
 10
122.225606
 20
4.487287
 30
0.0
 10
122.031606
 20
3.890076
 30
0.0
 10
121.764206
 20
3.321878
 30
0.0
 10
121.427806
 20
2.791780
 30
0.0
 10
121.027506
 20
2.307995
 30
0.0
 10
120.569806
 20
1.878086
 30
0.0
 10
120.061806
 20
1.509080
 30
0.0
 10
119.511606
 20
1.206594
 30
0.0
 10
118.927806
 20
0.975398
 30
0.0
 10
118.319606
 20
0.819273
 30
0.0
 10
117.696606
 20
0.740589
 30
0.0
 10
117.068706
 20
0.740589
 30
0.0
  0
LWPOLYLINE
  5
127
100
AcDbEntity
  8
Ebene_1
 62
7
100
AcDbPolyline
 90
5
 70
0
 10
90.382706
 20
-10.769308
 30
0.0
 10
90.382706
 20
-5.769318
 30
0.0
 10
120.382706
 20
-5.769318
 30
0.0
 10
120.382706
 20
-10.769308
 30
0.0
 10
90.382706
 20
-10.769308
 30
0.0
  0
LWPOLYLINE
  5
128
100
AcDbEntity
  8
Ebene_1
 62
7
100
AcDbPolyline
 90
51
 70
0
 10
93.288506
 20
-19.766327
 30
0.0
 10
93.101606
 20
-19.742620
 30
0.0
 10
92.919206
 20
-19.695912
 30
0.0
 10
92.744006
 20
-19.626514
 30
0.0
 10
92.579006
 20
-19.535808
 30
0.0
 10
92.426606
 20
-19.425120
 30
0.0
 10
92.289306
 20
-19.296116
 30
0.0
 10
92.169206
 20
-19.151026
 30
0.0
 10
92.068206
 20
-18.991909
 30
0.0
 10
91.988006
 20
-18.821503
 30
0.0
 10
91.929806
 20
-18.642320
 30
0.0
 10
91.894506
 20
-18.457324
 30
0.0
 10
91.882706
 20
-18.269307
 30
0.0
 10
91.894506
 20
-18.081319
 30
0.0
 10
91.929806
 20
-17.896322
 30
0.0
 10
91.988006
 20
-17.717111
 30
0.0
 10
92.068206
 20
-17.546705
 30
0.0
 10
92.169206
 20
-17.387617
 30
0.0
 10
92.289306
 20
-17.242526
 30
0.0
 10
92.426606
 20
-17.113522
 30
0.0
 10
92.579006
 20
-17.002807
 30
0.0
 10
92.744006
 20
-16.912016
 30
0.0
 10
92.919206
 20
-16.842702
 30
0.0
 10
93.101606
 20
-16.795910
 30
0.0
 10
93.288506
 20
-16.772203
 30
0.0
 10
93.476906
 20
-16.772203
 30
0.0
 10
93.663806
 20
-16.795910
 30
0.0
 10
93.846206
 20
-16.842702
 30
0.0
 10
94.021406
 20
-16.912016
 30
0.0
 10
94.186406
 20
-17.002807
 30
0.0
 10
94.338806
 20
-17.113522
 30
0.0
 10
94.476206
 20
-17.242526
 30
0.0
 10
94.596206
 20
-17.387617
 30
0.0
 10
94.697206
 20
-17.546705
 30
0.0
 10
94.777406
 20
-17.717111
 30
0.0
 10
94.835606
 20
-17.896322
 30
0.0
 10
94.870906
 20
-18.081319
 30
0.0
 10
94.882706
 20
-18.269307
 30
0.0
 10
94.870907
 20
-18.457324
 30
0.0
 10
94.835606
 20
-18.642320
 30
0.0
 10
94.777406
 20
-18.821503
 30
0.0
 10
94.697206
 20
-18.991909
 30
0.0
 10
94.596206
 20
-19.151026
 30
0.0
 10
94.476206
 20
-19.296116
 30
0.0
 10
94.338806
 20
-19.425120
 30
0.0
 10
94.186406
 20
-19.535808
 30
0.0
 10
94.021406
 20
-19.626514
 30
0.0
 10
93.846206
 20
-19.695912
 30
0.0
 10
93.663806
 20
-19.742705
 30
0.0
 10
93.476906
 20
-19.766411
 30
0.0
 10
93.288506
 20
-19.766327
 30
0.0
  0
LWPOLYLINE
  5
129
100
AcDbEntity
  8
Ebene_1
 62
7
100
AcDbPolyline
 90
51
 70
0
 10
117.288506
 20
-19.766327
 30
0.0
 10
117.101606
 20
-19.742620
 30
0.0
 10
116.919206
 20
-19.695912
 30
0.0
 10
116.744006
 20
-19.626514
 30
0.0
 10
116.579006
 20
-19.535808
 30
0.0
 10
116.426606
 20
-19.425120
 30
0.0
 10
116.289206
 20
-19.296116
 30
0.0
 10
116.169206
 20
-19.151026
 30
0.0
 10
116.068206
 20
-18.991909
 30
0.0
 10
115.988006
 20
-18.821503
 30
0.0
 10
115.929806
 20
-18.642320
 30
0.0
 10
115.894506
 20
-18.457324
 30
0.0
 10
115.882706
 20
-18.269307
 30
0.0
 10
115.894506
 20
-18.081319
 30
0.0
 10
115.929806
 20
-17.896322
 30
0.0
 10
115.988006
 20
-17.717111
 30
0.0
 10
116.068206
 20
-17.546705
 30
0.0
 10
116.169206
 20
-17.387617
 30
0.0
 10
116.289206
 20
-17.242526
 30
0.0
 10
116.426606
 20
-17.113522
 30
0.0
 10
116.579006
 20
-17.002807
 30
0.0
 10
116.744006
 20
-16.912016
 30
0.0
 10
116.919206
 20
-16.842702
 30
0.0
 10
117.101606
 20
-16.795910
 30
0.0
 10
117.288506
 20
-16.772203
 30
0.0
 10
117.476906
 20
-16.772203
 30
0.0
 10
117.663806
 20
-16.795910
 30
0.0
 10
117.846206
 20
-16.842702
 30
0.0
 10
118.021406
 20
-16.912016
 30
0.0
 10
118.186406
 20
-17.002807
 30
0.0
 10
118.338806
 20
-17.113522
 30
0.0
 10
118.476106
 20
-17.242526
 30
0.0
 10
118.596206
 20
-17.387617
 30
0.0
 10
118.697206
 20
-17.546705
 30
0.0
 10
118.777406
 20
-17.717111
 30
0.0
 10
118.835606
 20
-17.896322
 30
0.0
 10
118.870906
 20
-18.081319
 30
0.0
 10
118.882706
 20
-18.269307
 30
0.0
 10
118.870907
 20
-18.457324
 30
0.0
 10
118.835606
 20
-18.642320
 30
0.0
 10
118.777406
 20
-18.821503
 30
0.0
 10
118.697206
 20
-18.991909
 30
0.0
 10
118.596206
 20
-19.151026
 30
0.0
 10
118.476106
 20
-19.296116
 30
0.0
 10
118.338806
 20
-19.425120
 30
0.0
 10
118.186406
 20
-19.535808
 30
0.0
 10
118.021406
 20
-19.626514
 30
0.0
 10
117.846206
 20
-19.695912
 30
0.0
 10
117.663806
 20
-19.742705
 30
0.0
 10
117.476906
 20
-19.766411
 30
0.0
 10
117.288506
 20
-19.766327
 30
0.0
  0
LWPOLYLINE
  5
12a
100
AcDbEntity
  8
Ebene_1
 62
7
100
AcDbPolyline
 90
11
 70
0
 10
37.882706
 20
76.730686
 30
0.0
 10
37.882706
 20
64.730685
 30
0.0
 10
73.382706
 20
64.730685
 30
0.0
 10
73.382706
 20
56.730687
 30
0.0
 10
37.882706
 20
56.730687
 30
0.0
 10
37.882706
 20
-3.269309
 30
0.0
 10
73.382706
 20
-3.269309
 30
0.0
 10
73.382706
 20
-11.269321
 30
0.0
 10
37.882706
 20
-11.269321
 30
0.0
 10
37.882706
 20
-23.269325
 30
0.0
 10
82.882706
 20
-23.269325
 30
0.0
  0
LWPOLYLINE
  5
12b
100
AcDbEntity
  8
Ebene_1
 62
7
100
AcDbPolyline
 90
51
 70
0
 10
48.288506
 20
70.233586
 30
0.0
 10
48.101606
 20
70.257293
 30
0.0
 10
47.919206
 20
70.304086
 30
0.0
 10
47.744006
 20
70.373385
 30
0.0
 10
47.579006
 20
70.464187
 30
0.0
 10
47.426606
 20
70.574886
 30
0.0
 10
47.289306
 20
70.703887
 30
0.0
 10
47.169206
 20
70.848986
 30
0.0
 10
47.068206
 20
71.008086
 30
0.0
 10
46.988006
 20
71.178486
 30
0.0
 10
46.929806
 20
71.357686
 30
0.0
 10
46.894506
 20
71.542686
 30
0.0
 10
46.882706
 20
71.730685
 30
0.0
 10
46.894506
 20
71.918687
 30
0.0
 10
46.929806
 20
72.103687
 30
0.0
 10
46.988006
 20
72.282887
 30
0.0
 10
47.068206
 20
72.453287
 30
0.0
 10
47.169206
 20
72.612387
 30
0.0
 10
47.289306
 20
72.757486
 30
0.0
 10
47.426606
 20
72.886487
 30
0.0
 10
47.579006
 20
72.997186
 30
0.0
 10
47.744006
 20
73.087886
 30
0.0
 10
47.919206
 20
73.157287
 30
0.0
 10
48.101606
 20
73.204085
 30
0.0
 10
48.288506
 20
73.227679
 30
0.0
 10
48.476906
 20
73.227688
 30
0.0
 10
48.663806
 20
73.204094
 30
0.0
 10
48.846206
 20
73.157287
 30
0.0
 10
49.021406
 20
73.087886
 30
0.0
 10
49.186406
 20
72.997186
 30
0.0
 10
49.338806
 20
72.886487
 30
0.0
 10
49.476206
 20
72.757486
 30
0.0
 10
49.596206
 20
72.612387
 30
0.0
 10
49.697206
 20
72.453287
 30
0.0
 10
49.777406
 20
72.282887
 30
0.0
 10
49.835606
 20
72.103687
 30
0.0
 10
49.870906
 20
71.918687
 30
0.0
 10
49.882706
 20
71.730685
 30
0.0
 10
49.870906
 20
71.542686
 30
0.0
 10
49.835606
 20
71.357686
 30
0.0
 10
49.777406
 20
71.178486
 30
0.0
 10
49.697206
 20
71.008086
 30
0.0
 10
49.596206
 20
70.848986
 30
0.0
 10
49.476206
 20
70.703887
 30
0.0
 10
49.338806
 20
70.574886
 30
0.0
 10
49.186406
 20
70.464187
 30
0.0
 10
49.021406
 20
70.373385
 30
0.0
 10
48.846206
 20
70.304086
 30
0.0
 10
48.663806
 20
70.257288
 30
0.0
 10
48.476906
 20
70.233581
 30
0.0
 10
48.288506
 20
70.233586
 30
0.0
  0
LWPOLYLINE
  5
12c
100
AcDbEntity
  8
Ebene_1
 62
7
100
AcDbPolyline
 90
51
 70
0
 10
72.288506
 20
70.233586
 30
0.0
 10
72.101606
 20
70.257293
 30
0.0
 10
71.919206
 20
70.304086
 30
0.0
 10
71.744006
 20
70.373385
 30
0.0
 10
71.579006
 20
70.464187
 30
0.0
 10
71.426606
 20
70.574886
 30
0.0
 10
71.289206
 20
70.703887
 30
0.0
 10
71.169206
 20
70.848986
 30
0.0
 10
71.068206
 20
71.008086
 30
0.0
 10
70.988006
 20
71.178486
 30
0.0
 10
70.929806
 20
71.357686
 30
0.0
 10
70.894506
 20
71.542686
 30
0.0
 10
70.882706
 20
71.730685
 30
0.0
 10
70.894506
 20
71.918687
 30
0.0
 10
70.929806
 20
72.103687
 30
0.0
 10
70.988006
 20
72.282887
 30
0.0
 10
71.068206
 20
72.453287
 30
0.0
 10
71.169206
 20
72.612387
 30
0.0
 10
71.289206
 20
72.757486
 30
0.0
 10
71.426606
 20
72.886487
 30
0.0
 10
71.579006
 20
72.997186
 30
0.0
 10
71.744006
 20
73.087886
 30
0.0
 10
71.919206
 20
73.157287
 30
0.0
 10
72.101606
 20
73.204085
 30
0.0
 10
72.288506
 20
73.227679
 30
0.0
 10
72.476906
 20
73.227688
 30
0.0
 10
72.663806
 20
73.204094
 30
0.0
 10
72.846206
 20
73.157287
 30
0.0
 10
73.021406
 20
73.087886
 30
0.0
 10
73.186406
 20
72.997186
 30
0.0
 10
73.338806
 20
72.886487
 30
0.0
 10
73.476106
 20
72.757486
 30
0.0
 10
73.596206
 20
72.612387
 30
0.0
 10
73.697206
 20
72.453287
 30
0.0
 10
73.777406
 20
72.282887
 30
0.0
 10
73.835606
 20
72.103687
 30
0.0
 10
73.870906
 20
71.918687
 30
0.0
 10
73.882706
 20
71.730685
 30
0.0
 10
73.870906
 20
71.542686
 30
0.0
 10
73.835606
 20
71.357686
 30
0.0
 10
73.777406
 20
71.178486
 30
0.0
 10
73.697206
 20
71.008086
 30
0.0
 10
73.596206
 20
70.848986
 30
0.0
 10
73.476106
 20
70.703887
 30
0.0
 10
73.338806
 20
70.574886
 30
0.0
 10
73.186406
 20
70.464187
 30
0.0
 10
73.021406
 20
70.373385
 30
0.0
 10
72.846206
 20
70.304086
 30
0.0
 10
72.663806
 20
70.257288
 30
0.0
 10
72.476906
 20
70.233581
 30
0.0
 10
72.288506
 20
70.233586
 30
0.0
  0
LWPOLYLINE
  5
12d
100
AcDbEntity
  8
Ebene_1
 62
7
100
AcDbPolyline
 90
51
 70
0
 10
48.225706
 20
45.235587
 30
0.0
 10
47.914306
 20
45.274988
 30
0.0
 10
47.610206
 20
45.352985
 30
0.0
 10
47.318306
 20
45.468586
 30
0.0
 10
47.043106
 20
45.619886
 30
0.0
 10
46.789106
 20
45.804386
 30
0.0
 10
46.560306
 20
46.019287
 30
0.0
 10
46.360206
 20
46.261185
 30
0.0
 10
46.191906
 20
46.526285
 30
0.0
 10
46.058306
 20
46.810387
 30
0.0
 10
45.961306
 20
47.108986
 30
0.0
 10
45.902406
 20
47.417387
 30
0.0
 10
45.882707
 20
47.730685
 30
0.0
 10
45.902405
 20
48.043986
 30
0.0
 10
45.961306
 20
48.352387
 30
0.0
 10
46.058306
 20
48.650986
 30
0.0
 10
46.191906
 20
48.935085
 30
0.0
 10
46.360206
 20
49.200185
 30
0.0
 10
46.560306
 20
49.442086
 30
0.0
 10
46.789106
 20
49.656987
 30
0.0
 10
47.043106
 20
49.841487
 30
0.0
 10
47.318306
 20
49.992787
 30
0.0
 10
47.610206
 20
50.108286
 30
0.0
 10
47.914306
 20
50.186385
 30
0.0
 10
48.225706
 20
50.225786
 30
0.0
 10
48.539706
 20
50.225786
 30
0.0
 10
48.851206
 20
50.186385
 30
0.0
 10
49.155306
 20
50.108286
 30
0.0
 10
49.447206
 20
49.992787
 30
0.0
 10
49.722306
 20
49.841487
 30
0.0
 10
49.976306
 20
49.656987
 30
0.0
 10
50.205106
 20
49.442086
 30
0.0
 10
50.405256
 20
49.200185
 30
0.0
 10
50.573486
 20
48.935085
 30
0.0
 10
50.707156
 20
48.650986
 30
0.0
 10
50.804166
 20
48.352387
 30
0.0
 10
50.863006
 20
48.043986
 30
0.0
 10
50.882705
 20
47.730685
 30
0.0
 10
50.863007
 20
47.417387
 30
0.0
 10
50.804166
 20
47.108986
 30
0.0
 10
50.707156
 20
46.810387
 30
0.0
 10
50.573486
 20
46.526285
 30
0.0
 10
50.405256
 20
46.261185
 30
0.0
 10
50.205106
 20
46.019287
 30
0.0
 10
49.976306
 20
45.804386
 30
0.0
 10
49.722306
 20
45.619886
 30
0.0
 10
49.447206
 20
45.468586
 30
0.0
 10
49.155306
 20
45.352985
 30
0.0
 10
48.851206
 20
45.274988
 30
0.0
 10
48.539706
 20
45.235587
 30
0.0
 10
48.225706
 20
45.235587
 30
0.0
  0
LWPOLYLINE
  5
12e
100
AcDbEntity
  8
Ebene_1
 62
7
100
AcDbPolyline
 90
51
 70
0
 10
72.225706
 20
45.235587
 30
0.0
 10
71.914206
 20
45.274988
 30
0.0
 10
71.610106
 20
45.352985
 30
0.0
 10
71.318206
 20
45.468586
 30
0.0
 10
71.043106
 20
45.619886
 30
0.0
 10
70.789106
 20
45.804386
 30
0.0
 10
70.560306
 20
46.019287
 30
0.0
 10
70.360156
 20
46.261185
 30
0.0
 10
70.191926
 20
46.526285
 30
0.0
 10
70.058256
 20
46.810387
 30
0.0
 10
69.961246
 20
47.108986
 30
0.0
 10
69.902406
 20
47.417387
 30
0.0
 10
69.882707
 20
47.730685
 30
0.0
 10
69.902405
 20
48.043986
 30
0.0
 10
69.961246
 20
48.352387
 30
0.0
 10
70.058256
 20
48.650986
 30
0.0
 10
70.191926
 20
48.935085
 30
0.0
 10
70.360156
 20
49.200185
 30
0.0
 10
70.560306
 20
49.442086
 30
0.0
 10
70.789106
 20
49.656987
 30
0.0
 10
71.043106
 20
49.841487
 30
0.0
 10
71.318206
 20
49.992787
 30
0.0
 10
71.610106
 20
50.108286
 30
0.0
 10
71.914206
 20
50.186385
 30
0.0
 10
72.225706
 20
50.225786
 30
0.0
 10
72.539706
 20
50.225786
 30
0.0
 10
72.851106
 20
50.186385
 30
0.0
 10
73.155206
 20
50.108286
 30
0.0
 10
73.447106
 20
49.992787
 30
0.0
 10
73.722306
 20
49.841487
 30
0.0
 10
73.976306
 20
49.656987
 30
0.0
 10
74.205106
 20
49.442086
 30
0.0
 10
74.405206
 20
49.200185
 30
0.0
 10
74.573506
 20
48.935085
 30
0.0
 10
74.707106
 20
48.650986
 30
0.0
 10
74.804106
 20
48.352387
 30
0.0
 10
74.863006
 20
48.043986
 30
0.0
 10
74.882705
 20
47.730685
 30
0.0
 10
74.863007
 20
47.417387
 30
0.0
 10
74.804106
 20
47.108986
 30
0.0
 10
74.707106
 20
46.810387
 30
0.0
 10
74.573506
 20
46.526285
 30
0.0
 10
74.405206
 20
46.261185
 30
0.0
 10
74.205106
 20
46.019287
 30
0.0
 10
73.976306
 20
45.804386
 30
0.0
 10
73.722306
 20
45.619886
 30
0.0
 10
73.447106
 20
45.468586
 30
0.0
 10
73.155206
 20
45.352985
 30
0.0
 10
72.851106
 20
45.274988
 30
0.0
 10
72.539706
 20
45.235587
 30
0.0
 10
72.225706
 20
45.235587
 30
0.0
  0
LWPOLYLINE
  5
12f
100
AcDbEntity
  8
Ebene_1
 62
7
100
AcDbPolyline
 90
51
 70
0
 10
48.225706
 20
3.235575
 30
0.0
 10
47.914306
 20
3.274973
 30
0.0
 10
47.610206
 20
3.353092
 30
0.0
 10
47.318306
 20
3.468577
 30
0.0
 10
47.043106
 20
3.619877
 30
0.0
 10
46.789106
 20
3.804394
 30
0.0
 10
46.560306
 20
4.019278
 30
0.0
 10
46.360206
 20
4.261198
 30
0.0
 10
46.191906
 20
4.526290
 30
0.0
 10
46.058306
 20
4.810375
 30
0.0
 10
45.961306
 20
5.108994
 30
0.0
 10
45.902406
 20
5.417378
 30
0.0
 10
45.882707
 20
5.730673
 30
0.0
 10
45.902405
 20
6.043996
 30
0.0
 10
45.961306
 20
6.352380
 30
0.0
 10
46.058306
 20
6.651000
 30
0.0
 10
46.191906
 20
6.935085
 30
0.0
 10
46.360206
 20
7.200176
 30
0.0
 10
46.560306
 20
7.442097
 30
0.0
 10
46.789106
 20
7.656981
 30
0.0
 10
47.043106
 20
7.841498
 30
0.0
 10
47.318306
 20
7.992797
 30
0.0
 10
47.610206
 20
8.108395
 30
0.0
 10
47.914306
 20
8.186373
 30
0.0
 10
48.225706
 20
8.225800
 30
0.0
 10
48.539706
 20
8.225800
 30
0.0
 10
48.851206
 20
8.186373
 30
0.0
 10
49.155306
 20
8.108395
 30
0.0
 10
49.447206
 20
7.992797
 30
0.0
 10
49.722306
 20
7.841498
 30
0.0
 10
49.976306
 20
7.656981
 30
0.0
 10
50.205106
 20
7.442097
 30
0.0
 10
50.405256
 20
7.200176
 30
0.0
 10
50.573486
 20
6.935085
 30
0.0
 10
50.707156
 20
6.651000
 30
0.0
 10
50.804166
 20
6.352380
 30
0.0
 10
50.863006
 20
6.043996
 30
0.0
 10
50.882705
 20
5.730673
 30
0.0
 10
50.863007
 20
5.417378
 30
0.0
 10
50.804166
 20
5.108994
 30
0.0
 10
50.707156
 20
4.810375
 30
0.0
 10
50.573486
 20
4.526290
 30
0.0
 10
50.405256
 20
4.261198
 30
0.0
 10
50.205106
 20
4.019278
 30
0.0
 10
49.976306
 20
3.804394
 30
0.0
 10
49.722306
 20
3.619877
 30
0.0
 10
49.447206
 20
3.468577
 30
0.0
 10
49.155306
 20
3.353092
 30
0.0
 10
48.851206
 20
3.274973
 30
0.0
 10
48.539706
 20
3.235575
 30
0.0
 10
48.225706
 20
3.235575
 30
0.0
  0
LWPOLYLINE
  5
130
100
AcDbEntity
  8
Ebene_1
 62
7
100
AcDbPolyline
 90
51
 70
0
 10
72.225706
 20
3.235575
 30
0.0
 10
71.914206
 20
3.274973
 30
0.0
 10
71.610106
 20
3.353092
 30
0.0
 10
71.318206
 20
3.468577
 30
0.0
 10
71.043106
 20
3.619877
 30
0.0
 10
70.789106
 20
3.804394
 30
0.0
 10
70.560306
 20
4.019278
 30
0.0
 10
70.360156
 20
4.261198
 30
0.0
 10
70.191926
 20
4.526290
 30
0.0
 10
70.058256
 20
4.810375
 30
0.0
 10
69.961246
 20
5.108994
 30
0.0
 10
69.902406
 20
5.417378
 30
0.0
 10
69.882707
 20
5.730673
 30
0.0
 10
69.902405
 20
6.043996
 30
0.0
 10
69.961246
 20
6.352380
 30
0.0
 10
70.058256
 20
6.651000
 30
0.0
 10
70.191926
 20
6.935085
 30
0.0
 10
70.360156
 20
7.200176
 30
0.0
 10
70.560306
 20
7.442097
 30
0.0
 10
70.789106
 20
7.656981
 30
0.0
 10
71.043106
 20
7.841498
 30
0.0
 10
71.318206
 20
7.992797
 30
0.0
 10
71.610106
 20
8.108395
 30
0.0
 10
71.914206
 20
8.186373
 30
0.0
 10
72.225706
 20
8.225800
 30
0.0
 10
72.539706
 20
8.225800
 30
0.0
 10
72.851106
 20
8.186373
 30
0.0
 10
73.155206
 20
8.108395
 30
0.0
 10
73.447106
 20
7.992797
 30
0.0
 10
73.722306
 20
7.841498
 30
0.0
 10
73.976306
 20
7.656981
 30
0.0
 10
74.205106
 20
7.442097
 30
0.0
 10
74.405206
 20
7.200176
 30
0.0
 10
74.573506
 20
6.935085
 30
0.0
 10
74.707106
 20
6.651000
 30
0.0
 10
74.804106
 20
6.352380
 30
0.0
 10
74.863006
 20
6.043996
 30
0.0
 10
74.882705
 20
5.730673
 30
0.0
 10
74.863007
 20
5.417378
 30
0.0
 10
74.804106
 20
5.108994
 30
0.0
 10
74.707106
 20
4.810375
 30
0.0
 10
74.573506
 20
4.526290
 30
0.0
 10
74.405206
 20
4.261198
 30
0.0
 10
74.205106
 20
4.019278
 30
0.0
 10
73.976306
 20
3.804394
 30
0.0
 10
73.722306
 20
3.619877
 30
0.0
 10
73.447106
 20
3.468577
 30
0.0
 10
73.155206
 20
3.353092
 30
0.0
 10
72.851106
 20
3.274973
 30
0.0
 10
72.539706
 20
3.235575
 30
0.0
 10
72.225706
 20
3.235575
 30
0.0
  0
LWPOLYLINE
  5
131
100
AcDbEntity
  8
Ebene_1
 62
7
100
AcDbPolyline
 90
51
 70
0
 10
48.288506
 20
-19.766327
 30
0.0
 10
48.101606
 20
-19.742620
 30
0.0
 10
47.919206
 20
-19.695912
 30
0.0
 10
47.744006
 20
-19.626514
 30
0.0
 10
47.579006
 20
-19.535808
 30
0.0
 10
47.426606
 20
-19.425120
 30
0.0
 10
47.289306
 20
-19.296116
 30
0.0
 10
47.169206
 20
-19.151026
 30
0.0
 10
47.068206
 20
-18.991909
 30
0.0
 10
46.988006
 20
-18.821503
 30
0.0
 10
46.929806
 20
-18.642320
 30
0.0
 10
46.894506
 20
-18.457324
 30
0.0
 10
46.882706
 20
-18.269307
 30
0.0
 10
46.894506
 20
-18.081319
 30
0.0
 10
46.929806
 20
-17.896322
 30
0.0
 10
46.988006
 20
-17.717111
 30
0.0
 10
47.068206
 20
-17.546705
 30
0.0
 10
47.169206
 20
-17.387617
 30
0.0
 10
47.289306
 20
-17.242526
 30
0.0
 10
47.426606
 20
-17.113522
 30
0.0
 10
47.579006
 20
-17.002807
 30
0.0
 10
47.744006
 20
-16.912016
 30
0.0
 10
47.919206
 20
-16.842702
 30
0.0
 10
48.101606
 20
-16.795910
 30
0.0
 10
48.288506
 20
-16.772203
 30
0.0
 10
48.476906
 20
-16.772203
 30
0.0
 10
48.663806
 20
-16.795910
 30
0.0
 10
48.846206
 20
-16.842702
 30
0.0
 10
49.021406
 20
-16.912016
 30
0.0
 10
49.186406
 20
-17.002807
 30
0.0
 10
49.338806
 20
-17.113522
 30
0.0
 10
49.476206
 20
-17.242526
 30
0.0
 10
49.596206
 20
-17.387617
 30
0.0
 10
49.697206
 20
-17.546705
 30
0.0
 10
49.777406
 20
-17.717111
 30
0.0
 10
49.835606
 20
-17.896322
 30
0.0
 10
49.870906
 20
-18.081319
 30
0.0
 10
49.882706
 20
-18.269307
 30
0.0
 10
49.870906
 20
-18.457324
 30
0.0
 10
49.835606
 20
-18.642320
 30
0.0
 10
49.777406
 20
-18.821503
 30
0.0
 10
49.697206
 20
-18.991909
 30
0.0
 10
49.596206
 20
-19.151026
 30
0.0
 10
49.476206
 20
-19.296116
 30
0.0
 10
49.338806
 20
-19.425120
 30
0.0
 10
49.186406
 20
-19.535808
 30
0.0
 10
49.021406
 20
-19.626514
 30
0.0
 10
48.846206
 20
-19.695912
 30
0.0
 10
48.663806
 20
-19.742705
 30
0.0
 10
48.476906
 20
-19.766411
 30
0.0
 10
48.288506
 20
-19.766327
 30
0.0
  0
LWPOLYLINE
  5
132
100
AcDbEntity
  8
Ebene_1
 62
7
100
AcDbPolyline
 90
51
 70
0
 10
72.288506
 20
-19.766327
 30
0.0
 10
72.101606
 20
-19.742620
 30
0.0
 10
71.919206
 20
-19.695912
 30
0.0
 10
71.744006
 20
-19.626514
 30
0.0
 10
71.579006
 20
-19.535808
 30
0.0
 10
71.426606
 20
-19.425120
 30
0.0
 10
71.289206
 20
-19.296116
 30
0.0
 10
71.169206
 20
-19.151026
 30
0.0
 10
71.068206
 20
-18.991909
 30
0.0
 10
70.988006
 20
-18.821503
 30
0.0
 10
70.929806
 20
-18.642320
 30
0.0
 10
70.894506
 20
-18.457324
 30
0.0
 10
70.882706
 20
-18.269307
 30
0.0
 10
70.894506
 20
-18.081319
 30
0.0
 10
70.929806
 20
-17.896322
 30
0.0
 10
70.988006
 20
-17.717111
 30
0.0
 10
71.068206
 20
-17.546705
 30
0.0
 10
71.169206
 20
-17.387617
 30
0.0
 10
71.289206
 20
-17.242526
 30
0.0
 10
71.426606
 20
-17.113522
 30
0.0
 10
71.579006
 20
-17.002807
 30
0.0
 10
71.744006
 20
-16.912016
 30
0.0
 10
71.919206
 20
-16.842702
 30
0.0
 10
72.101606
 20
-16.795910
 30
0.0
 10
72.288506
 20
-16.772203
 30
0.0
 10
72.476906
 20
-16.772203
 30
0.0
 10
72.663806
 20
-16.795910
 30
0.0
 10
72.846206
 20
-16.842702
 30
0.0
 10
73.021406
 20
-16.912016
 30
0.0
 10
73.186406
 20
-17.002807
 30
0.0
 10
73.338806
 20
-17.113522
 30
0.0
 10
73.476106
 20
-17.242526
 30
0.0
 10
73.596206
 20
-17.387617
 30
0.0
 10
73.697206
 20
-17.546705
 30
0.0
 10
73.777406
 20
-17.717111
 30
0.0
 10
73.835606
 20
-17.896322
 30
0.0
 10
73.870906
 20
-18.081319
 30
0.0
 10
73.882706
 20
-18.269307
 30
0.0
 10
73.870906
 20
-18.457324
 30
0.0
 10
73.835606
 20
-18.642320
 30
0.0
 10
73.777406
 20
-18.821503
 30
0.0
 10
73.697206
 20
-18.991909
 30
0.0
 10
73.596206
 20
-19.151026
 30
0.0
 10
73.476106
 20
-19.296116
 30
0.0
 10
73.338806
 20
-19.425120
 30
0.0
 10
73.186406
 20
-19.535808
 30
0.0
 10
73.021406
 20
-19.626514
 30
0.0
 10
72.846206
 20
-19.695912
 30
0.0
 10
72.663806
 20
-19.742705
 30
0.0
 10
72.476906
 20
-19.766411
 30
0.0
 10
72.288506
 20
-19.766327
 30
0.0
  0
LWPOLYLINE
  5
133
100
AcDbEntity
  8
Ebene_1
 62
7
100
AcDbPolyline
 90
7
 70
0
 10
127.882707
 20
-23.269325
 30
0.0
 10
187.382706
 20
-23.269325
 30
0.0
 10
187.382706
 20
-3.269309
 30
0.0
 10
172.882706
 20
-3.269309
 30
0.0
 10
172.882706
 20
56.730687
 30
0.0
 10
187.382706
 20
56.730687
 30
0.0
 10
187.382706
 20
76.730686
 30
0.0
  0
LWPOLYLINE
  5
134
100
AcDbEntity
  8
Ebene_1
 62
7
100
AcDbPolyline
 90
51
 70
0
 10
138.288506
 20
70.233586
 30
0.0
 10
138.101607
 20
70.257293
 30
0.0
 10
137.919207
 20
70.304086
 30
0.0
 10
137.744007
 20
70.373385
 30
0.0
 10
137.579007
 20
70.464187
 30
0.0
 10
137.426607
 20
70.574886
 30
0.0
 10
137.289307
 20
70.703887
 30
0.0
 10
137.169207
 20
70.848986
 30
0.0
 10
137.068207
 20
71.008086
 30
0.0
 10
136.988007
 20
71.178486
 30
0.0
 10
136.929807
 20
71.357686
 30
0.0
 10
136.894507
 20
71.542686
 30
0.0
 10
136.882707
 20
71.730685
 30
0.0
 10
136.894506
 20
71.918687
 30
0.0
 10
136.929807
 20
72.103687
 30
0.0
 10
136.988007
 20
72.282887
 30
0.0
 10
137.068207
 20
72.453287
 30
0.0
 10
137.169207
 20
72.612387
 30
0.0
 10
137.289307
 20
72.757486
 30
0.0
 10
137.426607
 20
72.886487
 30
0.0
 10
137.579007
 20
72.997186
 30
0.0
 10
137.744007
 20
73.087886
 30
0.0
 10
137.919207
 20
73.157287
 30
0.0
 10
138.101607
 20
73.204085
 30
0.0
 10
138.288506
 20
73.227679
 30
0.0
 10
138.476906
 20
73.227688
 30
0.0
 10
138.663807
 20
73.204094
 30
0.0
 10
138.846207
 20
73.157287
 30
0.0
 10
139.021407
 20
73.087886
 30
0.0
 10
139.186407
 20
72.997186
 30
0.0
 10
139.338807
 20
72.886487
 30
0.0
 10
139.476207
 20
72.757486
 30
0.0
 10
139.596207
 20
72.612387
 30
0.0
 10
139.697207
 20
72.453287
 30
0.0
 10
139.777407
 20
72.282887
 30
0.0
 10
139.835607
 20
72.103687
 30
0.0
 10
139.870907
 20
71.918687
 30
0.0
 10
139.882706
 20
71.730685
 30
0.0
 10
139.870907
 20
71.542686
 30
0.0
 10
139.835607
 20
71.357686
 30
0.0
 10
139.777407
 20
71.178486
 30
0.0
 10
139.697207
 20
71.008086
 30
0.0
 10
139.596207
 20
70.848986
 30
0.0
 10
139.476207
 20
70.703887
 30
0.0
 10
139.338807
 20
70.574886
 30
0.0
 10
139.186407
 20
70.464187
 30
0.0
 10
139.021407
 20
70.373385
 30
0.0
 10
138.846207
 20
70.304086
 30
0.0
 10
138.663807
 20
70.257288
 30
0.0
 10
138.476906
 20
70.233581
 30
0.0
 10
138.288506
 20
70.233586
 30
0.0
  0
LWPOLYLINE
  5
135
100
AcDbEntity
  8
Ebene_1
 62
7
100
AcDbPolyline
 90
51
 70
0
 10
162.288507
 20
70.233586
 30
0.0
 10
162.101606
 20
70.257293
 30
0.0
 10
161.919207
 20
70.304086
 30
0.0
 10
161.744007
 20
70.373385
 30
0.0
 10
161.579007
 20
70.464187
 30
0.0
 10
161.426607
 20
70.574886
 30
0.0
 10
161.289207
 20
70.703887
 30
0.0
 10
161.169207
 20
70.848986
 30
0.0
 10
161.068207
 20
71.008086
 30
0.0
 10
160.988007
 20
71.178486
 30
0.0
 10
160.929807
 20
71.357686
 30
0.0
 10
160.894506
 20
71.542686
 30
0.0
 10
160.882707
 20
71.730685
 30
0.0
 10
160.894506
 20
71.918687
 30
0.0
 10
160.929807
 20
72.103687
 30
0.0
 10
160.988007
 20
72.282887
 30
0.0
 10
161.068207
 20
72.453287
 30
0.0
 10
161.169207
 20
72.612387
 30
0.0
 10
161.289207
 20
72.757486
 30
0.0
 10
161.426607
 20
72.886487
 30
0.0
 10
161.579007
 20
72.997186
 30
0.0
 10
161.744007
 20
73.087886
 30
0.0
 10
161.919207
 20
73.157287
 30
0.0
 10
162.101606
 20
73.204085
 30
0.0
 10
162.288507
 20
73.227679
 30
0.0
 10
162.476907
 20
73.227688
 30
0.0
 10
162.663807
 20
73.204094
 30
0.0
 10
162.846207
 20
73.157287
 30
0.0
 10
163.021407
 20
73.087886
 30
0.0
 10
163.186407
 20
72.997186
 30
0.0
 10
163.338807
 20
72.886487
 30
0.0
 10
163.476107
 20
72.757486
 30
0.0
 10
163.596207
 20
72.612387
 30
0.0
 10
163.697207
 20
72.453287
 30
0.0
 10
163.777406
 20
72.282887
 30
0.0
 10
163.835607
 20
72.103687
 30
0.0
 10
163.870907
 20
71.918687
 30
0.0
 10
163.882706
 20
71.730685
 30
0.0
 10
163.870907
 20
71.542686
 30
0.0
 10
163.835607
 20
71.357686
 30
0.0
 10
163.777406
 20
71.178486
 30
0.0
 10
163.697207
 20
71.008086
 30
0.0
 10
163.596207
 20
70.848986
 30
0.0
 10
163.476107
 20
70.703887
 30
0.0
 10
163.338807
 20
70.574886
 30
0.0
 10
163.186407
 20
70.464187
 30
0.0
 10
163.021407
 20
70.373385
 30
0.0
 10
162.846207
 20
70.304086
 30
0.0
 10
162.663807
 20
70.257288
 30
0.0
 10
162.476907
 20
70.233581
 30
0.0
 10
162.288507
 20
70.233586
 30
0.0
  0
LWPOLYLINE
  5
136
100
AcDbEntity
  8
Ebene_1
 62
7
100
AcDbPolyline
 90
5
 70
0
 10
176.882707
 20
65.480688
 30
0.0
 10
176.882707
 20
67.980686
 30
0.0
 10
183.882707
 20
67.980686
 30
0.0
 10
183.882707
 20
65.480688
 30
0.0
 10
176.882707
 20
65.480688
 30
0.0
  0
LWPOLYLINE
  5
137
100
AcDbEntity
  8
Ebene_1
 62
7
100
AcDbPolyline
 90
51
 70
0
 10
138.225707
 20
45.235587
 30
0.0
 10
137.914307
 20
45.274988
 30
0.0
 10
137.610207
 20
45.352985
 30
0.0
 10
137.318307
 20
45.468586
 30
0.0
 10
137.043107
 20
45.619886
 30
0.0
 10
136.789107
 20
45.804386
 30
0.0
 10
136.560307
 20
46.019287
 30
0.0
 10
136.360206
 20
46.261185
 30
0.0
 10
136.191907
 20
46.526285
 30
0.0
 10
136.058307
 20
46.810387
 30
0.0
 10
135.961307
 20
47.108986
 30
0.0
 10
135.902406
 20
47.417387
 30
0.0
 10
135.882707
 20
47.730685
 30
0.0
 10
135.902406
 20
48.043986
 30
0.0
 10
135.961307
 20
48.352387
 30
0.0
 10
136.058307
 20
48.650986
 30
0.0
 10
136.191907
 20
48.935085
 30
0.0
 10
136.360206
 20
49.200185
 30
0.0
 10
136.560307
 20
49.442086
 30
0.0
 10
136.789107
 20
49.656987
 30
0.0
 10
137.043107
 20
49.841487
 30
0.0
 10
137.318307
 20
49.992787
 30
0.0
 10
137.610207
 20
50.108286
 30
0.0
 10
137.914307
 20
50.186385
 30
0.0
 10
138.225707
 20
50.225786
 30
0.0
 10
138.539707
 20
50.225786
 30
0.0
 10
138.851207
 20
50.186385
 30
0.0
 10
139.155307
 20
50.108286
 30
0.0
 10
139.447206
 20
49.992787
 30
0.0
 10
139.722307
 20
49.841487
 30
0.0
 10
139.976307
 20
49.656987
 30
0.0
 10
140.205107
 20
49.442086
 30
0.0
 10
140.405257
 20
49.200185
 30
0.0
 10
140.573487
 20
48.935085
 30
0.0
 10
140.707157
 20
48.650986
 30
0.0
 10
140.804167
 20
48.352387
 30
0.0
 10
140.863007
 20
48.043986
 30
0.0
 10
140.882706
 20
47.730685
 30
0.0
 10
140.863008
 20
47.417387
 30
0.0
 10
140.804167
 20
47.108986
 30
0.0
 10
140.707157
 20
46.810387
 30
0.0
 10
140.573487
 20
46.526285
 30
0.0
 10
140.405257
 20
46.261185
 30
0.0
 10
140.205107
 20
46.019287
 30
0.0
 10
139.976307
 20
45.804386
 30
0.0
 10
139.722307
 20
45.619886
 30
0.0
 10
139.447206
 20
45.468586
 30
0.0
 10
139.155307
 20
45.352985
 30
0.0
 10
138.851207
 20
45.274988
 30
0.0
 10
138.539707
 20
45.235587
 30
0.0
 10
138.225707
 20
45.235587
 30
0.0
  0
LWPOLYLINE
  5
138
100
AcDbEntity
  8
Ebene_1
 62
7
100
AcDbPolyline
 90
51
 70
0
 10
162.225707
 20
45.235587
 30
0.0
 10
161.914207
 20
45.274988
 30
0.0
 10
161.610107
 20
45.352985
 30
0.0
 10
161.318207
 20
45.468586
 30
0.0
 10
161.043107
 20
45.619886
 30
0.0
 10
160.789107
 20
45.804386
 30
0.0
 10
160.560307
 20
46.019287
 30
0.0
 10
160.360157
 20
46.261185
 30
0.0
 10
160.191927
 20
46.526285
 30
0.0
 10
160.058257
 20
46.810387
 30
0.0
 10
159.961247
 20
47.108986
 30
0.0
 10
159.902406
 20
47.417387
 30
0.0
 10
159.882707
 20
47.730685
 30
0.0
 10
159.902406
 20
48.043986
 30
0.0
 10
159.961247
 20
48.352387
 30
0.0
 10
160.058257
 20
48.650986
 30
0.0
 10
160.191927
 20
48.935085
 30
0.0
 10
160.360157
 20
49.200185
 30
0.0
 10
160.560307
 20
49.442086
 30
0.0
 10
160.789107
 20
49.656987
 30
0.0
 10
161.043107
 20
49.841487
 30
0.0
 10
161.318207
 20
49.992787
 30
0.0
 10
161.610107
 20
50.108286
 30
0.0
 10
161.914207
 20
50.186385
 30
0.0
 10
162.225707
 20
50.225786
 30
0.0
 10
162.539707
 20
50.225786
 30
0.0
 10
162.851107
 20
50.186385
 30
0.0
 10
163.155207
 20
50.108286
 30
0.0
 10
163.447107
 20
49.992787
 30
0.0
 10
163.722307
 20
49.841487
 30
0.0
 10
163.976307
 20
49.656987
 30
0.0
 10
164.205107
 20
49.442086
 30
0.0
 10
164.405207
 20
49.200185
 30
0.0
 10
164.573507
 20
48.935085
 30
0.0
 10
164.707107
 20
48.650986
 30
0.0
 10
164.804107
 20
48.352387
 30
0.0
 10
164.863007
 20
48.043986
 30
0.0
 10
164.882706
 20
47.730685
 30
0.0
 10
164.863008
 20
47.417387
 30
0.0
 10
164.804107
 20
47.108986
 30
0.0
 10
164.707107
 20
46.810387
 30
0.0
 10
164.573507
 20
46.526285
 30
0.0
 10
164.405207
 20
46.261185
 30
0.0
 10
164.205107
 20
46.019287
 30
0.0
 10
163.976307
 20
45.804386
 30
0.0
 10
163.722307
 20
45.619886
 30
0.0
 10
163.447107
 20
45.468586
 30
0.0
 10
163.155207
 20
45.352985
 30
0.0
 10
162.851107
 20
45.274988
 30
0.0
 10
162.539707
 20
45.235587
 30
0.0
 10
162.225707
 20
45.235587
 30
0.0
  0
LWPOLYLINE
  5
139
100
AcDbEntity
  8
Ebene_1
 62
7
100
AcDbPolyline
 90
51
 70
0
 10
138.225707
 20
3.235575
 30
0.0
 10
137.914307
 20
3.274973
 30
0.0
 10
137.610207
 20
3.353092
 30
0.0
 10
137.318307
 20
3.468577
 30
0.0
 10
137.043107
 20
3.619877
 30
0.0
 10
136.789107
 20
3.804394
 30
0.0
 10
136.560307
 20
4.019278
 30
0.0
 10
136.360206
 20
4.261198
 30
0.0
 10
136.191907
 20
4.526290
 30
0.0
 10
136.058307
 20
4.810375
 30
0.0
 10
135.961307
 20
5.108994
 30
0.0
 10
135.902406
 20
5.417378
 30
0.0
 10
135.882707
 20
5.730673
 30
0.0
 10
135.902406
 20
6.043996
 30
0.0
 10
135.961307
 20
6.352380
 30
0.0
 10
136.058307
 20
6.651000
 30
0.0
 10
136.191907
 20
6.935085
 30
0.0
 10
136.360206
 20
7.200176
 30
0.0
 10
136.560307
 20
7.442097
 30
0.0
 10
136.789107
 20
7.656981
 30
0.0
 10
137.043107
 20
7.841498
 30
0.0
 10
137.318307
 20
7.992797
 30
0.0
 10
137.610207
 20
8.108395
 30
0.0
 10
137.914307
 20
8.186373
 30
0.0
 10
138.225707
 20
8.225800
 30
0.0
 10
138.539707
 20
8.225800
 30
0.0
 10
138.851207
 20
8.186373
 30
0.0
 10
139.155307
 20
8.108395
 30
0.0
 10
139.447206
 20
7.992797
 30
0.0
 10
139.722307
 20
7.841498
 30
0.0
 10
139.976307
 20
7.656981
 30
0.0
 10
140.205107
 20
7.442097
 30
0.0
 10
140.405257
 20
7.200176
 30
0.0
 10
140.573487
 20
6.935085
 30
0.0
 10
140.707157
 20
6.651000
 30
0.0
 10
140.804167
 20
6.352380
 30
0.0
 10
140.863007
 20
6.043996
 30
0.0
 10
140.882706
 20
5.730673
 30
0.0
 10
140.863008
 20
5.417378
 30
0.0
 10
140.804167
 20
5.108994
 30
0.0
 10
140.707157
 20
4.810375
 30
0.0
 10
140.573487
 20
4.526290
 30
0.0
 10
140.405257
 20
4.261198
 30
0.0
 10
140.205107
 20
4.019278
 30
0.0
 10
139.976307
 20
3.804394
 30
0.0
 10
139.722307
 20
3.619877
 30
0.0
 10
139.447206
 20
3.468577
 30
0.0
 10
139.155307
 20
3.353092
 30
0.0
 10
138.851207
 20
3.274973
 30
0.0
 10
138.539707
 20
3.235575
 30
0.0
 10
138.225707
 20
3.235575
 30
0.0
  0
LWPOLYLINE
  5
13a
100
AcDbEntity
  8
Ebene_1
 62
7
100
AcDbPolyline
 90
51
 70
0
 10
162.225707
 20
3.235575
 30
0.0
 10
161.914207
 20
3.274973
 30
0.0
 10
161.610107
 20
3.353092
 30
0.0
 10
161.318207
 20
3.468577
 30
0.0
 10
161.043107
 20
3.619877
 30
0.0
 10
160.789107
 20
3.804394
 30
0.0
 10
160.560307
 20
4.019278
 30
0.0
 10
160.360157
 20
4.261198
 30
0.0
 10
160.191927
 20
4.526290
 30
0.0
 10
160.058257
 20
4.810375
 30
0.0
 10
159.961247
 20
5.108994
 30
0.0
 10
159.902406
 20
5.417378
 30
0.0
 10
159.882707
 20
5.730673
 30
0.0
 10
159.902406
 20
6.043996
 30
0.0
 10
159.961247
 20
6.352380
 30
0.0
 10
160.058257
 20
6.651000
 30
0.0
 10
160.191927
 20
6.935085
 30
0.0
 10
160.360157
 20
7.200176
 30
0.0
 10
160.560307
 20
7.442097
 30
0.0
 10
160.789107
 20
7.656981
 30
0.0
 10
161.043107
 20
7.841498
 30
0.0
 10
161.318207
 20
7.992797
 30
0.0
 10
161.610107
 20
8.108395
 30
0.0
 10
161.914207
 20
8.186373
 30
0.0
 10
162.225707
 20
8.225800
 30
0.0
 10
162.539707
 20
8.225800
 30
0.0
 10
162.851107
 20
8.186373
 30
0.0
 10
163.155207
 20
8.108395
 30
0.0
 10
163.447107
 20
7.992797
 30
0.0
 10
163.722307
 20
7.841498
 30
0.0
 10
163.976307
 20
7.656981
 30
0.0
 10
164.205107
 20
7.442097
 30
0.0
 10
164.405207
 20
7.200176
 30
0.0
 10
164.573507
 20
6.935085
 30
0.0
 10
164.707107
 20
6.651000
 30
0.0
 10
164.804107
 20
6.352380
 30
0.0
 10
164.863007
 20
6.043996
 30
0.0
 10
164.882706
 20
5.730673
 30
0.0
 10
164.863008
 20
5.417378
 30
0.0
 10
164.804107
 20
5.108994
 30
0.0
 10
164.707107
 20
4.810375
 30
0.0
 10
164.573507
 20
4.526290
 30
0.0
 10
164.405207
 20
4.261198
 30
0.0
 10
164.205107
 20
4.019278
 30
0.0
 10
163.976307
 20
3.804394
 30
0.0
 10
163.722307
 20
3.619877
 30
0.0
 10
163.447107
 20
3.468577
 30
0.0
 10
163.155207
 20
3.353092
 30
0.0
 10
162.851107
 20
3.274973
 30
0.0
 10
162.539707
 20
3.235575
 30
0.0
 10
162.225707
 20
3.235575
 30
0.0
  0
LWPOLYLINE
  5
13b
100
AcDbEntity
  8
Ebene_1
 62
7
100
AcDbPolyline
 90
5
 70
0
 10
176.882707
 20
-14.519308
 30
0.0
 10
176.882707
 20
-12.019327
 30
0.0
 10
183.882707
 20
-12.019327
 30
0.0
 10
183.882707
 20
-14.519308
 30
0.0
 10
176.882707
 20
-14.519308
 30
0.0
  0
LWPOLYLINE
  5
13c
100
AcDbEntity
  8
Ebene_1
 62
7
100
AcDbPolyline
 90
51
 70
0
 10
138.288506
 20
-19.766327
 30
0.0
 10
138.101607
 20
-19.742620
 30
0.0
 10
137.919207
 20
-19.695912
 30
0.0
 10
137.744007
 20
-19.626514
 30
0.0
 10
137.579007
 20
-19.535808
 30
0.0
 10
137.426607
 20
-19.425120
 30
0.0
 10
137.289307
 20
-19.296116
 30
0.0
 10
137.169207
 20
-19.151026
 30
0.0
 10
137.068207
 20
-18.991909
 30
0.0
 10
136.988007
 20
-18.821503
 30
0.0
 10
136.929807
 20
-18.642320
 30
0.0
 10
136.894507
 20
-18.457324
 30
0.0
 10
136.882707
 20
-18.269307
 30
0.0
 10
136.894506
 20
-18.081319
 30
0.0
 10
136.929807
 20
-17.896322
 30
0.0
 10
136.988007
 20
-17.717111
 30
0.0
 10
137.068207
 20
-17.546705
 30
0.0
 10
137.169207
 20
-17.387617
 30
0.0
 10
137.289307
 20
-17.242526
 30
0.0
 10
137.426607
 20
-17.113522
 30
0.0
 10
137.579007
 20
-17.002807
 30
0.0
 10
137.744007
 20
-16.912016
 30
0.0
 10
137.919207
 20
-16.842702
 30
0.0
 10
138.101607
 20
-16.795910
 30
0.0
 10
138.288506
 20
-16.772203
 30
0.0
 10
138.476906
 20
-16.772203
 30
0.0
 10
138.663807
 20
-16.795910
 30
0.0
 10
138.846207
 20
-16.842702
 30
0.0
 10
139.021407
 20
-16.912016
 30
0.0
 10
139.186407
 20
-17.002807
 30
0.0
 10
139.338807
 20
-17.113522
 30
0.0
 10
139.476207
 20
-17.242526
 30
0.0
 10
139.596207
 20
-17.387617
 30
0.0
 10
139.697207
 20
-17.546705
 30
0.0
 10
139.777407
 20
-17.717111
 30
0.0
 10
139.835607
 20
-17.896322
 30
0.0
 10
139.870907
 20
-18.081319
 30
0.0
 10
139.882706
 20
-18.269307
 30
0.0
 10
139.870907
 20
-18.457324
 30
0.0
 10
139.835607
 20
-18.642320
 30
0.0
 10
139.777407
 20
-18.821503
 30
0.0
 10
139.697207
 20
-18.991909
 30
0.0
 10
139.596207
 20
-19.151026
 30
0.0
 10
139.476207
 20
-19.296116
 30
0.0
 10
139.338807
 20
-19.425120
 30
0.0
 10
139.186407
 20
-19.535808
 30
0.0
 10
139.021407
 20
-19.626514
 30
0.0
 10
138.846207
 20
-19.695912
 30
0.0
 10
138.663807
 20
-19.742705
 30
0.0
 10
138.476906
 20
-19.766411
 30
0.0
 10
138.288506
 20
-19.766327
 30
0.0
  0
LWPOLYLINE
  5
13d
100
AcDbEntity
  8
Ebene_1
 62
7
100
AcDbPolyline
 90
51
 70
0
 10
162.288507
 20
-19.766327
 30
0.0
 10
162.101606
 20
-19.742620
 30
0.0
 10
161.919207
 20
-19.695912
 30
0.0
 10
161.744007
 20
-19.626514
 30
0.0
 10
161.579007
 20
-19.535808
 30
0.0
 10
161.426607
 20
-19.425120
 30
0.0
 10
161.289207
 20
-19.296116
 30
0.0
 10
161.169207
 20
-19.151026
 30
0.0
 10
161.068207
 20
-18.991909
 30
0.0
 10
160.988007
 20
-18.821503
 30
0.0
 10
160.929807
 20
-18.642320
 30
0.0
 10
160.894506
 20
-18.457324
 30
0.0
 10
160.882707
 20
-18.269307
 30
0.0
 10
160.894506
 20
-18.081319
 30
0.0
 10
160.929807
 20
-17.896322
 30
0.0
 10
160.988007
 20
-17.717111
 30
0.0
 10
161.068207
 20
-17.546705
 30
0.0
 10
161.169207
 20
-17.387617
 30
0.0
 10
161.289207
 20
-17.242526
 30
0.0
 10
161.426607
 20
-17.113522
 30
0.0
 10
161.579007
 20
-17.002807
 30
0.0
 10
161.744007
 20
-16.912016
 30
0.0
 10
161.919207
 20
-16.842702
 30
0.0
 10
162.101606
 20
-16.795910
 30
0.0
 10
162.288507
 20
-16.772203
 30
0.0
 10
162.476907
 20
-16.772203
 30
0.0
 10
162.663807
 20
-16.795910
 30
0.0
 10
162.846207
 20
-16.842702
 30
0.0
 10
163.021407
 20
-16.912016
 30
0.0
 10
163.186407
 20
-17.002807
 30
0.0
 10
163.338807
 20
-17.113522
 30
0.0
 10
163.476107
 20
-17.242526
 30
0.0
 10
163.596207
 20
-17.387617
 30
0.0
 10
163.697207
 20
-17.546705
 30
0.0
 10
163.777406
 20
-17.717111
 30
0.0
 10
163.835607
 20
-17.896322
 30
0.0
 10
163.870907
 20
-18.081319
 30
0.0
 10
163.882706
 20
-18.269307
 30
0.0
 10
163.870907
 20
-18.457324
 30
0.0
 10
163.835607
 20
-18.642320
 30
0.0
 10
163.777406
 20
-18.821503
 30
0.0
 10
163.697207
 20
-18.991909
 30
0.0
 10
163.596207
 20
-19.151026
 30
0.0
 10
163.476107
 20
-19.296116
 30
0.0
 10
163.338807
 20
-19.425120
 30
0.0
 10
163.186407
 20
-19.535808
 30
0.0
 10
163.021407
 20
-19.626514
 30
0.0
 10
162.846207
 20
-19.695912
 30
0.0
 10
162.663807
 20
-19.742705
 30
0.0
 10
162.476907
 20
-19.766411
 30
0.0
 10
162.288507
 20
-19.766327
 30
0.0
  0
ENDSEC
  0
SECTION
  2
OBJECTS
  0
DICTIONARY
  5
C
330
0
100
AcDbDictionary
  3
ACAD_GROUP
350
D
  3
ACAD_MLINESTYLE
350
17
  0
DICTIONARY
  5
D
330
C
100
AcDbDictionary
  0
DICTIONARY
  5
1A
330
C
100
AcDbDictionary
  0
DICTIONARY
  5
17
330
C
100
AcDbDictionary
  3
STANDARD
350
18
  0
DICTIONARY
  5
19
330
C
100
AcDbDictionary
  0
ENDSEC
  0
EOF
