  0
SECTION
  2
HEADER
  9
$ACADVER
  1
AC1014
  9
$HANDSEED
  5
FFFF
  9
$MEASUREMENT
 70
     1
  0
ENDSEC
  0
SECTION
  2
TABLES
  0
TABLE
  2
VPORT
  5
8
330
0
100
AcDbSymbolTable
 70
     4
  0
VPORT
  5
2E
330
8
100
AcDbSymbolTableRecord
100
AcDbViewportTableRecord
  2
*ACTIVE
 70
     0
 10
0.0
 20
0.0
 11
1.0
 21
1.0
 12
210.0
 22
148.5
 13
0.0
 23
0.0
 14
10.0
 24
10.0
 15
10.0
 25
10.0
 16
0.0
 26
0.0
 36
1.0
 17
0.0
 27
0.0
 37
0.0
 40
341.0
 41
1.24
 42
50.0
 43
0.0
 44
0.0
 50
0.0
 51
0.0
 71
     0
 72
   100
 73
     1
 74
     3
 75
     0
 76
     0
 77
     0
 78
     0
  0
ENDTAB
  0
TABLE
  2
LTYPE
  5
5
330
0
100
AcDbSymbolTable
 70
     1
  0
LTYPE
  5
14
330
5
100
AcDbSymbolTableRecord
100
AcDbLinetypeTableRecord
  2
BYBLOCK
 70
     0
  3

 72
    65
 73
     0
 40
0.0
  0
LTYPE
  5
15
330
5
100
AcDbSymbolTableRecord
100
AcDbLinetypeTableRecord
  2
BYLAYER
 70
     0
  3

 72
    65
 73
     0
 40
0.0
  0
LTYPE
  5
16
330
5
100
AcDbSymbolTableRecord
100
AcDbLinetypeTableRecord
  2
CONTINUOUS
 70
     0
  3
Solid line
 72
    65
 73
     0
 40
0.0
  0
ENDTAB
  0
TABLE
  2
LAYER
  5
2
100
AcDbSymbolTable
 70
2
  0
LAYER
  5
50
100
AcDbSymbolTableRecord
100
AcDbLayerTableRecord
  2
0
 70
0
  6
CONTINUOUS
  0
LAYER
  5
51
100
AcDbSymbolTableRecord
100
AcDbLayerTableRecord
  2
Ebene_1
 70
0
  6
CONTINUOUS
  0
ENDTAB
  0
TABLE
  2
STYLE
  5
3
330
0
100
AcDbSymbolTable
 70
     1
  0
STYLE
  5
11
330
3
100
AcDbSymbolTableRecord
100
AcDbTextStyleTableRecord
  2
STANDARD
 70
     0
 40
0.0
 41
1.0
 50
0.0
 71
     0
 42
2.5
  3
txt
  4

  0
ENDTAB
  0
TABLE
  2
VIEW
  5
6
330
0
100
AcDbSymbolTable
 70
     0
  0
ENDTAB
  0
TABLE
  2
UCS
  5
7
330
0
100
AcDbSymbolTable
 70
     0
  0
ENDTAB
  0
TABLE
  2
APPID
  5
9
330
0
100
AcDbSymbolTable
 70
     2
  0
APPID
  5
12
330
9
100
AcDbSymbolTableRecord
100
AcDbRegAppTableRecord
  2
ACAD
 70
     0
  0
ENDTAB
  0
TABLE
  2
DIMSTYLE
  5
A
330
0
100
AcDbSymbolTable
 70
     1
  0
DIMSTYLE
105
27
330
A
100
AcDbSymbolTableRecord
100
AcDbDimStyleTableRecord
  2
ISO-25
 70
     0
  3

  4

  5

  6

  7

 40
1.0
 41
2.5
 42
0.625
 43
3.75
 44
1.25
 45
0.0
 46
0.0
 47
0.0
 48
0.0
140
2.5
141
2.5
142
0.0
143
0.03937007874016
144
1.0
145
0.0
146
1.0
147
0.625
 71
     0
 72
     0
 73
     0
 74
     0
 75
     0
 76
     0
 77
     1
 78
     8
170
     0
171
     3
172
     1
173
     0
174
     0
175
     0
176
     0
177
     0
178
     0
270
     2
271
     2
272
     2
273
     2
274
     3
340
11
275
     0
280
     0
281
     0
282
     0
283
     0
284
     8
285
     0
286
     0
287
     3
288
     0
  0
ENDTAB
  0
TABLE
  2
BLOCK_RECORD
  5
1
330
0
100
AcDbSymbolTable
 70
     1
  0
BLOCK_RECORD
  5
1F
330
1
100
AcDbSymbolTableRecord
100
AcDbBlockTableRecord
  2
*MODEL_SPACE
  0
BLOCK_RECORD
  5
1B
330
1
100
AcDbSymbolTableRecord
100
AcDbBlockTableRecord
  2
*PAPER_SPACE
  0
ENDTAB
  0
ENDSEC
  0
SECTION
  2
BLOCKS
  0
BLOCK
  5
20
330
1F
100
AcDbEntity
  8
0
100
AcDbBlockBegin
  2
*MODEL_SPACE
 70
     0
 10
0.0
 20
0.0
 30
0.0
  3
*MODEL_SPACE
  1

  0
ENDBLK
  5
21
330
1F
100
AcDbEntity
  8
0
100
AcDbBlockEnd
  0
BLOCK
  5
1C
330
1B
100
AcDbEntity
 67
     1
  8
0
100
AcDbBlockBegin
  2
*PAPER_SPACE
  1

  0
ENDBLK
  5
1D
330
1B
100
AcDbEntity
 67
     1
  8
0
100
AcDbBlockEnd
  0
ENDSEC
  0
SECTION
  2
ENTITIES
  0
LWPOLYLINE
  5
100
100
AcDbEntity
  8
Ebene_1
 62
7
100
AcDbPolyline
 90
5
 70
0
 10
173.495558
 20
224.537808
 30
0.0
 10
128.495558
 20
224.537808
 30
0.0
 10
128.495558
 20
124.537796
 30
0.0
 10
173.495558
 20
124.537796
 30
0.0
 10
173.495558
 20
224.537808
 30
0.0
  0
LWPOLYLINE
  5
101
100
AcDbEntity
  8
Ebene_1
 62
7
100
AcDbPolyline
 90
5
 70
0
 10
135.995558
 20
207.037809
 30
0.0
 10
135.995558
 20
212.037807
 30
0.0
 10
165.995558
 20
212.037807
 30
0.0
 10
165.995558
 20
207.037809
 30
0.0
 10
135.995558
 20
207.037809
 30
0.0
  0
LWPOLYLINE
  5
102
100
AcDbEntity
  8
Ebene_1
 62
7
100
AcDbPolyline
 90
5
 70
0
 10
135.995558
 20
137.037813
 30
0.0
 10
135.995558
 20
142.037803
 30
0.0
 10
165.995558
 20
142.037803
 30
0.0
 10
165.995558
 20
137.037813
 30
0.0
 10
135.995558
 20
137.037813
 30
0.0
  0
LWPOLYLINE
  5
103
100
AcDbEntity
  8
Ebene_1
 62
7
100
AcDbPolyline
 90
6
 70
0
 10
83.495558
 20
124.537796
 30
0.0
 10
90.995558
 20
124.537796
 30
0.0
 10
90.995558
 20
119.537778
 30
0.0
 10
120.995557
 20
119.537778
 30
0.0
 10
120.995557
 20
124.537796
 30
0.0
 10
128.495557
 20
124.537796
 30
0.0
  0
LWPOLYLINE
  5
104
100
AcDbEntity
  8
Ebene_1
 62
7
100
AcDbPolyline
 90
7
 70
0
 10
128.495557
 20
169.537793
 30
0.0
 10
120.995557
 20
169.537793
 30
0.0
 10
120.995557
 20
174.537792
 30
0.0
 10
90.995558
 20
174.537792
 30
0.0
 10
90.995558
 20
169.537793
 30
0.0
 10
83.495558
 20
169.537793
 30
0.0
 10
83.495558
 20
124.537796
 30
0.0
  0
LWPOLYLINE
  5
105
100
AcDbEntity
  8
Ebene_1
 62
7
100
AcDbPolyline
 90
13
 70
0
 10
38.495557
 20
179.537810
 30
0.0
 10
45.995557
 20
179.537810
 30
0.0
 10
45.995557
 20
174.537792
 30
0.0
 10
75.995557
 20
174.537792
 30
0.0
 10
75.995557
 20
179.537810
 30
0.0
 10
83.495557
 20
179.537810
 30
0.0
 10
83.495557
 20
224.537808
 30
0.0
 10
75.995557
 20
224.537808
 30
0.0
 10
75.995557
 20
229.537806
 30
0.0
 10
45.995557
 20
229.537806
 30
0.0
 10
45.995557
 20
224.537808
 30
0.0
 10
38.495557
 20
224.537808
 30
0.0
 10
38.495557
 20
179.537810
 30
0.0
  0
LWPOLYLINE
  5
106
100
AcDbEntity
  8
Ebene_1
 62
7
100
AcDbPolyline
 90
51
 70
0
 10
45.307557
 20
215.049607
 30
0.0
 10
45.122557
 20
215.084913
 30
0.0
 10
44.943357
 20
215.143107
 30
0.0
 10
44.772957
 20
215.223314
 30
0.0
 10
44.613857
 20
215.324293
 30
0.0
 10
44.468757
 20
215.444407
 30
0.0
 10
44.339757
 20
215.581708
 30
0.0
 10
44.229057
 20
215.734108
 30
0.0
 10
44.138357
 20
215.899095
 30
0.0
 10
44.068957
 20
216.074299
 30
0.0
 10
44.022157
 20
216.256699
 30
0.0
 10
43.998558
 20
216.443615
 30
0.0
 10
43.998557
 20
218.632006
 30
0.0
 10
44.022156
 20
218.818907
 30
0.0
 10
44.068957
 20
219.001307
 30
0.0
 10
44.138357
 20
219.176505
 30
0.0
 10
44.229057
 20
219.341507
 30
0.0
 10
44.339757
 20
219.493907
 30
0.0
 10
44.468757
 20
219.631205
 30
0.0
 10
44.613857
 20
219.751305
 30
0.0
 10
44.772957
 20
219.852306
 30
0.0
 10
44.943357
 20
219.932505
 30
0.0
 10
45.122557
 20
219.990705
 30
0.0
 10
45.307557
 20
220.026006
 30
0.0
 10
45.495557
 20
220.037802
 30
0.0
 10
45.683557
 20
220.026008
 30
0.0
 10
45.868557
 20
219.990705
 30
0.0
 10
46.047757
 20
219.932505
 30
0.0
 10
46.218157
 20
219.852306
 30
0.0
 10
46.377257
 20
219.751305
 30
0.0
 10
46.522357
 20
219.631205
 30
0.0
 10
46.651357
 20
219.493907
 30
0.0
 10
46.762057
 20
219.341507
 30
0.0
 10
46.852757
 20
219.176505
 30
0.0
 10
46.922157
 20
219.001307
 30
0.0
 10
46.968957
 20
218.818907
 30
0.0
 10
46.992557
 20
218.632006
 30
0.0
 10
46.992557
 20
216.443615
 30
0.0
 10
46.968958
 20
216.256699
 30
0.0
 10
46.922157
 20
216.074299
 30
0.0
 10
46.852757
 20
215.899095
 30
0.0
 10
46.762057
 20
215.734108
 30
0.0
 10
46.651357
 20
215.581708
 30
0.0
 10
46.522357
 20
215.444407
 30
0.0
 10
46.377257
 20
215.324293
 30
0.0
 10
46.218157
 20
215.223314
 30
0.0
 10
46.047757
 20
215.143107
 30
0.0
 10
45.868557
 20
215.084913
 30
0.0
 10
45.683557
 20
215.049607
 30
0.0
 10
45.495557
 20
215.037753
 30
0.0
 10
45.307557
 20
215.049663
 30
0.0
  0
LWPOLYLINE
  5
107
100
AcDbEntity
  8
Ebene_1
 62
7
100
AcDbPolyline
 90
51
 70
0
 10
76.307557
 20
215.049607
 30
0.0
 10
76.122557
 20
215.084913
 30
0.0
 10
75.943357
 20
215.143107
 30
0.0
 10
75.772957
 20
215.223314
 30
0.0
 10
75.613857
 20
215.324293
 30
0.0
 10
75.468757
 20
215.444407
 30
0.0
 10
75.339757
 20
215.581708
 30
0.0
 10
75.229057
 20
215.734108
 30
0.0
 10
75.138357
 20
215.899095
 30
0.0
 10
75.068957
 20
216.074299
 30
0.0
 10
75.022157
 20
216.256699
 30
0.0
 10
74.998558
 20
216.443615
 30
0.0
 10
74.998557
 20
218.632006
 30
0.0
 10
75.022157
 20
218.818907
 30
0.0
 10
75.068957
 20
219.001307
 30
0.0
 10
75.138357
 20
219.176505
 30
0.0
 10
75.229057
 20
219.341507
 30
0.0
 10
75.339757
 20
219.493907
 30
0.0
 10
75.468757
 20
219.631205
 30
0.0
 10
75.613857
 20
219.751305
 30
0.0
 10
75.772957
 20
219.852306
 30
0.0
 10
75.943357
 20
219.932505
 30
0.0
 10
76.122557
 20
219.990705
 30
0.0
 10
76.307557
 20
220.026006
 30
0.0
 10
76.495557
 20
220.037802
 30
0.0
 10
76.683557
 20
220.026008
 30
0.0
 10
76.868557
 20
219.990705
 30
0.0
 10
77.047757
 20
219.932505
 30
0.0
 10
77.218157
 20
219.852306
 30
0.0
 10
77.377257
 20
219.751305
 30
0.0
 10
77.522357
 20
219.631205
 30
0.0
 10
77.651357
 20
219.493907
 30
0.0
 10
77.762057
 20
219.341507
 30
0.0
 10
77.852757
 20
219.176505
 30
0.0
 10
77.922157
 20
219.001307
 30
0.0
 10
77.968957
 20
218.818907
 30
0.0
 10
77.992557
 20
218.632006
 30
0.0
 10
77.992557
 20
216.443615
 30
0.0
 10
77.968958
 20
216.256699
 30
0.0
 10
77.922157
 20
216.074299
 30
0.0
 10
77.852757
 20
215.899095
 30
0.0
 10
77.762057
 20
215.734108
 30
0.0
 10
77.651357
 20
215.581708
 30
0.0
 10
77.522357
 20
215.444407
 30
0.0
 10
77.377257
 20
215.324293
 30
0.0
 10
77.218157
 20
215.223314
 30
0.0
 10
77.047757
 20
215.143107
 30
0.0
 10
76.868557
 20
215.084913
 30
0.0
 10
76.683557
 20
215.049607
 30
0.0
 10
76.495557
 20
215.037753
 30
0.0
 10
76.307557
 20
215.049663
 30
0.0
  0
LWPOLYLINE
  5
108
100
AcDbEntity
  8
Ebene_1
 62
7
100
AcDbPolyline
 90
51
 70
0
 10
59.616897
 20
190.124502
 30
0.0
 10
58.259977
 20
190.383413
 30
0.0
 10
56.946197
 20
190.810302
 30
0.0
 10
55.696267
 20
191.398397
 30
0.0
 10
54.529917
 20
192.138609
 30
0.0
 10
53.465547
 20
193.019142
 30
0.0
 10
52.519927
 20
194.026139
 30
0.0
 10
51.707957
 20
195.143711
 30
0.0
 10
51.042467
 20
196.354247
 30
0.0
 10
50.533957
 20
197.638612
 30
0.0
 10
50.190457
 20
198.976628
 30
0.0
 10
50.017257
 20
200.347127
 30
0.0
 10
50.017257
 20
203.728488
 30
0.0
 10
50.190457
 20
205.098987
 30
0.0
 10
50.533957
 20
206.437003
 30
0.0
 10
51.042467
 20
207.721368
 30
0.0
 10
51.707957
 20
208.931904
 30
0.0
 10
52.519927
 20
210.049475
 30
0.0
 10
53.465547
 20
211.056444
 30
0.0
 10
54.529917
 20
211.937006
 30
0.0
 10
55.696267
 20
212.677218
 30
0.0
 10
56.946197
 20
213.265313
 30
0.0
 10
58.259977
 20
213.692202
 30
0.0
 10
59.616897
 20
213.951113
 30
0.0
 10
60.995557
 20
214.037812
 30
0.0
 10
62.374217
 20
213.951113
 30
0.0
 10
63.731137
 20
213.692202
 30
0.0
 10
65.044917
 20
213.265313
 30
0.0
 10
66.294847
 20
212.677218
 30
0.0
 10
67.461197
 20
211.937006
 30
0.0
 10
68.525567
 20
211.056444
 30
0.0
 10
69.471187
 20
210.049475
 30
0.0
 10
70.283157
 20
208.931904
 30
0.0
 10
70.948647
 20
207.721368
 30
0.0
 10
71.457157
 20
206.437003
 30
0.0
 10
71.800657
 20
205.098987
 30
0.0
 10
71.973857
 20
203.728488
 30
0.0
 10
71.973857
 20
200.347127
 30
0.0
 10
71.800657
 20
198.976628
 30
0.0
 10
71.457157
 20
197.638612
 30
0.0
 10
70.948647
 20
196.354247
 30
0.0
 10
70.283157
 20
195.143711
 30
0.0
 10
69.471187
 20
194.026139
 30
0.0
 10
68.525567
 20
193.019142
 30
0.0
 10
67.461197
 20
192.138609
 30
0.0
 10
66.294847
 20
191.398397
 30
0.0
 10
65.044917
 20
190.810302
 30
0.0
 10
63.731137
 20
190.383413
 30
0.0
 10
62.374217
 20
190.124502
 30
0.0
 10
60.995557
 20
190.037803
 30
0.0
 10
59.616897
 20
190.124502
 30
0.0
  0
LWPOLYLINE
  5
109
100
AcDbEntity
  8
Ebene_1
 62
7
100
AcDbPolyline
 90
51
 70
0
 10
45.307557
 20
184.049612
 30
0.0
 10
45.122557
 20
184.084918
 30
0.0
 10
44.943357
 20
184.143112
 30
0.0
 10
44.772957
 20
184.223320
 30
0.0
 10
44.613857
 20
184.324299
 30
0.0
 10
44.468757
 20
184.444413
 30
0.0
 10
44.339757
 20
184.581714
 30
0.0
 10
44.229057
 20
184.734114
 30
0.0
 10
44.138357
 20
184.899101
 30
0.0
 10
44.068957
 20
185.074305
 30
0.0
 10
44.022157
 20
185.256705
 30
0.0
 10
43.998558
 20
185.443592
 30
0.0
 10
43.998557
 20
187.632000
 30
0.0
 10
44.022156
 20
187.818916
 30
0.0
 10
44.068957
 20
188.001316
 30
0.0
 10
44.138357
 20
188.176519
 30
0.0
 10
44.229057
 20
188.341507
 30
0.0
 10
44.339757
 20
188.493907
 30
0.0
 10
44.468757
 20
188.631208
 30
0.0
 10
44.613857
 20
188.751293
 30
0.0
 10
44.772957
 20
188.852301
 30
0.0
 10
44.943357
 20
188.932508
 30
0.0
 10
45.122557
 20
188.990702
 30
0.0
 10
45.307557
 20
189.026008
 30
0.0
 10
45.495557
 20
189.037862
 30
0.0
 10
45.683557
 20
189.025952
 30
0.0
 10
45.868557
 20
188.990702
 30
0.0
 10
46.047757
 20
188.932508
 30
0.0
 10
46.218157
 20
188.852301
 30
0.0
 10
46.377257
 20
188.751293
 30
0.0
 10
46.522357
 20
188.631208
 30
0.0
 10
46.651357
 20
188.493907
 30
0.0
 10
46.762057
 20
188.341507
 30
0.0
 10
46.852757
 20
188.176519
 30
0.0
 10
46.922157
 20
188.001316
 30
0.0
 10
46.968957
 20
187.818916
 30
0.0
 10
46.992557
 20
187.632000
 30
0.0
 10
46.992557
 20
185.443592
 30
0.0
 10
46.968958
 20
185.256705
 30
0.0
 10
46.922157
 20
185.074305
 30
0.0
 10
46.852757
 20
184.899101
 30
0.0
 10
46.762057
 20
184.734114
 30
0.0
 10
46.651357
 20
184.581714
 30
0.0
 10
46.522357
 20
184.444413
 30
0.0
 10
46.377257
 20
184.324299
 30
0.0
 10
46.218157
 20
184.223320
 30
0.0
 10
46.047757
 20
184.143112
 30
0.0
 10
45.868557
 20
184.084918
 30
0.0
 10
45.683557
 20
184.049612
 30
0.0
 10
45.495557
 20
184.037759
 30
0.0
 10
45.307557
 20
184.049669
 30
0.0
  0
LWPOLYLINE
  5
10a
100
AcDbEntity
  8
Ebene_1
 62
7
100
AcDbPolyline
 90
51
 70
0
 10
76.307557
 20
184.049612
 30
0.0
 10
76.122557
 20
184.084918
 30
0.0
 10
75.943357
 20
184.143112
 30
0.0
 10
75.772957
 20
184.223320
 30
0.0
 10
75.613857
 20
184.324299
 30
0.0
 10
75.468757
 20
184.444413
 30
0.0
 10
75.339757
 20
184.581714
 30
0.0
 10
75.229057
 20
184.734114
 30
0.0
 10
75.138357
 20
184.899101
 30
0.0
 10
75.068957
 20
185.074305
 30
0.0
 10
75.022157
 20
185.256705
 30
0.0
 10
74.998558
 20
185.443592
 30
0.0
 10
74.998557
 20
187.632000
 30
0.0
 10
75.022157
 20
187.818916
 30
0.0
 10
75.068957
 20
188.001316
 30
0.0
 10
75.138357
 20
188.176519
 30
0.0
 10
75.229057
 20
188.341507
 30
0.0
 10
75.339757
 20
188.493907
 30
0.0
 10
75.468757
 20
188.631208
 30
0.0
 10
75.613857
 20
188.751293
 30
0.0
 10
75.772957
 20
188.852301
 30
0.0
 10
75.943357
 20
188.932508
 30
0.0
 10
76.122557
 20
188.990702
 30
0.0
 10
76.307557
 20
189.026008
 30
0.0
 10
76.495557
 20
189.037862
 30
0.0
 10
76.683557
 20
189.025952
 30
0.0
 10
76.868557
 20
188.990702
 30
0.0
 10
77.047757
 20
188.932508
 30
0.0
 10
77.218157
 20
188.852301
 30
0.0
 10
77.377257
 20
188.751293
 30
0.0
 10
77.522357
 20
188.631208
 30
0.0
 10
77.651357
 20
188.493907
 30
0.0
 10
77.762057
 20
188.341507
 30
0.0
 10
77.852757
 20
188.176519
 30
0.0
 10
77.922157
 20
188.001316
 30
0.0
 10
77.968957
 20
187.818916
 30
0.0
 10
77.992557
 20
187.632000
 30
0.0
 10
77.992557
 20
185.443592
 30
0.0
 10
77.968958
 20
185.256705
 30
0.0
 10
77.922157
 20
185.074305
 30
0.0
 10
77.852757
 20
184.899101
 30
0.0
 10
77.762057
 20
184.734114
 30
0.0
 10
77.651357
 20
184.581714
 30
0.0
 10
77.522357
 20
184.444413
 30
0.0
 10
77.377257
 20
184.324299
 30
0.0
 10
77.218157
 20
184.223320
 30
0.0
 10
77.047757
 20
184.143112
 30
0.0
 10
76.868557
 20
184.084918
 30
0.0
 10
76.683557
 20
184.049612
 30
0.0
 10
76.495557
 20
184.037759
 30
0.0
 10
76.307557
 20
184.049669
 30
0.0
  0
LWPOLYLINE
  5
10b
100
AcDbEntity
  8
Ebene_1
 62
7
100
AcDbPolyline
 90
3
 70
0
 10
83.495558
 20
179.537810
 30
0.0
 10
90.995558
 20
179.537810
 30
0.0
 10
90.995558
 20
174.537792
 30
0.0
  0
LWPOLYLINE
  5
10c
100
AcDbEntity
  8
Ebene_1
 62
7
100
AcDbPolyline
 90
3
 70
0
 10
120.995557
 20
174.537792
 30
0.0
 10
120.995557
 20
179.537810
 30
0.0
 10
128.495557
 20
179.537810
 30
0.0
  0
LWPOLYLINE
  5
10d
100
AcDbEntity
  8
Ebene_1
 62
7
100
AcDbPolyline
 90
6
 70
0
 10
128.495557
 20
224.537808
 30
0.0
 10
120.995557
 20
224.537808
 30
0.0
 10
120.995557
 20
229.537806
 30
0.0
 10
90.995558
 20
229.537806
 30
0.0
 10
90.995558
 20
224.537808
 30
0.0
 10
83.495558
 20
224.537808
 30
0.0
  0
LWPOLYLINE
  5
10e
100
AcDbEntity
  8
Ebene_1
 62
7
100
AcDbPolyline
 90
51
 70
0
 10
105.838591
 20
199.542737
 30
0.0
 10
105.527113
 20
199.582107
 30
0.0
 10
105.223020
 20
199.660170
 30
0.0
 10
104.931117
 20
199.775768
 30
0.0
 10
104.656007
 20
199.926983
 30
0.0
 10
104.402007
 20
200.111528
 30
0.0
 10
104.173137
 20
200.326440
 30
0.0
 10
103.973018
 20
200.568361
 30
0.0
 10
103.804787
 20
200.833424
 30
0.0
 10
103.671128
 20
201.117509
 30
0.0
 10
103.574107
 20
201.416100
 30
0.0
 10
103.515268
 20
201.724484
 30
0.0
 10
103.495557
 20
202.037807
 30
0.0
 10
103.515268
 20
202.351131
 30
0.0
 10
103.574107
 20
202.659515
 30
0.0
 10
103.671128
 20
202.958106
 30
0.0
 10
103.804787
 20
203.242191
 30
0.0
 10
103.973018
 20
203.507254
 30
0.0
 10
104.173137
 20
203.749175
 30
0.0
 10
104.402007
 20
203.964087
 30
0.0
 10
104.656007
 20
204.148604
 30
0.0
 10
104.931117
 20
204.299847
 30
0.0
 10
105.223020
 20
204.415445
 30
0.0
 10
105.527113
 20
204.493508
 30
0.0
 10
105.838591
 20
204.532878
 30
0.0
 10
106.152524
 20
204.532878
 30
0.0
 10
106.464002
 20
204.493508
 30
0.0
 10
106.768095
 20
204.415445
 30
0.0
 10
107.059998
 20
204.299847
 30
0.0
 10
107.335107
 20
204.148604
 30
0.0
 10
107.589107
 20
203.964087
 30
0.0
 10
107.817978
 20
203.749175
 30
0.0
 10
108.018097
 20
203.507254
 30
0.0
 10
108.186328
 20
203.242191
 30
0.0
 10
108.319987
 20
202.958106
 30
0.0
 10
108.417008
 20
202.659515
 30
0.0
 10
108.475847
 20
202.351131
 30
0.0
 10
108.495558
 20
202.037807
 30
0.0
 10
108.475847
 20
201.724484
 30
0.0
 10
108.417008
 20
201.416100
 30
0.0
 10
108.319987
 20
201.117509
 30
0.0
 10
108.186328
 20
200.833424
 30
0.0
 10
108.018097
 20
200.568361
 30
0.0
 10
107.817978
 20
200.326440
 30
0.0
 10
107.589107
 20
200.111528
 30
0.0
 10
107.335107
 20
199.926983
 30
0.0
 10
107.059998
 20
199.775768
 30
0.0
 10
106.768095
 20
199.660170
 30
0.0
 10
106.464002
 20
199.582107
 30
0.0
 10
106.152524
 20
199.542737
 30
0.0
 10
105.838591
 20
199.542737
 30
0.0
  0
LWPOLYLINE
  5
10f
100
AcDbEntity
  8
Ebene_1
 62
7
100
AcDbPolyline
 90
6
 70
0
 10
38.495557
 20
124.537796
 30
0.0
 10
45.995557
 20
124.537796
 30
0.0
 10
45.995557
 20
119.537778
 30
0.0
 10
75.995557
 20
119.537778
 30
0.0
 10
75.995557
 20
124.537796
 30
0.0
 10
83.495557
 20
124.537796
 30
0.0
  0
LWPOLYLINE
  5
110
100
AcDbEntity
  8
Ebene_1
 62
7
100
AcDbPolyline
 90
3
 70
0
 10
83.495557
 20
169.537793
 30
0.0
 10
75.995557
 20
169.537793
 30
0.0
 10
75.995557
 20
174.537792
 30
0.0
  0
LWPOLYLINE
  5
111
100
AcDbEntity
  8
Ebene_1
 62
7
100
AcDbPolyline
 90
4
 70
0
 10
45.995557
 20
174.537792
 30
0.0
 10
45.995557
 20
169.537793
 30
0.0
 10
38.495557
 20
169.537793
 30
0.0
 10
38.495557
 20
124.537796
 30
0.0
  0
LWPOLYLINE
  5
112
100
AcDbEntity
  8
Ebene_1
 62
7
100
AcDbPolyline
 90
2
 70
0
 10
218.495558
 20
224.537808
 30
0.0
 10
173.495558
 20
224.537808
 30
0.0
  0
LWPOLYLINE
  5
113
100
AcDbEntity
  8
Ebene_1
 62
7
100
AcDbPolyline
 90
3
 70
0
 10
173.495558
 20
124.537796
 30
0.0
 10
218.495558
 20
124.537796
 30
0.0
 10
218.495558
 20
224.537808
 30
0.0
  0
LWPOLYLINE
  5
114
100
AcDbEntity
  8
Ebene_1
 62
7
100
AcDbPolyline
 90
5
 70
0
 10
180.995558
 20
207.037809
 30
0.0
 10
180.995558
 20
212.037807
 30
0.0
 10
210.995558
 20
212.037807
 30
0.0
 10
210.995558
 20
207.037809
 30
0.0
 10
180.995558
 20
207.037809
 30
0.0
  0
LWPOLYLINE
  5
115
100
AcDbEntity
  8
Ebene_1
 62
7
100
AcDbPolyline
 90
5
 70
0
 10
180.995558
 20
137.037813
 30
0.0
 10
180.995558
 20
142.037803
 30
0.0
 10
210.995558
 20
142.037803
 30
0.0
 10
210.995558
 20
137.037813
 30
0.0
 10
180.995558
 20
137.037813
 30
0.0
  0
ENDSEC
  0
SECTION
  2
OBJECTS
  0
DICTIONARY
  5
C
330
0
100
AcDbDictionary
  3
ACAD_GROUP
350
D
  3
ACAD_MLINESTYLE
350
17
  0
DICTIONARY
  5
D
330
C
100
AcDbDictionary
  0
DICTIONARY
  5
1A
330
C
100
AcDbDictionary
  0
DICTIONARY
  5
17
330
C
100
AcDbDictionary
  3
STANDARD
350
18
  0
DICTIONARY
  5
19
330
C
100
AcDbDictionary
  0
ENDSEC
  0
EOF
