  0
SECTION
  2
BLOCKS
  0
ENDSEC
  0
SECTION
  2
ENTITIES
  0
LINE
  8
0
 10
60
 20
50
 11
-60
 21
50
  0
LINE
  8
0
 10
-60
 20
50
 11
-60
 21
-50
  0
LINE
  8
0
 10
-60
 20
-50
 11
60
 21
-50
  0
LINE
  8
0
 10
60
 20
-50
 11
60
 21
50
  0
LINE
  8
0
 10
53.75
 20
40.5
 11
53.75
 21
47.5
  0
LINE
  8
0
 10
53.75
 20
47.5
 11
56.25
 21
47.5
  0
LINE
  8
0
 10
56.25
 20
47.5
 11
56.25
 21
40.5
  0
LINE
  8
0
 10
56.25
 20
40.5
 11
53.75
 21
40.5
  0
LINE
  8
0
 10
-56.25
 20
40.5
 11
-56.25
 21
47.5
  0
LINE
  8
0
 10
-56.25
 20
47.5
 11
-53.75
 21
47.5
  0
LINE
  8
0
 10
-53.75
 20
47.5
 11
-53.75
 21
40.5
  0
LINE
  8
0
 10
-53.75
 20
40.5
 11
-56.25
 21
40.5
  0
LINE
  8
0
 10
-29
 20
43
 11
-29
 21
45
  0
LINE
  8
0
 10
-29
 20
45
 11
-23
 21
45
  0
LINE
  8
0
 10
-23
 20
45
 11
-23
 21
43
  0
LINE
  8
0
 10
-23
 20
43
 11
-29
 21
43
  0
LINE
  8
0
 10
41
 20
43
 11
41
 21
45
  0
LINE
  8
0
 10
41
 20
45
 11
47
 21
45
  0
LINE
  8
0
 10
47
 20
45
 11
47
 21
43
  0
LINE
  8
0
 10
47
 20
43
 11
41
 21
43
  0
LINE
  8
0
 10
-47
 20
43
 11
-47
 21
45
  0
LINE
  8
0
 10
-47
 20
45
 11
-41
 21
45
  0
LINE
  8
0
 10
-41
 20
45
 11
-41
 21
43
  0
LINE
  8
0
 10
-41
 20
43
 11
-47
 21
43
  0
LINE
  8
0
 10
23
 20
43
 11
23
 21
45
  0
LINE
  8
0
 10
23
 20
45
 11
29
 21
45
  0
LINE
  8
0
 10
29
 20
45
 11
29
 21
43
  0
LINE
  8
0
 10
29
 20
43
 11
23
 21
43
  0
LINE
  8
0
 10
-47
 20
26.9393
 11
-47
 21
41.0607
  0
LINE
  8
0
 10
-47
 20
41.0607
 11
-23
 21
41.0607
  0
LINE
  8
0
 10
-23
 20
41.0607
 11
-23
 21
26.9393
  0
LINE
  8
0
 10
-23
 20
26.9393
 11
-47
 21
26.9393
  0
LINE
  8
0
 10
23
 20
26.9393
 11
23
 21
41.0607
  0
LINE
  8
0
 10
23
 20
41.0607
 11
47
 21
41.0607
  0
LINE
  8
0
 10
47
 20
41.0607
 11
47
 21
26.9393
  0
LINE
  8
0
 10
47
 20
26.9393
 11
23
 21
26.9393
  0
LINE
  8
0
 10
41
 20
23
 11
41
 21
25
  0
LINE
  8
0
 10
41
 20
25
 11
47
 21
25
  0
LINE
  8
0
 10
47
 20
25
 11
47
 21
23
  0
LINE
  8
0
 10
47
 20
23
 11
41
 21
23
  0
LINE
  8
0
 10
-47
 20
23
 11
-47
 21
25
  0
LINE
  8
0
 10
-47
 20
25
 11
-41
 21
25
  0
LINE
  8
0
 10
-41
 20
25
 11
-41
 21
23
  0
LINE
  8
0
 10
-41
 20
23
 11
-47
 21
23
  0
LINE
  8
0
 10
-29
 20
23
 11
-29
 21
25
  0
LINE
  8
0
 10
-29
 20
25
 11
-23
 21
25
  0
LINE
  8
0
 10
-23
 20
25
 11
-23
 21
23
  0
LINE
  8
0
 10
-23
 20
23
 11
-29
 21
23
  0
LINE
  8
0
 10
23
 20
23
 11
23
 21
25
  0
LINE
  8
0
 10
23
 20
25
 11
29
 21
25
  0
LINE
  8
0
 10
29
 20
25
 11
29
 21
23
  0
LINE
  8
0
 10
29
 20
23
 11
23
 21
23
  0
LINE
  8
0
 10
-0.941849
 20
-14.9704
 11
-2.81071
 21
-14.7343
  0
LINE
  8
0
 10
-2.81071
 20
-14.7343
 11
-4.63525
 21
-14.2658
  0
LINE
  8
0
 10
-4.63525
 20
-14.2658
 11
-6.38669
 21
-13.5724
  0
LINE
  8
0
 10
-6.38669
 20
-13.5724
 11
-8.0374
 21
-12.6649
  0
LINE
  8
0
 10
-8.0374
 20
-12.6649
 11
-9.56136
 21
-11.5577
  0
LINE
  8
0
 10
-9.56136
 20
-11.5577
 11
-10.9345
 21
-10.2682
  0
LINE
  8
0
 10
-10.9345
 20
-10.2682
 11
-12.1353
 21
-8.81677
  0
LINE
  8
0
 10
-12.1353
 20
-8.81677
 11
-13.1446
 21
-7.2263
  0
LINE
  8
0
 10
-13.1446
 20
-7.2263
 11
-13.9466
 21
-5.52187
  0
LINE
  8
0
 10
-13.9466
 20
-5.52187
 11
-14.5287
 21
-3.73035
  0
LINE
  8
0
 10
-14.5287
 20
-3.73035
 11
-14.8817
 21
-1.87999
  0
LINE
  8
0
 10
-14.8817
 20
-1.87999
 11
-15
 21
0
  0
LINE
  8
0
 10
-15
 20
0
 11
-14.8817
 21
1.87999
  0
LINE
  8
0
 10
-14.8817
 20
1.87999
 11
-14.5287
 21
3.73035
  0
LINE
  8
0
 10
-14.5287
 20
3.73035
 11
-13.9466
 21
5.52187
  0
LINE
  8
0
 10
-13.9466
 20
5.52187
 11
-13.1446
 21
7.2263
  0
LINE
  8
0
 10
-13.1446
 20
7.2263
 11
-12.1353
 21
8.81677
  0
LINE
  8
0
 10
-12.1353
 20
8.81677
 11
-10.9345
 21
10.2682
  0
LINE
  8
0
 10
-10.9345
 20
10.2682
 11
-9.56136
 21
11.5577
  0
LINE
  8
0
 10
-9.56136
 20
11.5577
 11
-8.0374
 21
12.6649
  0
LINE
  8
0
 10
-8.0374
 20
12.6649
 11
-6.38669
 21
13.5724
  0
LINE
  8
0
 10
-6.38669
 20
13.5724
 11
-4.63525
 21
14.2658
  0
LINE
  8
0
 10
-4.63525
 20
14.2658
 11
-2.81071
 21
14.7343
  0
LINE
  8
0
 10
-2.81071
 20
14.7343
 11
-0.941849
 21
14.9704
  0
LINE
  8
0
 10
-0.941849
 20
14.9704
 11
0.941849
 21
14.9704
  0
LINE
  8
0
 10
0.941849
 20
14.9704
 11
2.81071
 21
14.7343
  0
LINE
  8
0
 10
2.81071
 20
14.7343
 11
4.63525
 21
14.2658
  0
LINE
  8
0
 10
4.63525
 20
14.2658
 11
6.38669
 21
13.5724
  0
LINE
  8
0
 10
6.38669
 20
13.5724
 11
8.0374
 21
12.6649
  0
LINE
  8
0
 10
8.0374
 20
12.6649
 11
9.56136
 21
11.5577
  0
LINE
  8
0
 10
9.56136
 20
11.5577
 11
10.9345
 21
10.2682
  0
LINE
  8
0
 10
10.9345
 20
10.2682
 11
12.1353
 21
8.81677
  0
LINE
  8
0
 10
12.1353
 20
8.81677
 11
13.1446
 21
7.2263
  0
LINE
  8
0
 10
13.1446
 20
7.2263
 11
13.9466
 21
5.52187
  0
LINE
  8
0
 10
13.9466
 20
5.52187
 11
14.5287
 21
3.73035
  0
LINE
  8
0
 10
14.5287
 20
3.73035
 11
14.8817
 21
1.87999
  0
LINE
  8
0
 10
14.8817
 20
1.87999
 11
15
 21
0
  0
LINE
  8
0
 10
15
 20
0
 11
14.8817
 21
-1.87999
  0
LINE
  8
0
 10
14.8817
 20
-1.87999
 11
14.5287
 21
-3.73035
  0
LINE
  8
0
 10
14.5287
 20
-3.73035
 11
13.9466
 21
-5.52187
  0
LINE
  8
0
 10
13.9466
 20
-5.52187
 11
13.1446
 21
-7.2263
  0
LINE
  8
0
 10
13.1446
 20
-7.2263
 11
12.1353
 21
-8.81677
  0
LINE
  8
0
 10
12.1353
 20
-8.81677
 11
10.9345
 21
-10.2682
  0
LINE
  8
0
 10
10.9345
 20
-10.2682
 11
9.56136
 21
-11.5577
  0
LINE
  8
0
 10
9.56136
 20
-11.5577
 11
8.0374
 21
-12.6649
  0
LINE
  8
0
 10
8.0374
 20
-12.6649
 11
6.38669
 21
-13.5724
  0
LINE
  8
0
 10
6.38669
 20
-13.5724
 11
4.63525
 21
-14.2658
  0
LINE
  8
0
 10
4.63525
 20
-14.2658
 11
2.81071
 21
-14.7343
  0
LINE
  8
0
 10
2.81071
 20
-14.7343
 11
0.941849
 21
-14.9704
  0
LINE
  8
0
 10
0.941849
 20
-14.9704
 11
-0.941849
 21
-14.9704
  0
LINE
  8
0
 10
-29
 20
-25
 11
-29
 21
-23
  0
LINE
  8
0
 10
-29
 20
-23
 11
-23
 21
-23
  0
LINE
  8
0
 10
-23
 20
-23
 11
-23
 21
-25
  0
LINE
  8
0
 10
-23
 20
-25
 11
-29
 21
-25
  0
LINE
  8
0
 10
-47
 20
-25
 11
-47
 21
-23
  0
LINE
  8
0
 10
-47
 20
-23
 11
-41
 21
-23
  0
LINE
  8
0
 10
-41
 20
-23
 11
-41
 21
-25
  0
LINE
  8
0
 10
-41
 20
-25
 11
-47
 21
-25
  0
LINE
  8
0
 10
23
 20
-25
 11
23
 21
-23
  0
LINE
  8
0
 10
23
 20
-23
 11
29
 21
-23
  0
LINE
  8
0
 10
29
 20
-23
 11
29
 21
-25
  0
LINE
  8
0
 10
29
 20
-25
 11
23
 21
-25
  0
LINE
  8
0
 10
41
 20
-25
 11
41
 21
-23
  0
LINE
  8
0
 10
41
 20
-23
 11
47
 21
-23
  0
LINE
  8
0
 10
47
 20
-23
 11
47
 21
-25
  0
LINE
  8
0
 10
47
 20
-25
 11
41
 21
-25
  0
LINE
  8
0
 10
-47
 20
-41.0607
 11
-47
 21
-26.9393
  0
LINE
  8
0
 10
-47
 20
-26.9393
 11
-23
 21
-26.9393
  0
LINE
  8
0
 10
-23
 20
-26.9393
 11
-23
 21
-41.0607
  0
LINE
  8
0
 10
-23
 20
-41.0607
 11
-47
 21
-41.0607
  0
LINE
  8
0
 10
23
 20
-41.0607
 11
23
 21
-26.9393
  0
LINE
  8
0
 10
23
 20
-26.9393
 11
47
 21
-26.9393
  0
LINE
  8
0
 10
47
 20
-26.9393
 11
47
 21
-41.0607
  0
LINE
  8
0
 10
47
 20
-41.0607
 11
23
 21
-41.0607
  0
LINE
  8
0
 10
-29
 20
-45
 11
-29
 21
-43
  0
LINE
  8
0
 10
-29
 20
-43
 11
-23
 21
-43
  0
LINE
  8
0
 10
-23
 20
-43
 11
-23
 21
-45
  0
LINE
  8
0
 10
-23
 20
-45
 11
-29
 21
-45
  0
LINE
  8
0
 10
-47
 20
-45
 11
-47
 21
-43
  0
LINE
  8
0
 10
-47
 20
-43
 11
-41
 21
-43
  0
LINE
  8
0
 10
-41
 20
-43
 11
-41
 21
-45
  0
LINE
  8
0
 10
-41
 20
-45
 11
-47
 21
-45
  0
LINE
  8
0
 10
23
 20
-45
 11
23
 21
-43
  0
LINE
  8
0
 10
23
 20
-43
 11
29
 21
-43
  0
LINE
  8
0
 10
29
 20
-43
 11
29
 21
-45
  0
LINE
  8
0
 10
29
 20
-45
 11
23
 21
-45
  0
LINE
  8
0
 10
41
 20
-45
 11
41
 21
-43
  0
LINE
  8
0
 10
41
 20
-43
 11
47
 21
-43
  0
LINE
  8
0
 10
47
 20
-43
 11
47
 21
-45
  0
LINE
  8
0
 10
47
 20
-45
 11
41
 21
-45
  0
ENDSEC
  0
SECTION
  2
OBJECTS
  0
DICTIONARY
  0
ENDSEC
  0
EOF
