  0
SECTION
  2
BLOCKS
  0
ENDSEC
  0
SECTION
  2
ENTITIES
  0
LINE
  8
0
 10
45
 20
50
 11
-45
 21
50
  0
LINE
  8
0
 10
-45
 20
50
 11
-45
 21
-50
  0
LINE
  8
0
 10
-45
 20
-50
 11
45
 21
-50
  0
LINE
  8
0
 10
45
 20
-50
 11
45
 21
50
  0
LINE
  8
0
 10
-14
 20
43
 11
-14
 21
45
  0
LINE
  8
0
 10
-14
 20
45
 11
-8
 21
45
  0
LINE
  8
0
 10
-8
 20
45
 11
-8
 21
43
  0
LINE
  8
0
 10
-8
 20
43
 11
-14
 21
43
  0
LINE
  8
0
 10
-39.5
 20
40
 11
-39.5
 21
45
  0
LINE
  8
0
 10
-39.5
 20
45
 11
-34.5
 21
45
  0
LINE
  8
0
 10
-34.5
 20
45
 11
-34.5
 21
40
  0
LINE
  8
0
 10
-34.5
 20
40
 11
-39.5
 21
40
  0
LINE
  8
0
 10
34.5
 20
40
 11
34.5
 21
45
  0
LINE
  8
0
 10
34.5
 20
45
 11
39.5
 21
45
  0
LINE
  8
0
 10
39.5
 20
45
 11
39.5
 21
40
  0
LINE
  8
0
 10
39.5
 20
40
 11
34.5
 21
40
  0
LINE
  8
0
 10
26
 20
43
 11
26
 21
45
  0
LINE
  8
0
 10
26
 20
45
 11
32
 21
45
  0
LINE
  8
0
 10
32
 20
45
 11
32
 21
43
  0
LINE
  8
0
 10
32
 20
43
 11
26
 21
43
  0
LINE
  8
0
 10
8
 20
43
 11
8
 21
45
  0
LINE
  8
0
 10
8
 20
45
 11
14
 21
45
  0
LINE
  8
0
 10
14
 20
45
 11
14
 21
43
  0
LINE
  8
0
 10
14
 20
43
 11
8
 21
43
  0
LINE
  8
0
 10
-32
 20
43
 11
-32
 21
45
  0
LINE
  8
0
 10
-32
 20
45
 11
-26
 21
45
  0
LINE
  8
0
 10
-26
 20
45
 11
-26
 21
43
  0
LINE
  8
0
 10
-26
 20
43
 11
-32
 21
43
  0
LINE
  8
0
 10
-32.25
 20
28.4271
 11
-32.25
 21
39.5729
  0
LINE
  8
0
 10
-32.25
 20
39.5729
 11
-7.74998
 21
39.5729
  0
LINE
  8
0
 10
-7.74998
 20
39.5729
 11
-7.74998
 21
28.4271
  0
LINE
  8
0
 10
-7.74998
 20
28.4271
 11
-32.25
 21
28.4271
  0
LINE
  8
0
 10
7.74998
 20
28.4271
 11
7.74998
 21
39.5729
  0
LINE
  8
0
 10
7.74998
 20
39.5729
 11
32.25
 21
39.5729
  0
LINE
  8
0
 10
32.25
 20
39.5729
 11
32.25
 21
28.4271
  0
LINE
  8
0
 10
32.25
 20
28.4271
 11
7.74998
 21
28.4271
  0
LINE
  8
0
 10
36.9058
 20
31.0029
 11
36.7189
 21
31.0266
  0
LINE
  8
0
 10
36.7189
 20
31.0266
 11
36.5365
 21
31.0734
  0
LINE
  8
0
 10
36.5365
 20
31.0734
 11
36.3613
 21
31.1427
  0
LINE
  8
0
 10
36.3613
 20
31.1427
 11
36.1963
 21
31.2335
  0
LINE
  8
0
 10
36.1963
 20
31.2335
 11
36.0439
 21
31.3442
  0
LINE
  8
0
 10
36.0439
 20
31.3442
 11
35.9066
 21
31.4732
  0
LINE
  8
0
 10
35.9066
 20
31.4732
 11
35.7865
 21
31.6183
  0
LINE
  8
0
 10
35.7865
 20
31.6183
 11
35.6855
 21
31.7774
  0
LINE
  8
0
 10
35.6855
 20
31.7774
 11
35.6053
 21
31.9478
  0
LINE
  8
0
 10
35.6053
 20
31.9478
 11
35.5471
 21
32.127
  0
LINE
  8
0
 10
35.5471
 20
32.127
 11
35.5118
 21
32.312
  0
LINE
  8
0
 10
35.5118
 20
32.312
 11
35.5
 21
32.5
  0
LINE
  8
0
 10
35.5
 20
32.5
 11
35.5118
 21
32.688
  0
LINE
  8
0
 10
35.5118
 20
32.688
 11
35.5471
 21
32.873
  0
LINE
  8
0
 10
35.5471
 20
32.873
 11
35.6053
 21
33.0522
  0
LINE
  8
0
 10
35.6053
 20
33.0522
 11
35.6855
 21
33.2226
  0
LINE
  8
0
 10
35.6855
 20
33.2226
 11
35.7865
 21
33.3817
  0
LINE
  8
0
 10
35.7865
 20
33.3817
 11
35.9066
 21
33.5268
  0
LINE
  8
0
 10
35.9066
 20
33.5268
 11
36.0439
 21
33.6558
  0
LINE
  8
0
 10
36.0439
 20
33.6558
 11
36.1963
 21
33.7665
  0
LINE
  8
0
 10
36.1963
 20
33.7665
 11
36.3613
 21
33.8572
  0
LINE
  8
0
 10
36.3613
 20
33.8572
 11
36.5365
 21
33.9266
  0
LINE
  8
0
 10
36.5365
 20
33.9266
 11
36.7189
 21
33.9734
  0
LINE
  8
0
 10
36.7189
 20
33.9734
 11
36.9058
 21
33.997
  0
LINE
  8
0
 10
36.9058
 20
33.997
 11
37.0942
 21
33.997
  0
LINE
  8
0
 10
37.0942
 20
33.997
 11
37.2811
 21
33.9734
  0
LINE
  8
0
 10
37.2811
 20
33.9734
 11
37.4635
 21
33.9266
  0
LINE
  8
0
 10
37.4635
 20
33.9266
 11
37.6387
 21
33.8572
  0
LINE
  8
0
 10
37.6387
 20
33.8572
 11
37.8037
 21
33.7665
  0
LINE
  8
0
 10
37.8037
 20
33.7665
 11
37.9561
 21
33.6558
  0
LINE
  8
0
 10
37.9561
 20
33.6558
 11
38.0934
 21
33.5268
  0
LINE
  8
0
 10
38.0934
 20
33.5268
 11
38.2135
 21
33.3817
  0
LINE
  8
0
 10
38.2135
 20
33.3817
 11
38.3145
 21
33.2226
  0
LINE
  8
0
 10
38.3145
 20
33.2226
 11
38.3947
 21
33.0522
  0
LINE
  8
0
 10
38.3947
 20
33.0522
 11
38.4529
 21
32.873
  0
LINE
  8
0
 10
38.4529
 20
32.873
 11
38.4882
 21
32.688
  0
LINE
  8
0
 10
38.4882
 20
32.688
 11
38.5
 21
32.5
  0
LINE
  8
0
 10
38.5
 20
32.5
 11
38.4882
 21
32.312
  0
LINE
  8
0
 10
38.4882
 20
32.312
 11
38.4529
 21
32.127
  0
LINE
  8
0
 10
38.4529
 20
32.127
 11
38.3947
 21
31.9478
  0
LINE
  8
0
 10
38.3947
 20
31.9478
 11
38.3145
 21
31.7774
  0
LINE
  8
0
 10
38.3145
 20
31.7774
 11
38.2135
 21
31.6183
  0
LINE
  8
0
 10
38.2135
 20
31.6183
 11
38.0934
 21
31.4732
  0
LINE
  8
0
 10
38.0934
 20
31.4732
 11
37.9561
 21
31.3442
  0
LINE
  8
0
 10
37.9561
 20
31.3442
 11
37.8037
 21
31.2335
  0
LINE
  8
0
 10
37.8037
 20
31.2335
 11
37.6387
 21
31.1427
  0
LINE
  8
0
 10
37.6387
 20
31.1427
 11
37.4635
 21
31.0734
  0
LINE
  8
0
 10
37.4635
 20
31.0734
 11
37.2811
 21
31.0266
  0
LINE
  8
0
 10
37.2811
 20
31.0266
 11
37.0942
 21
31.0029
  0
LINE
  8
0
 10
37.0942
 20
31.0029
 11
36.9058
 21
31.0029
  0
LINE
  8
0
 10
-37.0942
 20
31.0029
 11
-37.2811
 21
31.0266
  0
LINE
  8
0
 10
-37.2811
 20
31.0266
 11
-37.4635
 21
31.0734
  0
LINE
  8
0
 10
-37.4635
 20
31.0734
 11
-37.6387
 21
31.1427
  0
LINE
  8
0
 10
-37.6387
 20
31.1427
 11
-37.8037
 21
31.2335
  0
LINE
  8
0
 10
-37.8037
 20
31.2335
 11
-37.9561
 21
31.3442
  0
LINE
  8
0
 10
-37.9561
 20
31.3442
 11
-38.0934
 21
31.4732
  0
LINE
  8
0
 10
-38.0934
 20
31.4732
 11
-38.2135
 21
31.6183
  0
LINE
  8
0
 10
-38.2135
 20
31.6183
 11
-38.3145
 21
31.7774
  0
LINE
  8
0
 10
-38.3145
 20
31.7774
 11
-38.3947
 21
31.9478
  0
LINE
  8
0
 10
-38.3947
 20
31.9478
 11
-38.4529
 21
32.127
  0
LINE
  8
0
 10
-38.4529
 20
32.127
 11
-38.4882
 21
32.312
  0
LINE
  8
0
 10
-38.4882
 20
32.312
 11
-38.5
 21
32.5
  0
LINE
  8
0
 10
-38.5
 20
32.5
 11
-38.4882
 21
32.688
  0
LINE
  8
0
 10
-38.4882
 20
32.688
 11
-38.4529
 21
32.873
  0
LINE
  8
0
 10
-38.4529
 20
32.873
 11
-38.3947
 21
33.0522
  0
LINE
  8
0
 10
-38.3947
 20
33.0522
 11
-38.3145
 21
33.2226
  0
LINE
  8
0
 10
-38.3145
 20
33.2226
 11
-38.2135
 21
33.3817
  0
LINE
  8
0
 10
-38.2135
 20
33.3817
 11
-38.0934
 21
33.5268
  0
LINE
  8
0
 10
-38.0934
 20
33.5268
 11
-37.9561
 21
33.6558
  0
LINE
  8
0
 10
-37.9561
 20
33.6558
 11
-37.8037
 21
33.7665
  0
LINE
  8
0
 10
-37.8037
 20
33.7665
 11
-37.6387
 21
33.8572
  0
LINE
  8
0
 10
-37.6387
 20
33.8572
 11
-37.4635
 21
33.9266
  0
LINE
  8
0
 10
-37.4635
 20
33.9266
 11
-37.2811
 21
33.9734
  0
LINE
  8
0
 10
-37.2811
 20
33.9734
 11
-37.0942
 21
33.997
  0
LINE
  8
0
 10
-37.0942
 20
33.997
 11
-36.9058
 21
33.997
  0
LINE
  8
0
 10
-36.9058
 20
33.997
 11
-36.7189
 21
33.9734
  0
LINE
  8
0
 10
-36.7189
 20
33.9734
 11
-36.5365
 21
33.9266
  0
LINE
  8
0
 10
-36.5365
 20
33.9266
 11
-36.3613
 21
33.8572
  0
LINE
  8
0
 10
-36.3613
 20
33.8572
 11
-36.1963
 21
33.7665
  0
LINE
  8
0
 10
-36.1963
 20
33.7665
 11
-36.0439
 21
33.6558
  0
LINE
  8
0
 10
-36.0439
 20
33.6558
 11
-35.9066
 21
33.5268
  0
LINE
  8
0
 10
-35.9066
 20
33.5268
 11
-35.7865
 21
33.3817
  0
LINE
  8
0
 10
-35.7865
 20
33.3817
 11
-35.6855
 21
33.2226
  0
LINE
  8
0
 10
-35.6855
 20
33.2226
 11
-35.6053
 21
33.0522
  0
LINE
  8
0
 10
-35.6053
 20
33.0522
 11
-35.5471
 21
32.873
  0
LINE
  8
0
 10
-35.5471
 20
32.873
 11
-35.5118
 21
32.688
  0
LINE
  8
0
 10
-35.5118
 20
32.688
 11
-35.5
 21
32.5
  0
LINE
  8
0
 10
-35.5
 20
32.5
 11
-35.5118
 21
32.312
  0
LINE
  8
0
 10
-35.5118
 20
32.312
 11
-35.5471
 21
32.127
  0
LINE
  8
0
 10
-35.5471
 20
32.127
 11
-35.6053
 21
31.9478
  0
LINE
  8
0
 10
-35.6053
 20
31.9478
 11
-35.6855
 21
31.7774
  0
LINE
  8
0
 10
-35.6855
 20
31.7774
 11
-35.7865
 21
31.6183
  0
LINE
  8
0
 10
-35.7865
 20
31.6183
 11
-35.9066
 21
31.4732
  0
LINE
  8
0
 10
-35.9066
 20
31.4732
 11
-36.0439
 21
31.3442
  0
LINE
  8
0
 10
-36.0439
 20
31.3442
 11
-36.1963
 21
31.2335
  0
LINE
  8
0
 10
-36.1963
 20
31.2335
 11
-36.3613
 21
31.1427
  0
LINE
  8
0
 10
-36.3613
 20
31.1427
 11
-36.5365
 21
31.0734
  0
LINE
  8
0
 10
-36.5365
 20
31.0734
 11
-36.7189
 21
31.0266
  0
LINE
  8
0
 10
-36.7189
 20
31.0266
 11
-36.9058
 21
31.0029
  0
LINE
  8
0
 10
-36.9058
 20
31.0029
 11
-37.0942
 21
31.0029
  0
LINE
  8
0
 10
8
 20
23
 11
8
 21
25
  0
LINE
  8
0
 10
8
 20
25
 11
14
 21
25
  0
LINE
  8
0
 10
14
 20
25
 11
14
 21
23
  0
LINE
  8
0
 10
14
 20
23
 11
8
 21
23
  0
LINE
  8
0
 10
26
 20
23
 11
26
 21
25
  0
LINE
  8
0
 10
26
 20
25
 11
32
 21
25
  0
LINE
  8
0
 10
32
 20
25
 11
32
 21
23
  0
LINE
  8
0
 10
32
 20
23
 11
26
 21
23
  0
LINE
  8
0
 10
-32
 20
23
 11
-32
 21
25
  0
LINE
  8
0
 10
-32
 20
25
 11
-26
 21
25
  0
LINE
  8
0
 10
-26
 20
25
 11
-26
 21
23
  0
LINE
  8
0
 10
-26
 20
23
 11
-32
 21
23
  0
LINE
  8
0
 10
-14
 20
23
 11
-14
 21
25
  0
LINE
  8
0
 10
-14
 20
25
 11
-8
 21
25
  0
LINE
  8
0
 10
-8
 20
25
 11
-8
 21
23
  0
LINE
  8
0
 10
-8
 20
23
 11
-14
 21
23
  0
LINE
  8
0
 10
34.5
 20
20
 11
34.5
 21
25
  0
LINE
  8
0
 10
34.5
 20
25
 11
39.5
 21
25
  0
LINE
  8
0
 10
39.5
 20
25
 11
39.5
 21
20
  0
LINE
  8
0
 10
39.5
 20
20
 11
34.5
 21
20
  0
LINE
  8
0
 10
-39.5
 20
20
 11
-39.5
 21
25
  0
LINE
  8
0
 10
-39.5
 20
25
 11
-34.5
 21
25
  0
LINE
  8
0
 10
-34.5
 20
25
 11
-34.5
 21
20
  0
LINE
  8
0
 10
-34.5
 20
20
 11
-39.5
 21
20
  0
LINE
  8
0
 10
10
 20
20
 11
15
 21
20
  0
LINE
  8
0
 10
15
 20
20
 11
15
 21
-15
  0
LINE
  8
0
 10
15
 20
-15
 11
-15
 21
-15
  0
LINE
  8
0
 10
-15
 20
-15
 11
-15
 21
20
  0
LINE
  8
0
 10
-15
 20
20
 11
-10
 21
20
  0
LINE
  8
0
 10
-10
 20
20
 11
-10
 21
15
  0
LINE
  8
0
 10
-10
 20
15
 11
10
 21
15
  0
LINE
  8
0
 10
10
 20
15
 11
10
 21
20
  0
LINE
  8
0
 10
26
 20
-25
 11
26
 21
-23
  0
LINE
  8
0
 10
26
 20
-23
 11
32
 21
-23
  0
LINE
  8
0
 10
32
 20
-23
 11
32
 21
-25
  0
LINE
  8
0
 10
32
 20
-25
 11
26
 21
-25
  0
LINE
  8
0
 10
8
 20
-25
 11
8
 21
-23
  0
LINE
  8
0
 10
8
 20
-23
 11
14
 21
-23
  0
LINE
  8
0
 10
14
 20
-23
 11
14
 21
-25
  0
LINE
  8
0
 10
14
 20
-25
 11
8
 21
-25
  0
LINE
  8
0
 10
-32
 20
-25
 11
-32
 21
-23
  0
LINE
  8
0
 10
-32
 20
-23
 11
-26
 21
-23
  0
LINE
  8
0
 10
-26
 20
-23
 11
-26
 21
-25
  0
LINE
  8
0
 10
-26
 20
-25
 11
-32
 21
-25
  0
LINE
  8
0
 10
-14
 20
-25
 11
-14
 21
-23
  0
LINE
  8
0
 10
-14
 20
-23
 11
-8
 21
-23
  0
LINE
  8
0
 10
-8
 20
-23
 11
-8
 21
-25
  0
LINE
  8
0
 10
-8
 20
-25
 11
-14
 21
-25
  0
LINE
  8
0
 10
7.74998
 20
-39.5729
 11
7.74998
 21
-28.4271
  0
LINE
  8
0
 10
7.74998
 20
-28.4271
 11
32.25
 21
-28.4271
  0
LINE
  8
0
 10
32.25
 20
-28.4271
 11
32.25
 21
-39.5729
  0
LINE
  8
0
 10
32.25
 20
-39.5729
 11
7.74998
 21
-39.5729
  0
LINE
  8
0
 10
-32.25
 20
-39.5729
 11
-32.25
 21
-28.4271
  0
LINE
  8
0
 10
-32.25
 20
-28.4271
 11
-7.74998
 21
-28.4271
  0
LINE
  8
0
 10
-7.74998
 20
-28.4271
 11
-7.74998
 21
-39.5729
  0
LINE
  8
0
 10
-7.74998
 20
-39.5729
 11
-32.25
 21
-39.5729
  0
LINE
  8
0
 10
8
 20
-45
 11
8
 21
-43
  0
LINE
  8
0
 10
8
 20
-43
 11
14
 21
-43
  0
LINE
  8
0
 10
14
 20
-43
 11
14
 21
-45
  0
LINE
  8
0
 10
14
 20
-45
 11
8
 21
-45
  0
LINE
  8
0
 10
26
 20
-45
 11
26
 21
-43
  0
LINE
  8
0
 10
26
 20
-43
 11
32
 21
-43
  0
LINE
  8
0
 10
32
 20
-43
 11
32
 21
-45
  0
LINE
  8
0
 10
32
 20
-45
 11
26
 21
-45
  0
LINE
  8
0
 10
-32
 20
-45
 11
-32
 21
-43
  0
LINE
  8
0
 10
-32
 20
-43
 11
-26
 21
-43
  0
LINE
  8
0
 10
-26
 20
-43
 11
-26
 21
-45
  0
LINE
  8
0
 10
-26
 20
-45
 11
-32
 21
-45
  0
LINE
  8
0
 10
-14
 20
-45
 11
-14
 21
-43
  0
LINE
  8
0
 10
-14
 20
-43
 11
-8
 21
-43
  0
LINE
  8
0
 10
-8
 20
-43
 11
-8
 21
-45
  0
LINE
  8
0
 10
-8
 20
-45
 11
-14
 21
-45
  0
ENDSEC
  0
SECTION
  2
OBJECTS
  0
DICTIONARY
  0
ENDSEC
  0
EOF
