  0
SECTION
  2
BLOCKS
  0
ENDSEC
  0
SECTION
  2
ENTITIES
  0
LINE
  8
0
 10
10
 20
37.5
 11
10
 21
42.5
  0
LINE
  8
0
 10
10
 20
42.5
 11
15
 21
42.5
  0
LINE
  8
0
 10
15
 20
42.5
 11
15
 21
67.5
  0
LINE
  8
0
 10
15
 20
67.5
 11
10
 21
67.5
  0
LINE
  8
0
 10
10
 20
67.5
 11
10
 21
72.5
  0
LINE
  8
0
 10
10
 20
72.5
 11
15
 21
72.5
  0
LINE
  8
0
 10
15
 20
72.5
 11
15
 21
80
  0
LINE
  8
0
 10
15
 20
80
 11
-15
 21
80
  0
LINE
  8
0
 10
-15
 20
80
 11
-15
 21
72.5
  0
LINE
  8
0
 10
-15
 20
72.5
 11
-10
 21
72.5
  0
LINE
  8
0
 10
-10
 20
72.5
 11
-10
 21
67.5
  0
LINE
  8
0
 10
-10
 20
67.5
 11
-15
 21
67.5
  0
LINE
  8
0
 10
-15
 20
67.5
 11
-15
 21
42.5
  0
LINE
  8
0
 10
-15
 20
42.5
 11
-10
 21
42.5
  0
LINE
  8
0
 10
-10
 20
42.5
 11
-10
 21
37.5
  0
LINE
  8
0
 10
-10
 20
37.5
 11
-15
 21
37.5
  0
LINE
  8
0
 10
-15
 20
37.5
 11
-15
 21
25
  0
LINE
  8
0
 10
-15
 20
25
 11
-45
 21
25
  0
LINE
  8
0
 10
-45
 20
25
 11
-45
 21
-25
  0
LINE
  8
0
 10
-45
 20
-25
 11
45
 21
-25
  0
LINE
  8
0
 10
45
 20
-25
 11
45
 21
25
  0
LINE
  8
0
 10
45
 20
25
 11
15
 21
25
  0
LINE
  8
0
 10
15
 20
25
 11
15
 21
37.5
  0
LINE
  8
0
 10
15
 20
37.5
 11
10
 21
37.5
  0
LINE
  8
0
 10
10
 20
25
 11
-10
 21
25
  0
LINE
  8
0
 10
-10
 20
25
 11
-10
 21
30
  0
LINE
  8
0
 10
-10
 20
30
 11
10
 21
30
  0
LINE
  8
0
 10
10
 20
30
 11
10
 21
25
  0
LINE
  8
0
 10
-15
 20
15
 11
-15
 21
20
  0
LINE
  8
0
 10
-15
 20
20
 11
-10
 21
20
  0
LINE
  8
0
 10
-10
 20
20
 11
-10
 21
15
  0
LINE
  8
0
 10
-10
 20
15
 11
-15
 21
15
  0
LINE
  8
0
 10
10
 20
15
 11
10
 21
20
  0
LINE
  8
0
 10
10
 20
20
 11
15
 21
20
  0
LINE
  8
0
 10
15
 20
20
 11
15
 21
15
  0
LINE
  8
0
 10
15
 20
15
 11
10
 21
15
  0
LINE
  8
0
 10
-39.5
 20
15
 11
-39.5
 21
20
  0
LINE
  8
0
 10
-39.5
 20
20
 11
-34.5
 21
20
  0
LINE
  8
0
 10
-34.5
 20
20
 11
-34.5
 21
15
  0
LINE
  8
0
 10
-34.5
 20
15
 11
-39.5
 21
15
  0
LINE
  8
0
 10
34.5
 20
15
 11
34.5
 21
20
  0
LINE
  8
0
 10
34.5
 20
20
 11
39.5
 21
20
  0
LINE
  8
0
 10
39.5
 20
20
 11
39.5
 21
15
  0
LINE
  8
0
 10
39.5
 20
15
 11
34.5
 21
15
  0
LINE
  8
0
 10
-37.0942
 20
6.00294
 11
-37.2811
 21
6.02657
  0
LINE
  8
0
 10
-37.2811
 20
6.02657
 11
-37.4635
 21
6.07341
  0
LINE
  8
0
 10
-37.4635
 20
6.07341
 11
-37.6387
 21
6.14275
  0
LINE
  8
0
 10
-37.6387
 20
6.14275
 11
-37.8037
 21
6.23351
  0
LINE
  8
0
 10
-37.8037
 20
6.23351
 11
-37.9561
 21
6.34422
  0
LINE
  8
0
 10
-37.9561
 20
6.34422
 11
-38.0934
 21
6.47318
  0
LINE
  8
0
 10
-38.0934
 20
6.47318
 11
-38.2135
 21
6.61832
  0
LINE
  8
0
 10
-38.2135
 20
6.61832
 11
-38.3145
 21
6.77736
  0
LINE
  8
0
 10
-38.3145
 20
6.77736
 11
-38.3947
 21
6.9478
  0
LINE
  8
0
 10
-38.3947
 20
6.9478
 11
-38.4529
 21
7.12695
  0
LINE
  8
0
 10
-38.4529
 20
7.12695
 11
-38.4882
 21
7.312
  0
LINE
  8
0
 10
-38.4882
 20
7.312
 11
-38.5
 21
7.5
  0
LINE
  8
0
 10
-38.5
 20
7.5
 11
-38.4882
 21
7.68799
  0
LINE
  8
0
 10
-38.4882
 20
7.68799
 11
-38.4529
 21
7.87303
  0
LINE
  8
0
 10
-38.4529
 20
7.87303
 11
-38.3947
 21
8.05219
  0
LINE
  8
0
 10
-38.3947
 20
8.05219
 11
-38.3145
 21
8.22263
  0
LINE
  8
0
 10
-38.3145
 20
8.22263
 11
-38.2135
 21
8.38167
  0
LINE
  8
0
 10
-38.2135
 20
8.38167
 11
-38.0934
 21
8.52681
  0
LINE
  8
0
 10
-38.0934
 20
8.52681
 11
-37.9561
 21
8.65576
  0
LINE
  8
0
 10
-37.9561
 20
8.65576
 11
-37.8037
 21
8.76648
  0
LINE
  8
0
 10
-37.8037
 20
8.76648
 11
-37.6387
 21
8.85724
  0
LINE
  8
0
 10
-37.6387
 20
8.85724
 11
-37.4635
 21
8.92657
  0
LINE
  8
0
 10
-37.4635
 20
8.92657
 11
-37.2811
 21
8.97342
  0
LINE
  8
0
 10
-37.2811
 20
8.97342
 11
-37.0942
 21
8.99704
  0
LINE
  8
0
 10
-37.0942
 20
8.99704
 11
-36.9058
 21
8.99704
  0
LINE
  8
0
 10
-36.9058
 20
8.99704
 11
-36.7189
 21
8.97342
  0
LINE
  8
0
 10
-36.7189
 20
8.97342
 11
-36.5365
 21
8.92657
  0
LINE
  8
0
 10
-36.5365
 20
8.92657
 11
-36.3613
 21
8.85724
  0
LINE
  8
0
 10
-36.3613
 20
8.85724
 11
-36.1963
 21
8.76648
  0
LINE
  8
0
 10
-36.1963
 20
8.76648
 11
-36.0439
 21
8.65576
  0
LINE
  8
0
 10
-36.0439
 20
8.65576
 11
-35.9066
 21
8.52681
  0
LINE
  8
0
 10
-35.9066
 20
8.52681
 11
-35.7865
 21
8.38167
  0
LINE
  8
0
 10
-35.7865
 20
8.38167
 11
-35.6855
 21
8.22263
  0
LINE
  8
0
 10
-35.6855
 20
8.22263
 11
-35.6053
 21
8.05219
  0
LINE
  8
0
 10
-35.6053
 20
8.05219
 11
-35.5471
 21
7.87303
  0
LINE
  8
0
 10
-35.5471
 20
7.87303
 11
-35.5118
 21
7.68799
  0
LINE
  8
0
 10
-35.5118
 20
7.68799
 11
-35.5
 21
7.5
  0
LINE
  8
0
 10
-35.5
 20
7.5
 11
-35.5118
 21
7.312
  0
LINE
  8
0
 10
-35.5118
 20
7.312
 11
-35.5471
 21
7.12695
  0
LINE
  8
0
 10
-35.5471
 20
7.12695
 11
-35.6053
 21
6.9478
  0
LINE
  8
0
 10
-35.6053
 20
6.9478
 11
-35.6855
 21
6.77736
  0
LINE
  8
0
 10
-35.6855
 20
6.77736
 11
-35.7865
 21
6.61832
  0
LINE
  8
0
 10
-35.7865
 20
6.61832
 11
-35.9066
 21
6.47318
  0
LINE
  8
0
 10
-35.9066
 20
6.47318
 11
-36.0439
 21
6.34422
  0
LINE
  8
0
 10
-36.0439
 20
6.34422
 11
-36.1963
 21
6.23351
  0
LINE
  8
0
 10
-36.1963
 20
6.23351
 11
-36.3613
 21
6.14275
  0
LINE
  8
0
 10
-36.3613
 20
6.14275
 11
-36.5365
 21
6.07341
  0
LINE
  8
0
 10
-36.5365
 20
6.07341
 11
-36.7189
 21
6.02657
  0
LINE
  8
0
 10
-36.7189
 20
6.02657
 11
-36.9058
 21
6.00294
  0
LINE
  8
0
 10
-36.9058
 20
6.00294
 11
-37.0942
 21
6.00294
  0
LINE
  8
0
 10
36.9058
 20
6.00294
 11
36.7189
 21
6.02657
  0
LINE
  8
0
 10
36.7189
 20
6.02657
 11
36.5365
 21
6.07341
  0
LINE
  8
0
 10
36.5365
 20
6.07341
 11
36.3613
 21
6.14275
  0
LINE
  8
0
 10
36.3613
 20
6.14275
 11
36.1963
 21
6.23351
  0
LINE
  8
0
 10
36.1963
 20
6.23351
 11
36.0439
 21
6.34422
  0
LINE
  8
0
 10
36.0439
 20
6.34422
 11
35.9066
 21
6.47318
  0
LINE
  8
0
 10
35.9066
 20
6.47318
 11
35.7865
 21
6.61832
  0
LINE
  8
0
 10
35.7865
 20
6.61832
 11
35.6855
 21
6.77736
  0
LINE
  8
0
 10
35.6855
 20
6.77736
 11
35.6053
 21
6.9478
  0
LINE
  8
0
 10
35.6053
 20
6.9478
 11
35.5471
 21
7.12695
  0
LINE
  8
0
 10
35.5471
 20
7.12695
 11
35.5118
 21
7.312
  0
LINE
  8
0
 10
35.5118
 20
7.312
 11
35.5
 21
7.5
  0
LINE
  8
0
 10
35.5
 20
7.5
 11
35.5118
 21
7.68799
  0
LINE
  8
0
 10
35.5118
 20
7.68799
 11
35.5471
 21
7.87303
  0
LINE
  8
0
 10
35.5471
 20
7.87303
 11
35.6053
 21
8.05219
  0
LINE
  8
0
 10
35.6053
 20
8.05219
 11
35.6855
 21
8.22263
  0
LINE
  8
0
 10
35.6855
 20
8.22263
 11
35.7865
 21
8.38167
  0
LINE
  8
0
 10
35.7865
 20
8.38167
 11
35.9066
 21
8.52681
  0
LINE
  8
0
 10
35.9066
 20
8.52681
 11
36.0439
 21
8.65576
  0
LINE
  8
0
 10
36.0439
 20
8.65576
 11
36.1963
 21
8.76648
  0
LINE
  8
0
 10
36.1963
 20
8.76648
 11
36.3613
 21
8.85724
  0
LINE
  8
0
 10
36.3613
 20
8.85724
 11
36.5365
 21
8.92657
  0
LINE
  8
0
 10
36.5365
 20
8.92657
 11
36.7189
 21
8.97342
  0
LINE
  8
0
 10
36.7189
 20
8.97342
 11
36.9058
 21
8.99704
  0
LINE
  8
0
 10
36.9058
 20
8.99704
 11
37.0942
 21
8.99704
  0
LINE
  8
0
 10
37.0942
 20
8.99704
 11
37.2811
 21
8.97342
  0
LINE
  8
0
 10
37.2811
 20
8.97342
 11
37.4635
 21
8.92657
  0
LINE
  8
0
 10
37.4635
 20
8.92657
 11
37.6387
 21
8.85724
  0
LINE
  8
0
 10
37.6387
 20
8.85724
 11
37.8037
 21
8.76648
  0
LINE
  8
0
 10
37.8037
 20
8.76648
 11
37.9561
 21
8.65576
  0
LINE
  8
0
 10
37.9561
 20
8.65576
 11
38.0934
 21
8.52681
  0
LINE
  8
0
 10
38.0934
 20
8.52681
 11
38.2135
 21
8.38167
  0
LINE
  8
0
 10
38.2135
 20
8.38167
 11
38.3145
 21
8.22263
  0
LINE
  8
0
 10
38.3145
 20
8.22263
 11
38.3947
 21
8.05219
  0
LINE
  8
0
 10
38.3947
 20
8.05219
 11
38.4529
 21
7.87303
  0
LINE
  8
0
 10
38.4529
 20
7.87303
 11
38.4882
 21
7.68799
  0
LINE
  8
0
 10
38.4882
 20
7.68799
 11
38.5
 21
7.5
  0
LINE
  8
0
 10
38.5
 20
7.5
 11
38.4882
 21
7.312
  0
LINE
  8
0
 10
38.4882
 20
7.312
 11
38.4529
 21
7.12695
  0
LINE
  8
0
 10
38.4529
 20
7.12695
 11
38.3947
 21
6.9478
  0
LINE
  8
0
 10
38.3947
 20
6.9478
 11
38.3145
 21
6.77736
  0
LINE
  8
0
 10
38.3145
 20
6.77736
 11
38.2135
 21
6.61832
  0
LINE
  8
0
 10
38.2135
 20
6.61832
 11
38.0934
 21
6.47318
  0
LINE
  8
0
 10
38.0934
 20
6.47318
 11
37.9561
 21
6.34422
  0
LINE
  8
0
 10
37.9561
 20
6.34422
 11
37.8037
 21
6.23351
  0
LINE
  8
0
 10
37.8037
 20
6.23351
 11
37.6387
 21
6.14275
  0
LINE
  8
0
 10
37.6387
 20
6.14275
 11
37.4635
 21
6.07341
  0
LINE
  8
0
 10
37.4635
 20
6.07341
 11
37.2811
 21
6.02657
  0
LINE
  8
0
 10
37.2811
 20
6.02657
 11
37.0942
 21
6.00294
  0
LINE
  8
0
 10
37.0942
 20
6.00294
 11
36.9058
 21
6.00294
  0
LINE
  8
0
 10
-39.5
 20
-5
 11
-39.5
 21
0
  0
LINE
  8
0
 10
-39.5
 20
0
 11
-34.5
 21
0
  0
LINE
  8
0
 10
-34.5
 20
0
 11
-34.5
 21
-5
  0
LINE
  8
0
 10
-34.5
 20
-5
 11
-39.5
 21
-5
  0
LINE
  8
0
 10
34.5
 20
-5
 11
34.5
 21
0
  0
LINE
  8
0
 10
34.5
 20
0
 11
39.5
 21
0
  0
LINE
  8
0
 10
39.5
 20
0
 11
39.5
 21
-5
  0
LINE
  8
0
 10
39.5
 20
-5
 11
34.5
 21
-5
  0
LINE
  8
0
 10
-15
 20
-20
 11
-15
 21
-15
  0
LINE
  8
0
 10
-15
 20
-15
 11
-10
 21
-15
  0
LINE
  8
0
 10
-10
 20
-15
 11
-10
 21
-20
  0
LINE
  8
0
 10
-10
 20
-20
 11
-15
 21
-20
  0
LINE
  8
0
 10
10
 20
-20
 11
10
 21
-15
  0
LINE
  8
0
 10
10
 20
-15
 11
15
 21
-15
  0
LINE
  8
0
 10
15
 20
-15
 11
15
 21
-20
  0
LINE
  8
0
 10
15
 20
-20
 11
10
 21
-20
  0
ENDSEC
  0
SECTION
  2
OBJECTS
  0
DICTIONARY
  0
ENDSEC
  0
EOF
