  0
SECTION
  2
BLOCKS
  0
ENDSEC
  0
SECTION
  2
ENTITIES
  0
LINE
  8
0
 10
3.46655
 20
-18.1723
 11
5.71681
 21
-17.5945
  0
LINE
  8
0
 10
5.71681
 20
-17.5945
 11
7.87691
 21
-16.7393
  0
LINE
  8
0
 10
7.87691
 20
-16.7393
 11
9.91278
 21
-15.6201
  0
LINE
  8
0
 10
9.91278
 20
-15.6201
 11
11.7923
 21
-14.2545
  0
LINE
  8
0
 10
11.7923
 20
-14.2545
 11
13.4859
 21
-12.6641
  0
LINE
  8
0
 10
13.4859
 20
-12.6641
 11
14.9668
 21
-10.874
  0
LINE
  8
0
 10
14.9668
 20
-10.874
 11
16.2117
 21
-8.91243
  0
LINE
  8
0
 10
16.2117
 20
-8.91243
 11
17.2009
 21
-6.8103
  0
LINE
  8
0
 10
17.2009
 20
-6.8103
 11
17.9188
 21
-4.60075
  0
LINE
  8
0
 10
17.9188
 20
-4.60075
 11
18.3541
 21
-2.31866
  0
LINE
  8
0
 10
18.3541
 20
-2.31866
 11
18.5
 21
0
  0
LINE
  8
0
 10
18.5
 20
0
 11
18.3541
 21
2.31866
  0
LINE
  8
0
 10
18.3541
 20
2.31866
 11
17.9188
 21
4.60075
  0
LINE
  8
0
 10
17.9188
 20
4.60075
 11
17.2009
 21
6.8103
  0
LINE
  8
0
 10
17.2009
 20
6.8103
 11
16.2117
 21
8.91243
  0
LINE
  8
0
 10
16.2117
 20
8.91243
 11
14.9668
 21
10.874
  0
LINE
  8
0
 10
14.9668
 20
10.874
 11
13.4859
 21
12.6641
  0
LINE
  8
0
 10
13.4859
 20
12.6641
 11
11.7923
 21
14.2545
  0
LINE
  8
0
 10
11.7923
 20
14.2545
 11
9.91278
 21
15.6201
  0
LINE
  8
0
 10
9.91278
 20
15.6201
 11
7.87691
 21
16.7393
  0
LINE
  8
0
 10
7.87691
 20
16.7393
 11
5.71681
 21
17.5945
  0
LINE
  8
0
 10
5.71681
 20
17.5945
 11
3.46655
 21
18.1723
  0
LINE
  8
0
 10
3.46655
 20
18.1723
 11
1.16162
 21
18.4635
  0
LINE
  8
0
 10
1.16162
 20
18.4635
 11
-1.16162
 21
18.4635
  0
LINE
  8
0
 10
-1.16162
 20
18.4635
 11
-3.46655
 21
18.1723
  0
LINE
  8
0
 10
-3.46655
 20
18.1723
 11
-5.71681
 21
17.5945
  0
LINE
  8
0
 10
-5.71681
 20
17.5945
 11
-7.87691
 21
16.7393
  0
LINE
  8
0
 10
-7.87691
 20
16.7393
 11
-9.91278
 21
15.6201
  0
LINE
  8
0
 10
-9.91278
 20
15.6201
 11
-11.7923
 21
14.2545
  0
LINE
  8
0
 10
-11.7923
 20
14.2545
 11
-13.4859
 21
12.6641
  0
LINE
  8
0
 10
-13.4859
 20
12.6641
 11
-14.9668
 21
10.874
  0
LINE
  8
0
 10
-14.9668
 20
10.874
 11
-16.2117
 21
8.91243
  0
LINE
  8
0
 10
-16.2117
 20
8.91243
 11
-17.2009
 21
6.8103
  0
LINE
  8
0
 10
-17.2009
 20
6.8103
 11
-17.9188
 21
4.60075
  0
LINE
  8
0
 10
-17.9188
 20
4.60075
 11
-18.3541
 21
2.31866
  0
LINE
  8
0
 10
-18.3541
 20
2.31866
 11
-18.5
 21
0
  0
LINE
  8
0
 10
-18.5
 20
0
 11
-18.3541
 21
-2.31866
  0
LINE
  8
0
 10
-18.3541
 20
-2.31866
 11
-17.9188
 21
-4.60075
  0
LINE
  8
0
 10
-17.9188
 20
-4.60075
 11
-17.2009
 21
-6.8103
  0
LINE
  8
0
 10
-17.2009
 20
-6.8103
 11
-16.2117
 21
-8.91243
  0
LINE
  8
0
 10
-16.2117
 20
-8.91243
 11
-14.9668
 21
-10.874
  0
LINE
  8
0
 10
-14.9668
 20
-10.874
 11
-13.4859
 21
-12.6641
  0
LINE
  8
0
 10
-13.4859
 20
-12.6641
 11
-11.7923
 21
-14.2545
  0
LINE
  8
0
 10
-11.7923
 20
-14.2545
 11
-9.91278
 21
-15.6201
  0
LINE
  8
0
 10
-9.91278
 20
-15.6201
 11
-7.87691
 21
-16.7393
  0
LINE
  8
0
 10
-7.87691
 20
-16.7393
 11
-5.71681
 21
-17.5945
  0
LINE
  8
0
 10
-5.71681
 20
-17.5945
 11
-3.46655
 21
-18.1723
  0
LINE
  8
0
 10
-3.46655
 20
-18.1723
 11
-1.16162
 21
-18.4635
  0
LINE
  8
0
 10
-1.16162
 20
-18.4635
 11
1.16162
 21
-18.4635
  0
LINE
  8
0
 10
1.16162
 20
-18.4635
 11
3.46655
 21
-18.1723
  0
LINE
  8
0
 10
-9.09418
 20
7.50294
 11
-9.28107
 21
7.52657
  0
LINE
  8
0
 10
-9.28107
 20
7.52657
 11
-9.46352
 21
7.57341
  0
LINE
  8
0
 10
-9.46352
 20
7.57341
 11
-9.63866
 21
7.64275
  0
LINE
  8
0
 10
-9.63866
 20
7.64275
 11
-9.80373
 21
7.73351
  0
LINE
  8
0
 10
-9.80373
 20
7.73351
 11
-9.95613
 21
7.84422
  0
LINE
  8
0
 10
-9.95613
 20
7.84422
 11
-10.0934
 21
7.97318
  0
LINE
  8
0
 10
-10.0934
 20
7.97318
 11
-10.2135
 21
8.11832
  0
LINE
  8
0
 10
-10.2135
 20
8.11832
 11
-10.3145
 21
8.27736
  0
LINE
  8
0
 10
-10.3145
 20
8.27736
 11
-10.3947
 21
8.4478
  0
LINE
  8
0
 10
-10.3947
 20
8.4478
 11
-10.4529
 21
8.62695
  0
LINE
  8
0
 10
-10.4529
 20
8.62695
 11
-10.4882
 21
8.812
  0
LINE
  8
0
 10
-10.4882
 20
8.812
 11
-10.5
 21
9
  0
LINE
  8
0
 10
-10.5
 20
9
 11
-10.4882
 21
9.18799
  0
LINE
  8
0
 10
-10.4882
 20
9.18799
 11
-10.4529
 21
9.37303
  0
LINE
  8
0
 10
-10.4529
 20
9.37303
 11
-10.3947
 21
9.55219
  0
LINE
  8
0
 10
-10.3947
 20
9.55219
 11
-10.3145
 21
9.72263
  0
LINE
  8
0
 10
-10.3145
 20
9.72263
 11
-10.2135
 21
9.88167
  0
LINE
  8
0
 10
-10.2135
 20
9.88167
 11
-10.0934
 21
10.0268
  0
LINE
  8
0
 10
-10.0934
 20
10.0268
 11
-9.95613
 21
10.1558
  0
LINE
  8
0
 10
-9.95613
 20
10.1558
 11
-9.80373
 21
10.2665
  0
LINE
  8
0
 10
-9.80373
 20
10.2665
 11
-9.63866
 21
10.3572
  0
LINE
  8
0
 10
-9.63866
 20
10.3572
 11
-9.46352
 21
10.4266
  0
LINE
  8
0
 10
-9.46352
 20
10.4266
 11
-9.28107
 21
10.4734
  0
LINE
  8
0
 10
-9.28107
 20
10.4734
 11
-9.09418
 21
10.497
  0
LINE
  8
0
 10
-9.09418
 20
10.497
 11
-8.90581
 21
10.497
  0
LINE
  8
0
 10
-8.90581
 20
10.497
 11
-8.71892
 21
10.4734
  0
LINE
  8
0
 10
-8.71892
 20
10.4734
 11
-8.53647
 21
10.4266
  0
LINE
  8
0
 10
-8.53647
 20
10.4266
 11
-8.36133
 21
10.3572
  0
LINE
  8
0
 10
-8.36133
 20
10.3572
 11
-8.19626
 21
10.2665
  0
LINE
  8
0
 10
-8.19626
 20
10.2665
 11
-8.04385
 21
10.1558
  0
LINE
  8
0
 10
-8.04385
 20
10.1558
 11
-7.90654
 21
10.0268
  0
LINE
  8
0
 10
-7.90654
 20
10.0268
 11
-7.78647
 21
9.88167
  0
LINE
  8
0
 10
-7.78647
 20
9.88167
 11
-7.68553
 21
9.72263
  0
LINE
  8
0
 10
-7.68553
 20
9.72263
 11
-7.60533
 21
9.55219
  0
LINE
  8
0
 10
-7.60533
 20
9.55219
 11
-7.54712
 21
9.37303
  0
LINE
  8
0
 10
-7.54712
 20
9.37303
 11
-7.51183
 21
9.18799
  0
LINE
  8
0
 10
-7.51183
 20
9.18799
 11
-7.5
 21
9
  0
LINE
  8
0
 10
-7.5
 20
9
 11
-7.51183
 21
8.812
  0
LINE
  8
0
 10
-7.51183
 20
8.812
 11
-7.54712
 21
8.62695
  0
LINE
  8
0
 10
-7.54712
 20
8.62695
 11
-7.60533
 21
8.4478
  0
LINE
  8
0
 10
-7.60533
 20
8.4478
 11
-7.68553
 21
8.27736
  0
LINE
  8
0
 10
-7.68553
 20
8.27736
 11
-7.78647
 21
8.11832
  0
LINE
  8
0
 10
-7.78647
 20
8.11832
 11
-7.90654
 21
7.97318
  0
LINE
  8
0
 10
-7.90654
 20
7.97318
 11
-8.04385
 21
7.84422
  0
LINE
  8
0
 10
-8.04385
 20
7.84422
 11
-8.19626
 21
7.73351
  0
LINE
  8
0
 10
-8.19626
 20
7.73351
 11
-8.36133
 21
7.64275
  0
LINE
  8
0
 10
-8.36133
 20
7.64275
 11
-8.53647
 21
7.57341
  0
LINE
  8
0
 10
-8.53647
 20
7.57341
 11
-8.71892
 21
7.52657
  0
LINE
  8
0
 10
-8.71892
 20
7.52657
 11
-8.90581
 21
7.50294
  0
LINE
  8
0
 10
-8.90581
 20
7.50294
 11
-9.09418
 21
7.50294
  0
LINE
  8
0
 10
8.90581
 20
7.50294
 11
8.71892
 21
7.52657
  0
LINE
  8
0
 10
8.71892
 20
7.52657
 11
8.53647
 21
7.57341
  0
LINE
  8
0
 10
8.53647
 20
7.57341
 11
8.36133
 21
7.64275
  0
LINE
  8
0
 10
8.36133
 20
7.64275
 11
8.19626
 21
7.73351
  0
LINE
  8
0
 10
8.19626
 20
7.73351
 11
8.04385
 21
7.84422
  0
LINE
  8
0
 10
8.04385
 20
7.84422
 11
7.90654
 21
7.97318
  0
LINE
  8
0
 10
7.90654
 20
7.97318
 11
7.78647
 21
8.11832
  0
LINE
  8
0
 10
7.78647
 20
8.11832
 11
7.68553
 21
8.27736
  0
LINE
  8
0
 10
7.68553
 20
8.27736
 11
7.60533
 21
8.4478
  0
LINE
  8
0
 10
7.60533
 20
8.4478
 11
7.54712
 21
8.62695
  0
LINE
  8
0
 10
7.54712
 20
8.62695
 11
7.51183
 21
8.812
  0
LINE
  8
0
 10
7.51183
 20
8.812
 11
7.5
 21
9
  0
LINE
  8
0
 10
7.5
 20
9
 11
7.51183
 21
9.18799
  0
LINE
  8
0
 10
7.51183
 20
9.18799
 11
7.54712
 21
9.37303
  0
LINE
  8
0
 10
7.54712
 20
9.37303
 11
7.60533
 21
9.55219
  0
LINE
  8
0
 10
7.60533
 20
9.55219
 11
7.68553
 21
9.72263
  0
LINE
  8
0
 10
7.68553
 20
9.72263
 11
7.78647
 21
9.88167
  0
LINE
  8
0
 10
7.78647
 20
9.88167
 11
7.90654
 21
10.0268
  0
LINE
  8
0
 10
7.90654
 20
10.0268
 11
8.04385
 21
10.1558
  0
LINE
  8
0
 10
8.04385
 20
10.1558
 11
8.19626
 21
10.2665
  0
LINE
  8
0
 10
8.19626
 20
10.2665
 11
8.36133
 21
10.3572
  0
LINE
  8
0
 10
8.36133
 20
10.3572
 11
8.53647
 21
10.4266
  0
LINE
  8
0
 10
8.53647
 20
10.4266
 11
8.71892
 21
10.4734
  0
LINE
  8
0
 10
8.71892
 20
10.4734
 11
8.90581
 21
10.497
  0
LINE
  8
0
 10
8.90581
 20
10.497
 11
9.09418
 21
10.497
  0
LINE
  8
0
 10
9.09418
 20
10.497
 11
9.28107
 21
10.4734
  0
LINE
  8
0
 10
9.28107
 20
10.4734
 11
9.46352
 21
10.4266
  0
LINE
  8
0
 10
9.46352
 20
10.4266
 11
9.63866
 21
10.3572
  0
LINE
  8
0
 10
9.63866
 20
10.3572
 11
9.80373
 21
10.2665
  0
LINE
  8
0
 10
9.80373
 20
10.2665
 11
9.95613
 21
10.1558
  0
LINE
  8
0
 10
9.95613
 20
10.1558
 11
10.0934
 21
10.0268
  0
LINE
  8
0
 10
10.0934
 20
10.0268
 11
10.2135
 21
9.88167
  0
LINE
  8
0
 10
10.2135
 20
9.88167
 11
10.3145
 21
9.72263
  0
LINE
  8
0
 10
10.3145
 20
9.72263
 11
10.3947
 21
9.55219
  0
LINE
  8
0
 10
10.3947
 20
9.55219
 11
10.4529
 21
9.37303
  0
LINE
  8
0
 10
10.4529
 20
9.37303
 11
10.4882
 21
9.18799
  0
LINE
  8
0
 10
10.4882
 20
9.18799
 11
10.5
 21
9
  0
LINE
  8
0
 10
10.5
 20
9
 11
10.4882
 21
8.812
  0
LINE
  8
0
 10
10.4882
 20
8.812
 11
10.4529
 21
8.62695
  0
LINE
  8
0
 10
10.4529
 20
8.62695
 11
10.3947
 21
8.4478
  0
LINE
  8
0
 10
10.3947
 20
8.4478
 11
10.3145
 21
8.27736
  0
LINE
  8
0
 10
10.3145
 20
8.27736
 11
10.2135
 21
8.11832
  0
LINE
  8
0
 10
10.2135
 20
8.11832
 11
10.0934
 21
7.97318
  0
LINE
  8
0
 10
10.0934
 20
7.97318
 11
9.95613
 21
7.84422
  0
LINE
  8
0
 10
9.95613
 20
7.84422
 11
9.80373
 21
7.73351
  0
LINE
  8
0
 10
9.80373
 20
7.73351
 11
9.63866
 21
7.64275
  0
LINE
  8
0
 10
9.63866
 20
7.64275
 11
9.46352
 21
7.57341
  0
LINE
  8
0
 10
9.46352
 20
7.57341
 11
9.28107
 21
7.52657
  0
LINE
  8
0
 10
9.28107
 20
7.52657
 11
9.09418
 21
7.50294
  0
LINE
  8
0
 10
9.09418
 20
7.50294
 11
8.90581
 21
7.50294
  0
LINE
  8
0
 10
-0.470917
 20
-7.4852
 11
-1.40535
 21
-7.36714
  0
LINE
  8
0
 10
-1.40535
 20
-7.36714
 11
-2.31763
 21
-7.13292
  0
LINE
  8
0
 10
-2.31763
 20
-7.13292
 11
-3.19334
 21
-6.78619
  0
LINE
  8
0
 10
-3.19334
 20
-6.78619
 11
-4.01869
 21
-6.33246
  0
LINE
  8
0
 10
-4.01869
 20
-6.33246
 11
-4.78067
 21
-5.77884
  0
LINE
  8
0
 10
-4.78067
 20
-5.77884
 11
-5.46725
 21
-5.13409
  0
LINE
  8
0
 10
-5.46725
 20
-5.13409
 11
-6.06763
 21
-4.40839
  0
LINE
  8
0
 10
-6.06763
 20
-4.40839
 11
-6.5723
 21
-3.61314
  0
LINE
  8
0
 10
-6.5723
 20
-3.61314
 11
-6.97331
 21
-2.76093
  0
LINE
  8
0
 10
-6.97331
 20
-2.76093
 11
-7.26436
 21
-1.86517
  0
LINE
  8
0
 10
-7.26436
 20
-1.86517
 11
-7.44086
 21
-0.939987
  0
LINE
  8
0
 10
-7.44086
 20
-0.939987
 11
-7.5
 21
0
  0
LINE
  8
0
 10
-7.5
 20
0
 11
-7.44086
 21
0.939987
  0
LINE
  8
0
 10
-7.44086
 20
0.939987
 11
-7.26436
 21
1.86517
  0
LINE
  8
0
 10
-7.26436
 20
1.86517
 11
-6.97331
 21
2.76093
  0
LINE
  8
0
 10
-6.97331
 20
2.76093
 11
-6.5723
 21
3.61314
  0
LINE
  8
0
 10
-6.5723
 20
3.61314
 11
-6.06763
 21
4.40839
  0
LINE
  8
0
 10
-6.06763
 20
4.40839
 11
-5.46725
 21
5.13409
  0
LINE
  8
0
 10
-5.46725
 20
5.13409
 11
-4.78067
 21
5.77884
  0
LINE
  8
0
 10
-4.78067
 20
5.77884
 11
-4.01869
 21
6.33246
  0
LINE
  8
0
 10
-4.01869
 20
6.33246
 11
-3.19334
 21
6.78619
  0
LINE
  8
0
 10
-3.19334
 20
6.78619
 11
-2.31763
 21
7.13292
  0
LINE
  8
0
 10
-2.31763
 20
7.13292
 11
-1.40535
 21
7.36714
  0
LINE
  8
0
 10
-1.40535
 20
7.36714
 11
-0.470917
 21
7.4852
  0
LINE
  8
0
 10
-0.470917
 20
7.4852
 11
0.470917
 21
7.4852
  0
LINE
  8
0
 10
0.470917
 20
7.4852
 11
1.40535
 21
7.36714
  0
LINE
  8
0
 10
1.40535
 20
7.36714
 11
2.31763
 21
7.13292
  0
LINE
  8
0
 10
2.31763
 20
7.13292
 11
3.19334
 21
6.78619
  0
LINE
  8
0
 10
3.19334
 20
6.78619
 11
4.01869
 21
6.33246
  0
LINE
  8
0
 10
4.01869
 20
6.33246
 11
4.78067
 21
5.77884
  0
LINE
  8
0
 10
4.78067
 20
5.77884
 11
5.46725
 21
5.13409
  0
LINE
  8
0
 10
5.46725
 20
5.13409
 11
6.06763
 21
4.40839
  0
LINE
  8
0
 10
6.06763
 20
4.40839
 11
6.5723
 21
3.61314
  0
LINE
  8
0
 10
6.5723
 20
3.61314
 11
6.97331
 21
2.76093
  0
LINE
  8
0
 10
6.97331
 20
2.76093
 11
7.26436
 21
1.86517
  0
LINE
  8
0
 10
7.26436
 20
1.86517
 11
7.44086
 21
0.939987
  0
LINE
  8
0
 10
7.44086
 20
0.939987
 11
7.5
 21
0
  0
LINE
  8
0
 10
7.5
 20
0
 11
7.44086
 21
-0.939987
  0
LINE
  8
0
 10
7.44086
 20
-0.939987
 11
7.26436
 21
-1.86517
  0
LINE
  8
0
 10
7.26436
 20
-1.86517
 11
6.97331
 21
-2.76093
  0
LINE
  8
0
 10
6.97331
 20
-2.76093
 11
6.5723
 21
-3.61314
  0
LINE
  8
0
 10
6.5723
 20
-3.61314
 11
6.06763
 21
-4.40839
  0
LINE
  8
0
 10
6.06763
 20
-4.40839
 11
5.46725
 21
-5.13409
  0
LINE
  8
0
 10
5.46725
 20
-5.13409
 11
4.78067
 21
-5.77884
  0
LINE
  8
0
 10
4.78067
 20
-5.77884
 11
4.01869
 21
-6.33246
  0
LINE
  8
0
 10
4.01869
 20
-6.33246
 11
3.19334
 21
-6.78619
  0
LINE
  8
0
 10
3.19334
 20
-6.78619
 11
2.31763
 21
-7.13292
  0
LINE
  8
0
 10
2.31763
 20
-7.13292
 11
1.40535
 21
-7.36714
  0
LINE
  8
0
 10
1.40535
 20
-7.36714
 11
0.470917
 21
-7.4852
  0
LINE
  8
0
 10
0.470917
 20
-7.4852
 11
-0.470917
 21
-7.4852
  0
LINE
  8
0
 10
-9.09418
 20
-10.497
 11
-9.28107
 21
-10.4734
  0
LINE
  8
0
 10
-9.28107
 20
-10.4734
 11
-9.46352
 21
-10.4266
  0
LINE
  8
0
 10
-9.46352
 20
-10.4266
 11
-9.63866
 21
-10.3572
  0
LINE
  8
0
 10
-9.63866
 20
-10.3572
 11
-9.80373
 21
-10.2665
  0
LINE
  8
0
 10
-9.80373
 20
-10.2665
 11
-9.95613
 21
-10.1558
  0
LINE
  8
0
 10
-9.95613
 20
-10.1558
 11
-10.0934
 21
-10.0268
  0
LINE
  8
0
 10
-10.0934
 20
-10.0268
 11
-10.2135
 21
-9.88167
  0
LINE
  8
0
 10
-10.2135
 20
-9.88167
 11
-10.3145
 21
-9.72263
  0
LINE
  8
0
 10
-10.3145
 20
-9.72263
 11
-10.3947
 21
-9.55219
  0
LINE
  8
0
 10
-10.3947
 20
-9.55219
 11
-10.4529
 21
-9.37303
  0
LINE
  8
0
 10
-10.4529
 20
-9.37303
 11
-10.4882
 21
-9.18799
  0
LINE
  8
0
 10
-10.4882
 20
-9.18799
 11
-10.5
 21
-9
  0
LINE
  8
0
 10
-10.5
 20
-9
 11
-10.4882
 21
-8.812
  0
LINE
  8
0
 10
-10.4882
 20
-8.812
 11
-10.4529
 21
-8.62695
  0
LINE
  8
0
 10
-10.4529
 20
-8.62695
 11
-10.3947
 21
-8.4478
  0
LINE
  8
0
 10
-10.3947
 20
-8.4478
 11
-10.3145
 21
-8.27736
  0
LINE
  8
0
 10
-10.3145
 20
-8.27736
 11
-10.2135
 21
-8.11832
  0
LINE
  8
0
 10
-10.2135
 20
-8.11832
 11
-10.0934
 21
-7.97318
  0
LINE
  8
0
 10
-10.0934
 20
-7.97318
 11
-9.95613
 21
-7.84422
  0
LINE
  8
0
 10
-9.95613
 20
-7.84422
 11
-9.80373
 21
-7.73351
  0
LINE
  8
0
 10
-9.80373
 20
-7.73351
 11
-9.63866
 21
-7.64275
  0
LINE
  8
0
 10
-9.63866
 20
-7.64275
 11
-9.46352
 21
-7.57341
  0
LINE
  8
0
 10
-9.46352
 20
-7.57341
 11
-9.28107
 21
-7.52657
  0
LINE
  8
0
 10
-9.28107
 20
-7.52657
 11
-9.09418
 21
-7.50294
  0
LINE
  8
0
 10
-9.09418
 20
-7.50294
 11
-8.90581
 21
-7.50294
  0
LINE
  8
0
 10
-8.90581
 20
-7.50294
 11
-8.71892
 21
-7.52657
  0
LINE
  8
0
 10
-8.71892
 20
-7.52657
 11
-8.53647
 21
-7.57341
  0
LINE
  8
0
 10
-8.53647
 20
-7.57341
 11
-8.36133
 21
-7.64275
  0
LINE
  8
0
 10
-8.36133
 20
-7.64275
 11
-8.19626
 21
-7.73351
  0
LINE
  8
0
 10
-8.19626
 20
-7.73351
 11
-8.04385
 21
-7.84422
  0
LINE
  8
0
 10
-8.04385
 20
-7.84422
 11
-7.90654
 21
-7.97318
  0
LINE
  8
0
 10
-7.90654
 20
-7.97318
 11
-7.78647
 21
-8.11832
  0
LINE
  8
0
 10
-7.78647
 20
-8.11832
 11
-7.68553
 21
-8.27736
  0
LINE
  8
0
 10
-7.68553
 20
-8.27736
 11
-7.60533
 21
-8.4478
  0
LINE
  8
0
 10
-7.60533
 20
-8.4478
 11
-7.54712
 21
-8.62695
  0
LINE
  8
0
 10
-7.54712
 20
-8.62695
 11
-7.51183
 21
-8.812
  0
LINE
  8
0
 10
-7.51183
 20
-8.812
 11
-7.5
 21
-9
  0
LINE
  8
0
 10
-7.5
 20
-9
 11
-7.51183
 21
-9.18799
  0
LINE
  8
0
 10
-7.51183
 20
-9.18799
 11
-7.54712
 21
-9.37303
  0
LINE
  8
0
 10
-7.54712
 20
-9.37303
 11
-7.60533
 21
-9.55219
  0
LINE
  8
0
 10
-7.60533
 20
-9.55219
 11
-7.68553
 21
-9.72263
  0
LINE
  8
0
 10
-7.68553
 20
-9.72263
 11
-7.78647
 21
-9.88167
  0
LINE
  8
0
 10
-7.78647
 20
-9.88167
 11
-7.90654
 21
-10.0268
  0
LINE
  8
0
 10
-7.90654
 20
-10.0268
 11
-8.04385
 21
-10.1558
  0
LINE
  8
0
 10
-8.04385
 20
-10.1558
 11
-8.19626
 21
-10.2665
  0
LINE
  8
0
 10
-8.19626
 20
-10.2665
 11
-8.36133
 21
-10.3572
  0
LINE
  8
0
 10
-8.36133
 20
-10.3572
 11
-8.53647
 21
-10.4266
  0
LINE
  8
0
 10
-8.53647
 20
-10.4266
 11
-8.71892
 21
-10.4734
  0
LINE
  8
0
 10
-8.71892
 20
-10.4734
 11
-8.90581
 21
-10.497
  0
LINE
  8
0
 10
-8.90581
 20
-10.497
 11
-9.09418
 21
-10.497
  0
LINE
  8
0
 10
8.90581
 20
-10.497
 11
8.71892
 21
-10.4734
  0
LINE
  8
0
 10
8.71892
 20
-10.4734
 11
8.53647
 21
-10.4266
  0
LINE
  8
0
 10
8.53647
 20
-10.4266
 11
8.36133
 21
-10.3572
  0
LINE
  8
0
 10
8.36133
 20
-10.3572
 11
8.19626
 21
-10.2665
  0
LINE
  8
0
 10
8.19626
 20
-10.2665
 11
8.04385
 21
-10.1558
  0
LINE
  8
0
 10
8.04385
 20
-10.1558
 11
7.90654
 21
-10.0268
  0
LINE
  8
0
 10
7.90654
 20
-10.0268
 11
7.78647
 21
-9.88167
  0
LINE
  8
0
 10
7.78647
 20
-9.88167
 11
7.68553
 21
-9.72263
  0
LINE
  8
0
 10
7.68553
 20
-9.72263
 11
7.60533
 21
-9.55219
  0
LINE
  8
0
 10
7.60533
 20
-9.55219
 11
7.54712
 21
-9.37303
  0
LINE
  8
0
 10
7.54712
 20
-9.37303
 11
7.51183
 21
-9.18799
  0
LINE
  8
0
 10
7.51183
 20
-9.18799
 11
7.5
 21
-9
  0
LINE
  8
0
 10
7.5
 20
-9
 11
7.51183
 21
-8.812
  0
LINE
  8
0
 10
7.51183
 20
-8.812
 11
7.54712
 21
-8.62695
  0
LINE
  8
0
 10
7.54712
 20
-8.62695
 11
7.60533
 21
-8.4478
  0
LINE
  8
0
 10
7.60533
 20
-8.4478
 11
7.68553
 21
-8.27736
  0
LINE
  8
0
 10
7.68553
 20
-8.27736
 11
7.78647
 21
-8.11832
  0
LINE
  8
0
 10
7.78647
 20
-8.11832
 11
7.90654
 21
-7.97318
  0
LINE
  8
0
 10
7.90654
 20
-7.97318
 11
8.04385
 21
-7.84422
  0
LINE
  8
0
 10
8.04385
 20
-7.84422
 11
8.19626
 21
-7.73351
  0
LINE
  8
0
 10
8.19626
 20
-7.73351
 11
8.36133
 21
-7.64275
  0
LINE
  8
0
 10
8.36133
 20
-7.64275
 11
8.53647
 21
-7.57341
  0
LINE
  8
0
 10
8.53647
 20
-7.57341
 11
8.71892
 21
-7.52657
  0
LINE
  8
0
 10
8.71892
 20
-7.52657
 11
8.90581
 21
-7.50294
  0
LINE
  8
0
 10
8.90581
 20
-7.50294
 11
9.09418
 21
-7.50294
  0
LINE
  8
0
 10
9.09418
 20
-7.50294
 11
9.28107
 21
-7.52657
  0
LINE
  8
0
 10
9.28107
 20
-7.52657
 11
9.46352
 21
-7.57341
  0
LINE
  8
0
 10
9.46352
 20
-7.57341
 11
9.63866
 21
-7.64275
  0
LINE
  8
0
 10
9.63866
 20
-7.64275
 11
9.80373
 21
-7.73351
  0
LINE
  8
0
 10
9.80373
 20
-7.73351
 11
9.95613
 21
-7.84422
  0
LINE
  8
0
 10
9.95613
 20
-7.84422
 11
10.0934
 21
-7.97318
  0
LINE
  8
0
 10
10.0934
 20
-7.97318
 11
10.2135
 21
-8.11832
  0
LINE
  8
0
 10
10.2135
 20
-8.11832
 11
10.3145
 21
-8.27736
  0
LINE
  8
0
 10
10.3145
 20
-8.27736
 11
10.3947
 21
-8.4478
  0
LINE
  8
0
 10
10.3947
 20
-8.4478
 11
10.4529
 21
-8.62695
  0
LINE
  8
0
 10
10.4529
 20
-8.62695
 11
10.4882
 21
-8.812
  0
LINE
  8
0
 10
10.4882
 20
-8.812
 11
10.5
 21
-9
  0
LINE
  8
0
 10
10.5
 20
-9
 11
10.4882
 21
-9.18799
  0
LINE
  8
0
 10
10.4882
 20
-9.18799
 11
10.4529
 21
-9.37303
  0
LINE
  8
0
 10
10.4529
 20
-9.37303
 11
10.3947
 21
-9.55219
  0
LINE
  8
0
 10
10.3947
 20
-9.55219
 11
10.3145
 21
-9.72263
  0
LINE
  8
0
 10
10.3145
 20
-9.72263
 11
10.2135
 21
-9.88167
  0
LINE
  8
0
 10
10.2135
 20
-9.88167
 11
10.0934
 21
-10.0268
  0
LINE
  8
0
 10
10.0934
 20
-10.0268
 11
9.95613
 21
-10.1558
  0
LINE
  8
0
 10
9.95613
 20
-10.1558
 11
9.80373
 21
-10.2665
  0
LINE
  8
0
 10
9.80373
 20
-10.2665
 11
9.63866
 21
-10.3572
  0
LINE
  8
0
 10
9.63866
 20
-10.3572
 11
9.46352
 21
-10.4266
  0
LINE
  8
0
 10
9.46352
 20
-10.4266
 11
9.28107
 21
-10.4734
  0
LINE
  8
0
 10
9.28107
 20
-10.4734
 11
9.09418
 21
-10.497
  0
LINE
  8
0
 10
9.09418
 20
-10.497
 11
8.90581
 21
-10.497
  0
ENDSEC
  0
SECTION
  2
OBJECTS
  0
DICTIONARY
  0
ENDSEC
  0
EOF
