  0
SECTION
  2
BLOCKS
  0
ENDSEC
  0
SECTION
  2
ENTITIES
  0
LINE
  8
0
 10
90
 20
40
 11
50
 21
90
  0
LINE
  8
0
 10
50
 20
90
 11
0
 21
90
  0
LINE
  8
0
 10
0
 20
90
 11
0
 21
0
  0
LINE
  8
0
 10
0
 20
0
 11
90
 21
0
  0
LINE
  8
0
 10
90
 20
0
 11
90
 21
40
  0
LINE
  8
0
 10
15.9058
 20
68.5029
 11
15.7189
 21
68.5266
  0
LINE
  8
0
 10
15.7189
 20
68.5266
 11
15.5365
 21
68.5734
  0
LINE
  8
0
 10
15.5365
 20
68.5734
 11
15.3613
 21
68.6427
  0
LINE
  8
0
 10
15.3613
 20
68.6427
 11
15.1963
 21
68.7335
  0
LINE
  8
0
 10
15.1963
 20
68.7335
 11
15.0439
 21
68.8442
  0
LINE
  8
0
 10
15.0439
 20
68.8442
 11
14.9066
 21
68.9732
  0
LINE
  8
0
 10
14.9066
 20
68.9732
 11
14.7865
 21
69.1183
  0
LINE
  8
0
 10
14.7865
 20
69.1183
 11
14.6855
 21
69.2774
  0
LINE
  8
0
 10
14.6855
 20
69.2774
 11
14.6053
 21
69.4478
  0
LINE
  8
0
 10
14.6053
 20
69.4478
 11
14.5471
 21
69.627
  0
LINE
  8
0
 10
14.5471
 20
69.627
 11
14.5118
 21
69.812
  0
LINE
  8
0
 10
14.5118
 20
69.812
 11
14.5
 21
70
  0
LINE
  8
0
 10
14.5
 20
70
 11
14.5118
 21
70.188
  0
LINE
  8
0
 10
14.5118
 20
70.188
 11
14.5471
 21
70.373
  0
LINE
  8
0
 10
14.5471
 20
70.373
 11
14.6053
 21
70.5522
  0
LINE
  8
0
 10
14.6053
 20
70.5522
 11
14.6855
 21
70.7226
  0
LINE
  8
0
 10
14.6855
 20
70.7226
 11
14.7865
 21
70.8817
  0
LINE
  8
0
 10
14.7865
 20
70.8817
 11
14.9066
 21
71.0268
  0
LINE
  8
0
 10
14.9066
 20
71.0268
 11
15.0439
 21
71.1558
  0
LINE
  8
0
 10
15.0439
 20
71.1558
 11
15.1963
 21
71.2665
  0
LINE
  8
0
 10
15.1963
 20
71.2665
 11
15.3613
 21
71.3572
  0
LINE
  8
0
 10
15.3613
 20
71.3572
 11
15.5365
 21
71.4266
  0
LINE
  8
0
 10
15.5365
 20
71.4266
 11
15.7189
 21
71.4734
  0
LINE
  8
0
 10
15.7189
 20
71.4734
 11
15.9058
 21
71.497
  0
LINE
  8
0
 10
15.9058
 20
71.497
 11
16.0942
 21
71.497
  0
LINE
  8
0
 10
16.0942
 20
71.497
 11
16.2811
 21
71.4734
  0
LINE
  8
0
 10
16.2811
 20
71.4734
 11
16.4635
 21
71.4266
  0
LINE
  8
0
 10
16.4635
 20
71.4266
 11
16.6387
 21
71.3572
  0
LINE
  8
0
 10
16.6387
 20
71.3572
 11
16.8037
 21
71.2665
  0
LINE
  8
0
 10
16.8037
 20
71.2665
 11
16.9561
 21
71.1558
  0
LINE
  8
0
 10
16.9561
 20
71.1558
 11
17.0935
 21
71.0268
  0
LINE
  8
0
 10
17.0935
 20
71.0268
 11
17.2135
 21
70.8817
  0
LINE
  8
0
 10
17.2135
 20
70.8817
 11
17.3145
 21
70.7226
  0
LINE
  8
0
 10
17.3145
 20
70.7226
 11
17.3947
 21
70.5522
  0
LINE
  8
0
 10
17.3947
 20
70.5522
 11
17.4529
 21
70.373
  0
LINE
  8
0
 10
17.4529
 20
70.373
 11
17.4882
 21
70.188
  0
LINE
  8
0
 10
17.4882
 20
70.188
 11
17.5
 21
70
  0
LINE
  8
0
 10
17.5
 20
70
 11
17.4882
 21
69.812
  0
LINE
  8
0
 10
17.4882
 20
69.812
 11
17.4529
 21
69.627
  0
LINE
  8
0
 10
17.4529
 20
69.627
 11
17.3947
 21
69.4478
  0
LINE
  8
0
 10
17.3947
 20
69.4478
 11
17.3145
 21
69.2774
  0
LINE
  8
0
 10
17.3145
 20
69.2774
 11
17.2135
 21
69.1183
  0
LINE
  8
0
 10
17.2135
 20
69.1183
 11
17.0935
 21
68.9732
  0
LINE
  8
0
 10
17.0935
 20
68.9732
 11
16.9561
 21
68.8442
  0
LINE
  8
0
 10
16.9561
 20
68.8442
 11
16.8037
 21
68.7335
  0
LINE
  8
0
 10
16.8037
 20
68.7335
 11
16.6387
 21
68.6427
  0
LINE
  8
0
 10
16.6387
 20
68.6427
 11
16.4635
 21
68.5734
  0
LINE
  8
0
 10
16.4635
 20
68.5734
 11
16.2811
 21
68.5266
  0
LINE
  8
0
 10
16.2811
 20
68.5266
 11
16.0942
 21
68.5029
  0
LINE
  8
0
 10
16.0942
 20
68.5029
 11
15.9058
 21
68.5029
  0
LINE
  8
0
 10
33.9058
 20
68.5029
 11
33.7189
 21
68.5266
  0
LINE
  8
0
 10
33.7189
 20
68.5266
 11
33.5365
 21
68.5734
  0
LINE
  8
0
 10
33.5365
 20
68.5734
 11
33.3613
 21
68.6427
  0
LINE
  8
0
 10
33.3613
 20
68.6427
 11
33.1963
 21
68.7335
  0
LINE
  8
0
 10
33.1963
 20
68.7335
 11
33.0439
 21
68.8442
  0
LINE
  8
0
 10
33.0439
 20
68.8442
 11
32.9065
 21
68.9732
  0
LINE
  8
0
 10
32.9065
 20
68.9732
 11
32.7865
 21
69.1183
  0
LINE
  8
0
 10
32.7865
 20
69.1183
 11
32.6855
 21
69.2774
  0
LINE
  8
0
 10
32.6855
 20
69.2774
 11
32.6053
 21
69.4478
  0
LINE
  8
0
 10
32.6053
 20
69.4478
 11
32.5471
 21
69.627
  0
LINE
  8
0
 10
32.5471
 20
69.627
 11
32.5118
 21
69.812
  0
LINE
  8
0
 10
32.5118
 20
69.812
 11
32.5
 21
70
  0
LINE
  8
0
 10
32.5
 20
70
 11
32.5118
 21
70.188
  0
LINE
  8
0
 10
32.5118
 20
70.188
 11
32.5471
 21
70.373
  0
LINE
  8
0
 10
32.5471
 20
70.373
 11
32.6053
 21
70.5522
  0
LINE
  8
0
 10
32.6053
 20
70.5522
 11
32.6855
 21
70.7226
  0
LINE
  8
0
 10
32.6855
 20
70.7226
 11
32.7865
 21
70.8817
  0
LINE
  8
0
 10
32.7865
 20
70.8817
 11
32.9065
 21
71.0268
  0
LINE
  8
0
 10
32.9065
 20
71.0268
 11
33.0439
 21
71.1558
  0
LINE
  8
0
 10
33.0439
 20
71.1558
 11
33.1963
 21
71.2665
  0
LINE
  8
0
 10
33.1963
 20
71.2665
 11
33.3613
 21
71.3572
  0
LINE
  8
0
 10
33.3613
 20
71.3572
 11
33.5365
 21
71.4266
  0
LINE
  8
0
 10
33.5365
 20
71.4266
 11
33.7189
 21
71.4734
  0
LINE
  8
0
 10
33.7189
 20
71.4734
 11
33.9058
 21
71.497
  0
LINE
  8
0
 10
33.9058
 20
71.497
 11
34.0942
 21
71.497
  0
LINE
  8
0
 10
34.0942
 20
71.497
 11
34.2811
 21
71.4734
  0
LINE
  8
0
 10
34.2811
 20
71.4734
 11
34.4635
 21
71.4266
  0
LINE
  8
0
 10
34.4635
 20
71.4266
 11
34.6387
 21
71.3572
  0
LINE
  8
0
 10
34.6387
 20
71.3572
 11
34.8037
 21
71.2665
  0
LINE
  8
0
 10
34.8037
 20
71.2665
 11
34.9561
 21
71.1558
  0
LINE
  8
0
 10
34.9561
 20
71.1558
 11
35.0934
 21
71.0268
  0
LINE
  8
0
 10
35.0934
 20
71.0268
 11
35.2135
 21
70.8817
  0
LINE
  8
0
 10
35.2135
 20
70.8817
 11
35.3145
 21
70.7226
  0
LINE
  8
0
 10
35.3145
 20
70.7226
 11
35.3947
 21
70.5522
  0
LINE
  8
0
 10
35.3947
 20
70.5522
 11
35.4529
 21
70.373
  0
LINE
  8
0
 10
35.4529
 20
70.373
 11
35.4882
 21
70.188
  0
LINE
  8
0
 10
35.4882
 20
70.188
 11
35.5
 21
70
  0
LINE
  8
0
 10
35.5
 20
70
 11
35.4882
 21
69.812
  0
LINE
  8
0
 10
35.4882
 20
69.812
 11
35.4529
 21
69.627
  0
LINE
  8
0
 10
35.4529
 20
69.627
 11
35.3947
 21
69.4478
  0
LINE
  8
0
 10
35.3947
 20
69.4478
 11
35.3145
 21
69.2774
  0
LINE
  8
0
 10
35.3145
 20
69.2774
 11
35.2135
 21
69.1183
  0
LINE
  8
0
 10
35.2135
 20
69.1183
 11
35.0934
 21
68.9732
  0
LINE
  8
0
 10
35.0934
 20
68.9732
 11
34.9561
 21
68.8442
  0
LINE
  8
0
 10
34.9561
 20
68.8442
 11
34.8037
 21
68.7335
  0
LINE
  8
0
 10
34.8037
 20
68.7335
 11
34.6387
 21
68.6427
  0
LINE
  8
0
 10
34.6387
 20
68.6427
 11
34.4635
 21
68.5734
  0
LINE
  8
0
 10
34.4635
 20
68.5734
 11
34.2811
 21
68.5266
  0
LINE
  8
0
 10
34.2811
 20
68.5266
 11
34.0942
 21
68.5029
  0
LINE
  8
0
 10
34.0942
 20
68.5029
 11
33.9058
 21
68.5029
  0
LINE
  8
0
 10
24.5291
 20
53.5148
 11
23.5947
 21
53.6329
  0
LINE
  8
0
 10
23.5947
 20
53.6329
 11
22.6824
 21
53.8671
  0
LINE
  8
0
 10
22.6824
 20
53.8671
 11
21.8067
 21
54.2138
  0
LINE
  8
0
 10
21.8067
 20
54.2138
 11
20.9813
 21
54.6675
  0
LINE
  8
0
 10
20.9813
 20
54.6675
 11
20.2193
 21
55.2212
  0
LINE
  8
0
 10
20.2193
 20
55.2212
 11
19.5327
 21
55.8659
  0
LINE
  8
0
 10
19.5327
 20
55.8659
 11
18.9324
 21
56.5916
  0
LINE
  8
0
 10
18.9324
 20
56.5916
 11
18.4277
 21
57.3869
  0
LINE
  8
0
 10
18.4277
 20
57.3869
 11
18.0267
 21
58.2391
  0
LINE
  8
0
 10
18.0267
 20
58.2391
 11
17.7356
 21
59.1348
  0
LINE
  8
0
 10
17.7356
 20
59.1348
 11
17.5591
 21
60.06
  0
LINE
  8
0
 10
17.5591
 20
60.06
 11
17.5
 21
61
  0
LINE
  8
0
 10
17.5
 20
61
 11
17.5591
 21
61.94
  0
LINE
  8
0
 10
17.5591
 20
61.94
 11
17.7356
 21
62.8652
  0
LINE
  8
0
 10
17.7356
 20
62.8652
 11
18.0267
 21
63.7609
  0
LINE
  8
0
 10
18.0267
 20
63.7609
 11
18.4277
 21
64.6131
  0
LINE
  8
0
 10
18.4277
 20
64.6131
 11
18.9324
 21
65.4084
  0
LINE
  8
0
 10
18.9324
 20
65.4084
 11
19.5327
 21
66.1341
  0
LINE
  8
0
 10
19.5327
 20
66.1341
 11
20.2193
 21
66.7788
  0
LINE
  8
0
 10
20.2193
 20
66.7788
 11
20.9813
 21
67.3325
  0
LINE
  8
0
 10
20.9813
 20
67.3325
 11
21.8067
 21
67.7862
  0
LINE
  8
0
 10
21.8067
 20
67.7862
 11
22.6824
 21
68.1329
  0
LINE
  8
0
 10
22.6824
 20
68.1329
 11
23.5947
 21
68.3671
  0
LINE
  8
0
 10
23.5947
 20
68.3671
 11
24.5291
 21
68.4852
  0
LINE
  8
0
 10
24.5291
 20
68.4852
 11
25.4709
 21
68.4852
  0
LINE
  8
0
 10
25.4709
 20
68.4852
 11
26.4053
 21
68.3671
  0
LINE
  8
0
 10
26.4053
 20
68.3671
 11
27.3176
 21
68.1329
  0
LINE
  8
0
 10
27.3176
 20
68.1329
 11
28.1933
 21
67.7862
  0
LINE
  8
0
 10
28.1933
 20
67.7862
 11
29.0187
 21
67.3325
  0
LINE
  8
0
 10
29.0187
 20
67.3325
 11
29.7807
 21
66.7788
  0
LINE
  8
0
 10
29.7807
 20
66.7788
 11
30.4673
 21
66.1341
  0
LINE
  8
0
 10
30.4673
 20
66.1341
 11
31.0676
 21
65.4084
  0
LINE
  8
0
 10
31.0676
 20
65.4084
 11
31.5723
 21
64.6131
  0
LINE
  8
0
 10
31.5723
 20
64.6131
 11
31.9733
 21
63.7609
  0
LINE
  8
0
 10
31.9733
 20
63.7609
 11
32.2644
 21
62.8652
  0
LINE
  8
0
 10
32.2644
 20
62.8652
 11
32.4409
 21
61.94
  0
LINE
  8
0
 10
32.4409
 20
61.94
 11
32.5
 21
61
  0
LINE
  8
0
 10
32.5
 20
61
 11
32.4409
 21
60.06
  0
LINE
  8
0
 10
32.4409
 20
60.06
 11
32.2644
 21
59.1348
  0
LINE
  8
0
 10
32.2644
 20
59.1348
 11
31.9733
 21
58.2391
  0
LINE
  8
0
 10
31.9733
 20
58.2391
 11
31.5723
 21
57.3869
  0
LINE
  8
0
 10
31.5723
 20
57.3869
 11
31.0676
 21
56.5916
  0
LINE
  8
0
 10
31.0676
 20
56.5916
 11
30.4673
 21
55.8659
  0
LINE
  8
0
 10
30.4673
 20
55.8659
 11
29.7807
 21
55.2212
  0
LINE
  8
0
 10
29.7807
 20
55.2212
 11
29.0187
 21
54.6675
  0
LINE
  8
0
 10
29.0187
 20
54.6675
 11
28.1933
 21
54.2138
  0
LINE
  8
0
 10
28.1933
 20
54.2138
 11
27.3176
 21
53.8671
  0
LINE
  8
0
 10
27.3176
 20
53.8671
 11
26.4053
 21
53.6329
  0
LINE
  8
0
 10
26.4053
 20
53.6329
 11
25.4709
 21
53.5148
  0
LINE
  8
0
 10
25.4709
 20
53.5148
 11
24.5291
 21
53.5148
  0
LINE
  8
0
 10
15.9058
 20
50.503
 11
15.7189
 21
50.5266
  0
LINE
  8
0
 10
15.7189
 20
50.5266
 11
15.5365
 21
50.5734
  0
LINE
  8
0
 10
15.5365
 20
50.5734
 11
15.3613
 21
50.6428
  0
LINE
  8
0
 10
15.3613
 20
50.6428
 11
15.1963
 21
50.7335
  0
LINE
  8
0
 10
15.1963
 20
50.7335
 11
15.0439
 21
50.8442
  0
LINE
  8
0
 10
15.0439
 20
50.8442
 11
14.9066
 21
50.9732
  0
LINE
  8
0
 10
14.9066
 20
50.9732
 11
14.7865
 21
51.1183
  0
LINE
  8
0
 10
14.7865
 20
51.1183
 11
14.6855
 21
51.2774
  0
LINE
  8
0
 10
14.6855
 20
51.2774
 11
14.6053
 21
51.4478
  0
LINE
  8
0
 10
14.6053
 20
51.4478
 11
14.5471
 21
51.627
  0
LINE
  8
0
 10
14.5471
 20
51.627
 11
14.5118
 21
51.812
  0
LINE
  8
0
 10
14.5118
 20
51.812
 11
14.5
 21
52
  0
LINE
  8
0
 10
14.5
 20
52
 11
14.5118
 21
52.188
  0
LINE
  8
0
 10
14.5118
 20
52.188
 11
14.5471
 21
52.373
  0
LINE
  8
0
 10
14.5471
 20
52.373
 11
14.6053
 21
52.5522
  0
LINE
  8
0
 10
14.6053
 20
52.5522
 11
14.6855
 21
52.7226
  0
LINE
  8
0
 10
14.6855
 20
52.7226
 11
14.7865
 21
52.8817
  0
LINE
  8
0
 10
14.7865
 20
52.8817
 11
14.9066
 21
53.0268
  0
LINE
  8
0
 10
14.9066
 20
53.0268
 11
15.0439
 21
53.1558
  0
LINE
  8
0
 10
15.0439
 20
53.1558
 11
15.1963
 21
53.2665
  0
LINE
  8
0
 10
15.1963
 20
53.2665
 11
15.3613
 21
53.3573
  0
LINE
  8
0
 10
15.3613
 20
53.3573
 11
15.5365
 21
53.4266
  0
LINE
  8
0
 10
15.5365
 20
53.4266
 11
15.7189
 21
53.4734
  0
LINE
  8
0
 10
15.7189
 20
53.4734
 11
15.9058
 21
53.4971
  0
LINE
  8
0
 10
15.9058
 20
53.4971
 11
16.0942
 21
53.4971
  0
LINE
  8
0
 10
16.0942
 20
53.4971
 11
16.2811
 21
53.4734
  0
LINE
  8
0
 10
16.2811
 20
53.4734
 11
16.4635
 21
53.4266
  0
LINE
  8
0
 10
16.4635
 20
53.4266
 11
16.6387
 21
53.3573
  0
LINE
  8
0
 10
16.6387
 20
53.3573
 11
16.8037
 21
53.2665
  0
LINE
  8
0
 10
16.8037
 20
53.2665
 11
16.9561
 21
53.1558
  0
LINE
  8
0
 10
16.9561
 20
53.1558
 11
17.0935
 21
53.0268
  0
LINE
  8
0
 10
17.0935
 20
53.0268
 11
17.2135
 21
52.8817
  0
LINE
  8
0
 10
17.2135
 20
52.8817
 11
17.3145
 21
52.7226
  0
LINE
  8
0
 10
17.3145
 20
52.7226
 11
17.3947
 21
52.5522
  0
LINE
  8
0
 10
17.3947
 20
52.5522
 11
17.4529
 21
52.373
  0
LINE
  8
0
 10
17.4529
 20
52.373
 11
17.4882
 21
52.188
  0
LINE
  8
0
 10
17.4882
 20
52.188
 11
17.5
 21
52
  0
LINE
  8
0
 10
17.5
 20
52
 11
17.4882
 21
51.812
  0
LINE
  8
0
 10
17.4882
 20
51.812
 11
17.4529
 21
51.627
  0
LINE
  8
0
 10
17.4529
 20
51.627
 11
17.3947
 21
51.4478
  0
LINE
  8
0
 10
17.3947
 20
51.4478
 11
17.3145
 21
51.2774
  0
LINE
  8
0
 10
17.3145
 20
51.2774
 11
17.2135
 21
51.1183
  0
LINE
  8
0
 10
17.2135
 20
51.1183
 11
17.0935
 21
50.9732
  0
LINE
  8
0
 10
17.0935
 20
50.9732
 11
16.9561
 21
50.8442
  0
LINE
  8
0
 10
16.9561
 20
50.8442
 11
16.8037
 21
50.7335
  0
LINE
  8
0
 10
16.8037
 20
50.7335
 11
16.6387
 21
50.6428
  0
LINE
  8
0
 10
16.6387
 20
50.6428
 11
16.4635
 21
50.5734
  0
LINE
  8
0
 10
16.4635
 20
50.5734
 11
16.2811
 21
50.5266
  0
LINE
  8
0
 10
16.2811
 20
50.5266
 11
16.0942
 21
50.503
  0
LINE
  8
0
 10
16.0942
 20
50.503
 11
15.9058
 21
50.503
  0
LINE
  8
0
 10
33.9058
 20
50.503
 11
33.7189
 21
50.5266
  0
LINE
  8
0
 10
33.7189
 20
50.5266
 11
33.5365
 21
50.5734
  0
LINE
  8
0
 10
33.5365
 20
50.5734
 11
33.3613
 21
50.6428
  0
LINE
  8
0
 10
33.3613
 20
50.6428
 11
33.1963
 21
50.7335
  0
LINE
  8
0
 10
33.1963
 20
50.7335
 11
33.0439
 21
50.8442
  0
LINE
  8
0
 10
33.0439
 20
50.8442
 11
32.9065
 21
50.9732
  0
LINE
  8
0
 10
32.9065
 20
50.9732
 11
32.7865
 21
51.1183
  0
LINE
  8
0
 10
32.7865
 20
51.1183
 11
32.6855
 21
51.2774
  0
LINE
  8
0
 10
32.6855
 20
51.2774
 11
32.6053
 21
51.4478
  0
LINE
  8
0
 10
32.6053
 20
51.4478
 11
32.5471
 21
51.627
  0
LINE
  8
0
 10
32.5471
 20
51.627
 11
32.5118
 21
51.812
  0
LINE
  8
0
 10
32.5118
 20
51.812
 11
32.5
 21
52
  0
LINE
  8
0
 10
32.5
 20
52
 11
32.5118
 21
52.188
  0
LINE
  8
0
 10
32.5118
 20
52.188
 11
32.5471
 21
52.373
  0
LINE
  8
0
 10
32.5471
 20
52.373
 11
32.6053
 21
52.5522
  0
LINE
  8
0
 10
32.6053
 20
52.5522
 11
32.6855
 21
52.7226
  0
LINE
  8
0
 10
32.6855
 20
52.7226
 11
32.7865
 21
52.8817
  0
LINE
  8
0
 10
32.7865
 20
52.8817
 11
32.9065
 21
53.0268
  0
LINE
  8
0
 10
32.9065
 20
53.0268
 11
33.0439
 21
53.1558
  0
LINE
  8
0
 10
33.0439
 20
53.1558
 11
33.1963
 21
53.2665
  0
LINE
  8
0
 10
33.1963
 20
53.2665
 11
33.3613
 21
53.3573
  0
LINE
  8
0
 10
33.3613
 20
53.3573
 11
33.5365
 21
53.4266
  0
LINE
  8
0
 10
33.5365
 20
53.4266
 11
33.7189
 21
53.4734
  0
LINE
  8
0
 10
33.7189
 20
53.4734
 11
33.9058
 21
53.4971
  0
LINE
  8
0
 10
33.9058
 20
53.4971
 11
34.0942
 21
53.4971
  0
LINE
  8
0
 10
34.0942
 20
53.4971
 11
34.2811
 21
53.4734
  0
LINE
  8
0
 10
34.2811
 20
53.4734
 11
34.4635
 21
53.4266
  0
LINE
  8
0
 10
34.4635
 20
53.4266
 11
34.6387
 21
53.3573
  0
LINE
  8
0
 10
34.6387
 20
53.3573
 11
34.8037
 21
53.2665
  0
LINE
  8
0
 10
34.8037
 20
53.2665
 11
34.9561
 21
53.1558
  0
LINE
  8
0
 10
34.9561
 20
53.1558
 11
35.0934
 21
53.0268
  0
LINE
  8
0
 10
35.0934
 20
53.0268
 11
35.2135
 21
52.8817
  0
LINE
  8
0
 10
35.2135
 20
52.8817
 11
35.3145
 21
52.7226
  0
LINE
  8
0
 10
35.3145
 20
52.7226
 11
35.3947
 21
52.5522
  0
LINE
  8
0
 10
35.3947
 20
52.5522
 11
35.4529
 21
52.373
  0
LINE
  8
0
 10
35.4529
 20
52.373
 11
35.4882
 21
52.188
  0
LINE
  8
0
 10
35.4882
 20
52.188
 11
35.5
 21
52
  0
LINE
  8
0
 10
35.5
 20
52
 11
35.4882
 21
51.812
  0
LINE
  8
0
 10
35.4882
 20
51.812
 11
35.4529
 21
51.627
  0
LINE
  8
0
 10
35.4529
 20
51.627
 11
35.3947
 21
51.4478
  0
LINE
  8
0
 10
35.3947
 20
51.4478
 11
35.3145
 21
51.2774
  0
LINE
  8
0
 10
35.3145
 20
51.2774
 11
35.2135
 21
51.1183
  0
LINE
  8
0
 10
35.2135
 20
51.1183
 11
35.0934
 21
50.9732
  0
LINE
  8
0
 10
35.0934
 20
50.9732
 11
34.9561
 21
50.8442
  0
LINE
  8
0
 10
34.9561
 20
50.8442
 11
34.8037
 21
50.7335
  0
LINE
  8
0
 10
34.8037
 20
50.7335
 11
34.6387
 21
50.6428
  0
LINE
  8
0
 10
34.6387
 20
50.6428
 11
34.4635
 21
50.5734
  0
LINE
  8
0
 10
34.4635
 20
50.5734
 11
34.2811
 21
50.5266
  0
LINE
  8
0
 10
34.2811
 20
50.5266
 11
34.0942
 21
50.503
  0
LINE
  8
0
 10
34.0942
 20
50.503
 11
33.9058
 21
50.503
  0
LINE
  8
0
 10
14.843
 20
27.5049
 11
14.5316
 21
27.5443
  0
LINE
  8
0
 10
14.5316
 20
27.5443
 11
14.2275
 21
27.6223
  0
LINE
  8
0
 10
14.2275
 20
27.6223
 11
13.9356
 21
27.7379
  0
LINE
  8
0
 10
13.9356
 20
27.7379
 11
13.6604
 21
27.8892
  0
LINE
  8
0
 10
13.6604
 20
27.8892
 11
13.4064
 21
28.0737
  0
LINE
  8
0
 10
13.4064
 20
28.0737
 11
13.1776
 21
28.2886
  0
LINE
  8
0
 10
13.1776
 20
28.2886
 11
12.9775
 21
28.5305
  0
LINE
  8
0
 10
12.9775
 20
28.5305
 11
12.8092
 21
28.7956
  0
LINE
  8
0
 10
12.8092
 20
28.7956
 11
12.6756
 21
29.0797
  0
LINE
  8
0
 10
12.6756
 20
29.0797
 11
12.5786
 21
29.3783
  0
LINE
  8
0
 10
12.5786
 20
29.3783
 11
12.5197
 21
29.6867
  0
LINE
  8
0
 10
12.5197
 20
29.6867
 11
12.5
 21
30
  0
LINE
  8
0
 10
12.5
 20
30
 11
12.5197
 21
30.3133
  0
LINE
  8
0
 10
12.5197
 20
30.3133
 11
12.5786
 21
30.6217
  0
LINE
  8
0
 10
12.5786
 20
30.6217
 11
12.6756
 21
30.9203
  0
LINE
  8
0
 10
12.6756
 20
30.9203
 11
12.8092
 21
31.2044
  0
LINE
  8
0
 10
12.8092
 20
31.2044
 11
12.9775
 21
31.4695
  0
LINE
  8
0
 10
12.9775
 20
31.4695
 11
13.1776
 21
31.7114
  0
LINE
  8
0
 10
13.1776
 20
31.7114
 11
13.4064
 21
31.9263
  0
LINE
  8
0
 10
13.4064
 20
31.9263
 11
13.6604
 21
32.1108
  0
LINE
  8
0
 10
13.6604
 20
32.1108
 11
13.9356
 21
32.2621
  0
LINE
  8
0
 10
13.9356
 20
32.2621
 11
14.2275
 21
32.3776
  0
LINE
  8
0
 10
14.2275
 20
32.3776
 11
14.5316
 21
32.4557
  0
LINE
  8
0
 10
14.5316
 20
32.4557
 11
14.843
 21
32.4951
  0
LINE
  8
0
 10
14.843
 20
32.4951
 11
15.157
 21
32.4951
  0
LINE
  8
0
 10
15.157
 20
32.4951
 11
15.4685
 21
32.4557
  0
LINE
  8
0
 10
15.4685
 20
32.4557
 11
15.7726
 21
32.3776
  0
LINE
  8
0
 10
15.7726
 20
32.3776
 11
16.0645
 21
32.2621
  0
LINE
  8
0
 10
16.0645
 20
32.2621
 11
16.3396
 21
32.1108
  0
LINE
  8
0
 10
16.3396
 20
32.1108
 11
16.5936
 21
31.9263
  0
LINE
  8
0
 10
16.5936
 20
31.9263
 11
16.8224
 21
31.7114
  0
LINE
  8
0
 10
16.8224
 20
31.7114
 11
17.0226
 21
31.4695
  0
LINE
  8
0
 10
17.0226
 20
31.4695
 11
17.1908
 21
31.2044
  0
LINE
  8
0
 10
17.1908
 20
31.2044
 11
17.3244
 21
30.9203
  0
LINE
  8
0
 10
17.3244
 20
30.9203
 11
17.4215
 21
30.6217
  0
LINE
  8
0
 10
17.4215
 20
30.6217
 11
17.4803
 21
30.3133
  0
LINE
  8
0
 10
17.4803
 20
30.3133
 11
17.5
 21
30
  0
LINE
  8
0
 10
17.5
 20
30
 11
17.4803
 21
29.6867
  0
LINE
  8
0
 10
17.4803
 20
29.6867
 11
17.4215
 21
29.3783
  0
LINE
  8
0
 10
17.4215
 20
29.3783
 11
17.3244
 21
29.0797
  0
LINE
  8
0
 10
17.3244
 20
29.0797
 11
17.1908
 21
28.7956
  0
LINE
  8
0
 10
17.1908
 20
28.7956
 11
17.0226
 21
28.5305
  0
LINE
  8
0
 10
17.0226
 20
28.5305
 11
16.8224
 21
28.2886
  0
LINE
  8
0
 10
16.8224
 20
28.2886
 11
16.5936
 21
28.0737
  0
LINE
  8
0
 10
16.5936
 20
28.0737
 11
16.3396
 21
27.8892
  0
LINE
  8
0
 10
16.3396
 20
27.8892
 11
16.0645
 21
27.7379
  0
LINE
  8
0
 10
16.0645
 20
27.7379
 11
15.7726
 21
27.6223
  0
LINE
  8
0
 10
15.7726
 20
27.6223
 11
15.4685
 21
27.5443
  0
LINE
  8
0
 10
15.4685
 20
27.5443
 11
15.157
 21
27.5049
  0
LINE
  8
0
 10
15.157
 20
27.5049
 11
14.843
 21
27.5049
  0
LINE
  8
0
 10
34.843
 20
27.5049
 11
34.5315
 21
27.5443
  0
LINE
  8
0
 10
34.5315
 20
27.5443
 11
34.2274
 21
27.6223
  0
LINE
  8
0
 10
34.2274
 20
27.6223
 11
33.9355
 21
27.7379
  0
LINE
  8
0
 10
33.9355
 20
27.7379
 11
33.6604
 21
27.8892
  0
LINE
  8
0
 10
33.6604
 20
27.8892
 11
33.4064
 21
28.0737
  0
LINE
  8
0
 10
33.4064
 20
28.0737
 11
33.1776
 21
28.2886
  0
LINE
  8
0
 10
33.1776
 20
28.2886
 11
32.9774
 21
28.5305
  0
LINE
  8
0
 10
32.9774
 20
28.5305
 11
32.8092
 21
28.7956
  0
LINE
  8
0
 10
32.8092
 20
28.7956
 11
32.6756
 21
29.0797
  0
LINE
  8
0
 10
32.6756
 20
29.0797
 11
32.5785
 21
29.3783
  0
LINE
  8
0
 10
32.5785
 20
29.3783
 11
32.5197
 21
29.6867
  0
LINE
  8
0
 10
32.5197
 20
29.6867
 11
32.5
 21
30
  0
LINE
  8
0
 10
32.5
 20
30
 11
32.5197
 21
30.3133
  0
LINE
  8
0
 10
32.5197
 20
30.3133
 11
32.5785
 21
30.6217
  0
LINE
  8
0
 10
32.5785
 20
30.6217
 11
32.6756
 21
30.9203
  0
LINE
  8
0
 10
32.6756
 20
30.9203
 11
32.8092
 21
31.2044
  0
LINE
  8
0
 10
32.8092
 20
31.2044
 11
32.9774
 21
31.4695
  0
LINE
  8
0
 10
32.9774
 20
31.4695
 11
33.1776
 21
31.7114
  0
LINE
  8
0
 10
33.1776
 20
31.7114
 11
33.4064
 21
31.9263
  0
LINE
  8
0
 10
33.4064
 20
31.9263
 11
33.6604
 21
32.1108
  0
LINE
  8
0
 10
33.6604
 20
32.1108
 11
33.9355
 21
32.2621
  0
LINE
  8
0
 10
33.9355
 20
32.2621
 11
34.2274
 21
32.3776
  0
LINE
  8
0
 10
34.2274
 20
32.3776
 11
34.5315
 21
32.4557
  0
LINE
  8
0
 10
34.5315
 20
32.4557
 11
34.843
 21
32.4951
  0
LINE
  8
0
 10
34.843
 20
32.4951
 11
35.157
 21
32.4951
  0
LINE
  8
0
 10
35.157
 20
32.4951
 11
35.4684
 21
32.4557
  0
LINE
  8
0
 10
35.4684
 20
32.4557
 11
35.7725
 21
32.3776
  0
LINE
  8
0
 10
35.7725
 20
32.3776
 11
36.0644
 21
32.2621
  0
LINE
  8
0
 10
36.0644
 20
32.2621
 11
36.3396
 21
32.1108
  0
LINE
  8
0
 10
36.3396
 20
32.1108
 11
36.5936
 21
31.9263
  0
LINE
  8
0
 10
36.5936
 20
31.9263
 11
36.8224
 21
31.7114
  0
LINE
  8
0
 10
36.8224
 20
31.7114
 11
37.0225
 21
31.4695
  0
LINE
  8
0
 10
37.0225
 20
31.4695
 11
37.1908
 21
31.2044
  0
LINE
  8
0
 10
37.1908
 20
31.2044
 11
37.3244
 21
30.9203
  0
LINE
  8
0
 10
37.3244
 20
30.9203
 11
37.4214
 21
30.6217
  0
LINE
  8
0
 10
37.4214
 20
30.6217
 11
37.4803
 21
30.3133
  0
LINE
  8
0
 10
37.4803
 20
30.3133
 11
37.5
 21
30
  0
LINE
  8
0
 10
37.5
 20
30
 11
37.4803
 21
29.6867
  0
LINE
  8
0
 10
37.4803
 20
29.6867
 11
37.4214
 21
29.3783
  0
LINE
  8
0
 10
37.4214
 20
29.3783
 11
37.3244
 21
29.0797
  0
LINE
  8
0
 10
37.3244
 20
29.0797
 11
37.1908
 21
28.7956
  0
LINE
  8
0
 10
37.1908
 20
28.7956
 11
37.0225
 21
28.5305
  0
LINE
  8
0
 10
37.0225
 20
28.5305
 11
36.8224
 21
28.2886
  0
LINE
  8
0
 10
36.8224
 20
28.2886
 11
36.5936
 21
28.0737
  0
LINE
  8
0
 10
36.5936
 20
28.0737
 11
36.3396
 21
27.8892
  0
LINE
  8
0
 10
36.3396
 20
27.8892
 11
36.0644
 21
27.7379
  0
LINE
  8
0
 10
36.0644
 20
27.7379
 11
35.7725
 21
27.6223
  0
LINE
  8
0
 10
35.7725
 20
27.6223
 11
35.4684
 21
27.5443
  0
LINE
  8
0
 10
35.4684
 20
27.5443
 11
35.157
 21
27.5049
  0
LINE
  8
0
 10
35.157
 20
27.5049
 11
34.843
 21
27.5049
  0
LINE
  8
0
 10
59.843
 20
27.5049
 11
59.5316
 21
27.5443
  0
LINE
  8
0
 10
59.5316
 20
27.5443
 11
59.2275
 21
27.6223
  0
LINE
  8
0
 10
59.2275
 20
27.6223
 11
58.9356
 21
27.7379
  0
LINE
  8
0
 10
58.9356
 20
27.7379
 11
58.6604
 21
27.8892
  0
LINE
  8
0
 10
58.6604
 20
27.8892
 11
58.4064
 21
28.0737
  0
LINE
  8
0
 10
58.4064
 20
28.0737
 11
58.1776
 21
28.2886
  0
LINE
  8
0
 10
58.1776
 20
28.2886
 11
57.9775
 21
28.5305
  0
LINE
  8
0
 10
57.9775
 20
28.5305
 11
57.8092
 21
28.7956
  0
LINE
  8
0
 10
57.8092
 20
28.7956
 11
57.6756
 21
29.0797
  0
LINE
  8
0
 10
57.6756
 20
29.0797
 11
57.5786
 21
29.3783
  0
LINE
  8
0
 10
57.5786
 20
29.3783
 11
57.5197
 21
29.6867
  0
LINE
  8
0
 10
57.5197
 20
29.6867
 11
57.5
 21
30
  0
LINE
  8
0
 10
57.5
 20
30
 11
57.5197
 21
30.3133
  0
LINE
  8
0
 10
57.5197
 20
30.3133
 11
57.5786
 21
30.6217
  0
LINE
  8
0
 10
57.5786
 20
30.6217
 11
57.6756
 21
30.9203
  0
LINE
  8
0
 10
57.6756
 20
30.9203
 11
57.8092
 21
31.2044
  0
LINE
  8
0
 10
57.8092
 20
31.2044
 11
57.9775
 21
31.4695
  0
LINE
  8
0
 10
57.9775
 20
31.4695
 11
58.1776
 21
31.7114
  0
LINE
  8
0
 10
58.1776
 20
31.7114
 11
58.4064
 21
31.9263
  0
LINE
  8
0
 10
58.4064
 20
31.9263
 11
58.6604
 21
32.1108
  0
LINE
  8
0
 10
58.6604
 20
32.1108
 11
58.9356
 21
32.2621
  0
LINE
  8
0
 10
58.9356
 20
32.2621
 11
59.2275
 21
32.3776
  0
LINE
  8
0
 10
59.2275
 20
32.3776
 11
59.5316
 21
32.4557
  0
LINE
  8
0
 10
59.5316
 20
32.4557
 11
59.843
 21
32.4951
  0
LINE
  8
0
 10
59.843
 20
32.4951
 11
60.157
 21
32.4951
  0
LINE
  8
0
 10
60.157
 20
32.4951
 11
60.4685
 21
32.4557
  0
LINE
  8
0
 10
60.4685
 20
32.4557
 11
60.7726
 21
32.3776
  0
LINE
  8
0
 10
60.7726
 20
32.3776
 11
61.0645
 21
32.2621
  0
LINE
  8
0
 10
61.0645
 20
32.2621
 11
61.3396
 21
32.1108
  0
LINE
  8
0
 10
61.3396
 20
32.1108
 11
61.5936
 21
31.9263
  0
LINE
  8
0
 10
61.5936
 20
31.9263
 11
61.8224
 21
31.7114
  0
LINE
  8
0
 10
61.8224
 20
31.7114
 11
62.0226
 21
31.4695
  0
LINE
  8
0
 10
62.0226
 20
31.4695
 11
62.1908
 21
31.2044
  0
LINE
  8
0
 10
62.1908
 20
31.2044
 11
62.3244
 21
30.9203
  0
LINE
  8
0
 10
62.3244
 20
30.9203
 11
62.4215
 21
30.6217
  0
LINE
  8
0
 10
62.4215
 20
30.6217
 11
62.4803
 21
30.3133
  0
LINE
  8
0
 10
62.4803
 20
30.3133
 11
62.5
 21
30
  0
LINE
  8
0
 10
62.5
 20
30
 11
62.4803
 21
29.6867
  0
LINE
  8
0
 10
62.4803
 20
29.6867
 11
62.4215
 21
29.3783
  0
LINE
  8
0
 10
62.4215
 20
29.3783
 11
62.3244
 21
29.0797
  0
LINE
  8
0
 10
62.3244
 20
29.0797
 11
62.1908
 21
28.7956
  0
LINE
  8
0
 10
62.1908
 20
28.7956
 11
62.0226
 21
28.5305
  0
LINE
  8
0
 10
62.0226
 20
28.5305
 11
61.8224
 21
28.2886
  0
LINE
  8
0
 10
61.8224
 20
28.2886
 11
61.5936
 21
28.0737
  0
LINE
  8
0
 10
61.5936
 20
28.0737
 11
61.3396
 21
27.8892
  0
LINE
  8
0
 10
61.3396
 20
27.8892
 11
61.0645
 21
27.7379
  0
LINE
  8
0
 10
61.0645
 20
27.7379
 11
60.7726
 21
27.6223
  0
LINE
  8
0
 10
60.7726
 20
27.6223
 11
60.4685
 21
27.5443
  0
LINE
  8
0
 10
60.4685
 20
27.5443
 11
60.157
 21
27.5049
  0
LINE
  8
0
 10
60.157
 20
27.5049
 11
59.843
 21
27.5049
  0
LINE
  8
0
 10
79.843
 20
27.5049
 11
79.5315
 21
27.5443
  0
LINE
  8
0
 10
79.5315
 20
27.5443
 11
79.2274
 21
27.6223
  0
LINE
  8
0
 10
79.2274
 20
27.6223
 11
78.9355
 21
27.7379
  0
LINE
  8
0
 10
78.9355
 20
27.7379
 11
78.6604
 21
27.8892
  0
LINE
  8
0
 10
78.6604
 20
27.8892
 11
78.4064
 21
28.0737
  0
LINE
  8
0
 10
78.4064
 20
28.0737
 11
78.1776
 21
28.2886
  0
LINE
  8
0
 10
78.1776
 20
28.2886
 11
77.9774
 21
28.5305
  0
LINE
  8
0
 10
77.9774
 20
28.5305
 11
77.8092
 21
28.7956
  0
LINE
  8
0
 10
77.8092
 20
28.7956
 11
77.6756
 21
29.0797
  0
LINE
  8
0
 10
77.6756
 20
29.0797
 11
77.5785
 21
29.3783
  0
LINE
  8
0
 10
77.5785
 20
29.3783
 11
77.5197
 21
29.6867
  0
LINE
  8
0
 10
77.5197
 20
29.6867
 11
77.5
 21
30
  0
LINE
  8
0
 10
77.5
 20
30
 11
77.5197
 21
30.3133
  0
LINE
  8
0
 10
77.5197
 20
30.3133
 11
77.5785
 21
30.6217
  0
LINE
  8
0
 10
77.5785
 20
30.6217
 11
77.6756
 21
30.9203
  0
LINE
  8
0
 10
77.6756
 20
30.9203
 11
77.8092
 21
31.2044
  0
LINE
  8
0
 10
77.8092
 20
31.2044
 11
77.9774
 21
31.4695
  0
LINE
  8
0
 10
77.9774
 20
31.4695
 11
78.1776
 21
31.7114
  0
LINE
  8
0
 10
78.1776
 20
31.7114
 11
78.4064
 21
31.9263
  0
LINE
  8
0
 10
78.4064
 20
31.9263
 11
78.6604
 21
32.1108
  0
LINE
  8
0
 10
78.6604
 20
32.1108
 11
78.9355
 21
32.2621
  0
LINE
  8
0
 10
78.9355
 20
32.2621
 11
79.2274
 21
32.3776
  0
LINE
  8
0
 10
79.2274
 20
32.3776
 11
79.5315
 21
32.4557
  0
LINE
  8
0
 10
79.5315
 20
32.4557
 11
79.843
 21
32.4951
  0
LINE
  8
0
 10
79.843
 20
32.4951
 11
80.157
 21
32.4951
  0
LINE
  8
0
 10
80.157
 20
32.4951
 11
80.4684
 21
32.4557
  0
LINE
  8
0
 10
80.4684
 20
32.4557
 11
80.7725
 21
32.3776
  0
LINE
  8
0
 10
80.7725
 20
32.3776
 11
81.0644
 21
32.2621
  0
LINE
  8
0
 10
81.0644
 20
32.2621
 11
81.3396
 21
32.1108
  0
LINE
  8
0
 10
81.3396
 20
32.1108
 11
81.5936
 21
31.9263
  0
LINE
  8
0
 10
81.5936
 20
31.9263
 11
81.8224
 21
31.7114
  0
LINE
  8
0
 10
81.8224
 20
31.7114
 11
82.0225
 21
31.4695
  0
LINE
  8
0
 10
82.0225
 20
31.4695
 11
82.1908
 21
31.2044
  0
LINE
  8
0
 10
82.1908
 20
31.2044
 11
82.3244
 21
30.9203
  0
LINE
  8
0
 10
82.3244
 20
30.9203
 11
82.4214
 21
30.6217
  0
LINE
  8
0
 10
82.4214
 20
30.6217
 11
82.4803
 21
30.3133
  0
LINE
  8
0
 10
82.4803
 20
30.3133
 11
82.5
 21
30
  0
LINE
  8
0
 10
82.5
 20
30
 11
82.4803
 21
29.6867
  0
LINE
  8
0
 10
82.4803
 20
29.6867
 11
82.4214
 21
29.3783
  0
LINE
  8
0
 10
82.4214
 20
29.3783
 11
82.3244
 21
29.0797
  0
LINE
  8
0
 10
82.3244
 20
29.0797
 11
82.1908
 21
28.7956
  0
LINE
  8
0
 10
82.1908
 20
28.7956
 11
82.0225
 21
28.5305
  0
LINE
  8
0
 10
82.0225
 20
28.5305
 11
81.8224
 21
28.2886
  0
LINE
  8
0
 10
81.8224
 20
28.2886
 11
81.5936
 21
28.0737
  0
LINE
  8
0
 10
81.5936
 20
28.0737
 11
81.3396
 21
27.8892
  0
LINE
  8
0
 10
81.3396
 20
27.8892
 11
81.0644
 21
27.7379
  0
LINE
  8
0
 10
81.0644
 20
27.7379
 11
80.7725
 21
27.6223
  0
LINE
  8
0
 10
80.7725
 20
27.6223
 11
80.4684
 21
27.5443
  0
LINE
  8
0
 10
80.4684
 20
27.5443
 11
80.157
 21
27.5049
  0
LINE
  8
0
 10
80.157
 20
27.5049
 11
79.843
 21
27.5049
  0
LINE
  8
0
 10
14.843
 20
7.50494
 11
14.5316
 21
7.5443
  0
LINE
  8
0
 10
14.5316
 20
7.5443
 11
14.2275
 21
7.62236
  0
LINE
  8
0
 10
14.2275
 20
7.62236
 11
13.9356
 21
7.73795
  0
LINE
  8
0
 10
13.9356
 20
7.73795
 11
13.6604
 21
7.88919
  0
LINE
  8
0
 10
13.6604
 20
7.88919
 11
13.4064
 21
8.07373
  0
LINE
  8
0
 10
13.4064
 20
8.07373
 11
13.1776
 21
8.28864
  0
LINE
  8
0
 10
13.1776
 20
8.28864
 11
12.9775
 21
8.53055
  0
LINE
  8
0
 10
12.9775
 20
8.53055
 11
12.8092
 21
8.79562
  0
LINE
  8
0
 10
12.8092
 20
8.79562
 11
12.6756
 21
9.0797
  0
LINE
  8
0
 10
12.6756
 20
9.0797
 11
12.5786
 21
9.37828
  0
LINE
  8
0
 10
12.5786
 20
9.37828
 11
12.5197
 21
9.68668
  0
LINE
  8
0
 10
12.5197
 20
9.68668
 11
12.5
 21
10
  0
LINE
  8
0
 10
12.5
 20
10
 11
12.5197
 21
10.3133
  0
LINE
  8
0
 10
12.5197
 20
10.3133
 11
12.5786
 21
10.6217
  0
LINE
  8
0
 10
12.5786
 20
10.6217
 11
12.6756
 21
10.9203
  0
LINE
  8
0
 10
12.6756
 20
10.9203
 11
12.8092
 21
11.2044
  0
LINE
  8
0
 10
12.8092
 20
11.2044
 11
12.9775
 21
11.4695
  0
LINE
  8
0
 10
12.9775
 20
11.4695
 11
13.1776
 21
11.7114
  0
LINE
  8
0
 10
13.1776
 20
11.7114
 11
13.4064
 21
11.9263
  0
LINE
  8
0
 10
13.4064
 20
11.9263
 11
13.6604
 21
12.1108
  0
LINE
  8
0
 10
13.6604
 20
12.1108
 11
13.9356
 21
12.2621
  0
LINE
  8
0
 10
13.9356
 20
12.2621
 11
14.2275
 21
12.3777
  0
LINE
  8
0
 10
14.2275
 20
12.3777
 11
14.5316
 21
12.4557
  0
LINE
  8
0
 10
14.5316
 20
12.4557
 11
14.843
 21
12.4951
  0
LINE
  8
0
 10
14.843
 20
12.4951
 11
15.157
 21
12.4951
  0
LINE
  8
0
 10
15.157
 20
12.4951
 11
15.4685
 21
12.4557
  0
LINE
  8
0
 10
15.4685
 20
12.4557
 11
15.7726
 21
12.3777
  0
LINE
  8
0
 10
15.7726
 20
12.3777
 11
16.0645
 21
12.2621
  0
LINE
  8
0
 10
16.0645
 20
12.2621
 11
16.3396
 21
12.1108
  0
LINE
  8
0
 10
16.3396
 20
12.1108
 11
16.5936
 21
11.9263
  0
LINE
  8
0
 10
16.5936
 20
11.9263
 11
16.8224
 21
11.7114
  0
LINE
  8
0
 10
16.8224
 20
11.7114
 11
17.0226
 21
11.4695
  0
LINE
  8
0
 10
17.0226
 20
11.4695
 11
17.1908
 21
11.2044
  0
LINE
  8
0
 10
17.1908
 20
11.2044
 11
17.3244
 21
10.9203
  0
LINE
  8
0
 10
17.3244
 20
10.9203
 11
17.4215
 21
10.6217
  0
LINE
  8
0
 10
17.4215
 20
10.6217
 11
17.4803
 21
10.3133
  0
LINE
  8
0
 10
17.4803
 20
10.3133
 11
17.5
 21
10
  0
LINE
  8
0
 10
17.5
 20
10
 11
17.4803
 21
9.68668
  0
LINE
  8
0
 10
17.4803
 20
9.68668
 11
17.4215
 21
9.37828
  0
LINE
  8
0
 10
17.4215
 20
9.37828
 11
17.3244
 21
9.0797
  0
LINE
  8
0
 10
17.3244
 20
9.0797
 11
17.1908
 21
8.79562
  0
LINE
  8
0
 10
17.1908
 20
8.79562
 11
17.0226
 21
8.53055
  0
LINE
  8
0
 10
17.0226
 20
8.53055
 11
16.8224
 21
8.28864
  0
LINE
  8
0
 10
16.8224
 20
8.28864
 11
16.5936
 21
8.07373
  0
LINE
  8
0
 10
16.5936
 20
8.07373
 11
16.3396
 21
7.88919
  0
LINE
  8
0
 10
16.3396
 20
7.88919
 11
16.0645
 21
7.73795
  0
LINE
  8
0
 10
16.0645
 20
7.73795
 11
15.7726
 21
7.62236
  0
LINE
  8
0
 10
15.7726
 20
7.62236
 11
15.4685
 21
7.5443
  0
LINE
  8
0
 10
15.4685
 20
7.5443
 11
15.157
 21
7.50494
  0
LINE
  8
0
 10
15.157
 20
7.50494
 11
14.843
 21
7.50494
  0
LINE
  8
0
 10
34.843
 20
7.50494
 11
34.5315
 21
7.5443
  0
LINE
  8
0
 10
34.5315
 20
7.5443
 11
34.2274
 21
7.62236
  0
LINE
  8
0
 10
34.2274
 20
7.62236
 11
33.9355
 21
7.73795
  0
LINE
  8
0
 10
33.9355
 20
7.73795
 11
33.6604
 21
7.88919
  0
LINE
  8
0
 10
33.6604
 20
7.88919
 11
33.4064
 21
8.07373
  0
LINE
  8
0
 10
33.4064
 20
8.07373
 11
33.1776
 21
8.28864
  0
LINE
  8
0
 10
33.1776
 20
8.28864
 11
32.9774
 21
8.53055
  0
LINE
  8
0
 10
32.9774
 20
8.53055
 11
32.8092
 21
8.79562
  0
LINE
  8
0
 10
32.8092
 20
8.79562
 11
32.6756
 21
9.0797
  0
LINE
  8
0
 10
32.6756
 20
9.0797
 11
32.5785
 21
9.37828
  0
LINE
  8
0
 10
32.5785
 20
9.37828
 11
32.5197
 21
9.68668
  0
LINE
  8
0
 10
32.5197
 20
9.68668
 11
32.5
 21
10
  0
LINE
  8
0
 10
32.5
 20
10
 11
32.5197
 21
10.3133
  0
LINE
  8
0
 10
32.5197
 20
10.3133
 11
32.5785
 21
10.6217
  0
LINE
  8
0
 10
32.5785
 20
10.6217
 11
32.6756
 21
10.9203
  0
LINE
  8
0
 10
32.6756
 20
10.9203
 11
32.8092
 21
11.2044
  0
LINE
  8
0
 10
32.8092
 20
11.2044
 11
32.9774
 21
11.4695
  0
LINE
  8
0
 10
32.9774
 20
11.4695
 11
33.1776
 21
11.7114
  0
LINE
  8
0
 10
33.1776
 20
11.7114
 11
33.4064
 21
11.9263
  0
LINE
  8
0
 10
33.4064
 20
11.9263
 11
33.6604
 21
12.1108
  0
LINE
  8
0
 10
33.6604
 20
12.1108
 11
33.9355
 21
12.2621
  0
LINE
  8
0
 10
33.9355
 20
12.2621
 11
34.2274
 21
12.3777
  0
LINE
  8
0
 10
34.2274
 20
12.3777
 11
34.5315
 21
12.4557
  0
LINE
  8
0
 10
34.5315
 20
12.4557
 11
34.843
 21
12.4951
  0
LINE
  8
0
 10
34.843
 20
12.4951
 11
35.157
 21
12.4951
  0
LINE
  8
0
 10
35.157
 20
12.4951
 11
35.4684
 21
12.4557
  0
LINE
  8
0
 10
35.4684
 20
12.4557
 11
35.7725
 21
12.3777
  0
LINE
  8
0
 10
35.7725
 20
12.3777
 11
36.0644
 21
12.2621
  0
LINE
  8
0
 10
36.0644
 20
12.2621
 11
36.3396
 21
12.1108
  0
LINE
  8
0
 10
36.3396
 20
12.1108
 11
36.5936
 21
11.9263
  0
LINE
  8
0
 10
36.5936
 20
11.9263
 11
36.8224
 21
11.7114
  0
LINE
  8
0
 10
36.8224
 20
11.7114
 11
37.0225
 21
11.4695
  0
LINE
  8
0
 10
37.0225
 20
11.4695
 11
37.1908
 21
11.2044
  0
LINE
  8
0
 10
37.1908
 20
11.2044
 11
37.3244
 21
10.9203
  0
LINE
  8
0
 10
37.3244
 20
10.9203
 11
37.4214
 21
10.6217
  0
LINE
  8
0
 10
37.4214
 20
10.6217
 11
37.4803
 21
10.3133
  0
LINE
  8
0
 10
37.4803
 20
10.3133
 11
37.5
 21
10
  0
LINE
  8
0
 10
37.5
 20
10
 11
37.4803
 21
9.68668
  0
LINE
  8
0
 10
37.4803
 20
9.68668
 11
37.4214
 21
9.37828
  0
LINE
  8
0
 10
37.4214
 20
9.37828
 11
37.3244
 21
9.0797
  0
LINE
  8
0
 10
37.3244
 20
9.0797
 11
37.1908
 21
8.79562
  0
LINE
  8
0
 10
37.1908
 20
8.79562
 11
37.0225
 21
8.53055
  0
LINE
  8
0
 10
37.0225
 20
8.53055
 11
36.8224
 21
8.28864
  0
LINE
  8
0
 10
36.8224
 20
8.28864
 11
36.5936
 21
8.07373
  0
LINE
  8
0
 10
36.5936
 20
8.07373
 11
36.3396
 21
7.88919
  0
LINE
  8
0
 10
36.3396
 20
7.88919
 11
36.0644
 21
7.73795
  0
LINE
  8
0
 10
36.0644
 20
7.73795
 11
35.7725
 21
7.62236
  0
LINE
  8
0
 10
35.7725
 20
7.62236
 11
35.4684
 21
7.5443
  0
LINE
  8
0
 10
35.4684
 20
7.5443
 11
35.157
 21
7.50494
  0
LINE
  8
0
 10
35.157
 20
7.50494
 11
34.843
 21
7.50494
  0
LINE
  8
0
 10
59.843
 20
7.50494
 11
59.5316
 21
7.5443
  0
LINE
  8
0
 10
59.5316
 20
7.5443
 11
59.2275
 21
7.62236
  0
LINE
  8
0
 10
59.2275
 20
7.62236
 11
58.9356
 21
7.73795
  0
LINE
  8
0
 10
58.9356
 20
7.73795
 11
58.6604
 21
7.88919
  0
LINE
  8
0
 10
58.6604
 20
7.88919
 11
58.4064
 21
8.07373
  0
LINE
  8
0
 10
58.4064
 20
8.07373
 11
58.1776
 21
8.28864
  0
LINE
  8
0
 10
58.1776
 20
8.28864
 11
57.9775
 21
8.53055
  0
LINE
  8
0
 10
57.9775
 20
8.53055
 11
57.8092
 21
8.79562
  0
LINE
  8
0
 10
57.8092
 20
8.79562
 11
57.6756
 21
9.0797
  0
LINE
  8
0
 10
57.6756
 20
9.0797
 11
57.5786
 21
9.37828
  0
LINE
  8
0
 10
57.5786
 20
9.37828
 11
57.5197
 21
9.68668
  0
LINE
  8
0
 10
57.5197
 20
9.68668
 11
57.5
 21
10
  0
LINE
  8
0
 10
57.5
 20
10
 11
57.5197
 21
10.3133
  0
LINE
  8
0
 10
57.5197
 20
10.3133
 11
57.5786
 21
10.6217
  0
LINE
  8
0
 10
57.5786
 20
10.6217
 11
57.6756
 21
10.9203
  0
LINE
  8
0
 10
57.6756
 20
10.9203
 11
57.8092
 21
11.2044
  0
LINE
  8
0
 10
57.8092
 20
11.2044
 11
57.9775
 21
11.4695
  0
LINE
  8
0
 10
57.9775
 20
11.4695
 11
58.1776
 21
11.7114
  0
LINE
  8
0
 10
58.1776
 20
11.7114
 11
58.4064
 21
11.9263
  0
LINE
  8
0
 10
58.4064
 20
11.9263
 11
58.6604
 21
12.1108
  0
LINE
  8
0
 10
58.6604
 20
12.1108
 11
58.9356
 21
12.2621
  0
LINE
  8
0
 10
58.9356
 20
12.2621
 11
59.2275
 21
12.3777
  0
LINE
  8
0
 10
59.2275
 20
12.3777
 11
59.5316
 21
12.4557
  0
LINE
  8
0
 10
59.5316
 20
12.4557
 11
59.843
 21
12.4951
  0
LINE
  8
0
 10
59.843
 20
12.4951
 11
60.157
 21
12.4951
  0
LINE
  8
0
 10
60.157
 20
12.4951
 11
60.4685
 21
12.4557
  0
LINE
  8
0
 10
60.4685
 20
12.4557
 11
60.7726
 21
12.3777
  0
LINE
  8
0
 10
60.7726
 20
12.3777
 11
61.0645
 21
12.2621
  0
LINE
  8
0
 10
61.0645
 20
12.2621
 11
61.3396
 21
12.1108
  0
LINE
  8
0
 10
61.3396
 20
12.1108
 11
61.5936
 21
11.9263
  0
LINE
  8
0
 10
61.5936
 20
11.9263
 11
61.8224
 21
11.7114
  0
LINE
  8
0
 10
61.8224
 20
11.7114
 11
62.0226
 21
11.4695
  0
LINE
  8
0
 10
62.0226
 20
11.4695
 11
62.1908
 21
11.2044
  0
LINE
  8
0
 10
62.1908
 20
11.2044
 11
62.3244
 21
10.9203
  0
LINE
  8
0
 10
62.3244
 20
10.9203
 11
62.4215
 21
10.6217
  0
LINE
  8
0
 10
62.4215
 20
10.6217
 11
62.4803
 21
10.3133
  0
LINE
  8
0
 10
62.4803
 20
10.3133
 11
62.5
 21
10
  0
LINE
  8
0
 10
62.5
 20
10
 11
62.4803
 21
9.68668
  0
LINE
  8
0
 10
62.4803
 20
9.68668
 11
62.4215
 21
9.37828
  0
LINE
  8
0
 10
62.4215
 20
9.37828
 11
62.3244
 21
9.0797
  0
LINE
  8
0
 10
62.3244
 20
9.0797
 11
62.1908
 21
8.79562
  0
LINE
  8
0
 10
62.1908
 20
8.79562
 11
62.0226
 21
8.53055
  0
LINE
  8
0
 10
62.0226
 20
8.53055
 11
61.8224
 21
8.28864
  0
LINE
  8
0
 10
61.8224
 20
8.28864
 11
61.5936
 21
8.07373
  0
LINE
  8
0
 10
61.5936
 20
8.07373
 11
61.3396
 21
7.88919
  0
LINE
  8
0
 10
61.3396
 20
7.88919
 11
61.0645
 21
7.73795
  0
LINE
  8
0
 10
61.0645
 20
7.73795
 11
60.7726
 21
7.62236
  0
LINE
  8
0
 10
60.7726
 20
7.62236
 11
60.4685
 21
7.5443
  0
LINE
  8
0
 10
60.4685
 20
7.5443
 11
60.157
 21
7.50494
  0
LINE
  8
0
 10
60.157
 20
7.50494
 11
59.843
 21
7.50494
  0
LINE
  8
0
 10
79.843
 20
7.50494
 11
79.5315
 21
7.5443
  0
LINE
  8
0
 10
79.5315
 20
7.5443
 11
79.2274
 21
7.62236
  0
LINE
  8
0
 10
79.2274
 20
7.62236
 11
78.9355
 21
7.73795
  0
LINE
  8
0
 10
78.9355
 20
7.73795
 11
78.6604
 21
7.88919
  0
LINE
  8
0
 10
78.6604
 20
7.88919
 11
78.4064
 21
8.07373
  0
LINE
  8
0
 10
78.4064
 20
8.07373
 11
78.1776
 21
8.28864
  0
LINE
  8
0
 10
78.1776
 20
8.28864
 11
77.9774
 21
8.53055
  0
LINE
  8
0
 10
77.9774
 20
8.53055
 11
77.8092
 21
8.79562
  0
LINE
  8
0
 10
77.8092
 20
8.79562
 11
77.6756
 21
9.0797
  0
LINE
  8
0
 10
77.6756
 20
9.0797
 11
77.5785
 21
9.37828
  0
LINE
  8
0
 10
77.5785
 20
9.37828
 11
77.5197
 21
9.68668
  0
LINE
  8
0
 10
77.5197
 20
9.68668
 11
77.5
 21
10
  0
LINE
  8
0
 10
77.5
 20
10
 11
77.5197
 21
10.3133
  0
LINE
  8
0
 10
77.5197
 20
10.3133
 11
77.5785
 21
10.6217
  0
LINE
  8
0
 10
77.5785
 20
10.6217
 11
77.6756
 21
10.9203
  0
LINE
  8
0
 10
77.6756
 20
10.9203
 11
77.8092
 21
11.2044
  0
LINE
  8
0
 10
77.8092
 20
11.2044
 11
77.9774
 21
11.4695
  0
LINE
  8
0
 10
77.9774
 20
11.4695
 11
78.1776
 21
11.7114
  0
LINE
  8
0
 10
78.1776
 20
11.7114
 11
78.4064
 21
11.9263
  0
LINE
  8
0
 10
78.4064
 20
11.9263
 11
78.6604
 21
12.1108
  0
LINE
  8
0
 10
78.6604
 20
12.1108
 11
78.9355
 21
12.2621
  0
LINE
  8
0
 10
78.9355
 20
12.2621
 11
79.2274
 21
12.3777
  0
LINE
  8
0
 10
79.2274
 20
12.3777
 11
79.5315
 21
12.4557
  0
LINE
  8
0
 10
79.5315
 20
12.4557
 11
79.843
 21
12.4951
  0
LINE
  8
0
 10
79.843
 20
12.4951
 11
80.157
 21
12.4951
  0
LINE
  8
0
 10
80.157
 20
12.4951
 11
80.4684
 21
12.4557
  0
LINE
  8
0
 10
80.4684
 20
12.4557
 11
80.7725
 21
12.3777
  0
LINE
  8
0
 10
80.7725
 20
12.3777
 11
81.0644
 21
12.2621
  0
LINE
  8
0
 10
81.0644
 20
12.2621
 11
81.3396
 21
12.1108
  0
LINE
  8
0
 10
81.3396
 20
12.1108
 11
81.5936
 21
11.9263
  0
LINE
  8
0
 10
81.5936
 20
11.9263
 11
81.8224
 21
11.7114
  0
LINE
  8
0
 10
81.8224
 20
11.7114
 11
82.0225
 21
11.4695
  0
LINE
  8
0
 10
82.0225
 20
11.4695
 11
82.1908
 21
11.2044
  0
LINE
  8
0
 10
82.1908
 20
11.2044
 11
82.3244
 21
10.9203
  0
LINE
  8
0
 10
82.3244
 20
10.9203
 11
82.4214
 21
10.6217
  0
LINE
  8
0
 10
82.4214
 20
10.6217
 11
82.4803
 21
10.3133
  0
LINE
  8
0
 10
82.4803
 20
10.3133
 11
82.5
 21
10
  0
LINE
  8
0
 10
82.5
 20
10
 11
82.4803
 21
9.68668
  0
LINE
  8
0
 10
82.4803
 20
9.68668
 11
82.4214
 21
9.37828
  0
LINE
  8
0
 10
82.4214
 20
9.37828
 11
82.3244
 21
9.0797
  0
LINE
  8
0
 10
82.3244
 20
9.0797
 11
82.1908
 21
8.79562
  0
LINE
  8
0
 10
82.1908
 20
8.79562
 11
82.0225
 21
8.53055
  0
LINE
  8
0
 10
82.0225
 20
8.53055
 11
81.8224
 21
8.28864
  0
LINE
  8
0
 10
81.8224
 20
8.28864
 11
81.5936
 21
8.07373
  0
LINE
  8
0
 10
81.5936
 20
8.07373
 11
81.3396
 21
7.88919
  0
LINE
  8
0
 10
81.3396
 20
7.88919
 11
81.0644
 21
7.73795
  0
LINE
  8
0
 10
81.0644
 20
7.73795
 11
80.7725
 21
7.62236
  0
LINE
  8
0
 10
80.7725
 20
7.62236
 11
80.4684
 21
7.5443
  0
LINE
  8
0
 10
80.4684
 20
7.5443
 11
80.157
 21
7.50494
  0
LINE
  8
0
 10
80.157
 20
7.50494
 11
79.843
 21
7.50494
  0
ENDSEC
  0
SECTION
  2
OBJECTS
  0
DICTIONARY
  0
ENDSEC
  0
EOF
