  0
SECTION
  2
BLOCKS
  0
ENDSEC
  0
SECTION
  2
ENTITIES
  0
LINE
  8
0
 10
90
 20
40
 11
50
 21
90
  0
LINE
  8
0
 10
50
 20
90
 11
0
 21
90
  0
LINE
  8
0
 10
0
 20
90
 11
0
 21
0
  0
LINE
  8
0
 10
0
 20
0
 11
90
 21
0
  0
LINE
  8
0
 10
90
 20
0
 11
90
 21
40
  0
LINE
  8
0
 10
9.31201
 20
74.0118
 11
9.12697
 21
74.0471
  0
LINE
  8
0
 10
9.12697
 20
74.0471
 11
8.94781
 21
74.1053
  0
LINE
  8
0
 10
8.94781
 20
74.1053
 11
8.77737
 21
74.1855
  0
LINE
  8
0
 10
8.77737
 20
74.1855
 11
8.61833
 21
74.2865
  0
LINE
  8
0
 10
8.61833
 20
74.2865
 11
8.47319
 21
74.4066
  0
LINE
  8
0
 10
8.47319
 20
74.4066
 11
8.34424
 21
74.5439
  0
LINE
  8
0
 10
8.34424
 20
74.5439
 11
8.23352
 21
74.6963
  0
LINE
  8
0
 10
8.23352
 20
74.6963
 11
8.14276
 21
74.8613
  0
LINE
  8
0
 10
8.14276
 20
74.8613
 11
8.07343
 21
75.0365
  0
LINE
  8
0
 10
8.07343
 20
75.0365
 11
8.02658
 21
75.2189
  0
LINE
  8
0
 10
8.02658
 20
75.2189
 11
8.00296
 21
75.4058
  0
LINE
  8
0
 10
8.00296
 20
75.4058
 11
8.00296
 21
77.5942
  0
LINE
  8
0
 10
8.00296
 20
77.5942
 11
8.02658
 21
77.7811
  0
LINE
  8
0
 10
8.02658
 20
77.7811
 11
8.07343
 21
77.9635
  0
LINE
  8
0
 10
8.07343
 20
77.9635
 11
8.14276
 21
78.1387
  0
LINE
  8
0
 10
8.14276
 20
78.1387
 11
8.23352
 21
78.3037
  0
LINE
  8
0
 10
8.23352
 20
78.3037
 11
8.34424
 21
78.4561
  0
LINE
  8
0
 10
8.34424
 20
78.4561
 11
8.47319
 21
78.5934
  0
LINE
  8
0
 10
8.47319
 20
78.5934
 11
8.61833
 21
78.7135
  0
LINE
  8
0
 10
8.61833
 20
78.7135
 11
8.77737
 21
78.8145
  0
LINE
  8
0
 10
8.77737
 20
78.8145
 11
8.94781
 21
78.8947
  0
LINE
  8
0
 10
8.94781
 20
78.8947
 11
9.12697
 21
78.9529
  0
LINE
  8
0
 10
9.12697
 20
78.9529
 11
9.31201
 21
78.9882
  0
LINE
  8
0
 10
9.31201
 20
78.9882
 11
9.5
 21
79
  0
LINE
  8
0
 10
9.5
 20
79
 11
9.68799
 21
78.9882
  0
LINE
  8
0
 10
9.68799
 20
78.9882
 11
9.87303
 21
78.9529
  0
LINE
  8
0
 10
9.87303
 20
78.9529
 11
10.0522
 21
78.8947
  0
LINE
  8
0
 10
10.0522
 20
78.8947
 11
10.2226
 21
78.8145
  0
LINE
  8
0
 10
10.2226
 20
78.8145
 11
10.3817
 21
78.7135
  0
LINE
  8
0
 10
10.3817
 20
78.7135
 11
10.5268
 21
78.5934
  0
LINE
  8
0
 10
10.5268
 20
78.5934
 11
10.6558
 21
78.4561
  0
LINE
  8
0
 10
10.6558
 20
78.4561
 11
10.7665
 21
78.3037
  0
LINE
  8
0
 10
10.7665
 20
78.3037
 11
10.8572
 21
78.1387
  0
LINE
  8
0
 10
10.8572
 20
78.1387
 11
10.9266
 21
77.9635
  0
LINE
  8
0
 10
10.9266
 20
77.9635
 11
10.9734
 21
77.7811
  0
LINE
  8
0
 10
10.9734
 20
77.7811
 11
10.997
 21
77.5942
  0
LINE
  8
0
 10
10.997
 20
77.5942
 11
10.997
 21
75.4058
  0
LINE
  8
0
 10
10.997
 20
75.4058
 11
10.9734
 21
75.2189
  0
LINE
  8
0
 10
10.9734
 20
75.2189
 11
10.9266
 21
75.0365
  0
LINE
  8
0
 10
10.9266
 20
75.0365
 11
10.8572
 21
74.8613
  0
LINE
  8
0
 10
10.8572
 20
74.8613
 11
10.7665
 21
74.6963
  0
LINE
  8
0
 10
10.7665
 20
74.6963
 11
10.6558
 21
74.5439
  0
LINE
  8
0
 10
10.6558
 20
74.5439
 11
10.5268
 21
74.4066
  0
LINE
  8
0
 10
10.5268
 20
74.4066
 11
10.3817
 21
74.2865
  0
LINE
  8
0
 10
10.3817
 20
74.2865
 11
10.2226
 21
74.1855
  0
LINE
  8
0
 10
10.2226
 20
74.1855
 11
10.0522
 21
74.1053
  0
LINE
  8
0
 10
10.0522
 20
74.1053
 11
9.87303
 21
74.0471
  0
LINE
  8
0
 10
9.87303
 20
74.0471
 11
9.68799
 21
74.0118
  0
LINE
  8
0
 10
9.68799
 20
74.0118
 11
9.5
 21
74
  0
LINE
  8
0
 10
9.5
 20
74
 11
9.31201
 21
74.0118
  0
LINE
  8
0
 10
40.312
 20
74.0118
 11
40.127
 21
74.0471
  0
LINE
  8
0
 10
40.127
 20
74.0471
 11
39.9478
 21
74.1053
  0
LINE
  8
0
 10
39.9478
 20
74.1053
 11
39.7774
 21
74.1855
  0
LINE
  8
0
 10
39.7774
 20
74.1855
 11
39.6183
 21
74.2865
  0
LINE
  8
0
 10
39.6183
 20
74.2865
 11
39.4732
 21
74.4066
  0
LINE
  8
0
 10
39.4732
 20
74.4066
 11
39.3442
 21
74.5439
  0
LINE
  8
0
 10
39.3442
 20
74.5439
 11
39.2335
 21
74.6963
  0
LINE
  8
0
 10
39.2335
 20
74.6963
 11
39.1428
 21
74.8613
  0
LINE
  8
0
 10
39.1428
 20
74.8613
 11
39.0734
 21
75.0365
  0
LINE
  8
0
 10
39.0734
 20
75.0365
 11
39.0266
 21
75.2189
  0
LINE
  8
0
 10
39.0266
 20
75.2189
 11
39.003
 21
75.4058
  0
LINE
  8
0
 10
39.003
 20
75.4058
 11
39.003
 21
77.5942
  0
LINE
  8
0
 10
39.003
 20
77.5942
 11
39.0266
 21
77.7811
  0
LINE
  8
0
 10
39.0266
 20
77.7811
 11
39.0734
 21
77.9635
  0
LINE
  8
0
 10
39.0734
 20
77.9635
 11
39.1428
 21
78.1387
  0
LINE
  8
0
 10
39.1428
 20
78.1387
 11
39.2335
 21
78.3037
  0
LINE
  8
0
 10
39.2335
 20
78.3037
 11
39.3442
 21
78.4561
  0
LINE
  8
0
 10
39.3442
 20
78.4561
 11
39.4732
 21
78.5934
  0
LINE
  8
0
 10
39.4732
 20
78.5934
 11
39.6183
 21
78.7135
  0
LINE
  8
0
 10
39.6183
 20
78.7135
 11
39.7774
 21
78.8145
  0
LINE
  8
0
 10
39.7774
 20
78.8145
 11
39.9478
 21
78.8947
  0
LINE
  8
0
 10
39.9478
 20
78.8947
 11
40.127
 21
78.9529
  0
LINE
  8
0
 10
40.127
 20
78.9529
 11
40.312
 21
78.9882
  0
LINE
  8
0
 10
40.312
 20
78.9882
 11
40.5
 21
79
  0
LINE
  8
0
 10
40.5
 20
79
 11
40.688
 21
78.9882
  0
LINE
  8
0
 10
40.688
 20
78.9882
 11
40.873
 21
78.9529
  0
LINE
  8
0
 10
40.873
 20
78.9529
 11
41.0522
 21
78.8947
  0
LINE
  8
0
 10
41.0522
 20
78.8947
 11
41.2226
 21
78.8145
  0
LINE
  8
0
 10
41.2226
 20
78.8145
 11
41.3817
 21
78.7135
  0
LINE
  8
0
 10
41.3817
 20
78.7135
 11
41.5268
 21
78.5934
  0
LINE
  8
0
 10
41.5268
 20
78.5934
 11
41.6558
 21
78.4561
  0
LINE
  8
0
 10
41.6558
 20
78.4561
 11
41.7665
 21
78.3037
  0
LINE
  8
0
 10
41.7665
 20
78.3037
 11
41.8572
 21
78.1387
  0
LINE
  8
0
 10
41.8572
 20
78.1387
 11
41.9266
 21
77.9635
  0
LINE
  8
0
 10
41.9266
 20
77.9635
 11
41.9734
 21
77.7811
  0
LINE
  8
0
 10
41.9734
 20
77.7811
 11
41.997
 21
77.5942
  0
LINE
  8
0
 10
41.997
 20
77.5942
 11
41.997
 21
75.4058
  0
LINE
  8
0
 10
41.997
 20
75.4058
 11
41.9734
 21
75.2189
  0
LINE
  8
0
 10
41.9734
 20
75.2189
 11
41.9266
 21
75.0365
  0
LINE
  8
0
 10
41.9266
 20
75.0365
 11
41.8572
 21
74.8613
  0
LINE
  8
0
 10
41.8572
 20
74.8613
 11
41.7665
 21
74.6963
  0
LINE
  8
0
 10
41.7665
 20
74.6963
 11
41.6558
 21
74.5439
  0
LINE
  8
0
 10
41.6558
 20
74.5439
 11
41.5268
 21
74.4066
  0
LINE
  8
0
 10
41.5268
 20
74.4066
 11
41.3817
 21
74.2865
  0
LINE
  8
0
 10
41.3817
 20
74.2865
 11
41.2226
 21
74.1855
  0
LINE
  8
0
 10
41.2226
 20
74.1855
 11
41.0522
 21
74.1053
  0
LINE
  8
0
 10
41.0522
 20
74.1053
 11
40.873
 21
74.0471
  0
LINE
  8
0
 10
40.873
 20
74.0471
 11
40.688
 21
74.0118
  0
LINE
  8
0
 10
40.688
 20
74.0118
 11
40.5
 21
74
  0
LINE
  8
0
 10
40.5
 20
74
 11
40.312
 21
74.0118
  0
LINE
  8
0
 10
23.6213
 20
49.0867
 11
22.2644
 21
49.3456
  0
LINE
  8
0
 10
22.2644
 20
49.3456
 11
20.9506
 21
49.7725
  0
LINE
  8
0
 10
20.9506
 20
49.7725
 11
19.7007
 21
50.3606
  0
LINE
  8
0
 10
19.7007
 20
50.3606
 11
18.5344
 21
51.1008
  0
LINE
  8
0
 10
18.5344
 20
51.1008
 11
17.47
 21
51.9814
  0
LINE
  8
0
 10
17.47
 20
51.9814
 11
16.5244
 21
52.9883
  0
LINE
  8
0
 10
16.5244
 20
52.9883
 11
15.7124
 21
54.1059
  0
LINE
  8
0
 10
15.7124
 20
54.1059
 11
15.0469
 21
55.3164
  0
LINE
  8
0
 10
15.0469
 20
55.3164
 11
14.5384
 21
56.6008
  0
LINE
  8
0
 10
14.5384
 20
56.6008
 11
14.1949
 21
57.9388
  0
LINE
  8
0
 10
14.1949
 20
57.9388
 11
14.0217
 21
59.3093
  0
LINE
  8
0
 10
14.0217
 20
59.3093
 11
14.0217
 21
62.6907
  0
LINE
  8
0
 10
14.0217
 20
62.6907
 11
14.1949
 21
64.0612
  0
LINE
  8
0
 10
14.1949
 20
64.0612
 11
14.5384
 21
65.3992
  0
LINE
  8
0
 10
14.5384
 20
65.3992
 11
15.0469
 21
66.6836
  0
LINE
  8
0
 10
15.0469
 20
66.6836
 11
15.7124
 21
67.8941
  0
LINE
  8
0
 10
15.7124
 20
67.8941
 11
16.5244
 21
69.0117
  0
LINE
  8
0
 10
16.5244
 20
69.0117
 11
17.47
 21
70.0186
  0
LINE
  8
0
 10
17.47
 20
70.0186
 11
18.5344
 21
70.8992
  0
LINE
  8
0
 10
18.5344
 20
70.8992
 11
19.7007
 21
71.6394
  0
LINE
  8
0
 10
19.7007
 20
71.6394
 11
20.9506
 21
72.2275
  0
LINE
  8
0
 10
20.9506
 20
72.2275
 11
22.2644
 21
72.6544
  0
LINE
  8
0
 10
22.2644
 20
72.6544
 11
23.6213
 21
72.9133
  0
LINE
  8
0
 10
23.6213
 20
72.9133
 11
25
 21
73
  0
LINE
  8
0
 10
25
 20
73
 11
26.3787
 21
72.9133
  0
LINE
  8
0
 10
26.3787
 20
72.9133
 11
27.7356
 21
72.6544
  0
LINE
  8
0
 10
27.7356
 20
72.6544
 11
29.0494
 21
72.2275
  0
LINE
  8
0
 10
29.0494
 20
72.2275
 11
30.2993
 21
71.6394
  0
LINE
  8
0
 10
30.2993
 20
71.6394
 11
31.4656
 21
70.8992
  0
LINE
  8
0
 10
31.4656
 20
70.8992
 11
32.53
 21
70.0186
  0
LINE
  8
0
 10
32.53
 20
70.0186
 11
33.4756
 21
69.0117
  0
LINE
  8
0
 10
33.4756
 20
69.0117
 11
34.2876
 21
67.8941
  0
LINE
  8
0
 10
34.2876
 20
67.8941
 11
34.9531
 21
66.6836
  0
LINE
  8
0
 10
34.9531
 20
66.6836
 11
35.4616
 21
65.3992
  0
LINE
  8
0
 10
35.4616
 20
65.3992
 11
35.8051
 21
64.0612
  0
LINE
  8
0
 10
35.8051
 20
64.0612
 11
35.9783
 21
62.6907
  0
LINE
  8
0
 10
35.9783
 20
62.6907
 11
35.9783
 21
59.3093
  0
LINE
  8
0
 10
35.9783
 20
59.3093
 11
35.8051
 21
57.9388
  0
LINE
  8
0
 10
35.8051
 20
57.9388
 11
35.4616
 21
56.6008
  0
LINE
  8
0
 10
35.4616
 20
56.6008
 11
34.9531
 21
55.3164
  0
LINE
  8
0
 10
34.9531
 20
55.3164
 11
34.2876
 21
54.1059
  0
LINE
  8
0
 10
34.2876
 20
54.1059
 11
33.4756
 21
52.9883
  0
LINE
  8
0
 10
33.4756
 20
52.9883
 11
32.53
 21
51.9814
  0
LINE
  8
0
 10
32.53
 20
51.9814
 11
31.4656
 21
51.1008
  0
LINE
  8
0
 10
31.4656
 20
51.1008
 11
30.2993
 21
50.3606
  0
LINE
  8
0
 10
30.2993
 20
50.3606
 11
29.0494
 21
49.7725
  0
LINE
  8
0
 10
29.0494
 20
49.7725
 11
27.7356
 21
49.3456
  0
LINE
  8
0
 10
27.7356
 20
49.3456
 11
26.3787
 21
49.0867
  0
LINE
  8
0
 10
26.3787
 20
49.0867
 11
25
 21
49
  0
LINE
  8
0
 10
25
 20
49
 11
23.6213
 21
49.0867
  0
LINE
  8
0
 10
9.31201
 20
43.0118
 11
9.12697
 21
43.0471
  0
LINE
  8
0
 10
9.12697
 20
43.0471
 11
8.94781
 21
43.1053
  0
LINE
  8
0
 10
8.94781
 20
43.1053
 11
8.77737
 21
43.1855
  0
LINE
  8
0
 10
8.77737
 20
43.1855
 11
8.61833
 21
43.2865
  0
LINE
  8
0
 10
8.61833
 20
43.2865
 11
8.47319
 21
43.4066
  0
LINE
  8
0
 10
8.47319
 20
43.4066
 11
8.34424
 21
43.5439
  0
LINE
  8
0
 10
8.34424
 20
43.5439
 11
8.23352
 21
43.6963
  0
LINE
  8
0
 10
8.23352
 20
43.6963
 11
8.14276
 21
43.8613
  0
LINE
  8
0
 10
8.14276
 20
43.8613
 11
8.07343
 21
44.0365
  0
LINE
  8
0
 10
8.07343
 20
44.0365
 11
8.02658
 21
44.2189
  0
LINE
  8
0
 10
8.02658
 20
44.2189
 11
8.00296
 21
44.4058
  0
LINE
  8
0
 10
8.00296
 20
44.4058
 11
8.00296
 21
46.5942
  0
LINE
  8
0
 10
8.00296
 20
46.5942
 11
8.02658
 21
46.7811
  0
LINE
  8
0
 10
8.02658
 20
46.7811
 11
8.07343
 21
46.9635
  0
LINE
  8
0
 10
8.07343
 20
46.9635
 11
8.14276
 21
47.1387
  0
LINE
  8
0
 10
8.14276
 20
47.1387
 11
8.23352
 21
47.3037
  0
LINE
  8
0
 10
8.23352
 20
47.3037
 11
8.34424
 21
47.4561
  0
LINE
  8
0
 10
8.34424
 20
47.4561
 11
8.47319
 21
47.5934
  0
LINE
  8
0
 10
8.47319
 20
47.5934
 11
8.61833
 21
47.7135
  0
LINE
  8
0
 10
8.61833
 20
47.7135
 11
8.77737
 21
47.8145
  0
LINE
  8
0
 10
8.77737
 20
47.8145
 11
8.94781
 21
47.8947
  0
LINE
  8
0
 10
8.94781
 20
47.8947
 11
9.12697
 21
47.9529
  0
LINE
  8
0
 10
9.12697
 20
47.9529
 11
9.31201
 21
47.9882
  0
LINE
  8
0
 10
9.31201
 20
47.9882
 11
9.5
 21
48
  0
LINE
  8
0
 10
9.5
 20
48
 11
9.68799
 21
47.9882
  0
LINE
  8
0
 10
9.68799
 20
47.9882
 11
9.87303
 21
47.9529
  0
LINE
  8
0
 10
9.87303
 20
47.9529
 11
10.0522
 21
47.8947
  0
LINE
  8
0
 10
10.0522
 20
47.8947
 11
10.2226
 21
47.8145
  0
LINE
  8
0
 10
10.2226
 20
47.8145
 11
10.3817
 21
47.7135
  0
LINE
  8
0
 10
10.3817
 20
47.7135
 11
10.5268
 21
47.5934
  0
LINE
  8
0
 10
10.5268
 20
47.5934
 11
10.6558
 21
47.4561
  0
LINE
  8
0
 10
10.6558
 20
47.4561
 11
10.7665
 21
47.3037
  0
LINE
  8
0
 10
10.7665
 20
47.3037
 11
10.8572
 21
47.1387
  0
LINE
  8
0
 10
10.8572
 20
47.1387
 11
10.9266
 21
46.9635
  0
LINE
  8
0
 10
10.9266
 20
46.9635
 11
10.9734
 21
46.7811
  0
LINE
  8
0
 10
10.9734
 20
46.7811
 11
10.997
 21
46.5942
  0
LINE
  8
0
 10
10.997
 20
46.5942
 11
10.997
 21
44.4058
  0
LINE
  8
0
 10
10.997
 20
44.4058
 11
10.9734
 21
44.2189
  0
LINE
  8
0
 10
10.9734
 20
44.2189
 11
10.9266
 21
44.0365
  0
LINE
  8
0
 10
10.9266
 20
44.0365
 11
10.8572
 21
43.8613
  0
LINE
  8
0
 10
10.8572
 20
43.8613
 11
10.7665
 21
43.6963
  0
LINE
  8
0
 10
10.7665
 20
43.6963
 11
10.6558
 21
43.5439
  0
LINE
  8
0
 10
10.6558
 20
43.5439
 11
10.5268
 21
43.4066
  0
LINE
  8
0
 10
10.5268
 20
43.4066
 11
10.3817
 21
43.2865
  0
LINE
  8
0
 10
10.3817
 20
43.2865
 11
10.2226
 21
43.1855
  0
LINE
  8
0
 10
10.2226
 20
43.1855
 11
10.0522
 21
43.1053
  0
LINE
  8
0
 10
10.0522
 20
43.1053
 11
9.87303
 21
43.0471
  0
LINE
  8
0
 10
9.87303
 20
43.0471
 11
9.68799
 21
43.0118
  0
LINE
  8
0
 10
9.68799
 20
43.0118
 11
9.5
 21
43
  0
LINE
  8
0
 10
9.5
 20
43
 11
9.31201
 21
43.0118
  0
LINE
  8
0
 10
40.312
 20
43.0118
 11
40.127
 21
43.0471
  0
LINE
  8
0
 10
40.127
 20
43.0471
 11
39.9478
 21
43.1053
  0
LINE
  8
0
 10
39.9478
 20
43.1053
 11
39.7774
 21
43.1855
  0
LINE
  8
0
 10
39.7774
 20
43.1855
 11
39.6183
 21
43.2865
  0
LINE
  8
0
 10
39.6183
 20
43.2865
 11
39.4732
 21
43.4066
  0
LINE
  8
0
 10
39.4732
 20
43.4066
 11
39.3442
 21
43.5439
  0
LINE
  8
0
 10
39.3442
 20
43.5439
 11
39.2335
 21
43.6963
  0
LINE
  8
0
 10
39.2335
 20
43.6963
 11
39.1428
 21
43.8613
  0
LINE
  8
0
 10
39.1428
 20
43.8613
 11
39.0734
 21
44.0365
  0
LINE
  8
0
 10
39.0734
 20
44.0365
 11
39.0266
 21
44.2189
  0
LINE
  8
0
 10
39.0266
 20
44.2189
 11
39.003
 21
44.4058
  0
LINE
  8
0
 10
39.003
 20
44.4058
 11
39.003
 21
46.5942
  0
LINE
  8
0
 10
39.003
 20
46.5942
 11
39.0266
 21
46.7811
  0
LINE
  8
0
 10
39.0266
 20
46.7811
 11
39.0734
 21
46.9635
  0
LINE
  8
0
 10
39.0734
 20
46.9635
 11
39.1428
 21
47.1387
  0
LINE
  8
0
 10
39.1428
 20
47.1387
 11
39.2335
 21
47.3037
  0
LINE
  8
0
 10
39.2335
 20
47.3037
 11
39.3442
 21
47.4561
  0
LINE
  8
0
 10
39.3442
 20
47.4561
 11
39.4732
 21
47.5934
  0
LINE
  8
0
 10
39.4732
 20
47.5934
 11
39.6183
 21
47.7135
  0
LINE
  8
0
 10
39.6183
 20
47.7135
 11
39.7774
 21
47.8145
  0
LINE
  8
0
 10
39.7774
 20
47.8145
 11
39.9478
 21
47.8947
  0
LINE
  8
0
 10
39.9478
 20
47.8947
 11
40.127
 21
47.9529
  0
LINE
  8
0
 10
40.127
 20
47.9529
 11
40.312
 21
47.9882
  0
LINE
  8
0
 10
40.312
 20
47.9882
 11
40.5
 21
48
  0
LINE
  8
0
 10
40.5
 20
48
 11
40.688
 21
47.9882
  0
LINE
  8
0
 10
40.688
 20
47.9882
 11
40.873
 21
47.9529
  0
LINE
  8
0
 10
40.873
 20
47.9529
 11
41.0522
 21
47.8947
  0
LINE
  8
0
 10
41.0522
 20
47.8947
 11
41.2226
 21
47.8145
  0
LINE
  8
0
 10
41.2226
 20
47.8145
 11
41.3817
 21
47.7135
  0
LINE
  8
0
 10
41.3817
 20
47.7135
 11
41.5268
 21
47.5934
  0
LINE
  8
0
 10
41.5268
 20
47.5934
 11
41.6558
 21
47.4561
  0
LINE
  8
0
 10
41.6558
 20
47.4561
 11
41.7665
 21
47.3037
  0
LINE
  8
0
 10
41.7665
 20
47.3037
 11
41.8572
 21
47.1387
  0
LINE
  8
0
 10
41.8572
 20
47.1387
 11
41.9266
 21
46.9635
  0
LINE
  8
0
 10
41.9266
 20
46.9635
 11
41.9734
 21
46.7811
  0
LINE
  8
0
 10
41.9734
 20
46.7811
 11
41.997
 21
46.5942
  0
LINE
  8
0
 10
41.997
 20
46.5942
 11
41.997
 21
44.4058
  0
LINE
  8
0
 10
41.997
 20
44.4058
 11
41.9734
 21
44.2189
  0
LINE
  8
0
 10
41.9734
 20
44.2189
 11
41.9266
 21
44.0365
  0
LINE
  8
0
 10
41.9266
 20
44.0365
 11
41.8572
 21
43.8613
  0
LINE
  8
0
 10
41.8572
 20
43.8613
 11
41.7665
 21
43.6963
  0
LINE
  8
0
 10
41.7665
 20
43.6963
 11
41.6558
 21
43.5439
  0
LINE
  8
0
 10
41.6558
 20
43.5439
 11
41.5268
 21
43.4066
  0
LINE
  8
0
 10
41.5268
 20
43.4066
 11
41.3817
 21
43.2865
  0
LINE
  8
0
 10
41.3817
 20
43.2865
 11
41.2226
 21
43.1855
  0
LINE
  8
0
 10
41.2226
 20
43.1855
 11
41.0522
 21
43.1053
  0
LINE
  8
0
 10
41.0522
 20
43.1053
 11
40.873
 21
43.0471
  0
LINE
  8
0
 10
40.873
 20
43.0471
 11
40.688
 21
43.0118
  0
LINE
  8
0
 10
40.688
 20
43.0118
 11
40.5
 21
43
  0
LINE
  8
0
 10
40.5
 20
43
 11
40.312
 21
43.0118
  0
LINE
  8
0
 10
14.843
 20
27.5049
 11
14.5316
 21
27.5443
  0
LINE
  8
0
 10
14.5316
 20
27.5443
 11
14.2275
 21
27.6223
  0
LINE
  8
0
 10
14.2275
 20
27.6223
 11
13.9356
 21
27.7379
  0
LINE
  8
0
 10
13.9356
 20
27.7379
 11
13.6604
 21
27.8892
  0
LINE
  8
0
 10
13.6604
 20
27.8892
 11
13.4064
 21
28.0737
  0
LINE
  8
0
 10
13.4064
 20
28.0737
 11
13.1776
 21
28.2886
  0
LINE
  8
0
 10
13.1776
 20
28.2886
 11
12.9775
 21
28.5305
  0
LINE
  8
0
 10
12.9775
 20
28.5305
 11
12.8092
 21
28.7956
  0
LINE
  8
0
 10
12.8092
 20
28.7956
 11
12.6756
 21
29.0797
  0
LINE
  8
0
 10
12.6756
 20
29.0797
 11
12.5786
 21
29.3783
  0
LINE
  8
0
 10
12.5786
 20
29.3783
 11
12.5197
 21
29.6867
  0
LINE
  8
0
 10
12.5197
 20
29.6867
 11
12.5
 21
30
  0
LINE
  8
0
 10
12.5
 20
30
 11
12.5197
 21
30.3133
  0
LINE
  8
0
 10
12.5197
 20
30.3133
 11
12.5786
 21
30.6217
  0
LINE
  8
0
 10
12.5786
 20
30.6217
 11
12.6756
 21
30.9203
  0
LINE
  8
0
 10
12.6756
 20
30.9203
 11
12.8092
 21
31.2044
  0
LINE
  8
0
 10
12.8092
 20
31.2044
 11
12.9775
 21
31.4695
  0
LINE
  8
0
 10
12.9775
 20
31.4695
 11
13.1776
 21
31.7114
  0
LINE
  8
0
 10
13.1776
 20
31.7114
 11
13.4064
 21
31.9263
  0
LINE
  8
0
 10
13.4064
 20
31.9263
 11
13.6604
 21
32.1108
  0
LINE
  8
0
 10
13.6604
 20
32.1108
 11
13.9356
 21
32.2621
  0
LINE
  8
0
 10
13.9356
 20
32.2621
 11
14.2275
 21
32.3776
  0
LINE
  8
0
 10
14.2275
 20
32.3776
 11
14.5316
 21
32.4557
  0
LINE
  8
0
 10
14.5316
 20
32.4557
 11
14.843
 21
32.4951
  0
LINE
  8
0
 10
14.843
 20
32.4951
 11
15.157
 21
32.4951
  0
LINE
  8
0
 10
15.157
 20
32.4951
 11
15.4685
 21
32.4557
  0
LINE
  8
0
 10
15.4685
 20
32.4557
 11
15.7726
 21
32.3776
  0
LINE
  8
0
 10
15.7726
 20
32.3776
 11
16.0645
 21
32.2621
  0
LINE
  8
0
 10
16.0645
 20
32.2621
 11
16.3396
 21
32.1108
  0
LINE
  8
0
 10
16.3396
 20
32.1108
 11
16.5936
 21
31.9263
  0
LINE
  8
0
 10
16.5936
 20
31.9263
 11
16.8224
 21
31.7114
  0
LINE
  8
0
 10
16.8224
 20
31.7114
 11
17.0226
 21
31.4695
  0
LINE
  8
0
 10
17.0226
 20
31.4695
 11
17.1908
 21
31.2044
  0
LINE
  8
0
 10
17.1908
 20
31.2044
 11
17.3244
 21
30.9203
  0
LINE
  8
0
 10
17.3244
 20
30.9203
 11
17.4215
 21
30.6217
  0
LINE
  8
0
 10
17.4215
 20
30.6217
 11
17.4803
 21
30.3133
  0
LINE
  8
0
 10
17.4803
 20
30.3133
 11
17.5
 21
30
  0
LINE
  8
0
 10
17.5
 20
30
 11
17.4803
 21
29.6867
  0
LINE
  8
0
 10
17.4803
 20
29.6867
 11
17.4215
 21
29.3783
  0
LINE
  8
0
 10
17.4215
 20
29.3783
 11
17.3244
 21
29.0797
  0
LINE
  8
0
 10
17.3244
 20
29.0797
 11
17.1908
 21
28.7956
  0
LINE
  8
0
 10
17.1908
 20
28.7956
 11
17.0226
 21
28.5305
  0
LINE
  8
0
 10
17.0226
 20
28.5305
 11
16.8224
 21
28.2886
  0
LINE
  8
0
 10
16.8224
 20
28.2886
 11
16.5936
 21
28.0737
  0
LINE
  8
0
 10
16.5936
 20
28.0737
 11
16.3396
 21
27.8892
  0
LINE
  8
0
 10
16.3396
 20
27.8892
 11
16.0645
 21
27.7379
  0
LINE
  8
0
 10
16.0645
 20
27.7379
 11
15.7726
 21
27.6223
  0
LINE
  8
0
 10
15.7726
 20
27.6223
 11
15.4685
 21
27.5443
  0
LINE
  8
0
 10
15.4685
 20
27.5443
 11
15.157
 21
27.5049
  0
LINE
  8
0
 10
15.157
 20
27.5049
 11
14.843
 21
27.5049
  0
LINE
  8
0
 10
34.843
 20
27.5049
 11
34.5315
 21
27.5443
  0
LINE
  8
0
 10
34.5315
 20
27.5443
 11
34.2274
 21
27.6223
  0
LINE
  8
0
 10
34.2274
 20
27.6223
 11
33.9355
 21
27.7379
  0
LINE
  8
0
 10
33.9355
 20
27.7379
 11
33.6604
 21
27.8892
  0
LINE
  8
0
 10
33.6604
 20
27.8892
 11
33.4064
 21
28.0737
  0
LINE
  8
0
 10
33.4064
 20
28.0737
 11
33.1776
 21
28.2886
  0
LINE
  8
0
 10
33.1776
 20
28.2886
 11
32.9774
 21
28.5305
  0
LINE
  8
0
 10
32.9774
 20
28.5305
 11
32.8092
 21
28.7956
  0
LINE
  8
0
 10
32.8092
 20
28.7956
 11
32.6756
 21
29.0797
  0
LINE
  8
0
 10
32.6756
 20
29.0797
 11
32.5785
 21
29.3783
  0
LINE
  8
0
 10
32.5785
 20
29.3783
 11
32.5197
 21
29.6867
  0
LINE
  8
0
 10
32.5197
 20
29.6867
 11
32.5
 21
30
  0
LINE
  8
0
 10
32.5
 20
30
 11
32.5197
 21
30.3133
  0
LINE
  8
0
 10
32.5197
 20
30.3133
 11
32.5785
 21
30.6217
  0
LINE
  8
0
 10
32.5785
 20
30.6217
 11
32.6756
 21
30.9203
  0
LINE
  8
0
 10
32.6756
 20
30.9203
 11
32.8092
 21
31.2044
  0
LINE
  8
0
 10
32.8092
 20
31.2044
 11
32.9774
 21
31.4695
  0
LINE
  8
0
 10
32.9774
 20
31.4695
 11
33.1776
 21
31.7114
  0
LINE
  8
0
 10
33.1776
 20
31.7114
 11
33.4064
 21
31.9263
  0
LINE
  8
0
 10
33.4064
 20
31.9263
 11
33.6604
 21
32.1108
  0
LINE
  8
0
 10
33.6604
 20
32.1108
 11
33.9355
 21
32.2621
  0
LINE
  8
0
 10
33.9355
 20
32.2621
 11
34.2274
 21
32.3776
  0
LINE
  8
0
 10
34.2274
 20
32.3776
 11
34.5315
 21
32.4557
  0
LINE
  8
0
 10
34.5315
 20
32.4557
 11
34.843
 21
32.4951
  0
LINE
  8
0
 10
34.843
 20
32.4951
 11
35.157
 21
32.4951
  0
LINE
  8
0
 10
35.157
 20
32.4951
 11
35.4684
 21
32.4557
  0
LINE
  8
0
 10
35.4684
 20
32.4557
 11
35.7725
 21
32.3776
  0
LINE
  8
0
 10
35.7725
 20
32.3776
 11
36.0644
 21
32.2621
  0
LINE
  8
0
 10
36.0644
 20
32.2621
 11
36.3396
 21
32.1108
  0
LINE
  8
0
 10
36.3396
 20
32.1108
 11
36.5936
 21
31.9263
  0
LINE
  8
0
 10
36.5936
 20
31.9263
 11
36.8224
 21
31.7114
  0
LINE
  8
0
 10
36.8224
 20
31.7114
 11
37.0225
 21
31.4695
  0
LINE
  8
0
 10
37.0225
 20
31.4695
 11
37.1908
 21
31.2044
  0
LINE
  8
0
 10
37.1908
 20
31.2044
 11
37.3244
 21
30.9203
  0
LINE
  8
0
 10
37.3244
 20
30.9203
 11
37.4214
 21
30.6217
  0
LINE
  8
0
 10
37.4214
 20
30.6217
 11
37.4803
 21
30.3133
  0
LINE
  8
0
 10
37.4803
 20
30.3133
 11
37.5
 21
30
  0
LINE
  8
0
 10
37.5
 20
30
 11
37.4803
 21
29.6867
  0
LINE
  8
0
 10
37.4803
 20
29.6867
 11
37.4214
 21
29.3783
  0
LINE
  8
0
 10
37.4214
 20
29.3783
 11
37.3244
 21
29.0797
  0
LINE
  8
0
 10
37.3244
 20
29.0797
 11
37.1908
 21
28.7956
  0
LINE
  8
0
 10
37.1908
 20
28.7956
 11
37.0225
 21
28.5305
  0
LINE
  8
0
 10
37.0225
 20
28.5305
 11
36.8224
 21
28.2886
  0
LINE
  8
0
 10
36.8224
 20
28.2886
 11
36.5936
 21
28.0737
  0
LINE
  8
0
 10
36.5936
 20
28.0737
 11
36.3396
 21
27.8892
  0
LINE
  8
0
 10
36.3396
 20
27.8892
 11
36.0644
 21
27.7379
  0
LINE
  8
0
 10
36.0644
 20
27.7379
 11
35.7725
 21
27.6223
  0
LINE
  8
0
 10
35.7725
 20
27.6223
 11
35.4684
 21
27.5443
  0
LINE
  8
0
 10
35.4684
 20
27.5443
 11
35.157
 21
27.5049
  0
LINE
  8
0
 10
35.157
 20
27.5049
 11
34.843
 21
27.5049
  0
LINE
  8
0
 10
59.843
 20
27.5049
 11
59.5316
 21
27.5443
  0
LINE
  8
0
 10
59.5316
 20
27.5443
 11
59.2275
 21
27.6223
  0
LINE
  8
0
 10
59.2275
 20
27.6223
 11
58.9356
 21
27.7379
  0
LINE
  8
0
 10
58.9356
 20
27.7379
 11
58.6604
 21
27.8892
  0
LINE
  8
0
 10
58.6604
 20
27.8892
 11
58.4064
 21
28.0737
  0
LINE
  8
0
 10
58.4064
 20
28.0737
 11
58.1776
 21
28.2886
  0
LINE
  8
0
 10
58.1776
 20
28.2886
 11
57.9775
 21
28.5305
  0
LINE
  8
0
 10
57.9775
 20
28.5305
 11
57.8092
 21
28.7956
  0
LINE
  8
0
 10
57.8092
 20
28.7956
 11
57.6756
 21
29.0797
  0
LINE
  8
0
 10
57.6756
 20
29.0797
 11
57.5786
 21
29.3783
  0
LINE
  8
0
 10
57.5786
 20
29.3783
 11
57.5197
 21
29.6867
  0
LINE
  8
0
 10
57.5197
 20
29.6867
 11
57.5
 21
30
  0
LINE
  8
0
 10
57.5
 20
30
 11
57.5197
 21
30.3133
  0
LINE
  8
0
 10
57.5197
 20
30.3133
 11
57.5786
 21
30.6217
  0
LINE
  8
0
 10
57.5786
 20
30.6217
 11
57.6756
 21
30.9203
  0
LINE
  8
0
 10
57.6756
 20
30.9203
 11
57.8092
 21
31.2044
  0
LINE
  8
0
 10
57.8092
 20
31.2044
 11
57.9775
 21
31.4695
  0
LINE
  8
0
 10
57.9775
 20
31.4695
 11
58.1776
 21
31.7114
  0
LINE
  8
0
 10
58.1776
 20
31.7114
 11
58.4064
 21
31.9263
  0
LINE
  8
0
 10
58.4064
 20
31.9263
 11
58.6604
 21
32.1108
  0
LINE
  8
0
 10
58.6604
 20
32.1108
 11
58.9356
 21
32.2621
  0
LINE
  8
0
 10
58.9356
 20
32.2621
 11
59.2275
 21
32.3776
  0
LINE
  8
0
 10
59.2275
 20
32.3776
 11
59.5316
 21
32.4557
  0
LINE
  8
0
 10
59.5316
 20
32.4557
 11
59.843
 21
32.4951
  0
LINE
  8
0
 10
59.843
 20
32.4951
 11
60.157
 21
32.4951
  0
LINE
  8
0
 10
60.157
 20
32.4951
 11
60.4685
 21
32.4557
  0
LINE
  8
0
 10
60.4685
 20
32.4557
 11
60.7726
 21
32.3776
  0
LINE
  8
0
 10
60.7726
 20
32.3776
 11
61.0645
 21
32.2621
  0
LINE
  8
0
 10
61.0645
 20
32.2621
 11
61.3396
 21
32.1108
  0
LINE
  8
0
 10
61.3396
 20
32.1108
 11
61.5936
 21
31.9263
  0
LINE
  8
0
 10
61.5936
 20
31.9263
 11
61.8224
 21
31.7114
  0
LINE
  8
0
 10
61.8224
 20
31.7114
 11
62.0226
 21
31.4695
  0
LINE
  8
0
 10
62.0226
 20
31.4695
 11
62.1908
 21
31.2044
  0
LINE
  8
0
 10
62.1908
 20
31.2044
 11
62.3244
 21
30.9203
  0
LINE
  8
0
 10
62.3244
 20
30.9203
 11
62.4215
 21
30.6217
  0
LINE
  8
0
 10
62.4215
 20
30.6217
 11
62.4803
 21
30.3133
  0
LINE
  8
0
 10
62.4803
 20
30.3133
 11
62.5
 21
30
  0
LINE
  8
0
 10
62.5
 20
30
 11
62.4803
 21
29.6867
  0
LINE
  8
0
 10
62.4803
 20
29.6867
 11
62.4215
 21
29.3783
  0
LINE
  8
0
 10
62.4215
 20
29.3783
 11
62.3244
 21
29.0797
  0
LINE
  8
0
 10
62.3244
 20
29.0797
 11
62.1908
 21
28.7956
  0
LINE
  8
0
 10
62.1908
 20
28.7956
 11
62.0226
 21
28.5305
  0
LINE
  8
0
 10
62.0226
 20
28.5305
 11
61.8224
 21
28.2886
  0
LINE
  8
0
 10
61.8224
 20
28.2886
 11
61.5936
 21
28.0737
  0
LINE
  8
0
 10
61.5936
 20
28.0737
 11
61.3396
 21
27.8892
  0
LINE
  8
0
 10
61.3396
 20
27.8892
 11
61.0645
 21
27.7379
  0
LINE
  8
0
 10
61.0645
 20
27.7379
 11
60.7726
 21
27.6223
  0
LINE
  8
0
 10
60.7726
 20
27.6223
 11
60.4685
 21
27.5443
  0
LINE
  8
0
 10
60.4685
 20
27.5443
 11
60.157
 21
27.5049
  0
LINE
  8
0
 10
60.157
 20
27.5049
 11
59.843
 21
27.5049
  0
LINE
  8
0
 10
79.843
 20
27.5049
 11
79.5315
 21
27.5443
  0
LINE
  8
0
 10
79.5315
 20
27.5443
 11
79.2274
 21
27.6223
  0
LINE
  8
0
 10
79.2274
 20
27.6223
 11
78.9355
 21
27.7379
  0
LINE
  8
0
 10
78.9355
 20
27.7379
 11
78.6604
 21
27.8892
  0
LINE
  8
0
 10
78.6604
 20
27.8892
 11
78.4064
 21
28.0737
  0
LINE
  8
0
 10
78.4064
 20
28.0737
 11
78.1776
 21
28.2886
  0
LINE
  8
0
 10
78.1776
 20
28.2886
 11
77.9774
 21
28.5305
  0
LINE
  8
0
 10
77.9774
 20
28.5305
 11
77.8092
 21
28.7956
  0
LINE
  8
0
 10
77.8092
 20
28.7956
 11
77.6756
 21
29.0797
  0
LINE
  8
0
 10
77.6756
 20
29.0797
 11
77.5785
 21
29.3783
  0
LINE
  8
0
 10
77.5785
 20
29.3783
 11
77.5197
 21
29.6867
  0
LINE
  8
0
 10
77.5197
 20
29.6867
 11
77.5
 21
30
  0
LINE
  8
0
 10
77.5
 20
30
 11
77.5197
 21
30.3133
  0
LINE
  8
0
 10
77.5197
 20
30.3133
 11
77.5785
 21
30.6217
  0
LINE
  8
0
 10
77.5785
 20
30.6217
 11
77.6756
 21
30.9203
  0
LINE
  8
0
 10
77.6756
 20
30.9203
 11
77.8092
 21
31.2044
  0
LINE
  8
0
 10
77.8092
 20
31.2044
 11
77.9774
 21
31.4695
  0
LINE
  8
0
 10
77.9774
 20
31.4695
 11
78.1776
 21
31.7114
  0
LINE
  8
0
 10
78.1776
 20
31.7114
 11
78.4064
 21
31.9263
  0
LINE
  8
0
 10
78.4064
 20
31.9263
 11
78.6604
 21
32.1108
  0
LINE
  8
0
 10
78.6604
 20
32.1108
 11
78.9355
 21
32.2621
  0
LINE
  8
0
 10
78.9355
 20
32.2621
 11
79.2274
 21
32.3776
  0
LINE
  8
0
 10
79.2274
 20
32.3776
 11
79.5315
 21
32.4557
  0
LINE
  8
0
 10
79.5315
 20
32.4557
 11
79.843
 21
32.4951
  0
LINE
  8
0
 10
79.843
 20
32.4951
 11
80.157
 21
32.4951
  0
LINE
  8
0
 10
80.157
 20
32.4951
 11
80.4684
 21
32.4557
  0
LINE
  8
0
 10
80.4684
 20
32.4557
 11
80.7725
 21
32.3776
  0
LINE
  8
0
 10
80.7725
 20
32.3776
 11
81.0644
 21
32.2621
  0
LINE
  8
0
 10
81.0644
 20
32.2621
 11
81.3396
 21
32.1108
  0
LINE
  8
0
 10
81.3396
 20
32.1108
 11
81.5936
 21
31.9263
  0
LINE
  8
0
 10
81.5936
 20
31.9263
 11
81.8224
 21
31.7114
  0
LINE
  8
0
 10
81.8224
 20
31.7114
 11
82.0225
 21
31.4695
  0
LINE
  8
0
 10
82.0225
 20
31.4695
 11
82.1908
 21
31.2044
  0
LINE
  8
0
 10
82.1908
 20
31.2044
 11
82.3244
 21
30.9203
  0
LINE
  8
0
 10
82.3244
 20
30.9203
 11
82.4214
 21
30.6217
  0
LINE
  8
0
 10
82.4214
 20
30.6217
 11
82.4803
 21
30.3133
  0
LINE
  8
0
 10
82.4803
 20
30.3133
 11
82.5
 21
30
  0
LINE
  8
0
 10
82.5
 20
30
 11
82.4803
 21
29.6867
  0
LINE
  8
0
 10
82.4803
 20
29.6867
 11
82.4214
 21
29.3783
  0
LINE
  8
0
 10
82.4214
 20
29.3783
 11
82.3244
 21
29.0797
  0
LINE
  8
0
 10
82.3244
 20
29.0797
 11
82.1908
 21
28.7956
  0
LINE
  8
0
 10
82.1908
 20
28.7956
 11
82.0225
 21
28.5305
  0
LINE
  8
0
 10
82.0225
 20
28.5305
 11
81.8224
 21
28.2886
  0
LINE
  8
0
 10
81.8224
 20
28.2886
 11
81.5936
 21
28.0737
  0
LINE
  8
0
 10
81.5936
 20
28.0737
 11
81.3396
 21
27.8892
  0
LINE
  8
0
 10
81.3396
 20
27.8892
 11
81.0644
 21
27.7379
  0
LINE
  8
0
 10
81.0644
 20
27.7379
 11
80.7725
 21
27.6223
  0
LINE
  8
0
 10
80.7725
 20
27.6223
 11
80.4684
 21
27.5443
  0
LINE
  8
0
 10
80.4684
 20
27.5443
 11
80.157
 21
27.5049
  0
LINE
  8
0
 10
80.157
 20
27.5049
 11
79.843
 21
27.5049
  0
LINE
  8
0
 10
14.843
 20
7.50494
 11
14.5316
 21
7.5443
  0
LINE
  8
0
 10
14.5316
 20
7.5443
 11
14.2275
 21
7.62236
  0
LINE
  8
0
 10
14.2275
 20
7.62236
 11
13.9356
 21
7.73795
  0
LINE
  8
0
 10
13.9356
 20
7.73795
 11
13.6604
 21
7.88919
  0
LINE
  8
0
 10
13.6604
 20
7.88919
 11
13.4064
 21
8.07373
  0
LINE
  8
0
 10
13.4064
 20
8.07373
 11
13.1776
 21
8.28864
  0
LINE
  8
0
 10
13.1776
 20
8.28864
 11
12.9775
 21
8.53055
  0
LINE
  8
0
 10
12.9775
 20
8.53055
 11
12.8092
 21
8.79562
  0
LINE
  8
0
 10
12.8092
 20
8.79562
 11
12.6756
 21
9.0797
  0
LINE
  8
0
 10
12.6756
 20
9.0797
 11
12.5786
 21
9.37828
  0
LINE
  8
0
 10
12.5786
 20
9.37828
 11
12.5197
 21
9.68668
  0
LINE
  8
0
 10
12.5197
 20
9.68668
 11
12.5
 21
10
  0
LINE
  8
0
 10
12.5
 20
10
 11
12.5197
 21
10.3133
  0
LINE
  8
0
 10
12.5197
 20
10.3133
 11
12.5786
 21
10.6217
  0
LINE
  8
0
 10
12.5786
 20
10.6217
 11
12.6756
 21
10.9203
  0
LINE
  8
0
 10
12.6756
 20
10.9203
 11
12.8092
 21
11.2044
  0
LINE
  8
0
 10
12.8092
 20
11.2044
 11
12.9775
 21
11.4695
  0
LINE
  8
0
 10
12.9775
 20
11.4695
 11
13.1776
 21
11.7114
  0
LINE
  8
0
 10
13.1776
 20
11.7114
 11
13.4064
 21
11.9263
  0
LINE
  8
0
 10
13.4064
 20
11.9263
 11
13.6604
 21
12.1108
  0
LINE
  8
0
 10
13.6604
 20
12.1108
 11
13.9356
 21
12.2621
  0
LINE
  8
0
 10
13.9356
 20
12.2621
 11
14.2275
 21
12.3777
  0
LINE
  8
0
 10
14.2275
 20
12.3777
 11
14.5316
 21
12.4557
  0
LINE
  8
0
 10
14.5316
 20
12.4557
 11
14.843
 21
12.4951
  0
LINE
  8
0
 10
14.843
 20
12.4951
 11
15.157
 21
12.4951
  0
LINE
  8
0
 10
15.157
 20
12.4951
 11
15.4685
 21
12.4557
  0
LINE
  8
0
 10
15.4685
 20
12.4557
 11
15.7726
 21
12.3777
  0
LINE
  8
0
 10
15.7726
 20
12.3777
 11
16.0645
 21
12.2621
  0
LINE
  8
0
 10
16.0645
 20
12.2621
 11
16.3396
 21
12.1108
  0
LINE
  8
0
 10
16.3396
 20
12.1108
 11
16.5936
 21
11.9263
  0
LINE
  8
0
 10
16.5936
 20
11.9263
 11
16.8224
 21
11.7114
  0
LINE
  8
0
 10
16.8224
 20
11.7114
 11
17.0226
 21
11.4695
  0
LINE
  8
0
 10
17.0226
 20
11.4695
 11
17.1908
 21
11.2044
  0
LINE
  8
0
 10
17.1908
 20
11.2044
 11
17.3244
 21
10.9203
  0
LINE
  8
0
 10
17.3244
 20
10.9203
 11
17.4215
 21
10.6217
  0
LINE
  8
0
 10
17.4215
 20
10.6217
 11
17.4803
 21
10.3133
  0
LINE
  8
0
 10
17.4803
 20
10.3133
 11
17.5
 21
10
  0
LINE
  8
0
 10
17.5
 20
10
 11
17.4803
 21
9.68668
  0
LINE
  8
0
 10
17.4803
 20
9.68668
 11
17.4215
 21
9.37828
  0
LINE
  8
0
 10
17.4215
 20
9.37828
 11
17.3244
 21
9.0797
  0
LINE
  8
0
 10
17.3244
 20
9.0797
 11
17.1908
 21
8.79562
  0
LINE
  8
0
 10
17.1908
 20
8.79562
 11
17.0226
 21
8.53055
  0
LINE
  8
0
 10
17.0226
 20
8.53055
 11
16.8224
 21
8.28864
  0
LINE
  8
0
 10
16.8224
 20
8.28864
 11
16.5936
 21
8.07373
  0
LINE
  8
0
 10
16.5936
 20
8.07373
 11
16.3396
 21
7.88919
  0
LINE
  8
0
 10
16.3396
 20
7.88919
 11
16.0645
 21
7.73795
  0
LINE
  8
0
 10
16.0645
 20
7.73795
 11
15.7726
 21
7.62236
  0
LINE
  8
0
 10
15.7726
 20
7.62236
 11
15.4685
 21
7.5443
  0
LINE
  8
0
 10
15.4685
 20
7.5443
 11
15.157
 21
7.50494
  0
LINE
  8
0
 10
15.157
 20
7.50494
 11
14.843
 21
7.50494
  0
LINE
  8
0
 10
34.843
 20
7.50494
 11
34.5315
 21
7.5443
  0
LINE
  8
0
 10
34.5315
 20
7.5443
 11
34.2274
 21
7.62236
  0
LINE
  8
0
 10
34.2274
 20
7.62236
 11
33.9355
 21
7.73795
  0
LINE
  8
0
 10
33.9355
 20
7.73795
 11
33.6604
 21
7.88919
  0
LINE
  8
0
 10
33.6604
 20
7.88919
 11
33.4064
 21
8.07373
  0
LINE
  8
0
 10
33.4064
 20
8.07373
 11
33.1776
 21
8.28864
  0
LINE
  8
0
 10
33.1776
 20
8.28864
 11
32.9774
 21
8.53055
  0
LINE
  8
0
 10
32.9774
 20
8.53055
 11
32.8092
 21
8.79562
  0
LINE
  8
0
 10
32.8092
 20
8.79562
 11
32.6756
 21
9.0797
  0
LINE
  8
0
 10
32.6756
 20
9.0797
 11
32.5785
 21
9.37828
  0
LINE
  8
0
 10
32.5785
 20
9.37828
 11
32.5197
 21
9.68668
  0
LINE
  8
0
 10
32.5197
 20
9.68668
 11
32.5
 21
10
  0
LINE
  8
0
 10
32.5
 20
10
 11
32.5197
 21
10.3133
  0
LINE
  8
0
 10
32.5197
 20
10.3133
 11
32.5785
 21
10.6217
  0
LINE
  8
0
 10
32.5785
 20
10.6217
 11
32.6756
 21
10.9203
  0
LINE
  8
0
 10
32.6756
 20
10.9203
 11
32.8092
 21
11.2044
  0
LINE
  8
0
 10
32.8092
 20
11.2044
 11
32.9774
 21
11.4695
  0
LINE
  8
0
 10
32.9774
 20
11.4695
 11
33.1776
 21
11.7114
  0
LINE
  8
0
 10
33.1776
 20
11.7114
 11
33.4064
 21
11.9263
  0
LINE
  8
0
 10
33.4064
 20
11.9263
 11
33.6604
 21
12.1108
  0
LINE
  8
0
 10
33.6604
 20
12.1108
 11
33.9355
 21
12.2621
  0
LINE
  8
0
 10
33.9355
 20
12.2621
 11
34.2274
 21
12.3777
  0
LINE
  8
0
 10
34.2274
 20
12.3777
 11
34.5315
 21
12.4557
  0
LINE
  8
0
 10
34.5315
 20
12.4557
 11
34.843
 21
12.4951
  0
LINE
  8
0
 10
34.843
 20
12.4951
 11
35.157
 21
12.4951
  0
LINE
  8
0
 10
35.157
 20
12.4951
 11
35.4684
 21
12.4557
  0
LINE
  8
0
 10
35.4684
 20
12.4557
 11
35.7725
 21
12.3777
  0
LINE
  8
0
 10
35.7725
 20
12.3777
 11
36.0644
 21
12.2621
  0
LINE
  8
0
 10
36.0644
 20
12.2621
 11
36.3396
 21
12.1108
  0
LINE
  8
0
 10
36.3396
 20
12.1108
 11
36.5936
 21
11.9263
  0
LINE
  8
0
 10
36.5936
 20
11.9263
 11
36.8224
 21
11.7114
  0
LINE
  8
0
 10
36.8224
 20
11.7114
 11
37.0225
 21
11.4695
  0
LINE
  8
0
 10
37.0225
 20
11.4695
 11
37.1908
 21
11.2044
  0
LINE
  8
0
 10
37.1908
 20
11.2044
 11
37.3244
 21
10.9203
  0
LINE
  8
0
 10
37.3244
 20
10.9203
 11
37.4214
 21
10.6217
  0
LINE
  8
0
 10
37.4214
 20
10.6217
 11
37.4803
 21
10.3133
  0
LINE
  8
0
 10
37.4803
 20
10.3133
 11
37.5
 21
10
  0
LINE
  8
0
 10
37.5
 20
10
 11
37.4803
 21
9.68668
  0
LINE
  8
0
 10
37.4803
 20
9.68668
 11
37.4214
 21
9.37828
  0
LINE
  8
0
 10
37.4214
 20
9.37828
 11
37.3244
 21
9.0797
  0
LINE
  8
0
 10
37.3244
 20
9.0797
 11
37.1908
 21
8.79562
  0
LINE
  8
0
 10
37.1908
 20
8.79562
 11
37.0225
 21
8.53055
  0
LINE
  8
0
 10
37.0225
 20
8.53055
 11
36.8224
 21
8.28864
  0
LINE
  8
0
 10
36.8224
 20
8.28864
 11
36.5936
 21
8.07373
  0
LINE
  8
0
 10
36.5936
 20
8.07373
 11
36.3396
 21
7.88919
  0
LINE
  8
0
 10
36.3396
 20
7.88919
 11
36.0644
 21
7.73795
  0
LINE
  8
0
 10
36.0644
 20
7.73795
 11
35.7725
 21
7.62236
  0
LINE
  8
0
 10
35.7725
 20
7.62236
 11
35.4684
 21
7.5443
  0
LINE
  8
0
 10
35.4684
 20
7.5443
 11
35.157
 21
7.50494
  0
LINE
  8
0
 10
35.157
 20
7.50494
 11
34.843
 21
7.50494
  0
LINE
  8
0
 10
59.843
 20
7.50494
 11
59.5316
 21
7.5443
  0
LINE
  8
0
 10
59.5316
 20
7.5443
 11
59.2275
 21
7.62236
  0
LINE
  8
0
 10
59.2275
 20
7.62236
 11
58.9356
 21
7.73795
  0
LINE
  8
0
 10
58.9356
 20
7.73795
 11
58.6604
 21
7.88919
  0
LINE
  8
0
 10
58.6604
 20
7.88919
 11
58.4064
 21
8.07373
  0
LINE
  8
0
 10
58.4064
 20
8.07373
 11
58.1776
 21
8.28864
  0
LINE
  8
0
 10
58.1776
 20
8.28864
 11
57.9775
 21
8.53055
  0
LINE
  8
0
 10
57.9775
 20
8.53055
 11
57.8092
 21
8.79562
  0
LINE
  8
0
 10
57.8092
 20
8.79562
 11
57.6756
 21
9.0797
  0
LINE
  8
0
 10
57.6756
 20
9.0797
 11
57.5786
 21
9.37828
  0
LINE
  8
0
 10
57.5786
 20
9.37828
 11
57.5197
 21
9.68668
  0
LINE
  8
0
 10
57.5197
 20
9.68668
 11
57.5
 21
10
  0
LINE
  8
0
 10
57.5
 20
10
 11
57.5197
 21
10.3133
  0
LINE
  8
0
 10
57.5197
 20
10.3133
 11
57.5786
 21
10.6217
  0
LINE
  8
0
 10
57.5786
 20
10.6217
 11
57.6756
 21
10.9203
  0
LINE
  8
0
 10
57.6756
 20
10.9203
 11
57.8092
 21
11.2044
  0
LINE
  8
0
 10
57.8092
 20
11.2044
 11
57.9775
 21
11.4695
  0
LINE
  8
0
 10
57.9775
 20
11.4695
 11
58.1776
 21
11.7114
  0
LINE
  8
0
 10
58.1776
 20
11.7114
 11
58.4064
 21
11.9263
  0
LINE
  8
0
 10
58.4064
 20
11.9263
 11
58.6604
 21
12.1108
  0
LINE
  8
0
 10
58.6604
 20
12.1108
 11
58.9356
 21
12.2621
  0
LINE
  8
0
 10
58.9356
 20
12.2621
 11
59.2275
 21
12.3777
  0
LINE
  8
0
 10
59.2275
 20
12.3777
 11
59.5316
 21
12.4557
  0
LINE
  8
0
 10
59.5316
 20
12.4557
 11
59.843
 21
12.4951
  0
LINE
  8
0
 10
59.843
 20
12.4951
 11
60.157
 21
12.4951
  0
LINE
  8
0
 10
60.157
 20
12.4951
 11
60.4685
 21
12.4557
  0
LINE
  8
0
 10
60.4685
 20
12.4557
 11
60.7726
 21
12.3777
  0
LINE
  8
0
 10
60.7726
 20
12.3777
 11
61.0645
 21
12.2621
  0
LINE
  8
0
 10
61.0645
 20
12.2621
 11
61.3396
 21
12.1108
  0
LINE
  8
0
 10
61.3396
 20
12.1108
 11
61.5936
 21
11.9263
  0
LINE
  8
0
 10
61.5936
 20
11.9263
 11
61.8224
 21
11.7114
  0
LINE
  8
0
 10
61.8224
 20
11.7114
 11
62.0226
 21
11.4695
  0
LINE
  8
0
 10
62.0226
 20
11.4695
 11
62.1908
 21
11.2044
  0
LINE
  8
0
 10
62.1908
 20
11.2044
 11
62.3244
 21
10.9203
  0
LINE
  8
0
 10
62.3244
 20
10.9203
 11
62.4215
 21
10.6217
  0
LINE
  8
0
 10
62.4215
 20
10.6217
 11
62.4803
 21
10.3133
  0
LINE
  8
0
 10
62.4803
 20
10.3133
 11
62.5
 21
10
  0
LINE
  8
0
 10
62.5
 20
10
 11
62.4803
 21
9.68668
  0
LINE
  8
0
 10
62.4803
 20
9.68668
 11
62.4215
 21
9.37828
  0
LINE
  8
0
 10
62.4215
 20
9.37828
 11
62.3244
 21
9.0797
  0
LINE
  8
0
 10
62.3244
 20
9.0797
 11
62.1908
 21
8.79562
  0
LINE
  8
0
 10
62.1908
 20
8.79562
 11
62.0226
 21
8.53055
  0
LINE
  8
0
 10
62.0226
 20
8.53055
 11
61.8224
 21
8.28864
  0
LINE
  8
0
 10
61.8224
 20
8.28864
 11
61.5936
 21
8.07373
  0
LINE
  8
0
 10
61.5936
 20
8.07373
 11
61.3396
 21
7.88919
  0
LINE
  8
0
 10
61.3396
 20
7.88919
 11
61.0645
 21
7.73795
  0
LINE
  8
0
 10
61.0645
 20
7.73795
 11
60.7726
 21
7.62236
  0
LINE
  8
0
 10
60.7726
 20
7.62236
 11
60.4685
 21
7.5443
  0
LINE
  8
0
 10
60.4685
 20
7.5443
 11
60.157
 21
7.50494
  0
LINE
  8
0
 10
60.157
 20
7.50494
 11
59.843
 21
7.50494
  0
LINE
  8
0
 10
79.843
 20
7.50494
 11
79.5315
 21
7.5443
  0
LINE
  8
0
 10
79.5315
 20
7.5443
 11
79.2274
 21
7.62236
  0
LINE
  8
0
 10
79.2274
 20
7.62236
 11
78.9355
 21
7.73795
  0
LINE
  8
0
 10
78.9355
 20
7.73795
 11
78.6604
 21
7.88919
  0
LINE
  8
0
 10
78.6604
 20
7.88919
 11
78.4064
 21
8.07373
  0
LINE
  8
0
 10
78.4064
 20
8.07373
 11
78.1776
 21
8.28864
  0
LINE
  8
0
 10
78.1776
 20
8.28864
 11
77.9774
 21
8.53055
  0
LINE
  8
0
 10
77.9774
 20
8.53055
 11
77.8092
 21
8.79562
  0
LINE
  8
0
 10
77.8092
 20
8.79562
 11
77.6756
 21
9.0797
  0
LINE
  8
0
 10
77.6756
 20
9.0797
 11
77.5785
 21
9.37828
  0
LINE
  8
0
 10
77.5785
 20
9.37828
 11
77.5197
 21
9.68668
  0
LINE
  8
0
 10
77.5197
 20
9.68668
 11
77.5
 21
10
  0
LINE
  8
0
 10
77.5
 20
10
 11
77.5197
 21
10.3133
  0
LINE
  8
0
 10
77.5197
 20
10.3133
 11
77.5785
 21
10.6217
  0
LINE
  8
0
 10
77.5785
 20
10.6217
 11
77.6756
 21
10.9203
  0
LINE
  8
0
 10
77.6756
 20
10.9203
 11
77.8092
 21
11.2044
  0
LINE
  8
0
 10
77.8092
 20
11.2044
 11
77.9774
 21
11.4695
  0
LINE
  8
0
 10
77.9774
 20
11.4695
 11
78.1776
 21
11.7114
  0
LINE
  8
0
 10
78.1776
 20
11.7114
 11
78.4064
 21
11.9263
  0
LINE
  8
0
 10
78.4064
 20
11.9263
 11
78.6604
 21
12.1108
  0
LINE
  8
0
 10
78.6604
 20
12.1108
 11
78.9355
 21
12.2621
  0
LINE
  8
0
 10
78.9355
 20
12.2621
 11
79.2274
 21
12.3777
  0
LINE
  8
0
 10
79.2274
 20
12.3777
 11
79.5315
 21
12.4557
  0
LINE
  8
0
 10
79.5315
 20
12.4557
 11
79.843
 21
12.4951
  0
LINE
  8
0
 10
79.843
 20
12.4951
 11
80.157
 21
12.4951
  0
LINE
  8
0
 10
80.157
 20
12.4951
 11
80.4684
 21
12.4557
  0
LINE
  8
0
 10
80.4684
 20
12.4557
 11
80.7725
 21
12.3777
  0
LINE
  8
0
 10
80.7725
 20
12.3777
 11
81.0644
 21
12.2621
  0
LINE
  8
0
 10
81.0644
 20
12.2621
 11
81.3396
 21
12.1108
  0
LINE
  8
0
 10
81.3396
 20
12.1108
 11
81.5936
 21
11.9263
  0
LINE
  8
0
 10
81.5936
 20
11.9263
 11
81.8224
 21
11.7114
  0
LINE
  8
0
 10
81.8224
 20
11.7114
 11
82.0225
 21
11.4695
  0
LINE
  8
0
 10
82.0225
 20
11.4695
 11
82.1908
 21
11.2044
  0
LINE
  8
0
 10
82.1908
 20
11.2044
 11
82.3244
 21
10.9203
  0
LINE
  8
0
 10
82.3244
 20
10.9203
 11
82.4214
 21
10.6217
  0
LINE
  8
0
 10
82.4214
 20
10.6217
 11
82.4803
 21
10.3133
  0
LINE
  8
0
 10
82.4803
 20
10.3133
 11
82.5
 21
10
  0
LINE
  8
0
 10
82.5
 20
10
 11
82.4803
 21
9.68668
  0
LINE
  8
0
 10
82.4803
 20
9.68668
 11
82.4214
 21
9.37828
  0
LINE
  8
0
 10
82.4214
 20
9.37828
 11
82.3244
 21
9.0797
  0
LINE
  8
0
 10
82.3244
 20
9.0797
 11
82.1908
 21
8.79562
  0
LINE
  8
0
 10
82.1908
 20
8.79562
 11
82.0225
 21
8.53055
  0
LINE
  8
0
 10
82.0225
 20
8.53055
 11
81.8224
 21
8.28864
  0
LINE
  8
0
 10
81.8224
 20
8.28864
 11
81.5936
 21
8.07373
  0
LINE
  8
0
 10
81.5936
 20
8.07373
 11
81.3396
 21
7.88919
  0
LINE
  8
0
 10
81.3396
 20
7.88919
 11
81.0644
 21
7.73795
  0
LINE
  8
0
 10
81.0644
 20
7.73795
 11
80.7725
 21
7.62236
  0
LINE
  8
0
 10
80.7725
 20
7.62236
 11
80.4684
 21
7.5443
  0
LINE
  8
0
 10
80.4684
 20
7.5443
 11
80.157
 21
7.50494
  0
LINE
  8
0
 10
80.157
 20
7.50494
 11
79.843
 21
7.50494
  0
ENDSEC
  0
SECTION
  2
OBJECTS
  0
DICTIONARY
  0
ENDSEC
  0
EOF
