  0
SECTION
  2
BLOCKS
  0
ENDSEC
  0
SECTION
  2
ENTITIES
  0
LINE
  8
0
 10
40
 20
20
 11
-40
 21
20
  0
LINE
  8
0
 10
-40
 20
20
 11
-40
 21
-20
  0
LINE
  8
0
 10
-40
 20
-20
 11
40
 21
-20
  0
LINE
  8
0
 10
40
 20
-20
 11
40
 21
20
  0
LINE
  8
0
 10
-30.7725
 20
7.62234
 11
-32.0225
 21
8.53053
  0
LINE
  8
0
 10
-32.0225
 20
8.53053
 11
-32.5
 21
10
  0
LINE
  8
0
 10
-32.5
 20
10
 11
-32.0225
 21
11.4695
  0
LINE
  8
0
 10
-32.0225
 20
11.4695
 11
-30.7725
 21
12.3776
  0
LINE
  8
0
 10
-30.7725
 20
12.3776
 11
-29.2274
 21
12.3776
  0
LINE
  8
0
 10
-29.2274
 20
12.3776
 11
-27.9774
 21
11.4695
  0
LINE
  8
0
 10
-27.9774
 20
11.4695
 11
-27.5
 21
10
  0
LINE
  8
0
 10
-27.5
 20
10
 11
-27.9774
 21
8.53053
  0
LINE
  8
0
 10
-27.9774
 20
8.53053
 11
-29.2274
 21
7.62234
  0
LINE
  8
0
 10
-29.2274
 20
7.62234
 11
-30.7725
 21
7.62234
  0
LINE
  8
0
 10
-10.7726
 20
7.62234
 11
-12.0226
 21
8.53053
  0
LINE
  8
0
 10
-12.0226
 20
8.53053
 11
-12.5
 21
10
  0
LINE
  8
0
 10
-12.5
 20
10
 11
-12.0226
 21
11.4695
  0
LINE
  8
0
 10
-12.0226
 20
11.4695
 11
-10.7726
 21
12.3776
  0
LINE
  8
0
 10
-10.7726
 20
12.3776
 11
-9.22746
 21
12.3776
  0
LINE
  8
0
 10
-9.22746
 20
12.3776
 11
-7.97746
 21
11.4695
  0
LINE
  8
0
 10
-7.97746
 20
11.4695
 11
-7.5
 21
10
  0
LINE
  8
0
 10
-7.5
 20
10
 11
-7.97746
 21
8.53053
  0
LINE
  8
0
 10
-7.97746
 20
8.53053
 11
-9.22746
 21
7.62234
  0
LINE
  8
0
 10
-9.22746
 20
7.62234
 11
-10.7726
 21
7.62234
  0
LINE
  8
0
 10
9.22746
 20
7.62234
 11
7.97746
 21
8.53053
  0
LINE
  8
0
 10
7.97746
 20
8.53053
 11
7.5
 21
10
  0
LINE
  8
0
 10
7.5
 20
10
 11
7.97746
 21
11.4695
  0
LINE
  8
0
 10
7.97746
 20
11.4695
 11
9.22746
 21
12.3776
  0
LINE
  8
0
 10
9.22746
 20
12.3776
 11
10.7726
 21
12.3776
  0
LINE
  8
0
 10
10.7726
 20
12.3776
 11
12.0226
 21
11.4695
  0
LINE
  8
0
 10
12.0226
 20
11.4695
 11
12.5
 21
10
  0
LINE
  8
0
 10
12.5
 20
10
 11
12.0226
 21
8.53053
  0
LINE
  8
0
 10
12.0226
 20
8.53053
 11
10.7726
 21
7.62234
  0
LINE
  8
0
 10
10.7726
 20
7.62234
 11
9.22746
 21
7.62234
  0
LINE
  8
0
 10
29.2274
 20
7.62234
 11
27.9774
 21
8.53053
  0
LINE
  8
0
 10
27.9774
 20
8.53053
 11
27.5
 21
10
  0
LINE
  8
0
 10
27.5
 20
10
 11
27.9774
 21
11.4695
  0
LINE
  8
0
 10
27.9774
 20
11.4695
 11
29.2274
 21
12.3776
  0
LINE
  8
0
 10
29.2274
 20
12.3776
 11
30.7725
 21
12.3776
  0
LINE
  8
0
 10
30.7725
 20
12.3776
 11
32.0225
 21
11.4695
  0
LINE
  8
0
 10
32.0225
 20
11.4695
 11
32.5
 21
10
  0
LINE
  8
0
 10
32.5
 20
10
 11
32.0225
 21
8.53053
  0
LINE
  8
0
 10
32.0225
 20
8.53053
 11
30.7725
 21
7.62234
  0
LINE
  8
0
 10
30.7725
 20
7.62234
 11
29.2274
 21
7.62234
  0
LINE
  8
0
 10
-30.7725
 20
-12.3776
 11
-32.0225
 21
-11.4695
  0
LINE
  8
0
 10
-32.0225
 20
-11.4695
 11
-32.5
 21
-10
  0
LINE
  8
0
 10
-32.5
 20
-10
 11
-32.0225
 21
-8.53053
  0
LINE
  8
0
 10
-32.0225
 20
-8.53053
 11
-30.7725
 21
-7.62234
  0
LINE
  8
0
 10
-30.7725
 20
-7.62234
 11
-29.2274
 21
-7.62234
  0
LINE
  8
0
 10
-29.2274
 20
-7.62234
 11
-27.9774
 21
-8.53053
  0
LINE
  8
0
 10
-27.9774
 20
-8.53053
 11
-27.5
 21
-10
  0
LINE
  8
0
 10
-27.5
 20
-10
 11
-27.9774
 21
-11.4695
  0
LINE
  8
0
 10
-27.9774
 20
-11.4695
 11
-29.2274
 21
-12.3776
  0
LINE
  8
0
 10
-29.2274
 20
-12.3776
 11
-30.7725
 21
-12.3776
  0
LINE
  8
0
 10
-10.7726
 20
-12.3776
 11
-12.0226
 21
-11.4695
  0
LINE
  8
0
 10
-12.0226
 20
-11.4695
 11
-12.5
 21
-10
  0
LINE
  8
0
 10
-12.5
 20
-10
 11
-12.0226
 21
-8.53053
  0
LINE
  8
0
 10
-12.0226
 20
-8.53053
 11
-10.7726
 21
-7.62234
  0
LINE
  8
0
 10
-10.7726
 20
-7.62234
 11
-9.22746
 21
-7.62234
  0
LINE
  8
0
 10
-9.22746
 20
-7.62234
 11
-7.97746
 21
-8.53053
  0
LINE
  8
0
 10
-7.97746
 20
-8.53053
 11
-7.5
 21
-10
  0
LINE
  8
0
 10
-7.5
 20
-10
 11
-7.97746
 21
-11.4695
  0
LINE
  8
0
 10
-7.97746
 20
-11.4695
 11
-9.22746
 21
-12.3776
  0
LINE
  8
0
 10
-9.22746
 20
-12.3776
 11
-10.7726
 21
-12.3776
  0
LINE
  8
0
 10
9.22746
 20
-12.3776
 11
7.97746
 21
-11.4695
  0
LINE
  8
0
 10
7.97746
 20
-11.4695
 11
7.5
 21
-10
  0
LINE
  8
0
 10
7.5
 20
-10
 11
7.97746
 21
-8.53053
  0
LINE
  8
0
 10
7.97746
 20
-8.53053
 11
9.22746
 21
-7.62234
  0
LINE
  8
0
 10
9.22746
 20
-7.62234
 11
10.7726
 21
-7.62234
  0
LINE
  8
0
 10
10.7726
 20
-7.62234
 11
12.0226
 21
-8.53053
  0
LINE
  8
0
 10
12.0226
 20
-8.53053
 11
12.5
 21
-10
  0
LINE
  8
0
 10
12.5
 20
-10
 11
12.0226
 21
-11.4695
  0
LINE
  8
0
 10
12.0226
 20
-11.4695
 11
10.7726
 21
-12.3776
  0
LINE
  8
0
 10
10.7726
 20
-12.3776
 11
9.22746
 21
-12.3776
  0
LINE
  8
0
 10
29.2274
 20
-12.3776
 11
27.9774
 21
-11.4695
  0
LINE
  8
0
 10
27.9774
 20
-11.4695
 11
27.5
 21
-10
  0
LINE
  8
0
 10
27.5
 20
-10
 11
27.9774
 21
-8.53053
  0
LINE
  8
0
 10
27.9774
 20
-8.53053
 11
29.2274
 21
-7.62234
  0
LINE
  8
0
 10
29.2274
 20
-7.62234
 11
30.7725
 21
-7.62234
  0
LINE
  8
0
 10
30.7725
 20
-7.62234
 11
32.0225
 21
-8.53053
  0
LINE
  8
0
 10
32.0225
 20
-8.53053
 11
32.5
 21
-10
  0
LINE
  8
0
 10
32.5
 20
-10
 11
32.0225
 21
-11.4695
  0
LINE
  8
0
 10
32.0225
 20
-11.4695
 11
30.7725
 21
-12.3776
  0
LINE
  8
0
 10
30.7725
 20
-12.3776
 11
29.2274
 21
-12.3776
  0
ENDSEC
  0
SECTION
  2
OBJECTS
  0
DICTIONARY
  0
ENDSEC
  0
EOF
