  0
SECTION
  2
BLOCKS
  0
ENDSEC
  0
SECTION
  2
ENTITIES
  0
LINE
  8
0
 10
-22.5
 20
-22.5
 11
-15
 21
-22.5
  0
LINE
  8
0
 10
-15
 20
-22.5
 11
-15
 21
-27.5
  0
LINE
  8
0
 10
-15
 20
-27.5
 11
15
 21
-27.5
  0
LINE
  8
0
 10
15
 20
-27.5
 11
15
 21
-22.5
  0
LINE
  8
0
 10
15
 20
-22.5
 11
22.5
 21
-22.5
  0
LINE
  8
0
 10
22.5
 20
-22.5
 11
22.5
 21
22.5
  0
LINE
  8
0
 10
22.5
 20
22.5
 11
15
 21
22.5
  0
LINE
  8
0
 10
15
 20
22.5
 11
15
 21
27.5
  0
LINE
  8
0
 10
15
 20
27.5
 11
-15
 21
27.5
  0
LINE
  8
0
 10
-15
 20
27.5
 11
-15
 21
22.5
  0
LINE
  8
0
 10
-15
 20
22.5
 11
-22.5
 21
22.5
  0
LINE
  8
0
 10
-22.5
 20
22.5
 11
-22.5
 21
-22.5
  0
LINE
  8
0
 10
-0.156967
 20
-2.49506
 11
-0.468445
 21
-2.4557
  0
LINE
  8
0
 10
-0.468445
 20
-2.4557
 11
-0.772537
 21
-2.37764
  0
LINE
  8
0
 10
-0.772537
 20
-2.37764
 11
-1.06444
 21
-2.26205
  0
LINE
  8
0
 10
-1.06444
 20
-2.26205
 11
-1.33955
 21
-2.11081
  0
LINE
  8
0
 10
-1.33955
 20
-2.11081
 11
-1.59355
 21
-1.92627
  0
LINE
  8
0
 10
-1.59355
 20
-1.92627
 11
-1.82242
 21
-1.71136
  0
LINE
  8
0
 10
-1.82242
 20
-1.71136
 11
-2.02254
 21
-1.46945
  0
LINE
  8
0
 10
-2.02254
 20
-1.46945
 11
-2.19077
 21
-1.20438
  0
LINE
  8
0
 10
-2.19077
 20
-1.20438
 11
-2.32443
 21
-0.920303
  0
LINE
  8
0
 10
-2.32443
 20
-0.920303
 11
-2.42145
 21
-0.621719
  0
LINE
  8
0
 10
-2.42145
 20
-0.621719
 11
-2.48029
 21
-0.313324
  0
LINE
  8
0
 10
-2.48029
 20
-0.313324
 11
-2.5
 21
0
  0
LINE
  8
0
 10
-2.5
 20
0
 11
-2.48029
 21
0.313324
  0
LINE
  8
0
 10
-2.48029
 20
0.313324
 11
-2.42145
 21
0.621719
  0
LINE
  8
0
 10
-2.42145
 20
0.621719
 11
-2.32443
 21
0.920303
  0
LINE
  8
0
 10
-2.32443
 20
0.920303
 11
-2.19077
 21
1.20438
  0
LINE
  8
0
 10
-2.19077
 20
1.20438
 11
-2.02254
 21
1.46945
  0
LINE
  8
0
 10
-2.02254
 20
1.46945
 11
-1.82242
 21
1.71136
  0
LINE
  8
0
 10
-1.82242
 20
1.71136
 11
-1.59355
 21
1.92627
  0
LINE
  8
0
 10
-1.59355
 20
1.92627
 11
-1.33955
 21
2.11081
  0
LINE
  8
0
 10
-1.33955
 20
2.11081
 11
-1.06444
 21
2.26205
  0
LINE
  8
0
 10
-1.06444
 20
2.26205
 11
-0.772537
 21
2.37764
  0
LINE
  8
0
 10
-0.772537
 20
2.37764
 11
-0.468445
 21
2.4557
  0
LINE
  8
0
 10
-0.468445
 20
2.4557
 11
-0.156967
 21
2.49506
  0
LINE
  8
0
 10
-0.156967
 20
2.49506
 11
0.156967
 21
2.49506
  0
LINE
  8
0
 10
0.156967
 20
2.49506
 11
0.468445
 21
2.4557
  0
LINE
  8
0
 10
0.468445
 20
2.4557
 11
0.772537
 21
2.37764
  0
LINE
  8
0
 10
0.772537
 20
2.37764
 11
1.06444
 21
2.26205
  0
LINE
  8
0
 10
1.06444
 20
2.26205
 11
1.33955
 21
2.11081
  0
LINE
  8
0
 10
1.33955
 20
2.11081
 11
1.59355
 21
1.92627
  0
LINE
  8
0
 10
1.59355
 20
1.92627
 11
1.82242
 21
1.71136
  0
LINE
  8
0
 10
1.82242
 20
1.71136
 11
2.02254
 21
1.46945
  0
LINE
  8
0
 10
2.02254
 20
1.46945
 11
2.19077
 21
1.20438
  0
LINE
  8
0
 10
2.19077
 20
1.20438
 11
2.32443
 21
0.920303
  0
LINE
  8
0
 10
2.32443
 20
0.920303
 11
2.42145
 21
0.621719
  0
LINE
  8
0
 10
2.42145
 20
0.621719
 11
2.48029
 21
0.313324
  0
LINE
  8
0
 10
2.48029
 20
0.313324
 11
2.5
 21
0
  0
LINE
  8
0
 10
2.5
 20
0
 11
2.48029
 21
-0.313324
  0
LINE
  8
0
 10
2.48029
 20
-0.313324
 11
2.42145
 21
-0.621719
  0
LINE
  8
0
 10
2.42145
 20
-0.621719
 11
2.32443
 21
-0.920303
  0
LINE
  8
0
 10
2.32443
 20
-0.920303
 11
2.19077
 21
-1.20438
  0
LINE
  8
0
 10
2.19077
 20
-1.20438
 11
2.02254
 21
-1.46945
  0
LINE
  8
0
 10
2.02254
 20
-1.46945
 11
1.82242
 21
-1.71136
  0
LINE
  8
0
 10
1.82242
 20
-1.71136
 11
1.59355
 21
-1.92627
  0
LINE
  8
0
 10
1.59355
 20
-1.92627
 11
1.33955
 21
-2.11081
  0
LINE
  8
0
 10
1.33955
 20
-2.11081
 11
1.06444
 21
-2.26205
  0
LINE
  8
0
 10
1.06444
 20
-2.26205
 11
0.772537
 21
-2.37764
  0
LINE
  8
0
 10
0.772537
 20
-2.37764
 11
0.468445
 21
-2.4557
  0
LINE
  8
0
 10
0.468445
 20
-2.4557
 11
0.156967
 21
-2.49506
  0
LINE
  8
0
 10
0.156967
 20
-2.49506
 11
-0.156967
 21
-2.49506
  0
ENDSEC
  0
SECTION
  2
OBJECTS
  0
DICTIONARY
  0
ENDSEC
  0
EOF
