  0
SECTION
  2
BLOCKS
  0
ENDSEC
  0
SECTION
  2
ENTITIES
  0
LINE
  8
0
 10
-22.5
 20
-22.5
 11
-15
 21
-22.5
  0
LINE
  8
0
 10
-15
 20
-22.5
 11
-15
 21
-27.5
  0
LINE
  8
0
 10
-15
 20
-27.5
 11
15
 21
-27.5
  0
LINE
  8
0
 10
15
 20
-27.5
 11
15
 21
-22.5
  0
LINE
  8
0
 10
15
 20
-22.5
 11
22.5
 21
-22.5
  0
LINE
  8
0
 10
22.5
 20
-22.5
 11
22.5
 21
22.5
  0
LINE
  8
0
 10
22.5
 20
22.5
 11
15
 21
22.5
  0
LINE
  8
0
 10
15
 20
22.5
 11
15
 21
27.5
  0
LINE
  8
0
 10
15
 20
27.5
 11
-15
 21
27.5
  0
LINE
  8
0
 10
-15
 20
27.5
 11
-15
 21
22.5
  0
LINE
  8
0
 10
-15
 20
22.5
 11
-22.5
 21
22.5
  0
LINE
  8
0
 10
-22.5
 20
22.5
 11
-22.5
 21
-22.5
  0
LINE
  8
0
 10
-15.688
 20
13.0118
 11
-15.873
 21
13.0471
  0
LINE
  8
0
 10
-15.873
 20
13.0471
 11
-16.0522
 21
13.1053
  0
LINE
  8
0
 10
-16.0522
 20
13.1053
 11
-16.2226
 21
13.1855
  0
LINE
  8
0
 10
-16.2226
 20
13.1855
 11
-16.3817
 21
13.2865
  0
LINE
  8
0
 10
-16.3817
 20
13.2865
 11
-16.5268
 21
13.4066
  0
LINE
  8
0
 10
-16.5268
 20
13.4066
 11
-16.6558
 21
13.5439
  0
LINE
  8
0
 10
-16.6558
 20
13.5439
 11
-16.7665
 21
13.6963
  0
LINE
  8
0
 10
-16.7665
 20
13.6963
 11
-16.8572
 21
13.8613
  0
LINE
  8
0
 10
-16.8572
 20
13.8613
 11
-16.9266
 21
14.0365
  0
LINE
  8
0
 10
-16.9266
 20
14.0365
 11
-16.9734
 21
14.2189
  0
LINE
  8
0
 10
-16.9734
 20
14.2189
 11
-16.997
 21
14.4058
  0
LINE
  8
0
 10
-16.997
 20
14.4058
 11
-16.997
 21
16.5942
  0
LINE
  8
0
 10
-16.997
 20
16.5942
 11
-16.9734
 21
16.7811
  0
LINE
  8
0
 10
-16.9734
 20
16.7811
 11
-16.9266
 21
16.9635
  0
LINE
  8
0
 10
-16.9266
 20
16.9635
 11
-16.8572
 21
17.1387
  0
LINE
  8
0
 10
-16.8572
 20
17.1387
 11
-16.7665
 21
17.3037
  0
LINE
  8
0
 10
-16.7665
 20
17.3037
 11
-16.6558
 21
17.4561
  0
LINE
  8
0
 10
-16.6558
 20
17.4561
 11
-16.5268
 21
17.5934
  0
LINE
  8
0
 10
-16.5268
 20
17.5934
 11
-16.3817
 21
17.7135
  0
LINE
  8
0
 10
-16.3817
 20
17.7135
 11
-16.2226
 21
17.8145
  0
LINE
  8
0
 10
-16.2226
 20
17.8145
 11
-16.0522
 21
17.8947
  0
LINE
  8
0
 10
-16.0522
 20
17.8947
 11
-15.873
 21
17.9529
  0
LINE
  8
0
 10
-15.873
 20
17.9529
 11
-15.688
 21
17.9882
  0
LINE
  8
0
 10
-15.688
 20
17.9882
 11
-15.5
 21
18
  0
LINE
  8
0
 10
-15.5
 20
18
 11
-15.312
 21
17.9882
  0
LINE
  8
0
 10
-15.312
 20
17.9882
 11
-15.127
 21
17.9529
  0
LINE
  8
0
 10
-15.127
 20
17.9529
 11
-14.9478
 21
17.8947
  0
LINE
  8
0
 10
-14.9478
 20
17.8947
 11
-14.7774
 21
17.8145
  0
LINE
  8
0
 10
-14.7774
 20
17.8145
 11
-14.6183
 21
17.7135
  0
LINE
  8
0
 10
-14.6183
 20
17.7135
 11
-14.4732
 21
17.5934
  0
LINE
  8
0
 10
-14.4732
 20
17.5934
 11
-14.3442
 21
17.4561
  0
LINE
  8
0
 10
-14.3442
 20
17.4561
 11
-14.2335
 21
17.3037
  0
LINE
  8
0
 10
-14.2335
 20
17.3037
 11
-14.1428
 21
17.1387
  0
LINE
  8
0
 10
-14.1428
 20
17.1387
 11
-14.0734
 21
16.9635
  0
LINE
  8
0
 10
-14.0734
 20
16.9635
 11
-14.0266
 21
16.7811
  0
LINE
  8
0
 10
-14.0266
 20
16.7811
 11
-14.003
 21
16.5942
  0
LINE
  8
0
 10
-14.003
 20
16.5942
 11
-14.003
 21
14.4058
  0
LINE
  8
0
 10
-14.003
 20
14.4058
 11
-14.0266
 21
14.2189
  0
LINE
  8
0
 10
-14.0266
 20
14.2189
 11
-14.0734
 21
14.0365
  0
LINE
  8
0
 10
-14.0734
 20
14.0365
 11
-14.1428
 21
13.8613
  0
LINE
  8
0
 10
-14.1428
 20
13.8613
 11
-14.2335
 21
13.6963
  0
LINE
  8
0
 10
-14.2335
 20
13.6963
 11
-14.3442
 21
13.5439
  0
LINE
  8
0
 10
-14.3442
 20
13.5439
 11
-14.4732
 21
13.4066
  0
LINE
  8
0
 10
-14.4732
 20
13.4066
 11
-14.6183
 21
13.2865
  0
LINE
  8
0
 10
-14.6183
 20
13.2865
 11
-14.7774
 21
13.1855
  0
LINE
  8
0
 10
-14.7774
 20
13.1855
 11
-14.9478
 21
13.1053
  0
LINE
  8
0
 10
-14.9478
 20
13.1053
 11
-15.127
 21
13.0471
  0
LINE
  8
0
 10
-15.127
 20
13.0471
 11
-15.312
 21
13.0118
  0
LINE
  8
0
 10
-15.312
 20
13.0118
 11
-15.5
 21
13
  0
LINE
  8
0
 10
-15.5
 20
13
 11
-15.688
 21
13.0118
  0
LINE
  8
0
 10
15.312
 20
13.0118
 11
15.127
 21
13.0471
  0
LINE
  8
0
 10
15.127
 20
13.0471
 11
14.9478
 21
13.1053
  0
LINE
  8
0
 10
14.9478
 20
13.1053
 11
14.7774
 21
13.1855
  0
LINE
  8
0
 10
14.7774
 20
13.1855
 11
14.6183
 21
13.2865
  0
LINE
  8
0
 10
14.6183
 20
13.2865
 11
14.4732
 21
13.4066
  0
LINE
  8
0
 10
14.4732
 20
13.4066
 11
14.3442
 21
13.5439
  0
LINE
  8
0
 10
14.3442
 20
13.5439
 11
14.2335
 21
13.6963
  0
LINE
  8
0
 10
14.2335
 20
13.6963
 11
14.1428
 21
13.8613
  0
LINE
  8
0
 10
14.1428
 20
13.8613
 11
14.0734
 21
14.0365
  0
LINE
  8
0
 10
14.0734
 20
14.0365
 11
14.0266
 21
14.2189
  0
LINE
  8
0
 10
14.0266
 20
14.2189
 11
14.003
 21
14.4058
  0
LINE
  8
0
 10
14.003
 20
14.4058
 11
14.003
 21
16.5942
  0
LINE
  8
0
 10
14.003
 20
16.5942
 11
14.0266
 21
16.7811
  0
LINE
  8
0
 10
14.0266
 20
16.7811
 11
14.0734
 21
16.9635
  0
LINE
  8
0
 10
14.0734
 20
16.9635
 11
14.1428
 21
17.1387
  0
LINE
  8
0
 10
14.1428
 20
17.1387
 11
14.2335
 21
17.3037
  0
LINE
  8
0
 10
14.2335
 20
17.3037
 11
14.3442
 21
17.4561
  0
LINE
  8
0
 10
14.3442
 20
17.4561
 11
14.4732
 21
17.5934
  0
LINE
  8
0
 10
14.4732
 20
17.5934
 11
14.6183
 21
17.7135
  0
LINE
  8
0
 10
14.6183
 20
17.7135
 11
14.7774
 21
17.8145
  0
LINE
  8
0
 10
14.7774
 20
17.8145
 11
14.9478
 21
17.8947
  0
LINE
  8
0
 10
14.9478
 20
17.8947
 11
15.127
 21
17.9529
  0
LINE
  8
0
 10
15.127
 20
17.9529
 11
15.312
 21
17.9882
  0
LINE
  8
0
 10
15.312
 20
17.9882
 11
15.5
 21
18
  0
LINE
  8
0
 10
15.5
 20
18
 11
15.688
 21
17.9882
  0
LINE
  8
0
 10
15.688
 20
17.9882
 11
15.873
 21
17.9529
  0
LINE
  8
0
 10
15.873
 20
17.9529
 11
16.0522
 21
17.8947
  0
LINE
  8
0
 10
16.0522
 20
17.8947
 11
16.2226
 21
17.8145
  0
LINE
  8
0
 10
16.2226
 20
17.8145
 11
16.3817
 21
17.7135
  0
LINE
  8
0
 10
16.3817
 20
17.7135
 11
16.5268
 21
17.5934
  0
LINE
  8
0
 10
16.5268
 20
17.5934
 11
16.6558
 21
17.4561
  0
LINE
  8
0
 10
16.6558
 20
17.4561
 11
16.7665
 21
17.3037
  0
LINE
  8
0
 10
16.7665
 20
17.3037
 11
16.8572
 21
17.1387
  0
LINE
  8
0
 10
16.8572
 20
17.1387
 11
16.9266
 21
16.9635
  0
LINE
  8
0
 10
16.9266
 20
16.9635
 11
16.9734
 21
16.7811
  0
LINE
  8
0
 10
16.9734
 20
16.7811
 11
16.997
 21
16.5942
  0
LINE
  8
0
 10
16.997
 20
16.5942
 11
16.997
 21
14.4058
  0
LINE
  8
0
 10
16.997
 20
14.4058
 11
16.9734
 21
14.2189
  0
LINE
  8
0
 10
16.9734
 20
14.2189
 11
16.9266
 21
14.0365
  0
LINE
  8
0
 10
16.9266
 20
14.0365
 11
16.8572
 21
13.8613
  0
LINE
  8
0
 10
16.8572
 20
13.8613
 11
16.7665
 21
13.6963
  0
LINE
  8
0
 10
16.7665
 20
13.6963
 11
16.6558
 21
13.5439
  0
LINE
  8
0
 10
16.6558
 20
13.5439
 11
16.5268
 21
13.4066
  0
LINE
  8
0
 10
16.5268
 20
13.4066
 11
16.3817
 21
13.2865
  0
LINE
  8
0
 10
16.3817
 20
13.2865
 11
16.2226
 21
13.1855
  0
LINE
  8
0
 10
16.2226
 20
13.1855
 11
16.0522
 21
13.1053
  0
LINE
  8
0
 10
16.0522
 20
13.1053
 11
15.873
 21
13.0471
  0
LINE
  8
0
 10
15.873
 20
13.0471
 11
15.688
 21
13.0118
  0
LINE
  8
0
 10
15.688
 20
13.0118
 11
15.5
 21
13
  0
LINE
  8
0
 10
15.5
 20
13
 11
15.312
 21
13.0118
  0
LINE
  8
0
 10
-1.37866
 20
-11.9133
 11
-2.73558
 21
-11.6544
  0
LINE
  8
0
 10
-2.73558
 20
-11.6544
 11
-4.04936
 21
-11.2275
  0
LINE
  8
0
 10
-4.04936
 20
-11.2275
 11
-5.29929
 21
-10.6394
  0
LINE
  8
0
 10
-5.29929
 20
-10.6394
 11
-6.46564
 21
-9.89919
  0
LINE
  8
0
 10
-6.46564
 20
-9.89919
 11
-7.53001
 21
-9.01865
  0
LINE
  8
0
 10
-7.53001
 20
-9.01865
 11
-8.47563
 21
-8.01166
  0
LINE
  8
0
 10
-8.47563
 20
-8.01166
 11
-9.2876
 21
-6.89409
  0
LINE
  8
0
 10
-9.2876
 20
-6.89409
 11
-9.95309
 21
-5.68356
  0
LINE
  8
0
 10
-9.95309
 20
-5.68356
 11
-10.4616
 21
-4.39919
  0
LINE
  8
0
 10
-10.4616
 20
-4.39919
 11
-10.8051
 21
-3.06119
  0
LINE
  8
0
 10
-10.8051
 20
-3.06119
 11
-10.9783
 21
-1.69069
  0
LINE
  8
0
 10
-10.9783
 20
-1.69069
 11
-10.9783
 21
1.69069
  0
LINE
  8
0
 10
-10.9783
 20
1.69069
 11
-10.8051
 21
3.06119
  0
LINE
  8
0
 10
-10.8051
 20
3.06119
 11
-10.4616
 21
4.39919
  0
LINE
  8
0
 10
-10.4616
 20
4.39919
 11
-9.95309
 21
5.68356
  0
LINE
  8
0
 10
-9.95309
 20
5.68356
 11
-9.2876
 21
6.89409
  0
LINE
  8
0
 10
-9.2876
 20
6.89409
 11
-8.47563
 21
8.01166
  0
LINE
  8
0
 10
-8.47563
 20
8.01166
 11
-7.53001
 21
9.01865
  0
LINE
  8
0
 10
-7.53001
 20
9.01865
 11
-6.46564
 21
9.89919
  0
LINE
  8
0
 10
-6.46564
 20
9.89919
 11
-5.29929
 21
10.6394
  0
LINE
  8
0
 10
-5.29929
 20
10.6394
 11
-4.04936
 21
11.2275
  0
LINE
  8
0
 10
-4.04936
 20
11.2275
 11
-2.73558
 21
11.6544
  0
LINE
  8
0
 10
-2.73558
 20
11.6544
 11
-1.37866
 21
11.9133
  0
LINE
  8
0
 10
-1.37866
 20
11.9133
 11
0
 21
12
  0
LINE
  8
0
 10
0
 20
12
 11
1.37866
 21
11.9133
  0
LINE
  8
0
 10
1.37866
 20
11.9133
 11
2.73558
 21
11.6544
  0
LINE
  8
0
 10
2.73558
 20
11.6544
 11
4.04936
 21
11.2275
  0
LINE
  8
0
 10
4.04936
 20
11.2275
 11
5.29929
 21
10.6394
  0
LINE
  8
0
 10
5.29929
 20
10.6394
 11
6.46564
 21
9.89919
  0
LINE
  8
0
 10
6.46564
 20
9.89919
 11
7.53001
 21
9.01865
  0
LINE
  8
0
 10
7.53001
 20
9.01865
 11
8.47563
 21
8.01166
  0
LINE
  8
0
 10
8.47563
 20
8.01166
 11
9.2876
 21
6.89409
  0
LINE
  8
0
 10
9.2876
 20
6.89409
 11
9.95309
 21
5.68356
  0
LINE
  8
0
 10
9.95309
 20
5.68356
 11
10.4616
 21
4.39919
  0
LINE
  8
0
 10
10.4616
 20
4.39919
 11
10.8051
 21
3.06119
  0
LINE
  8
0
 10
10.8051
 20
3.06119
 11
10.9783
 21
1.69069
  0
LINE
  8
0
 10
10.9783
 20
1.69069
 11
10.9783
 21
-1.69069
  0
LINE
  8
0
 10
10.9783
 20
-1.69069
 11
10.8051
 21
-3.06119
  0
LINE
  8
0
 10
10.8051
 20
-3.06119
 11
10.4616
 21
-4.39919
  0
LINE
  8
0
 10
10.4616
 20
-4.39919
 11
9.95309
 21
-5.68356
  0
LINE
  8
0
 10
9.95309
 20
-5.68356
 11
9.2876
 21
-6.89409
  0
LINE
  8
0
 10
9.2876
 20
-6.89409
 11
8.47563
 21
-8.01166
  0
LINE
  8
0
 10
8.47563
 20
-8.01166
 11
7.53001
 21
-9.01865
  0
LINE
  8
0
 10
7.53001
 20
-9.01865
 11
6.46564
 21
-9.89919
  0
LINE
  8
0
 10
6.46564
 20
-9.89919
 11
5.29929
 21
-10.6394
  0
LINE
  8
0
 10
5.29929
 20
-10.6394
 11
4.04936
 21
-11.2275
  0
LINE
  8
0
 10
4.04936
 20
-11.2275
 11
2.73558
 21
-11.6544
  0
LINE
  8
0
 10
2.73558
 20
-11.6544
 11
1.37866
 21
-11.9133
  0
LINE
  8
0
 10
1.37866
 20
-11.9133
 11
0
 21
-12
  0
LINE
  8
0
 10
0
 20
-12
 11
-1.37866
 21
-11.9133
  0
LINE
  8
0
 10
-15.688
 20
-17.9882
 11
-15.873
 21
-17.9529
  0
LINE
  8
0
 10
-15.873
 20
-17.9529
 11
-16.0522
 21
-17.8947
  0
LINE
  8
0
 10
-16.0522
 20
-17.8947
 11
-16.2226
 21
-17.8145
  0
LINE
  8
0
 10
-16.2226
 20
-17.8145
 11
-16.3817
 21
-17.7135
  0
LINE
  8
0
 10
-16.3817
 20
-17.7135
 11
-16.5268
 21
-17.5934
  0
LINE
  8
0
 10
-16.5268
 20
-17.5934
 11
-16.6558
 21
-17.4561
  0
LINE
  8
0
 10
-16.6558
 20
-17.4561
 11
-16.7665
 21
-17.3037
  0
LINE
  8
0
 10
-16.7665
 20
-17.3037
 11
-16.8572
 21
-17.1387
  0
LINE
  8
0
 10
-16.8572
 20
-17.1387
 11
-16.9266
 21
-16.9635
  0
LINE
  8
0
 10
-16.9266
 20
-16.9635
 11
-16.9734
 21
-16.7811
  0
LINE
  8
0
 10
-16.9734
 20
-16.7811
 11
-16.997
 21
-16.5942
  0
LINE
  8
0
 10
-16.997
 20
-16.5942
 11
-16.997
 21
-14.4058
  0
LINE
  8
0
 10
-16.997
 20
-14.4058
 11
-16.9734
 21
-14.2189
  0
LINE
  8
0
 10
-16.9734
 20
-14.2189
 11
-16.9266
 21
-14.0365
  0
LINE
  8
0
 10
-16.9266
 20
-14.0365
 11
-16.8572
 21
-13.8613
  0
LINE
  8
0
 10
-16.8572
 20
-13.8613
 11
-16.7665
 21
-13.6963
  0
LINE
  8
0
 10
-16.7665
 20
-13.6963
 11
-16.6558
 21
-13.5439
  0
LINE
  8
0
 10
-16.6558
 20
-13.5439
 11
-16.5268
 21
-13.4066
  0
LINE
  8
0
 10
-16.5268
 20
-13.4066
 11
-16.3817
 21
-13.2865
  0
LINE
  8
0
 10
-16.3817
 20
-13.2865
 11
-16.2226
 21
-13.1855
  0
LINE
  8
0
 10
-16.2226
 20
-13.1855
 11
-16.0522
 21
-13.1053
  0
LINE
  8
0
 10
-16.0522
 20
-13.1053
 11
-15.873
 21
-13.0471
  0
LINE
  8
0
 10
-15.873
 20
-13.0471
 11
-15.688
 21
-13.0118
  0
LINE
  8
0
 10
-15.688
 20
-13.0118
 11
-15.5
 21
-13
  0
LINE
  8
0
 10
-15.5
 20
-13
 11
-15.312
 21
-13.0118
  0
LINE
  8
0
 10
-15.312
 20
-13.0118
 11
-15.127
 21
-13.0471
  0
LINE
  8
0
 10
-15.127
 20
-13.0471
 11
-14.9478
 21
-13.1053
  0
LINE
  8
0
 10
-14.9478
 20
-13.1053
 11
-14.7774
 21
-13.1855
  0
LINE
  8
0
 10
-14.7774
 20
-13.1855
 11
-14.6183
 21
-13.2865
  0
LINE
  8
0
 10
-14.6183
 20
-13.2865
 11
-14.4732
 21
-13.4066
  0
LINE
  8
0
 10
-14.4732
 20
-13.4066
 11
-14.3442
 21
-13.5439
  0
LINE
  8
0
 10
-14.3442
 20
-13.5439
 11
-14.2335
 21
-13.6963
  0
LINE
  8
0
 10
-14.2335
 20
-13.6963
 11
-14.1428
 21
-13.8613
  0
LINE
  8
0
 10
-14.1428
 20
-13.8613
 11
-14.0734
 21
-14.0365
  0
LINE
  8
0
 10
-14.0734
 20
-14.0365
 11
-14.0266
 21
-14.2189
  0
LINE
  8
0
 10
-14.0266
 20
-14.2189
 11
-14.003
 21
-14.4058
  0
LINE
  8
0
 10
-14.003
 20
-14.4058
 11
-14.003
 21
-16.5942
  0
LINE
  8
0
 10
-14.003
 20
-16.5942
 11
-14.0266
 21
-16.7811
  0
LINE
  8
0
 10
-14.0266
 20
-16.7811
 11
-14.0734
 21
-16.9635
  0
LINE
  8
0
 10
-14.0734
 20
-16.9635
 11
-14.1428
 21
-17.1387
  0
LINE
  8
0
 10
-14.1428
 20
-17.1387
 11
-14.2335
 21
-17.3037
  0
LINE
  8
0
 10
-14.2335
 20
-17.3037
 11
-14.3442
 21
-17.4561
  0
LINE
  8
0
 10
-14.3442
 20
-17.4561
 11
-14.4732
 21
-17.5934
  0
LINE
  8
0
 10
-14.4732
 20
-17.5934
 11
-14.6183
 21
-17.7135
  0
LINE
  8
0
 10
-14.6183
 20
-17.7135
 11
-14.7774
 21
-17.8145
  0
LINE
  8
0
 10
-14.7774
 20
-17.8145
 11
-14.9478
 21
-17.8947
  0
LINE
  8
0
 10
-14.9478
 20
-17.8947
 11
-15.127
 21
-17.9529
  0
LINE
  8
0
 10
-15.127
 20
-17.9529
 11
-15.312
 21
-17.9882
  0
LINE
  8
0
 10
-15.312
 20
-17.9882
 11
-15.5
 21
-18
  0
LINE
  8
0
 10
-15.5
 20
-18
 11
-15.688
 21
-17.9882
  0
LINE
  8
0
 10
15.312
 20
-17.9882
 11
15.127
 21
-17.9529
  0
LINE
  8
0
 10
15.127
 20
-17.9529
 11
14.9478
 21
-17.8947
  0
LINE
  8
0
 10
14.9478
 20
-17.8947
 11
14.7774
 21
-17.8145
  0
LINE
  8
0
 10
14.7774
 20
-17.8145
 11
14.6183
 21
-17.7135
  0
LINE
  8
0
 10
14.6183
 20
-17.7135
 11
14.4732
 21
-17.5934
  0
LINE
  8
0
 10
14.4732
 20
-17.5934
 11
14.3442
 21
-17.4561
  0
LINE
  8
0
 10
14.3442
 20
-17.4561
 11
14.2335
 21
-17.3037
  0
LINE
  8
0
 10
14.2335
 20
-17.3037
 11
14.1428
 21
-17.1387
  0
LINE
  8
0
 10
14.1428
 20
-17.1387
 11
14.0734
 21
-16.9635
  0
LINE
  8
0
 10
14.0734
 20
-16.9635
 11
14.0266
 21
-16.7811
  0
LINE
  8
0
 10
14.0266
 20
-16.7811
 11
14.003
 21
-16.5942
  0
LINE
  8
0
 10
14.003
 20
-16.5942
 11
14.003
 21
-14.4058
  0
LINE
  8
0
 10
14.003
 20
-14.4058
 11
14.0266
 21
-14.2189
  0
LINE
  8
0
 10
14.0266
 20
-14.2189
 11
14.0734
 21
-14.0365
  0
LINE
  8
0
 10
14.0734
 20
-14.0365
 11
14.1428
 21
-13.8613
  0
LINE
  8
0
 10
14.1428
 20
-13.8613
 11
14.2335
 21
-13.6963
  0
LINE
  8
0
 10
14.2335
 20
-13.6963
 11
14.3442
 21
-13.5439
  0
LINE
  8
0
 10
14.3442
 20
-13.5439
 11
14.4732
 21
-13.4066
  0
LINE
  8
0
 10
14.4732
 20
-13.4066
 11
14.6183
 21
-13.2865
  0
LINE
  8
0
 10
14.6183
 20
-13.2865
 11
14.7774
 21
-13.1855
  0
LINE
  8
0
 10
14.7774
 20
-13.1855
 11
14.9478
 21
-13.1053
  0
LINE
  8
0
 10
14.9478
 20
-13.1053
 11
15.127
 21
-13.0471
  0
LINE
  8
0
 10
15.127
 20
-13.0471
 11
15.312
 21
-13.0118
  0
LINE
  8
0
 10
15.312
 20
-13.0118
 11
15.5
 21
-13
  0
LINE
  8
0
 10
15.5
 20
-13
 11
15.688
 21
-13.0118
  0
LINE
  8
0
 10
15.688
 20
-13.0118
 11
15.873
 21
-13.0471
  0
LINE
  8
0
 10
15.873
 20
-13.0471
 11
16.0522
 21
-13.1053
  0
LINE
  8
0
 10
16.0522
 20
-13.1053
 11
16.2226
 21
-13.1855
  0
LINE
  8
0
 10
16.2226
 20
-13.1855
 11
16.3817
 21
-13.2865
  0
LINE
  8
0
 10
16.3817
 20
-13.2865
 11
16.5268
 21
-13.4066
  0
LINE
  8
0
 10
16.5268
 20
-13.4066
 11
16.6558
 21
-13.5439
  0
LINE
  8
0
 10
16.6558
 20
-13.5439
 11
16.7665
 21
-13.6963
  0
LINE
  8
0
 10
16.7665
 20
-13.6963
 11
16.8572
 21
-13.8613
  0
LINE
  8
0
 10
16.8572
 20
-13.8613
 11
16.9266
 21
-14.0365
  0
LINE
  8
0
 10
16.9266
 20
-14.0365
 11
16.9734
 21
-14.2189
  0
LINE
  8
0
 10
16.9734
 20
-14.2189
 11
16.997
 21
-14.4058
  0
LINE
  8
0
 10
16.997
 20
-14.4058
 11
16.997
 21
-16.5942
  0
LINE
  8
0
 10
16.997
 20
-16.5942
 11
16.9734
 21
-16.7811
  0
LINE
  8
0
 10
16.9734
 20
-16.7811
 11
16.9266
 21
-16.9635
  0
LINE
  8
0
 10
16.9266
 20
-16.9635
 11
16.8572
 21
-17.1387
  0
LINE
  8
0
 10
16.8572
 20
-17.1387
 11
16.7665
 21
-17.3037
  0
LINE
  8
0
 10
16.7665
 20
-17.3037
 11
16.6558
 21
-17.4561
  0
LINE
  8
0
 10
16.6558
 20
-17.4561
 11
16.5268
 21
-17.5934
  0
LINE
  8
0
 10
16.5268
 20
-17.5934
 11
16.3817
 21
-17.7135
  0
LINE
  8
0
 10
16.3817
 20
-17.7135
 11
16.2226
 21
-17.8145
  0
LINE
  8
0
 10
16.2226
 20
-17.8145
 11
16.0522
 21
-17.8947
  0
LINE
  8
0
 10
16.0522
 20
-17.8947
 11
15.873
 21
-17.9529
  0
LINE
  8
0
 10
15.873
 20
-17.9529
 11
15.688
 21
-17.9882
  0
LINE
  8
0
 10
15.688
 20
-17.9882
 11
15.5
 21
-18
  0
LINE
  8
0
 10
15.5
 20
-18
 11
15.312
 21
-17.9882
  0
ENDSEC
  0
SECTION
  2
OBJECTS
  0
DICTIONARY
  0
ENDSEC
  0
EOF
