  0
SECTION
  2
BLOCKS
  0
ENDSEC
  0
SECTION
  2
ENTITIES
  0
LINE
  8
0
 10
45
 20
50
 11
-45
 21
50
  0
LINE
  8
0
 10
-45
 20
50
 11
-45
 21
-50
  0
LINE
  8
0
 10
-45
 20
-50
 11
45
 21
-50
  0
LINE
  8
0
 10
45
 20
-50
 11
45
 21
50
  0
LINE
  8
0
 10
-0.486618
 20
-7.7347
 11
-1.45219
 21
-7.61272
  0
LINE
  8
0
 10
-1.45219
 20
-7.61272
 11
-2.39487
 21
-7.37068
  0
LINE
  8
0
 10
-2.39487
 20
-7.37068
 11
-3.29979
 21
-7.01241
  0
LINE
  8
0
 10
-3.29979
 20
-7.01241
 11
-4.15265
 21
-6.54353
  0
LINE
  8
0
 10
-4.15265
 20
-6.54353
 11
-4.94003
 21
-5.97147
  0
LINE
  8
0
 10
-4.94003
 20
-5.97147
 11
-5.64951
 21
-5.30524
  0
LINE
  8
0
 10
-5.64951
 20
-5.30524
 11
-6.26987
 21
-4.55533
  0
LINE
  8
0
 10
-6.26987
 20
-4.55533
 11
-6.79137
 21
-3.73358
  0
LINE
  8
0
 10
-6.79137
 20
-3.73358
 11
-7.20576
 21
-2.85295
  0
LINE
  8
0
 10
-7.20576
 20
-2.85295
 11
-7.50652
 21
-1.92734
  0
LINE
  8
0
 10
-7.50652
 20
-1.92734
 11
-7.68889
 21
-0.971329
  0
LINE
  8
0
 10
-7.68889
 20
-0.971329
 11
-7.75
 21
0
  0
LINE
  8
0
 10
-7.75
 20
0
 11
-7.68889
 21
0.971329
  0
LINE
  8
0
 10
-7.68889
 20
0.971329
 11
-7.50652
 21
1.92734
  0
LINE
  8
0
 10
-7.50652
 20
1.92734
 11
-7.20576
 21
2.85295
  0
LINE
  8
0
 10
-7.20576
 20
2.85295
 11
-6.79137
 21
3.73358
  0
LINE
  8
0
 10
-6.79137
 20
3.73358
 11
-6.26987
 21
4.55533
  0
LINE
  8
0
 10
-6.26987
 20
4.55533
 11
-5.64951
 21
5.30524
  0
LINE
  8
0
 10
-5.64951
 20
5.30524
 11
-4.94003
 21
5.97147
  0
LINE
  8
0
 10
-4.94003
 20
5.97147
 11
-4.15265
 21
6.54353
  0
LINE
  8
0
 10
-4.15265
 20
6.54353
 11
-3.29979
 21
7.01241
  0
LINE
  8
0
 10
-3.29979
 20
7.01241
 11
-2.39487
 21
7.37068
  0
LINE
  8
0
 10
-2.39487
 20
7.37068
 11
-1.45219
 21
7.61272
  0
LINE
  8
0
 10
-1.45219
 20
7.61272
 11
-0.486618
 21
7.7347
  0
LINE
  8
0
 10
-0.486618
 20
7.7347
 11
0.486618
 21
7.7347
  0
LINE
  8
0
 10
0.486618
 20
7.7347
 11
1.45219
 21
7.61272
  0
LINE
  8
0
 10
1.45219
 20
7.61272
 11
2.39487
 21
7.37068
  0
LINE
  8
0
 10
2.39487
 20
7.37068
 11
3.29979
 21
7.01241
  0
LINE
  8
0
 10
3.29979
 20
7.01241
 11
4.15265
 21
6.54353
  0
LINE
  8
0
 10
4.15265
 20
6.54353
 11
4.94003
 21
5.97147
  0
LINE
  8
0
 10
4.94003
 20
5.97147
 11
5.64951
 21
5.30524
  0
LINE
  8
0
 10
5.64951
 20
5.30524
 11
6.26987
 21
4.55533
  0
LINE
  8
0
 10
6.26987
 20
4.55533
 11
6.79137
 21
3.73358
  0
LINE
  8
0
 10
6.79137
 20
3.73358
 11
7.20576
 21
2.85295
  0
LINE
  8
0
 10
7.20576
 20
2.85295
 11
7.50652
 21
1.92734
  0
LINE
  8
0
 10
7.50652
 20
1.92734
 11
7.68889
 21
0.971329
  0
LINE
  8
0
 10
7.68889
 20
0.971329
 11
7.75
 21
0
  0
LINE
  8
0
 10
7.75
 20
0
 11
7.68889
 21
-0.971329
  0
LINE
  8
0
 10
7.68889
 20
-0.971329
 11
7.50652
 21
-1.92734
  0
LINE
  8
0
 10
7.50652
 20
-1.92734
 11
7.20576
 21
-2.85295
  0
LINE
  8
0
 10
7.20576
 20
-2.85295
 11
6.79137
 21
-3.73358
  0
LINE
  8
0
 10
6.79137
 20
-3.73358
 11
6.26987
 21
-4.55533
  0
LINE
  8
0
 10
6.26987
 20
-4.55533
 11
5.64951
 21
-5.30524
  0
LINE
  8
0
 10
5.64951
 20
-5.30524
 11
4.94003
 21
-5.97147
  0
LINE
  8
0
 10
4.94003
 20
-5.97147
 11
4.15265
 21
-6.54353
  0
LINE
  8
0
 10
4.15265
 20
-6.54353
 11
3.29979
 21
-7.01241
  0
LINE
  8
0
 10
3.29979
 20
-7.01241
 11
2.39487
 21
-7.37068
  0
LINE
  8
0
 10
2.39487
 20
-7.37068
 11
1.45219
 21
-7.61272
  0
LINE
  8
0
 10
1.45219
 20
-7.61272
 11
0.486618
 21
-7.7347
  0
LINE
  8
0
 10
0.486618
 20
-7.7347
 11
-0.486618
 21
-7.7347
  0
ENDSEC
  0
SECTION
  2
OBJECTS
  0
DICTIONARY
  0
ENDSEC
  0
EOF
