  0
SECTION
  2
BLOCKS
  0
ENDSEC
  0
SECTION
  2
ENTITIES
  0
LINE
  8
0
 10
-27.5
 20
-22.5
 11
-27.5
 21
-27.5
  0
LINE
  8
0
 10
-27.5
 20
-27.5
 11
27.5
 21
-27.5
  0
LINE
  8
0
 10
27.5
 20
-27.5
 11
27.5
 21
-22.5
  0
LINE
  8
0
 10
27.5
 20
-22.5
 11
32.5
 21
-22.5
  0
LINE
  8
0
 10
32.5
 20
-22.5
 11
32.5
 21
-27.5
  0
LINE
  8
0
 10
32.5
 20
-27.5
 11
37.5
 21
-27.5
  0
LINE
  8
0
 10
37.5
 20
-27.5
 11
37.5
 21
27.5
  0
LINE
  8
0
 10
37.5
 20
27.5
 11
32.5
 21
27.5
  0
LINE
  8
0
 10
32.5
 20
27.5
 11
32.5
 21
22.5
  0
LINE
  8
0
 10
32.5
 20
22.5
 11
27.5
 21
22.5
  0
LINE
  8
0
 10
27.5
 20
22.5
 11
27.5
 21
27.5
  0
LINE
  8
0
 10
27.5
 20
27.5
 11
-27.5
 21
27.5
  0
LINE
  8
0
 10
-27.5
 20
27.5
 11
-27.5
 21
22.5
  0
LINE
  8
0
 10
-27.5
 20
22.5
 11
-32.5
 21
22.5
  0
LINE
  8
0
 10
-32.5
 20
22.5
 11
-32.5
 21
27.5
  0
LINE
  8
0
 10
-32.5
 20
27.5
 11
-37.5
 21
27.5
  0
LINE
  8
0
 10
-37.5
 20
27.5
 11
-37.5
 21
-27.5
  0
LINE
  8
0
 10
-37.5
 20
-27.5
 11
-32.5
 21
-27.5
  0
LINE
  8
0
 10
-32.5
 20
-27.5
 11
-32.5
 21
-22.5
  0
LINE
  8
0
 10
-32.5
 20
-22.5
 11
-27.5
 21
-22.5
  0
LINE
  8
0
 10
-0.0941772
 20
23.5029
 11
-0.281067
 21
23.5266
  0
LINE
  8
0
 10
-0.281067
 20
23.5266
 11
-0.463516
 21
23.5734
  0
LINE
  8
0
 10
-0.463516
 20
23.5734
 11
-0.638657
 21
23.6427
  0
LINE
  8
0
 10
-0.638657
 20
23.6427
 11
-0.803726
 21
23.7335
  0
LINE
  8
0
 10
-0.803726
 20
23.7335
 11
-0.956131
 21
23.8442
  0
LINE
  8
0
 10
-0.956131
 20
23.8442
 11
-1.09344
 21
23.9732
  0
LINE
  8
0
 10
-1.09344
 20
23.9732
 11
-1.21352
 21
24.1183
  0
LINE
  8
0
 10
-1.21352
 20
24.1183
 11
-1.31445
 21
24.2774
  0
LINE
  8
0
 10
-1.31445
 20
24.2774
 11
-1.39465
 21
24.4478
  0
LINE
  8
0
 10
-1.39465
 20
24.4478
 11
-1.45287
 21
24.627
  0
LINE
  8
0
 10
-1.45287
 20
24.627
 11
-1.48816
 21
24.812
  0
LINE
  8
0
 10
-1.48816
 20
24.812
 11
-1.5
 21
25
  0
LINE
  8
0
 10
-1.5
 20
25
 11
-1.48816
 21
25.188
  0
LINE
  8
0
 10
-1.48816
 20
25.188
 11
-1.45287
 21
25.373
  0
LINE
  8
0
 10
-1.45287
 20
25.373
 11
-1.39465
 21
25.5522
  0
LINE
  8
0
 10
-1.39465
 20
25.5522
 11
-1.31445
 21
25.7226
  0
LINE
  8
0
 10
-1.31445
 20
25.7226
 11
-1.21352
 21
25.8817
  0
LINE
  8
0
 10
-1.21352
 20
25.8817
 11
-1.09344
 21
26.0268
  0
LINE
  8
0
 10
-1.09344
 20
26.0268
 11
-0.956131
 21
26.1558
  0
LINE
  8
0
 10
-0.956131
 20
26.1558
 11
-0.803726
 21
26.2665
  0
LINE
  8
0
 10
-0.803726
 20
26.2665
 11
-0.638657
 21
26.3572
  0
LINE
  8
0
 10
-0.638657
 20
26.3572
 11
-0.463516
 21
26.4266
  0
LINE
  8
0
 10
-0.463516
 20
26.4266
 11
-0.281067
 21
26.4734
  0
LINE
  8
0
 10
-0.281067
 20
26.4734
 11
-0.0941772
 21
26.497
  0
LINE
  8
0
 10
-0.0941772
 20
26.497
 11
0.0941772
 21
26.497
  0
LINE
  8
0
 10
0.0941772
 20
26.497
 11
0.281067
 21
26.4734
  0
LINE
  8
0
 10
0.281067
 20
26.4734
 11
0.463516
 21
26.4266
  0
LINE
  8
0
 10
0.463516
 20
26.4266
 11
0.638657
 21
26.3572
  0
LINE
  8
0
 10
0.638657
 20
26.3572
 11
0.803726
 21
26.2665
  0
LINE
  8
0
 10
0.803726
 20
26.2665
 11
0.956131
 21
26.1558
  0
LINE
  8
0
 10
0.956131
 20
26.1558
 11
1.09344
 21
26.0268
  0
LINE
  8
0
 10
1.09344
 20
26.0268
 11
1.21352
 21
25.8817
  0
LINE
  8
0
 10
1.21352
 20
25.8817
 11
1.31445
 21
25.7226
  0
LINE
  8
0
 10
1.31445
 20
25.7226
 11
1.39465
 21
25.5522
  0
LINE
  8
0
 10
1.39465
 20
25.5522
 11
1.45287
 21
25.373
  0
LINE
  8
0
 10
1.45287
 20
25.373
 11
1.48816
 21
25.188
  0
LINE
  8
0
 10
1.48816
 20
25.188
 11
1.5
 21
25
  0
LINE
  8
0
 10
1.5
 20
25
 11
1.48816
 21
24.812
  0
LINE
  8
0
 10
1.48816
 20
24.812
 11
1.45287
 21
24.627
  0
LINE
  8
0
 10
1.45287
 20
24.627
 11
1.39465
 21
24.4478
  0
LINE
  8
0
 10
1.39465
 20
24.4478
 11
1.31445
 21
24.2774
  0
LINE
  8
0
 10
1.31445
 20
24.2774
 11
1.21352
 21
24.1183
  0
LINE
  8
0
 10
1.21352
 20
24.1183
 11
1.09344
 21
23.9732
  0
LINE
  8
0
 10
1.09344
 20
23.9732
 11
0.956131
 21
23.8442
  0
LINE
  8
0
 10
0.956131
 20
23.8442
 11
0.803726
 21
23.7335
  0
LINE
  8
0
 10
0.803726
 20
23.7335
 11
0.638657
 21
23.6427
  0
LINE
  8
0
 10
0.638657
 20
23.6427
 11
0.463516
 21
23.5734
  0
LINE
  8
0
 10
0.463516
 20
23.5734
 11
0.281067
 21
23.5266
  0
LINE
  8
0
 10
0.281067
 20
23.5266
 11
0.0941772
 21
23.5029
  0
LINE
  8
0
 10
0.0941772
 20
23.5029
 11
-0.0941772
 21
23.5029
  0
LINE
  8
0
 10
-0.0941772
 20
-26.497
 11
-0.281067
 21
-26.4734
  0
LINE
  8
0
 10
-0.281067
 20
-26.4734
 11
-0.463516
 21
-26.4266
  0
LINE
  8
0
 10
-0.463516
 20
-26.4266
 11
-0.638657
 21
-26.3572
  0
LINE
  8
0
 10
-0.638657
 20
-26.3572
 11
-0.803726
 21
-26.2665
  0
LINE
  8
0
 10
-0.803726
 20
-26.2665
 11
-0.956131
 21
-26.1558
  0
LINE
  8
0
 10
-0.956131
 20
-26.1558
 11
-1.09344
 21
-26.0268
  0
LINE
  8
0
 10
-1.09344
 20
-26.0268
 11
-1.21352
 21
-25.8817
  0
LINE
  8
0
 10
-1.21352
 20
-25.8817
 11
-1.31445
 21
-25.7226
  0
LINE
  8
0
 10
-1.31445
 20
-25.7226
 11
-1.39465
 21
-25.5522
  0
LINE
  8
0
 10
-1.39465
 20
-25.5522
 11
-1.45287
 21
-25.373
  0
LINE
  8
0
 10
-1.45287
 20
-25.373
 11
-1.48816
 21
-25.188
  0
LINE
  8
0
 10
-1.48816
 20
-25.188
 11
-1.5
 21
-25
  0
LINE
  8
0
 10
-1.5
 20
-25
 11
-1.48816
 21
-24.812
  0
LINE
  8
0
 10
-1.48816
 20
-24.812
 11
-1.45287
 21
-24.627
  0
LINE
  8
0
 10
-1.45287
 20
-24.627
 11
-1.39465
 21
-24.4478
  0
LINE
  8
0
 10
-1.39465
 20
-24.4478
 11
-1.31445
 21
-24.2774
  0
LINE
  8
0
 10
-1.31445
 20
-24.2774
 11
-1.21352
 21
-24.1183
  0
LINE
  8
0
 10
-1.21352
 20
-24.1183
 11
-1.09344
 21
-23.9732
  0
LINE
  8
0
 10
-1.09344
 20
-23.9732
 11
-0.956131
 21
-23.8442
  0
LINE
  8
0
 10
-0.956131
 20
-23.8442
 11
-0.803726
 21
-23.7335
  0
LINE
  8
0
 10
-0.803726
 20
-23.7335
 11
-0.638657
 21
-23.6427
  0
LINE
  8
0
 10
-0.638657
 20
-23.6427
 11
-0.463516
 21
-23.5734
  0
LINE
  8
0
 10
-0.463516
 20
-23.5734
 11
-0.281067
 21
-23.5266
  0
LINE
  8
0
 10
-0.281067
 20
-23.5266
 11
-0.0941772
 21
-23.5029
  0
LINE
  8
0
 10
-0.0941772
 20
-23.5029
 11
0.0941772
 21
-23.5029
  0
LINE
  8
0
 10
0.0941772
 20
-23.5029
 11
0.281067
 21
-23.5266
  0
LINE
  8
0
 10
0.281067
 20
-23.5266
 11
0.463516
 21
-23.5734
  0
LINE
  8
0
 10
0.463516
 20
-23.5734
 11
0.638657
 21
-23.6427
  0
LINE
  8
0
 10
0.638657
 20
-23.6427
 11
0.803726
 21
-23.7335
  0
LINE
  8
0
 10
0.803726
 20
-23.7335
 11
0.956131
 21
-23.8442
  0
LINE
  8
0
 10
0.956131
 20
-23.8442
 11
1.09344
 21
-23.9732
  0
LINE
  8
0
 10
1.09344
 20
-23.9732
 11
1.21352
 21
-24.1183
  0
LINE
  8
0
 10
1.21352
 20
-24.1183
 11
1.31445
 21
-24.2774
  0
LINE
  8
0
 10
1.31445
 20
-24.2774
 11
1.39465
 21
-24.4478
  0
LINE
  8
0
 10
1.39465
 20
-24.4478
 11
1.45287
 21
-24.627
  0
LINE
  8
0
 10
1.45287
 20
-24.627
 11
1.48816
 21
-24.812
  0
LINE
  8
0
 10
1.48816
 20
-24.812
 11
1.5
 21
-25
  0
LINE
  8
0
 10
1.5
 20
-25
 11
1.48816
 21
-25.188
  0
LINE
  8
0
 10
1.48816
 20
-25.188
 11
1.45287
 21
-25.373
  0
LINE
  8
0
 10
1.45287
 20
-25.373
 11
1.39465
 21
-25.5522
  0
LINE
  8
0
 10
1.39465
 20
-25.5522
 11
1.31445
 21
-25.7226
  0
LINE
  8
0
 10
1.31445
 20
-25.7226
 11
1.21352
 21
-25.8817
  0
LINE
  8
0
 10
1.21352
 20
-25.8817
 11
1.09344
 21
-26.0268
  0
LINE
  8
0
 10
1.09344
 20
-26.0268
 11
0.956131
 21
-26.1558
  0
LINE
  8
0
 10
0.956131
 20
-26.1558
 11
0.803726
 21
-26.2665
  0
LINE
  8
0
 10
0.803726
 20
-26.2665
 11
0.638657
 21
-26.3572
  0
LINE
  8
0
 10
0.638657
 20
-26.3572
 11
0.463516
 21
-26.4266
  0
LINE
  8
0
 10
0.463516
 20
-26.4266
 11
0.281067
 21
-26.4734
  0
LINE
  8
0
 10
0.281067
 20
-26.4734
 11
0.0941772
 21
-26.497
  0
LINE
  8
0
 10
0.0941772
 20
-26.497
 11
-0.0941772
 21
-26.497
  0
ENDSEC
  0
SECTION
  2
OBJECTS
  0
DICTIONARY
  0
ENDSEC
  0
EOF
