  0
SECTION
  2
BLOCKS
  0
ENDSEC
  0
SECTION
  2
ENTITIES
  0
LINE
  8
0
 10
19.825
 20
-1.39998
 11
19.825
 21
-2.64998
  0
LINE
  8
0
 10
19.825
 20
-2.64998
 11
18.175
 21
-2.64998
  0
LINE
  8
0
 10
18.175
 20
-2.64998
 11
18.175
 21
-1.39998
  0
LINE
  8
0
 10
18.175
 20
-1.39998
 11
16
 21
-1.39998
  0
LINE
  8
0
 10
16
 20
-1.39998
 11
16
 21
1.39999
  0
LINE
  8
0
 10
16
 20
1.39999
 11
18.175
 21
1.39999
  0
LINE
  8
0
 10
18.175
 20
1.39999
 11
18.175
 21
2.64999
  0
LINE
  8
0
 10
18.175
 20
2.64999
 11
19.825
 21
2.64999
  0
LINE
  8
0
 10
19.825
 20
2.64999
 11
19.825
 21
1.39999
  0
LINE
  8
0
 10
19.825
 20
1.39999
 11
22.5
 21
1.39999
  0
LINE
  8
0
 10
22.5
 20
1.39999
 11
22.5
 21
27.5
  0
LINE
  8
0
 10
22.5
 20
27.5
 11
27.5
 21
27.5
  0
LINE
  8
0
 10
27.5
 20
27.5
 11
27.5
 21
32.5
  0
LINE
  8
0
 10
27.5
 20
32.5
 11
22.5
 21
32.5
  0
LINE
  8
0
 10
22.5
 20
32.5
 11
22.5
 21
50
  0
LINE
  8
0
 10
22.5
 20
50
 11
-22.5
 21
50
  0
LINE
  8
0
 10
-22.5
 20
50
 11
-22.5
 21
-50
  0
LINE
  8
0
 10
-22.5
 20
-50
 11
22.5
 21
-50
  0
LINE
  8
0
 10
22.5
 20
-50
 11
22.5
 21
-32.5
  0
LINE
  8
0
 10
22.5
 20
-32.5
 11
27.5
 21
-32.5
  0
LINE
  8
0
 10
27.5
 20
-32.5
 11
27.5
 21
-27.5
  0
LINE
  8
0
 10
27.5
 20
-27.5
 11
22.5
 21
-27.5
  0
LINE
  8
0
 10
22.5
 20
-27.5
 11
22.5
 21
-1.39999
  0
LINE
  8
0
 10
22.5
 20
-1.39999
 11
19.825
 21
-1.39998
  0
LINE
  8
0
 10
-15
 20
32.5
 11
-15
 21
37.5
  0
LINE
  8
0
 10
-15
 20
37.5
 11
15
 21
37.5
  0
LINE
  8
0
 10
15
 20
37.5
 11
15
 21
32.5
  0
LINE
  8
0
 10
15
 20
32.5
 11
-15
 21
32.5
  0
LINE
  8
0
 10
-15
 20
-37.5
 11
-15
 21
-32.5
  0
LINE
  8
0
 10
-15
 20
-32.5
 11
15
 21
-32.5
  0
LINE
  8
0
 10
15
 20
-32.5
 11
15
 21
-37.5
  0
LINE
  8
0
 10
15
 20
-37.5
 11
-15
 21
-37.5
  0
ENDSEC
  0
SECTION
  2
OBJECTS
  0
DICTIONARY
  0
ENDSEC
  0
EOF
