  0
SECTION
  2
BLOCKS
  0
ENDSEC
  0
SECTION
  2
ENTITIES
  0
LINE
  8
0
 10
19.825
 20
-1.39998
 11
19.825
 21
-2.64998
  0
LINE
  8
0
 10
19.825
 20
-2.64998
 11
18.175
 21
-2.64998
  0
LINE
  8
0
 10
18.175
 20
-2.64998
 11
18.175
 21
-1.39998
  0
LINE
  8
0
 10
18.175
 20
-1.39998
 11
16
 21
-1.39998
  0
LINE
  8
0
 10
16
 20
-1.39998
 11
16
 21
1.39999
  0
LINE
  8
0
 10
16
 20
1.39999
 11
18.175
 21
1.39999
  0
LINE
  8
0
 10
18.175
 20
1.39999
 11
18.175
 21
2.64999
  0
LINE
  8
0
 10
18.175
 20
2.64999
 11
19.825
 21
2.64999
  0
LINE
  8
0
 10
19.825
 20
2.64999
 11
19.825
 21
1.39999
  0
LINE
  8
0
 10
19.825
 20
1.39999
 11
22.5
 21
1.39999
  0
LINE
  8
0
 10
22.5
 20
1.39999
 11
22.5
 21
27.5
  0
LINE
  8
0
 10
22.5
 20
27.5
 11
27.5
 21
27.5
  0
LINE
  8
0
 10
27.5
 20
27.5
 11
27.5
 21
32.5
  0
LINE
  8
0
 10
27.5
 20
32.5
 11
22.5
 21
32.5
  0
LINE
  8
0
 10
22.5
 20
32.5
 11
22.5
 21
50
  0
LINE
  8
0
 10
22.5
 20
50
 11
-22.5
 21
50
  0
LINE
  8
0
 10
-22.5
 20
50
 11
-22.5
 21
-50
  0
LINE
  8
0
 10
-22.5
 20
-50
 11
22.5
 21
-50
  0
LINE
  8
0
 10
22.5
 20
-50
 11
22.5
 21
-32.5
  0
LINE
  8
0
 10
22.5
 20
-32.5
 11
27.5
 21
-32.5
  0
LINE
  8
0
 10
27.5
 20
-32.5
 11
27.5
 21
-27.5
  0
LINE
  8
0
 10
27.5
 20
-27.5
 11
22.5
 21
-27.5
  0
LINE
  8
0
 10
22.5
 20
-27.5
 11
22.5
 21
-1.39999
  0
LINE
  8
0
 10
22.5
 20
-1.39999
 11
19.825
 21
-1.39998
  0
LINE
  8
0
 10
11.9058
 20
43.5029
 11
11.7189
 21
43.5266
  0
LINE
  8
0
 10
11.7189
 20
43.5266
 11
11.5365
 21
43.5734
  0
LINE
  8
0
 10
11.5365
 20
43.5734
 11
11.3613
 21
43.6427
  0
LINE
  8
0
 10
11.3613
 20
43.6427
 11
11.1963
 21
43.7335
  0
LINE
  8
0
 10
11.1963
 20
43.7335
 11
11.0439
 21
43.8442
  0
LINE
  8
0
 10
11.0439
 20
43.8442
 11
10.9065
 21
43.9732
  0
LINE
  8
0
 10
10.9065
 20
43.9732
 11
10.7865
 21
44.1183
  0
LINE
  8
0
 10
10.7865
 20
44.1183
 11
10.6855
 21
44.2774
  0
LINE
  8
0
 10
10.6855
 20
44.2774
 11
10.6053
 21
44.4478
  0
LINE
  8
0
 10
10.6053
 20
44.4478
 11
10.5471
 21
44.627
  0
LINE
  8
0
 10
10.5471
 20
44.627
 11
10.5118
 21
44.812
  0
LINE
  8
0
 10
10.5118
 20
44.812
 11
10.5
 21
45
  0
LINE
  8
0
 10
10.5
 20
45
 11
10.5118
 21
45.188
  0
LINE
  8
0
 10
10.5118
 20
45.188
 11
10.5471
 21
45.373
  0
LINE
  8
0
 10
10.5471
 20
45.373
 11
10.6053
 21
45.5522
  0
LINE
  8
0
 10
10.6053
 20
45.5522
 11
10.6855
 21
45.7226
  0
LINE
  8
0
 10
10.6855
 20
45.7226
 11
10.7865
 21
45.8817
  0
LINE
  8
0
 10
10.7865
 20
45.8817
 11
10.9065
 21
46.0268
  0
LINE
  8
0
 10
10.9065
 20
46.0268
 11
11.0439
 21
46.1558
  0
LINE
  8
0
 10
11.0439
 20
46.1558
 11
11.1963
 21
46.2665
  0
LINE
  8
0
 10
11.1963
 20
46.2665
 11
11.3613
 21
46.3572
  0
LINE
  8
0
 10
11.3613
 20
46.3572
 11
11.5365
 21
46.4266
  0
LINE
  8
0
 10
11.5365
 20
46.4266
 11
11.7189
 21
46.4734
  0
LINE
  8
0
 10
11.7189
 20
46.4734
 11
11.9058
 21
46.497
  0
LINE
  8
0
 10
11.9058
 20
46.497
 11
12.0942
 21
46.497
  0
LINE
  8
0
 10
12.0942
 20
46.497
 11
12.2811
 21
46.4734
  0
LINE
  8
0
 10
12.2811
 20
46.4734
 11
12.4635
 21
46.4266
  0
LINE
  8
0
 10
12.4635
 20
46.4266
 11
12.6387
 21
46.3572
  0
LINE
  8
0
 10
12.6387
 20
46.3572
 11
12.8037
 21
46.2665
  0
LINE
  8
0
 10
12.8037
 20
46.2665
 11
12.9561
 21
46.1558
  0
LINE
  8
0
 10
12.9561
 20
46.1558
 11
13.0934
 21
46.0268
  0
LINE
  8
0
 10
13.0934
 20
46.0268
 11
13.2135
 21
45.8817
  0
LINE
  8
0
 10
13.2135
 20
45.8817
 11
13.3145
 21
45.7226
  0
LINE
  8
0
 10
13.3145
 20
45.7226
 11
13.3947
 21
45.5522
  0
LINE
  8
0
 10
13.3947
 20
45.5522
 11
13.4529
 21
45.373
  0
LINE
  8
0
 10
13.4529
 20
45.373
 11
13.4882
 21
45.188
  0
LINE
  8
0
 10
13.4882
 20
45.188
 11
13.5
 21
45
  0
LINE
  8
0
 10
13.5
 20
45
 11
13.4882
 21
44.812
  0
LINE
  8
0
 10
13.4882
 20
44.812
 11
13.4529
 21
44.627
  0
LINE
  8
0
 10
13.4529
 20
44.627
 11
13.3947
 21
44.4478
  0
LINE
  8
0
 10
13.3947
 20
44.4478
 11
13.3145
 21
44.2774
  0
LINE
  8
0
 10
13.3145
 20
44.2774
 11
13.2135
 21
44.1183
  0
LINE
  8
0
 10
13.2135
 20
44.1183
 11
13.0934
 21
43.9732
  0
LINE
  8
0
 10
13.0934
 20
43.9732
 11
12.9561
 21
43.8442
  0
LINE
  8
0
 10
12.9561
 20
43.8442
 11
12.8037
 21
43.7335
  0
LINE
  8
0
 10
12.8037
 20
43.7335
 11
12.6387
 21
43.6427
  0
LINE
  8
0
 10
12.6387
 20
43.6427
 11
12.4635
 21
43.5734
  0
LINE
  8
0
 10
12.4635
 20
43.5734
 11
12.2811
 21
43.5266
  0
LINE
  8
0
 10
12.2811
 20
43.5266
 11
12.0942
 21
43.5029
  0
LINE
  8
0
 10
12.0942
 20
43.5029
 11
11.9058
 21
43.5029
  0
LINE
  8
0
 10
-12.0942
 20
43.5029
 11
-12.2811
 21
43.5266
  0
LINE
  8
0
 10
-12.2811
 20
43.5266
 11
-12.4635
 21
43.5734
  0
LINE
  8
0
 10
-12.4635
 20
43.5734
 11
-12.6387
 21
43.6427
  0
LINE
  8
0
 10
-12.6387
 20
43.6427
 11
-12.8037
 21
43.7335
  0
LINE
  8
0
 10
-12.8037
 20
43.7335
 11
-12.9561
 21
43.8442
  0
LINE
  8
0
 10
-12.9561
 20
43.8442
 11
-13.0934
 21
43.9732
  0
LINE
  8
0
 10
-13.0934
 20
43.9732
 11
-13.2135
 21
44.1183
  0
LINE
  8
0
 10
-13.2135
 20
44.1183
 11
-13.3145
 21
44.2774
  0
LINE
  8
0
 10
-13.3145
 20
44.2774
 11
-13.3947
 21
44.4478
  0
LINE
  8
0
 10
-13.3947
 20
44.4478
 11
-13.4529
 21
44.627
  0
LINE
  8
0
 10
-13.4529
 20
44.627
 11
-13.4882
 21
44.812
  0
LINE
  8
0
 10
-13.4882
 20
44.812
 11
-13.5
 21
45
  0
LINE
  8
0
 10
-13.5
 20
45
 11
-13.4882
 21
45.188
  0
LINE
  8
0
 10
-13.4882
 20
45.188
 11
-13.4529
 21
45.373
  0
LINE
  8
0
 10
-13.4529
 20
45.373
 11
-13.3947
 21
45.5522
  0
LINE
  8
0
 10
-13.3947
 20
45.5522
 11
-13.3145
 21
45.7226
  0
LINE
  8
0
 10
-13.3145
 20
45.7226
 11
-13.2135
 21
45.8817
  0
LINE
  8
0
 10
-13.2135
 20
45.8817
 11
-13.0934
 21
46.0268
  0
LINE
  8
0
 10
-13.0934
 20
46.0268
 11
-12.9561
 21
46.1558
  0
LINE
  8
0
 10
-12.9561
 20
46.1558
 11
-12.8037
 21
46.2665
  0
LINE
  8
0
 10
-12.8037
 20
46.2665
 11
-12.6387
 21
46.3572
  0
LINE
  8
0
 10
-12.6387
 20
46.3572
 11
-12.4635
 21
46.4266
  0
LINE
  8
0
 10
-12.4635
 20
46.4266
 11
-12.2811
 21
46.4734
  0
LINE
  8
0
 10
-12.2811
 20
46.4734
 11
-12.0942
 21
46.497
  0
LINE
  8
0
 10
-12.0942
 20
46.497
 11
-11.9058
 21
46.497
  0
LINE
  8
0
 10
-11.9058
 20
46.497
 11
-11.7189
 21
46.4734
  0
LINE
  8
0
 10
-11.7189
 20
46.4734
 11
-11.5365
 21
46.4266
  0
LINE
  8
0
 10
-11.5365
 20
46.4266
 11
-11.3613
 21
46.3572
  0
LINE
  8
0
 10
-11.3613
 20
46.3572
 11
-11.1963
 21
46.2665
  0
LINE
  8
0
 10
-11.1963
 20
46.2665
 11
-11.0439
 21
46.1558
  0
LINE
  8
0
 10
-11.0439
 20
46.1558
 11
-10.9065
 21
46.0268
  0
LINE
  8
0
 10
-10.9065
 20
46.0268
 11
-10.7865
 21
45.8817
  0
LINE
  8
0
 10
-10.7865
 20
45.8817
 11
-10.6855
 21
45.7226
  0
LINE
  8
0
 10
-10.6855
 20
45.7226
 11
-10.6053
 21
45.5522
  0
LINE
  8
0
 10
-10.6053
 20
45.5522
 11
-10.5471
 21
45.373
  0
LINE
  8
0
 10
-10.5471
 20
45.373
 11
-10.5118
 21
45.188
  0
LINE
  8
0
 10
-10.5118
 20
45.188
 11
-10.5
 21
45
  0
LINE
  8
0
 10
-10.5
 20
45
 11
-10.5118
 21
44.812
  0
LINE
  8
0
 10
-10.5118
 20
44.812
 11
-10.5471
 21
44.627
  0
LINE
  8
0
 10
-10.5471
 20
44.627
 11
-10.6053
 21
44.4478
  0
LINE
  8
0
 10
-10.6053
 20
44.4478
 11
-10.6855
 21
44.2774
  0
LINE
  8
0
 10
-10.6855
 20
44.2774
 11
-10.7865
 21
44.1183
  0
LINE
  8
0
 10
-10.7865
 20
44.1183
 11
-10.9065
 21
43.9732
  0
LINE
  8
0
 10
-10.9065
 20
43.9732
 11
-11.0439
 21
43.8442
  0
LINE
  8
0
 10
-11.0439
 20
43.8442
 11
-11.1963
 21
43.7335
  0
LINE
  8
0
 10
-11.1963
 20
43.7335
 11
-11.3613
 21
43.6427
  0
LINE
  8
0
 10
-11.3613
 20
43.6427
 11
-11.5365
 21
43.5734
  0
LINE
  8
0
 10
-11.5365
 20
43.5734
 11
-11.7189
 21
43.5266
  0
LINE
  8
0
 10
-11.7189
 20
43.5266
 11
-11.9058
 21
43.5029
  0
LINE
  8
0
 10
-11.9058
 20
43.5029
 11
-12.0942
 21
43.5029
  0
LINE
  8
0
 10
-15
 20
32.5
 11
-15
 21
37.5
  0
LINE
  8
0
 10
-15
 20
37.5
 11
15
 21
37.5
  0
LINE
  8
0
 10
15
 20
37.5
 11
15
 21
32.5
  0
LINE
  8
0
 10
15
 20
32.5
 11
-15
 21
32.5
  0
LINE
  8
0
 10
-12.3139
 20
16.0099
 11
-12.9369
 21
16.0886
  0
LINE
  8
0
 10
-12.9369
 20
16.0886
 11
-13.5451
 21
16.2447
  0
LINE
  8
0
 10
-13.5451
 20
16.2447
 11
-14.1289
 21
16.4759
  0
LINE
  8
0
 10
-14.1289
 20
16.4759
 11
-14.6791
 21
16.7784
  0
LINE
  8
0
 10
-14.6791
 20
16.7784
 11
-15.1871
 21
17.1474
  0
LINE
  8
0
 10
-15.1871
 20
17.1474
 11
-15.6448
 21
17.5773
  0
LINE
  8
0
 10
-15.6448
 20
17.5773
 11
-16.0451
 21
18.0611
  0
LINE
  8
0
 10
-16.0451
 20
18.0611
 11
-16.3815
 21
18.5912
  0
LINE
  8
0
 10
-16.3815
 20
18.5912
 11
-16.6489
 21
19.1594
  0
LINE
  8
0
 10
-16.6489
 20
19.1594
 11
-16.8429
 21
19.7565
  0
LINE
  8
0
 10
-16.8429
 20
19.7565
 11
-16.9606
 21
20.3733
  0
LINE
  8
0
 10
-16.9606
 20
20.3733
 11
-17
 21
21
  0
LINE
  8
0
 10
-17
 20
21
 11
-16.9606
 21
21.6267
  0
LINE
  8
0
 10
-16.9606
 20
21.6267
 11
-16.8429
 21
22.2434
  0
LINE
  8
0
 10
-16.8429
 20
22.2434
 11
-16.6489
 21
22.8406
  0
LINE
  8
0
 10
-16.6489
 20
22.8406
 11
-16.3815
 21
23.4088
  0
LINE
  8
0
 10
-16.3815
 20
23.4088
 11
-16.0451
 21
23.9389
  0
LINE
  8
0
 10
-16.0451
 20
23.9389
 11
-15.6448
 21
24.4227
  0
LINE
  8
0
 10
-15.6448
 20
24.4227
 11
-15.1871
 21
24.8526
  0
LINE
  8
0
 10
-15.1871
 20
24.8526
 11
-14.6791
 21
25.2216
  0
LINE
  8
0
 10
-14.6791
 20
25.2216
 11
-14.1289
 21
25.5241
  0
LINE
  8
0
 10
-14.1289
 20
25.5241
 11
-13.5451
 21
25.7553
  0
LINE
  8
0
 10
-13.5451
 20
25.7553
 11
-12.9369
 21
25.9114
  0
LINE
  8
0
 10
-12.9369
 20
25.9114
 11
-12.3139
 21
25.9901
  0
LINE
  8
0
 10
-12.3139
 20
25.9901
 11
-11.686
 21
25.9901
  0
LINE
  8
0
 10
-11.686
 20
25.9901
 11
-11.0631
 21
25.9114
  0
LINE
  8
0
 10
-11.0631
 20
25.9114
 11
-10.4549
 21
25.7553
  0
LINE
  8
0
 10
-10.4549
 20
25.7553
 11
-9.87109
 21
25.5241
  0
LINE
  8
0
 10
-9.87109
 20
25.5241
 11
-9.32086
 21
25.2216
  0
LINE
  8
0
 10
-9.32086
 20
25.2216
 11
-8.81287
 21
24.8526
  0
LINE
  8
0
 10
-8.81287
 20
24.8526
 11
-8.35515
 21
24.4227
  0
LINE
  8
0
 10
-8.35515
 20
24.4227
 11
-7.95491
 21
23.9389
  0
LINE
  8
0
 10
-7.95491
 20
23.9389
 11
-7.61845
 21
23.4088
  0
LINE
  8
0
 10
-7.61845
 20
23.4088
 11
-7.3511
 21
22.8406
  0
LINE
  8
0
 10
-7.3511
 20
22.8406
 11
-7.15707
 21
22.2434
  0
LINE
  8
0
 10
-7.15707
 20
22.2434
 11
-7.03941
 21
21.6267
  0
LINE
  8
0
 10
-7.03941
 20
21.6267
 11
-7
 21
21
  0
LINE
  8
0
 10
-7
 20
21
 11
-7.03941
 21
20.3733
  0
LINE
  8
0
 10
-7.03941
 20
20.3733
 11
-7.15707
 21
19.7565
  0
LINE
  8
0
 10
-7.15707
 20
19.7565
 11
-7.3511
 21
19.1594
  0
LINE
  8
0
 10
-7.3511
 20
19.1594
 11
-7.61845
 21
18.5912
  0
LINE
  8
0
 10
-7.61845
 20
18.5912
 11
-7.95491
 21
18.0611
  0
LINE
  8
0
 10
-7.95491
 20
18.0611
 11
-8.35515
 21
17.5773
  0
LINE
  8
0
 10
-8.35515
 20
17.5773
 11
-8.81287
 21
17.1474
  0
LINE
  8
0
 10
-8.81287
 20
17.1474
 11
-9.32086
 21
16.7784
  0
LINE
  8
0
 10
-9.32086
 20
16.7784
 11
-9.87109
 21
16.4759
  0
LINE
  8
0
 10
-9.87109
 20
16.4759
 11
-10.4549
 21
16.2447
  0
LINE
  8
0
 10
-10.4549
 20
16.2447
 11
-11.0631
 21
16.0886
  0
LINE
  8
0
 10
-11.0631
 20
16.0886
 11
-11.686
 21
16.0099
  0
LINE
  8
0
 10
-11.686
 20
16.0099
 11
-12.3139
 21
16.0099
  0
LINE
  8
0
 10
11.686
 20
16.0099
 11
11.0631
 21
16.0886
  0
LINE
  8
0
 10
11.0631
 20
16.0886
 11
10.4549
 21
16.2447
  0
LINE
  8
0
 10
10.4549
 20
16.2447
 11
9.87109
 21
16.4759
  0
LINE
  8
0
 10
9.87109
 20
16.4759
 11
9.32086
 21
16.7784
  0
LINE
  8
0
 10
9.32086
 20
16.7784
 11
8.81287
 21
17.1474
  0
LINE
  8
0
 10
8.81287
 20
17.1474
 11
8.35515
 21
17.5773
  0
LINE
  8
0
 10
8.35515
 20
17.5773
 11
7.95491
 21
18.0611
  0
LINE
  8
0
 10
7.95491
 20
18.0611
 11
7.61845
 21
18.5912
  0
LINE
  8
0
 10
7.61845
 20
18.5912
 11
7.3511
 21
19.1594
  0
LINE
  8
0
 10
7.3511
 20
19.1594
 11
7.15707
 21
19.7565
  0
LINE
  8
0
 10
7.15707
 20
19.7565
 11
7.03941
 21
20.3733
  0
LINE
  8
0
 10
7.03941
 20
20.3733
 11
7
 21
21
  0
LINE
  8
0
 10
7
 20
21
 11
7.03941
 21
21.6267
  0
LINE
  8
0
 10
7.03941
 20
21.6267
 11
7.15707
 21
22.2434
  0
LINE
  8
0
 10
7.15707
 20
22.2434
 11
7.3511
 21
22.8406
  0
LINE
  8
0
 10
7.3511
 20
22.8406
 11
7.61845
 21
23.4088
  0
LINE
  8
0
 10
7.61845
 20
23.4088
 11
7.95491
 21
23.9389
  0
LINE
  8
0
 10
7.95491
 20
23.9389
 11
8.35515
 21
24.4227
  0
LINE
  8
0
 10
8.35515
 20
24.4227
 11
8.81287
 21
24.8526
  0
LINE
  8
0
 10
8.81287
 20
24.8526
 11
9.32086
 21
25.2216
  0
LINE
  8
0
 10
9.32086
 20
25.2216
 11
9.87109
 21
25.5241
  0
LINE
  8
0
 10
9.87109
 20
25.5241
 11
10.4549
 21
25.7553
  0
LINE
  8
0
 10
10.4549
 20
25.7553
 11
11.0631
 21
25.9114
  0
LINE
  8
0
 10
11.0631
 20
25.9114
 11
11.686
 21
25.9901
  0
LINE
  8
0
 10
11.686
 20
25.9901
 11
12.3139
 21
25.9901
  0
LINE
  8
0
 10
12.3139
 20
25.9901
 11
12.9369
 21
25.9114
  0
LINE
  8
0
 10
12.9369
 20
25.9114
 11
13.5451
 21
25.7553
  0
LINE
  8
0
 10
13.5451
 20
25.7553
 11
14.1289
 21
25.5241
  0
LINE
  8
0
 10
14.1289
 20
25.5241
 11
14.6791
 21
25.2216
  0
LINE
  8
0
 10
14.6791
 20
25.2216
 11
15.1871
 21
24.8526
  0
LINE
  8
0
 10
15.1871
 20
24.8526
 11
15.6448
 21
24.4227
  0
LINE
  8
0
 10
15.6448
 20
24.4227
 11
16.0451
 21
23.9389
  0
LINE
  8
0
 10
16.0451
 20
23.9389
 11
16.3815
 21
23.4088
  0
LINE
  8
0
 10
16.3815
 20
23.4088
 11
16.6489
 21
22.8406
  0
LINE
  8
0
 10
16.6489
 20
22.8406
 11
16.8429
 21
22.2434
  0
LINE
  8
0
 10
16.8429
 20
22.2434
 11
16.9606
 21
21.6267
  0
LINE
  8
0
 10
16.9606
 20
21.6267
 11
17
 21
21
  0
LINE
  8
0
 10
17
 20
21
 11
16.9606
 21
20.3733
  0
LINE
  8
0
 10
16.9606
 20
20.3733
 11
16.8429
 21
19.7565
  0
LINE
  8
0
 10
16.8429
 20
19.7565
 11
16.6489
 21
19.1594
  0
LINE
  8
0
 10
16.6489
 20
19.1594
 11
16.3815
 21
18.5912
  0
LINE
  8
0
 10
16.3815
 20
18.5912
 11
16.0451
 21
18.0611
  0
LINE
  8
0
 10
16.0451
 20
18.0611
 11
15.6448
 21
17.5773
  0
LINE
  8
0
 10
15.6448
 20
17.5773
 11
15.1871
 21
17.1474
  0
LINE
  8
0
 10
15.1871
 20
17.1474
 11
14.6791
 21
16.7784
  0
LINE
  8
0
 10
14.6791
 20
16.7784
 11
14.1289
 21
16.4759
  0
LINE
  8
0
 10
14.1289
 20
16.4759
 11
13.5451
 21
16.2447
  0
LINE
  8
0
 10
13.5451
 20
16.2447
 11
12.9369
 21
16.0886
  0
LINE
  8
0
 10
12.9369
 20
16.0886
 11
12.3139
 21
16.0099
  0
LINE
  8
0
 10
12.3139
 20
16.0099
 11
11.686
 21
16.0099
  0
LINE
  8
0
 10
11.686
 20
-25.9901
 11
11.0631
 21
-25.9114
  0
LINE
  8
0
 10
11.0631
 20
-25.9114
 11
10.4549
 21
-25.7553
  0
LINE
  8
0
 10
10.4549
 20
-25.7553
 11
9.87109
 21
-25.5241
  0
LINE
  8
0
 10
9.87109
 20
-25.5241
 11
9.32086
 21
-25.2216
  0
LINE
  8
0
 10
9.32086
 20
-25.2216
 11
8.81287
 21
-24.8526
  0
LINE
  8
0
 10
8.81287
 20
-24.8526
 11
8.35515
 21
-24.4227
  0
LINE
  8
0
 10
8.35515
 20
-24.4227
 11
7.95491
 21
-23.9389
  0
LINE
  8
0
 10
7.95491
 20
-23.9389
 11
7.61845
 21
-23.4088
  0
LINE
  8
0
 10
7.61845
 20
-23.4088
 11
7.3511
 21
-22.8406
  0
LINE
  8
0
 10
7.3511
 20
-22.8406
 11
7.15707
 21
-22.2434
  0
LINE
  8
0
 10
7.15707
 20
-22.2434
 11
7.03941
 21
-21.6267
  0
LINE
  8
0
 10
7.03941
 20
-21.6267
 11
7
 21
-21
  0
LINE
  8
0
 10
7
 20
-21
 11
7.03941
 21
-20.3733
  0
LINE
  8
0
 10
7.03941
 20
-20.3733
 11
7.15707
 21
-19.7565
  0
LINE
  8
0
 10
7.15707
 20
-19.7565
 11
7.3511
 21
-19.1594
  0
LINE
  8
0
 10
7.3511
 20
-19.1594
 11
7.61845
 21
-18.5912
  0
LINE
  8
0
 10
7.61845
 20
-18.5912
 11
7.95491
 21
-18.0611
  0
LINE
  8
0
 10
7.95491
 20
-18.0611
 11
8.35515
 21
-17.5773
  0
LINE
  8
0
 10
8.35515
 20
-17.5773
 11
8.81287
 21
-17.1474
  0
LINE
  8
0
 10
8.81287
 20
-17.1474
 11
9.32086
 21
-16.7784
  0
LINE
  8
0
 10
9.32086
 20
-16.7784
 11
9.87109
 21
-16.4759
  0
LINE
  8
0
 10
9.87109
 20
-16.4759
 11
10.4549
 21
-16.2447
  0
LINE
  8
0
 10
10.4549
 20
-16.2447
 11
11.0631
 21
-16.0886
  0
LINE
  8
0
 10
11.0631
 20
-16.0886
 11
11.686
 21
-16.0099
  0
LINE
  8
0
 10
11.686
 20
-16.0099
 11
12.3139
 21
-16.0099
  0
LINE
  8
0
 10
12.3139
 20
-16.0099
 11
12.9369
 21
-16.0886
  0
LINE
  8
0
 10
12.9369
 20
-16.0886
 11
13.5451
 21
-16.2447
  0
LINE
  8
0
 10
13.5451
 20
-16.2447
 11
14.1289
 21
-16.4759
  0
LINE
  8
0
 10
14.1289
 20
-16.4759
 11
14.6791
 21
-16.7784
  0
LINE
  8
0
 10
14.6791
 20
-16.7784
 11
15.1871
 21
-17.1474
  0
LINE
  8
0
 10
15.1871
 20
-17.1474
 11
15.6448
 21
-17.5773
  0
LINE
  8
0
 10
15.6448
 20
-17.5773
 11
16.0451
 21
-18.0611
  0
LINE
  8
0
 10
16.0451
 20
-18.0611
 11
16.3815
 21
-18.5912
  0
LINE
  8
0
 10
16.3815
 20
-18.5912
 11
16.6489
 21
-19.1594
  0
LINE
  8
0
 10
16.6489
 20
-19.1594
 11
16.8429
 21
-19.7565
  0
LINE
  8
0
 10
16.8429
 20
-19.7565
 11
16.9606
 21
-20.3733
  0
LINE
  8
0
 10
16.9606
 20
-20.3733
 11
17
 21
-21
  0
LINE
  8
0
 10
17
 20
-21
 11
16.9606
 21
-21.6267
  0
LINE
  8
0
 10
16.9606
 20
-21.6267
 11
16.8429
 21
-22.2434
  0
LINE
  8
0
 10
16.8429
 20
-22.2434
 11
16.6489
 21
-22.8406
  0
LINE
  8
0
 10
16.6489
 20
-22.8406
 11
16.3815
 21
-23.4088
  0
LINE
  8
0
 10
16.3815
 20
-23.4088
 11
16.0451
 21
-23.9389
  0
LINE
  8
0
 10
16.0451
 20
-23.9389
 11
15.6448
 21
-24.4227
  0
LINE
  8
0
 10
15.6448
 20
-24.4227
 11
15.1871
 21
-24.8526
  0
LINE
  8
0
 10
15.1871
 20
-24.8526
 11
14.6791
 21
-25.2216
  0
LINE
  8
0
 10
14.6791
 20
-25.2216
 11
14.1289
 21
-25.5241
  0
LINE
  8
0
 10
14.1289
 20
-25.5241
 11
13.5451
 21
-25.7553
  0
LINE
  8
0
 10
13.5451
 20
-25.7553
 11
12.9369
 21
-25.9114
  0
LINE
  8
0
 10
12.9369
 20
-25.9114
 11
12.3139
 21
-25.9901
  0
LINE
  8
0
 10
12.3139
 20
-25.9901
 11
11.686
 21
-25.9901
  0
LINE
  8
0
 10
-12.3139
 20
-25.9901
 11
-12.9369
 21
-25.9114
  0
LINE
  8
0
 10
-12.9369
 20
-25.9114
 11
-13.5451
 21
-25.7553
  0
LINE
  8
0
 10
-13.5451
 20
-25.7553
 11
-14.1289
 21
-25.5241
  0
LINE
  8
0
 10
-14.1289
 20
-25.5241
 11
-14.6791
 21
-25.2216
  0
LINE
  8
0
 10
-14.6791
 20
-25.2216
 11
-15.1871
 21
-24.8526
  0
LINE
  8
0
 10
-15.1871
 20
-24.8526
 11
-15.6448
 21
-24.4227
  0
LINE
  8
0
 10
-15.6448
 20
-24.4227
 11
-16.0451
 21
-23.9389
  0
LINE
  8
0
 10
-16.0451
 20
-23.9389
 11
-16.3815
 21
-23.4088
  0
LINE
  8
0
 10
-16.3815
 20
-23.4088
 11
-16.6489
 21
-22.8406
  0
LINE
  8
0
 10
-16.6489
 20
-22.8406
 11
-16.8429
 21
-22.2434
  0
LINE
  8
0
 10
-16.8429
 20
-22.2434
 11
-16.9606
 21
-21.6267
  0
LINE
  8
0
 10
-16.9606
 20
-21.6267
 11
-17
 21
-21
  0
LINE
  8
0
 10
-17
 20
-21
 11
-16.9606
 21
-20.3733
  0
LINE
  8
0
 10
-16.9606
 20
-20.3733
 11
-16.8429
 21
-19.7565
  0
LINE
  8
0
 10
-16.8429
 20
-19.7565
 11
-16.6489
 21
-19.1594
  0
LINE
  8
0
 10
-16.6489
 20
-19.1594
 11
-16.3815
 21
-18.5912
  0
LINE
  8
0
 10
-16.3815
 20
-18.5912
 11
-16.0451
 21
-18.0611
  0
LINE
  8
0
 10
-16.0451
 20
-18.0611
 11
-15.6448
 21
-17.5773
  0
LINE
  8
0
 10
-15.6448
 20
-17.5773
 11
-15.1871
 21
-17.1474
  0
LINE
  8
0
 10
-15.1871
 20
-17.1474
 11
-14.6791
 21
-16.7784
  0
LINE
  8
0
 10
-14.6791
 20
-16.7784
 11
-14.1289
 21
-16.4759
  0
LINE
  8
0
 10
-14.1289
 20
-16.4759
 11
-13.5451
 21
-16.2447
  0
LINE
  8
0
 10
-13.5451
 20
-16.2447
 11
-12.9369
 21
-16.0886
  0
LINE
  8
0
 10
-12.9369
 20
-16.0886
 11
-12.3139
 21
-16.0099
  0
LINE
  8
0
 10
-12.3139
 20
-16.0099
 11
-11.686
 21
-16.0099
  0
LINE
  8
0
 10
-11.686
 20
-16.0099
 11
-11.0631
 21
-16.0886
  0
LINE
  8
0
 10
-11.0631
 20
-16.0886
 11
-10.4549
 21
-16.2447
  0
LINE
  8
0
 10
-10.4549
 20
-16.2447
 11
-9.87109
 21
-16.4759
  0
LINE
  8
0
 10
-9.87109
 20
-16.4759
 11
-9.32086
 21
-16.7784
  0
LINE
  8
0
 10
-9.32086
 20
-16.7784
 11
-8.81287
 21
-17.1474
  0
LINE
  8
0
 10
-8.81287
 20
-17.1474
 11
-8.35515
 21
-17.5773
  0
LINE
  8
0
 10
-8.35515
 20
-17.5773
 11
-7.95491
 21
-18.0611
  0
LINE
  8
0
 10
-7.95491
 20
-18.0611
 11
-7.61845
 21
-18.5912
  0
LINE
  8
0
 10
-7.61845
 20
-18.5912
 11
-7.3511
 21
-19.1594
  0
LINE
  8
0
 10
-7.3511
 20
-19.1594
 11
-7.15707
 21
-19.7565
  0
LINE
  8
0
 10
-7.15707
 20
-19.7565
 11
-7.03941
 21
-20.3733
  0
LINE
  8
0
 10
-7.03941
 20
-20.3733
 11
-7
 21
-21
  0
LINE
  8
0
 10
-7
 20
-21
 11
-7.03941
 21
-21.6267
  0
LINE
  8
0
 10
-7.03941
 20
-21.6267
 11
-7.15707
 21
-22.2434
  0
LINE
  8
0
 10
-7.15707
 20
-22.2434
 11
-7.3511
 21
-22.8406
  0
LINE
  8
0
 10
-7.3511
 20
-22.8406
 11
-7.61845
 21
-23.4088
  0
LINE
  8
0
 10
-7.61845
 20
-23.4088
 11
-7.95491
 21
-23.9389
  0
LINE
  8
0
 10
-7.95491
 20
-23.9389
 11
-8.35515
 21
-24.4227
  0
LINE
  8
0
 10
-8.35515
 20
-24.4227
 11
-8.81287
 21
-24.8526
  0
LINE
  8
0
 10
-8.81287
 20
-24.8526
 11
-9.32086
 21
-25.2216
  0
LINE
  8
0
 10
-9.32086
 20
-25.2216
 11
-9.87109
 21
-25.5241
  0
LINE
  8
0
 10
-9.87109
 20
-25.5241
 11
-10.4549
 21
-25.7553
  0
LINE
  8
0
 10
-10.4549
 20
-25.7553
 11
-11.0631
 21
-25.9114
  0
LINE
  8
0
 10
-11.0631
 20
-25.9114
 11
-11.686
 21
-25.9901
  0
LINE
  8
0
 10
-11.686
 20
-25.9901
 11
-12.3139
 21
-25.9901
  0
LINE
  8
0
 10
-15
 20
-37.5
 11
-15
 21
-32.5
  0
LINE
  8
0
 10
-15
 20
-32.5
 11
15
 21
-32.5
  0
LINE
  8
0
 10
15
 20
-32.5
 11
15
 21
-37.5
  0
LINE
  8
0
 10
15
 20
-37.5
 11
-15
 21
-37.5
  0
LINE
  8
0
 10
-12.0942
 20
-46.497
 11
-12.2811
 21
-46.4734
  0
LINE
  8
0
 10
-12.2811
 20
-46.4734
 11
-12.4635
 21
-46.4266
  0
LINE
  8
0
 10
-12.4635
 20
-46.4266
 11
-12.6387
 21
-46.3572
  0
LINE
  8
0
 10
-12.6387
 20
-46.3572
 11
-12.8037
 21
-46.2665
  0
LINE
  8
0
 10
-12.8037
 20
-46.2665
 11
-12.9561
 21
-46.1558
  0
LINE
  8
0
 10
-12.9561
 20
-46.1558
 11
-13.0934
 21
-46.0268
  0
LINE
  8
0
 10
-13.0934
 20
-46.0268
 11
-13.2135
 21
-45.8817
  0
LINE
  8
0
 10
-13.2135
 20
-45.8817
 11
-13.3145
 21
-45.7226
  0
LINE
  8
0
 10
-13.3145
 20
-45.7226
 11
-13.3947
 21
-45.5522
  0
LINE
  8
0
 10
-13.3947
 20
-45.5522
 11
-13.4529
 21
-45.373
  0
LINE
  8
0
 10
-13.4529
 20
-45.373
 11
-13.4882
 21
-45.188
  0
LINE
  8
0
 10
-13.4882
 20
-45.188
 11
-13.5
 21
-45
  0
LINE
  8
0
 10
-13.5
 20
-45
 11
-13.4882
 21
-44.812
  0
LINE
  8
0
 10
-13.4882
 20
-44.812
 11
-13.4529
 21
-44.627
  0
LINE
  8
0
 10
-13.4529
 20
-44.627
 11
-13.3947
 21
-44.4478
  0
LINE
  8
0
 10
-13.3947
 20
-44.4478
 11
-13.3145
 21
-44.2774
  0
LINE
  8
0
 10
-13.3145
 20
-44.2774
 11
-13.2135
 21
-44.1183
  0
LINE
  8
0
 10
-13.2135
 20
-44.1183
 11
-13.0934
 21
-43.9732
  0
LINE
  8
0
 10
-13.0934
 20
-43.9732
 11
-12.9561
 21
-43.8442
  0
LINE
  8
0
 10
-12.9561
 20
-43.8442
 11
-12.8037
 21
-43.7335
  0
LINE
  8
0
 10
-12.8037
 20
-43.7335
 11
-12.6387
 21
-43.6427
  0
LINE
  8
0
 10
-12.6387
 20
-43.6427
 11
-12.4635
 21
-43.5734
  0
LINE
  8
0
 10
-12.4635
 20
-43.5734
 11
-12.2811
 21
-43.5266
  0
LINE
  8
0
 10
-12.2811
 20
-43.5266
 11
-12.0942
 21
-43.5029
  0
LINE
  8
0
 10
-12.0942
 20
-43.5029
 11
-11.9058
 21
-43.5029
  0
LINE
  8
0
 10
-11.9058
 20
-43.5029
 11
-11.7189
 21
-43.5266
  0
LINE
  8
0
 10
-11.7189
 20
-43.5266
 11
-11.5365
 21
-43.5734
  0
LINE
  8
0
 10
-11.5365
 20
-43.5734
 11
-11.3613
 21
-43.6427
  0
LINE
  8
0
 10
-11.3613
 20
-43.6427
 11
-11.1963
 21
-43.7335
  0
LINE
  8
0
 10
-11.1963
 20
-43.7335
 11
-11.0439
 21
-43.8442
  0
LINE
  8
0
 10
-11.0439
 20
-43.8442
 11
-10.9065
 21
-43.9732
  0
LINE
  8
0
 10
-10.9065
 20
-43.9732
 11
-10.7865
 21
-44.1183
  0
LINE
  8
0
 10
-10.7865
 20
-44.1183
 11
-10.6855
 21
-44.2774
  0
LINE
  8
0
 10
-10.6855
 20
-44.2774
 11
-10.6053
 21
-44.4478
  0
LINE
  8
0
 10
-10.6053
 20
-44.4478
 11
-10.5471
 21
-44.627
  0
LINE
  8
0
 10
-10.5471
 20
-44.627
 11
-10.5118
 21
-44.812
  0
LINE
  8
0
 10
-10.5118
 20
-44.812
 11
-10.5
 21
-45
  0
LINE
  8
0
 10
-10.5
 20
-45
 11
-10.5118
 21
-45.188
  0
LINE
  8
0
 10
-10.5118
 20
-45.188
 11
-10.5471
 21
-45.373
  0
LINE
  8
0
 10
-10.5471
 20
-45.373
 11
-10.6053
 21
-45.5522
  0
LINE
  8
0
 10
-10.6053
 20
-45.5522
 11
-10.6855
 21
-45.7226
  0
LINE
  8
0
 10
-10.6855
 20
-45.7226
 11
-10.7865
 21
-45.8817
  0
LINE
  8
0
 10
-10.7865
 20
-45.8817
 11
-10.9065
 21
-46.0268
  0
LINE
  8
0
 10
-10.9065
 20
-46.0268
 11
-11.0439
 21
-46.1558
  0
LINE
  8
0
 10
-11.0439
 20
-46.1558
 11
-11.1963
 21
-46.2665
  0
LINE
  8
0
 10
-11.1963
 20
-46.2665
 11
-11.3613
 21
-46.3572
  0
LINE
  8
0
 10
-11.3613
 20
-46.3572
 11
-11.5365
 21
-46.4266
  0
LINE
  8
0
 10
-11.5365
 20
-46.4266
 11
-11.7189
 21
-46.4734
  0
LINE
  8
0
 10
-11.7189
 20
-46.4734
 11
-11.9058
 21
-46.497
  0
LINE
  8
0
 10
-11.9058
 20
-46.497
 11
-12.0942
 21
-46.497
  0
LINE
  8
0
 10
11.9058
 20
-46.497
 11
11.7189
 21
-46.4734
  0
LINE
  8
0
 10
11.7189
 20
-46.4734
 11
11.5365
 21
-46.4266
  0
LINE
  8
0
 10
11.5365
 20
-46.4266
 11
11.3613
 21
-46.3572
  0
LINE
  8
0
 10
11.3613
 20
-46.3572
 11
11.1963
 21
-46.2665
  0
LINE
  8
0
 10
11.1963
 20
-46.2665
 11
11.0439
 21
-46.1558
  0
LINE
  8
0
 10
11.0439
 20
-46.1558
 11
10.9065
 21
-46.0268
  0
LINE
  8
0
 10
10.9065
 20
-46.0268
 11
10.7865
 21
-45.8817
  0
LINE
  8
0
 10
10.7865
 20
-45.8817
 11
10.6855
 21
-45.7226
  0
LINE
  8
0
 10
10.6855
 20
-45.7226
 11
10.6053
 21
-45.5522
  0
LINE
  8
0
 10
10.6053
 20
-45.5522
 11
10.5471
 21
-45.373
  0
LINE
  8
0
 10
10.5471
 20
-45.373
 11
10.5118
 21
-45.188
  0
LINE
  8
0
 10
10.5118
 20
-45.188
 11
10.5
 21
-45
  0
LINE
  8
0
 10
10.5
 20
-45
 11
10.5118
 21
-44.812
  0
LINE
  8
0
 10
10.5118
 20
-44.812
 11
10.5471
 21
-44.627
  0
LINE
  8
0
 10
10.5471
 20
-44.627
 11
10.6053
 21
-44.4478
  0
LINE
  8
0
 10
10.6053
 20
-44.4478
 11
10.6855
 21
-44.2774
  0
LINE
  8
0
 10
10.6855
 20
-44.2774
 11
10.7865
 21
-44.1183
  0
LINE
  8
0
 10
10.7865
 20
-44.1183
 11
10.9065
 21
-43.9732
  0
LINE
  8
0
 10
10.9065
 20
-43.9732
 11
11.0439
 21
-43.8442
  0
LINE
  8
0
 10
11.0439
 20
-43.8442
 11
11.1963
 21
-43.7335
  0
LINE
  8
0
 10
11.1963
 20
-43.7335
 11
11.3613
 21
-43.6427
  0
LINE
  8
0
 10
11.3613
 20
-43.6427
 11
11.5365
 21
-43.5734
  0
LINE
  8
0
 10
11.5365
 20
-43.5734
 11
11.7189
 21
-43.5266
  0
LINE
  8
0
 10
11.7189
 20
-43.5266
 11
11.9058
 21
-43.5029
  0
LINE
  8
0
 10
11.9058
 20
-43.5029
 11
12.0942
 21
-43.5029
  0
LINE
  8
0
 10
12.0942
 20
-43.5029
 11
12.2811
 21
-43.5266
  0
LINE
  8
0
 10
12.2811
 20
-43.5266
 11
12.4635
 21
-43.5734
  0
LINE
  8
0
 10
12.4635
 20
-43.5734
 11
12.6387
 21
-43.6427
  0
LINE
  8
0
 10
12.6387
 20
-43.6427
 11
12.8037
 21
-43.7335
  0
LINE
  8
0
 10
12.8037
 20
-43.7335
 11
12.9561
 21
-43.8442
  0
LINE
  8
0
 10
12.9561
 20
-43.8442
 11
13.0934
 21
-43.9732
  0
LINE
  8
0
 10
13.0934
 20
-43.9732
 11
13.2135
 21
-44.1183
  0
LINE
  8
0
 10
13.2135
 20
-44.1183
 11
13.3145
 21
-44.2774
  0
LINE
  8
0
 10
13.3145
 20
-44.2774
 11
13.3947
 21
-44.4478
  0
LINE
  8
0
 10
13.3947
 20
-44.4478
 11
13.4529
 21
-44.627
  0
LINE
  8
0
 10
13.4529
 20
-44.627
 11
13.4882
 21
-44.812
  0
LINE
  8
0
 10
13.4882
 20
-44.812
 11
13.5
 21
-45
  0
LINE
  8
0
 10
13.5
 20
-45
 11
13.4882
 21
-45.188
  0
LINE
  8
0
 10
13.4882
 20
-45.188
 11
13.4529
 21
-45.373
  0
LINE
  8
0
 10
13.4529
 20
-45.373
 11
13.3947
 21
-45.5522
  0
LINE
  8
0
 10
13.3947
 20
-45.5522
 11
13.3145
 21
-45.7226
  0
LINE
  8
0
 10
13.3145
 20
-45.7226
 11
13.2135
 21
-45.8817
  0
LINE
  8
0
 10
13.2135
 20
-45.8817
 11
13.0934
 21
-46.0268
  0
LINE
  8
0
 10
13.0934
 20
-46.0268
 11
12.9561
 21
-46.1558
  0
LINE
  8
0
 10
12.9561
 20
-46.1558
 11
12.8037
 21
-46.2665
  0
LINE
  8
0
 10
12.8037
 20
-46.2665
 11
12.6387
 21
-46.3572
  0
LINE
  8
0
 10
12.6387
 20
-46.3572
 11
12.4635
 21
-46.4266
  0
LINE
  8
0
 10
12.4635
 20
-46.4266
 11
12.2811
 21
-46.4734
  0
LINE
  8
0
 10
12.2811
 20
-46.4734
 11
12.0942
 21
-46.497
  0
LINE
  8
0
 10
12.0942
 20
-46.497
 11
11.9058
 21
-46.497
  0
ENDSEC
  0
SECTION
  2
OBJECTS
  0
DICTIONARY
  0
ENDSEC
  0
EOF
