  0
SECTION
  2
BLOCKS
  0
ENDSEC
  0
SECTION
  2
ENTITIES
  0
LINE
  8
0
 10
-22.5
 20
-50
 11
37
 21
-50
  0
LINE
  8
0
 10
37
 20
-50
 11
37
 21
-30
  0
LINE
  8
0
 10
37
 20
-30
 11
22.5
 21
-30
  0
LINE
  8
0
 10
22.5
 20
-30
 11
22.5
 21
30
  0
LINE
  8
0
 10
22.5
 20
30
 11
37
 21
30
  0
LINE
  8
0
 10
37
 20
30
 11
37
 21
50
  0
LINE
  8
0
 10
37
 20
50
 11
-22.5
 21
50
  0
LINE
  8
0
 10
-22.5
 20
50
 11
-22.5
 21
-50
  0
LINE
  8
0
 10
-12.0942
 20
43.5029
 11
-12.2811
 21
43.5266
  0
LINE
  8
0
 10
-12.2811
 20
43.5266
 11
-12.4635
 21
43.5734
  0
LINE
  8
0
 10
-12.4635
 20
43.5734
 11
-12.6387
 21
43.6427
  0
LINE
  8
0
 10
-12.6387
 20
43.6427
 11
-12.8037
 21
43.7335
  0
LINE
  8
0
 10
-12.8037
 20
43.7335
 11
-12.9561
 21
43.8442
  0
LINE
  8
0
 10
-12.9561
 20
43.8442
 11
-13.0934
 21
43.9732
  0
LINE
  8
0
 10
-13.0934
 20
43.9732
 11
-13.2135
 21
44.1183
  0
LINE
  8
0
 10
-13.2135
 20
44.1183
 11
-13.3145
 21
44.2774
  0
LINE
  8
0
 10
-13.3145
 20
44.2774
 11
-13.3947
 21
44.4478
  0
LINE
  8
0
 10
-13.3947
 20
44.4478
 11
-13.4529
 21
44.627
  0
LINE
  8
0
 10
-13.4529
 20
44.627
 11
-13.4882
 21
44.812
  0
LINE
  8
0
 10
-13.4882
 20
44.812
 11
-13.5
 21
45
  0
LINE
  8
0
 10
-13.5
 20
45
 11
-13.4882
 21
45.188
  0
LINE
  8
0
 10
-13.4882
 20
45.188
 11
-13.4529
 21
45.373
  0
LINE
  8
0
 10
-13.4529
 20
45.373
 11
-13.3947
 21
45.5522
  0
LINE
  8
0
 10
-13.3947
 20
45.5522
 11
-13.3145
 21
45.7226
  0
LINE
  8
0
 10
-13.3145
 20
45.7226
 11
-13.2135
 21
45.8817
  0
LINE
  8
0
 10
-13.2135
 20
45.8817
 11
-13.0934
 21
46.0268
  0
LINE
  8
0
 10
-13.0934
 20
46.0268
 11
-12.9561
 21
46.1558
  0
LINE
  8
0
 10
-12.9561
 20
46.1558
 11
-12.8037
 21
46.2665
  0
LINE
  8
0
 10
-12.8037
 20
46.2665
 11
-12.6387
 21
46.3572
  0
LINE
  8
0
 10
-12.6387
 20
46.3572
 11
-12.4635
 21
46.4266
  0
LINE
  8
0
 10
-12.4635
 20
46.4266
 11
-12.2811
 21
46.4734
  0
LINE
  8
0
 10
-12.2811
 20
46.4734
 11
-12.0942
 21
46.497
  0
LINE
  8
0
 10
-12.0942
 20
46.497
 11
-11.9058
 21
46.497
  0
LINE
  8
0
 10
-11.9058
 20
46.497
 11
-11.7189
 21
46.4734
  0
LINE
  8
0
 10
-11.7189
 20
46.4734
 11
-11.5365
 21
46.4266
  0
LINE
  8
0
 10
-11.5365
 20
46.4266
 11
-11.3613
 21
46.3572
  0
LINE
  8
0
 10
-11.3613
 20
46.3572
 11
-11.1963
 21
46.2665
  0
LINE
  8
0
 10
-11.1963
 20
46.2665
 11
-11.0439
 21
46.1558
  0
LINE
  8
0
 10
-11.0439
 20
46.1558
 11
-10.9065
 21
46.0268
  0
LINE
  8
0
 10
-10.9065
 20
46.0268
 11
-10.7865
 21
45.8817
  0
LINE
  8
0
 10
-10.7865
 20
45.8817
 11
-10.6855
 21
45.7226
  0
LINE
  8
0
 10
-10.6855
 20
45.7226
 11
-10.6053
 21
45.5522
  0
LINE
  8
0
 10
-10.6053
 20
45.5522
 11
-10.5471
 21
45.373
  0
LINE
  8
0
 10
-10.5471
 20
45.373
 11
-10.5118
 21
45.188
  0
LINE
  8
0
 10
-10.5118
 20
45.188
 11
-10.5
 21
45
  0
LINE
  8
0
 10
-10.5
 20
45
 11
-10.5118
 21
44.812
  0
LINE
  8
0
 10
-10.5118
 20
44.812
 11
-10.5471
 21
44.627
  0
LINE
  8
0
 10
-10.5471
 20
44.627
 11
-10.6053
 21
44.4478
  0
LINE
  8
0
 10
-10.6053
 20
44.4478
 11
-10.6855
 21
44.2774
  0
LINE
  8
0
 10
-10.6855
 20
44.2774
 11
-10.7865
 21
44.1183
  0
LINE
  8
0
 10
-10.7865
 20
44.1183
 11
-10.9065
 21
43.9732
  0
LINE
  8
0
 10
-10.9065
 20
43.9732
 11
-11.0439
 21
43.8442
  0
LINE
  8
0
 10
-11.0439
 20
43.8442
 11
-11.1963
 21
43.7335
  0
LINE
  8
0
 10
-11.1963
 20
43.7335
 11
-11.3613
 21
43.6427
  0
LINE
  8
0
 10
-11.3613
 20
43.6427
 11
-11.5365
 21
43.5734
  0
LINE
  8
0
 10
-11.5365
 20
43.5734
 11
-11.7189
 21
43.5266
  0
LINE
  8
0
 10
-11.7189
 20
43.5266
 11
-11.9058
 21
43.5029
  0
LINE
  8
0
 10
-11.9058
 20
43.5029
 11
-12.0942
 21
43.5029
  0
LINE
  8
0
 10
11.9058
 20
43.5029
 11
11.7189
 21
43.5266
  0
LINE
  8
0
 10
11.7189
 20
43.5266
 11
11.5365
 21
43.5734
  0
LINE
  8
0
 10
11.5365
 20
43.5734
 11
11.3613
 21
43.6427
  0
LINE
  8
0
 10
11.3613
 20
43.6427
 11
11.1963
 21
43.7335
  0
LINE
  8
0
 10
11.1963
 20
43.7335
 11
11.0439
 21
43.8442
  0
LINE
  8
0
 10
11.0439
 20
43.8442
 11
10.9065
 21
43.9732
  0
LINE
  8
0
 10
10.9065
 20
43.9732
 11
10.7865
 21
44.1183
  0
LINE
  8
0
 10
10.7865
 20
44.1183
 11
10.6855
 21
44.2774
  0
LINE
  8
0
 10
10.6855
 20
44.2774
 11
10.6053
 21
44.4478
  0
LINE
  8
0
 10
10.6053
 20
44.4478
 11
10.5471
 21
44.627
  0
LINE
  8
0
 10
10.5471
 20
44.627
 11
10.5118
 21
44.812
  0
LINE
  8
0
 10
10.5118
 20
44.812
 11
10.5
 21
45
  0
LINE
  8
0
 10
10.5
 20
45
 11
10.5118
 21
45.188
  0
LINE
  8
0
 10
10.5118
 20
45.188
 11
10.5471
 21
45.373
  0
LINE
  8
0
 10
10.5471
 20
45.373
 11
10.6053
 21
45.5522
  0
LINE
  8
0
 10
10.6053
 20
45.5522
 11
10.6855
 21
45.7226
  0
LINE
  8
0
 10
10.6855
 20
45.7226
 11
10.7865
 21
45.8817
  0
LINE
  8
0
 10
10.7865
 20
45.8817
 11
10.9065
 21
46.0268
  0
LINE
  8
0
 10
10.9065
 20
46.0268
 11
11.0439
 21
46.1558
  0
LINE
  8
0
 10
11.0439
 20
46.1558
 11
11.1963
 21
46.2665
  0
LINE
  8
0
 10
11.1963
 20
46.2665
 11
11.3613
 21
46.3572
  0
LINE
  8
0
 10
11.3613
 20
46.3572
 11
11.5365
 21
46.4266
  0
LINE
  8
0
 10
11.5365
 20
46.4266
 11
11.7189
 21
46.4734
  0
LINE
  8
0
 10
11.7189
 20
46.4734
 11
11.9058
 21
46.497
  0
LINE
  8
0
 10
11.9058
 20
46.497
 11
12.0942
 21
46.497
  0
LINE
  8
0
 10
12.0942
 20
46.497
 11
12.2811
 21
46.4734
  0
LINE
  8
0
 10
12.2811
 20
46.4734
 11
12.4635
 21
46.4266
  0
LINE
  8
0
 10
12.4635
 20
46.4266
 11
12.6387
 21
46.3572
  0
LINE
  8
0
 10
12.6387
 20
46.3572
 11
12.8037
 21
46.2665
  0
LINE
  8
0
 10
12.8037
 20
46.2665
 11
12.9561
 21
46.1558
  0
LINE
  8
0
 10
12.9561
 20
46.1558
 11
13.0934
 21
46.0268
  0
LINE
  8
0
 10
13.0934
 20
46.0268
 11
13.2135
 21
45.8817
  0
LINE
  8
0
 10
13.2135
 20
45.8817
 11
13.3145
 21
45.7226
  0
LINE
  8
0
 10
13.3145
 20
45.7226
 11
13.3947
 21
45.5522
  0
LINE
  8
0
 10
13.3947
 20
45.5522
 11
13.4529
 21
45.373
  0
LINE
  8
0
 10
13.4529
 20
45.373
 11
13.4882
 21
45.188
  0
LINE
  8
0
 10
13.4882
 20
45.188
 11
13.5
 21
45
  0
LINE
  8
0
 10
13.5
 20
45
 11
13.4882
 21
44.812
  0
LINE
  8
0
 10
13.4882
 20
44.812
 11
13.4529
 21
44.627
  0
LINE
  8
0
 10
13.4529
 20
44.627
 11
13.3947
 21
44.4478
  0
LINE
  8
0
 10
13.3947
 20
44.4478
 11
13.3145
 21
44.2774
  0
LINE
  8
0
 10
13.3145
 20
44.2774
 11
13.2135
 21
44.1183
  0
LINE
  8
0
 10
13.2135
 20
44.1183
 11
13.0934
 21
43.9732
  0
LINE
  8
0
 10
13.0934
 20
43.9732
 11
12.9561
 21
43.8442
  0
LINE
  8
0
 10
12.9561
 20
43.8442
 11
12.8037
 21
43.7335
  0
LINE
  8
0
 10
12.8037
 20
43.7335
 11
12.6387
 21
43.6427
  0
LINE
  8
0
 10
12.6387
 20
43.6427
 11
12.4635
 21
43.5734
  0
LINE
  8
0
 10
12.4635
 20
43.5734
 11
12.2811
 21
43.5266
  0
LINE
  8
0
 10
12.2811
 20
43.5266
 11
12.0942
 21
43.5029
  0
LINE
  8
0
 10
12.0942
 20
43.5029
 11
11.9058
 21
43.5029
  0
LINE
  8
0
 10
26.5
 20
38.75
 11
26.5
 21
41.25
  0
LINE
  8
0
 10
26.5
 20
41.25
 11
33.5
 21
41.25
  0
LINE
  8
0
 10
33.5
 20
41.25
 11
33.5
 21
38.75
  0
LINE
  8
0
 10
33.5
 20
38.75
 11
26.5
 21
38.75
  0
LINE
  8
0
 10
-12.157
 20
18.5049
 11
-12.4684
 21
18.5443
  0
LINE
  8
0
 10
-12.4684
 20
18.5443
 11
-12.7725
 21
18.6223
  0
LINE
  8
0
 10
-12.7725
 20
18.6223
 11
-13.0644
 21
18.7379
  0
LINE
  8
0
 10
-13.0644
 20
18.7379
 11
-13.3396
 21
18.8892
  0
LINE
  8
0
 10
-13.3396
 20
18.8892
 11
-13.5936
 21
19.0737
  0
LINE
  8
0
 10
-13.5936
 20
19.0737
 11
-13.8224
 21
19.2886
  0
LINE
  8
0
 10
-13.8224
 20
19.2886
 11
-14.0225
 21
19.5305
  0
LINE
  8
0
 10
-14.0225
 20
19.5305
 11
-14.1908
 21
19.7956
  0
LINE
  8
0
 10
-14.1908
 20
19.7956
 11
-14.3244
 21
20.0797
  0
LINE
  8
0
 10
-14.3244
 20
20.0797
 11
-14.4214
 21
20.3783
  0
LINE
  8
0
 10
-14.4214
 20
20.3783
 11
-14.4803
 21
20.6867
  0
LINE
  8
0
 10
-14.4803
 20
20.6867
 11
-14.5
 21
21
  0
LINE
  8
0
 10
-14.5
 20
21
 11
-14.4803
 21
21.3133
  0
LINE
  8
0
 10
-14.4803
 20
21.3133
 11
-14.4214
 21
21.6217
  0
LINE
  8
0
 10
-14.4214
 20
21.6217
 11
-14.3244
 21
21.9203
  0
LINE
  8
0
 10
-14.3244
 20
21.9203
 11
-14.1908
 21
22.2044
  0
LINE
  8
0
 10
-14.1908
 20
22.2044
 11
-14.0225
 21
22.4695
  0
LINE
  8
0
 10
-14.0225
 20
22.4695
 11
-13.8224
 21
22.7114
  0
LINE
  8
0
 10
-13.8224
 20
22.7114
 11
-13.5936
 21
22.9263
  0
LINE
  8
0
 10
-13.5936
 20
22.9263
 11
-13.3396
 21
23.1108
  0
LINE
  8
0
 10
-13.3396
 20
23.1108
 11
-13.0644
 21
23.2621
  0
LINE
  8
0
 10
-13.0644
 20
23.2621
 11
-12.7725
 21
23.3776
  0
LINE
  8
0
 10
-12.7725
 20
23.3776
 11
-12.4684
 21
23.4557
  0
LINE
  8
0
 10
-12.4684
 20
23.4557
 11
-12.157
 21
23.4951
  0
LINE
  8
0
 10
-12.157
 20
23.4951
 11
-11.843
 21
23.4951
  0
LINE
  8
0
 10
-11.843
 20
23.4951
 11
-11.5315
 21
23.4557
  0
LINE
  8
0
 10
-11.5315
 20
23.4557
 11
-11.2274
 21
23.3776
  0
LINE
  8
0
 10
-11.2274
 20
23.3776
 11
-10.9355
 21
23.2621
  0
LINE
  8
0
 10
-10.9355
 20
23.2621
 11
-10.6604
 21
23.1108
  0
LINE
  8
0
 10
-10.6604
 20
23.1108
 11
-10.4064
 21
22.9263
  0
LINE
  8
0
 10
-10.4064
 20
22.9263
 11
-10.1776
 21
22.7114
  0
LINE
  8
0
 10
-10.1776
 20
22.7114
 11
-9.97745
 21
22.4695
  0
LINE
  8
0
 10
-9.97745
 20
22.4695
 11
-9.80922
 21
22.2044
  0
LINE
  8
0
 10
-9.80922
 20
22.2044
 11
-9.67555
 21
21.9203
  0
LINE
  8
0
 10
-9.67555
 20
21.9203
 11
-9.57854
 21
21.6217
  0
LINE
  8
0
 10
-9.57854
 20
21.6217
 11
-9.5197
 21
21.3133
  0
LINE
  8
0
 10
-9.5197
 20
21.3133
 11
-9.5
 21
21
  0
LINE
  8
0
 10
-9.5
 20
21
 11
-9.5197
 21
20.6867
  0
LINE
  8
0
 10
-9.5197
 20
20.6867
 11
-9.57854
 21
20.3783
  0
LINE
  8
0
 10
-9.57854
 20
20.3783
 11
-9.67555
 21
20.0797
  0
LINE
  8
0
 10
-9.67555
 20
20.0797
 11
-9.80922
 21
19.7956
  0
LINE
  8
0
 10
-9.80922
 20
19.7956
 11
-9.97745
 21
19.5305
  0
LINE
  8
0
 10
-9.97745
 20
19.5305
 11
-10.1776
 21
19.2886
  0
LINE
  8
0
 10
-10.1776
 20
19.2886
 11
-10.4064
 21
19.0737
  0
LINE
  8
0
 10
-10.4064
 20
19.0737
 11
-10.6604
 21
18.8892
  0
LINE
  8
0
 10
-10.6604
 20
18.8892
 11
-10.9355
 21
18.7379
  0
LINE
  8
0
 10
-10.9355
 20
18.7379
 11
-11.2274
 21
18.6223
  0
LINE
  8
0
 10
-11.2274
 20
18.6223
 11
-11.5315
 21
18.5443
  0
LINE
  8
0
 10
-11.5315
 20
18.5443
 11
-11.843
 21
18.5049
  0
LINE
  8
0
 10
-11.843
 20
18.5049
 11
-12.157
 21
18.5049
  0
LINE
  8
0
 10
11.843
 20
18.5049
 11
11.5315
 21
18.5443
  0
LINE
  8
0
 10
11.5315
 20
18.5443
 11
11.2274
 21
18.6223
  0
LINE
  8
0
 10
11.2274
 20
18.6223
 11
10.9355
 21
18.7379
  0
LINE
  8
0
 10
10.9355
 20
18.7379
 11
10.6604
 21
18.8892
  0
LINE
  8
0
 10
10.6604
 20
18.8892
 11
10.4064
 21
19.0737
  0
LINE
  8
0
 10
10.4064
 20
19.0737
 11
10.1776
 21
19.2886
  0
LINE
  8
0
 10
10.1776
 20
19.2886
 11
9.97745
 21
19.5305
  0
LINE
  8
0
 10
9.97745
 20
19.5305
 11
9.80922
 21
19.7956
  0
LINE
  8
0
 10
9.80922
 20
19.7956
 11
9.67555
 21
20.0797
  0
LINE
  8
0
 10
9.67555
 20
20.0797
 11
9.57854
 21
20.3783
  0
LINE
  8
0
 10
9.57854
 20
20.3783
 11
9.5197
 21
20.6867
  0
LINE
  8
0
 10
9.5197
 20
20.6867
 11
9.5
 21
21
  0
LINE
  8
0
 10
9.5
 20
21
 11
9.5197
 21
21.3133
  0
LINE
  8
0
 10
9.5197
 20
21.3133
 11
9.57854
 21
21.6217
  0
LINE
  8
0
 10
9.57854
 20
21.6217
 11
9.67555
 21
21.9203
  0
LINE
  8
0
 10
9.67555
 20
21.9203
 11
9.80922
 21
22.2044
  0
LINE
  8
0
 10
9.80922
 20
22.2044
 11
9.97745
 21
22.4695
  0
LINE
  8
0
 10
9.97745
 20
22.4695
 11
10.1776
 21
22.7114
  0
LINE
  8
0
 10
10.1776
 20
22.7114
 11
10.4064
 21
22.9263
  0
LINE
  8
0
 10
10.4064
 20
22.9263
 11
10.6604
 21
23.1108
  0
LINE
  8
0
 10
10.6604
 20
23.1108
 11
10.9355
 21
23.2621
  0
LINE
  8
0
 10
10.9355
 20
23.2621
 11
11.2274
 21
23.3776
  0
LINE
  8
0
 10
11.2274
 20
23.3776
 11
11.5315
 21
23.4557
  0
LINE
  8
0
 10
11.5315
 20
23.4557
 11
11.843
 21
23.4951
  0
LINE
  8
0
 10
11.843
 20
23.4951
 11
12.157
 21
23.4951
  0
LINE
  8
0
 10
12.157
 20
23.4951
 11
12.4684
 21
23.4557
  0
LINE
  8
0
 10
12.4684
 20
23.4557
 11
12.7725
 21
23.3776
  0
LINE
  8
0
 10
12.7725
 20
23.3776
 11
13.0644
 21
23.2621
  0
LINE
  8
0
 10
13.0644
 20
23.2621
 11
13.3396
 21
23.1108
  0
LINE
  8
0
 10
13.3396
 20
23.1108
 11
13.5936
 21
22.9263
  0
LINE
  8
0
 10
13.5936
 20
22.9263
 11
13.8224
 21
22.7114
  0
LINE
  8
0
 10
13.8224
 20
22.7114
 11
14.0225
 21
22.4695
  0
LINE
  8
0
 10
14.0225
 20
22.4695
 11
14.1908
 21
22.2044
  0
LINE
  8
0
 10
14.1908
 20
22.2044
 11
14.3244
 21
21.9203
  0
LINE
  8
0
 10
14.3244
 20
21.9203
 11
14.4214
 21
21.6217
  0
LINE
  8
0
 10
14.4214
 20
21.6217
 11
14.4803
 21
21.3133
  0
LINE
  8
0
 10
14.4803
 20
21.3133
 11
14.5
 21
21
  0
LINE
  8
0
 10
14.5
 20
21
 11
14.4803
 21
20.6867
  0
LINE
  8
0
 10
14.4803
 20
20.6867
 11
14.4214
 21
20.3783
  0
LINE
  8
0
 10
14.4214
 20
20.3783
 11
14.3244
 21
20.0797
  0
LINE
  8
0
 10
14.3244
 20
20.0797
 11
14.1908
 21
19.7956
  0
LINE
  8
0
 10
14.1908
 20
19.7956
 11
14.0225
 21
19.5305
  0
LINE
  8
0
 10
14.0225
 20
19.5305
 11
13.8224
 21
19.2886
  0
LINE
  8
0
 10
13.8224
 20
19.2886
 11
13.5936
 21
19.0737
  0
LINE
  8
0
 10
13.5936
 20
19.0737
 11
13.3396
 21
18.8892
  0
LINE
  8
0
 10
13.3396
 20
18.8892
 11
13.0644
 21
18.7379
  0
LINE
  8
0
 10
13.0644
 20
18.7379
 11
12.7725
 21
18.6223
  0
LINE
  8
0
 10
12.7725
 20
18.6223
 11
12.4684
 21
18.5443
  0
LINE
  8
0
 10
12.4684
 20
18.5443
 11
12.157
 21
18.5049
  0
LINE
  8
0
 10
12.157
 20
18.5049
 11
11.843
 21
18.5049
  0
LINE
  8
0
 10
-12.157
 20
-23.4951
 11
-12.4684
 21
-23.4557
  0
LINE
  8
0
 10
-12.4684
 20
-23.4557
 11
-12.7725
 21
-23.3776
  0
LINE
  8
0
 10
-12.7725
 20
-23.3776
 11
-13.0644
 21
-23.2621
  0
LINE
  8
0
 10
-13.0644
 20
-23.2621
 11
-13.3396
 21
-23.1108
  0
LINE
  8
0
 10
-13.3396
 20
-23.1108
 11
-13.5936
 21
-22.9263
  0
LINE
  8
0
 10
-13.5936
 20
-22.9263
 11
-13.8224
 21
-22.7114
  0
LINE
  8
0
 10
-13.8224
 20
-22.7114
 11
-14.0225
 21
-22.4695
  0
LINE
  8
0
 10
-14.0225
 20
-22.4695
 11
-14.1908
 21
-22.2044
  0
LINE
  8
0
 10
-14.1908
 20
-22.2044
 11
-14.3244
 21
-21.9203
  0
LINE
  8
0
 10
-14.3244
 20
-21.9203
 11
-14.4214
 21
-21.6217
  0
LINE
  8
0
 10
-14.4214
 20
-21.6217
 11
-14.4803
 21
-21.3133
  0
LINE
  8
0
 10
-14.4803
 20
-21.3133
 11
-14.5
 21
-21
  0
LINE
  8
0
 10
-14.5
 20
-21
 11
-14.4803
 21
-20.6867
  0
LINE
  8
0
 10
-14.4803
 20
-20.6867
 11
-14.4214
 21
-20.3783
  0
LINE
  8
0
 10
-14.4214
 20
-20.3783
 11
-14.3244
 21
-20.0797
  0
LINE
  8
0
 10
-14.3244
 20
-20.0797
 11
-14.1908
 21
-19.7956
  0
LINE
  8
0
 10
-14.1908
 20
-19.7956
 11
-14.0225
 21
-19.5305
  0
LINE
  8
0
 10
-14.0225
 20
-19.5305
 11
-13.8224
 21
-19.2886
  0
LINE
  8
0
 10
-13.8224
 20
-19.2886
 11
-13.5936
 21
-19.0737
  0
LINE
  8
0
 10
-13.5936
 20
-19.0737
 11
-13.3396
 21
-18.8892
  0
LINE
  8
0
 10
-13.3396
 20
-18.8892
 11
-13.0644
 21
-18.7379
  0
LINE
  8
0
 10
-13.0644
 20
-18.7379
 11
-12.7725
 21
-18.6223
  0
LINE
  8
0
 10
-12.7725
 20
-18.6223
 11
-12.4684
 21
-18.5443
  0
LINE
  8
0
 10
-12.4684
 20
-18.5443
 11
-12.157
 21
-18.5049
  0
LINE
  8
0
 10
-12.157
 20
-18.5049
 11
-11.843
 21
-18.5049
  0
LINE
  8
0
 10
-11.843
 20
-18.5049
 11
-11.5315
 21
-18.5443
  0
LINE
  8
0
 10
-11.5315
 20
-18.5443
 11
-11.2274
 21
-18.6223
  0
LINE
  8
0
 10
-11.2274
 20
-18.6223
 11
-10.9355
 21
-18.7379
  0
LINE
  8
0
 10
-10.9355
 20
-18.7379
 11
-10.6604
 21
-18.8892
  0
LINE
  8
0
 10
-10.6604
 20
-18.8892
 11
-10.4064
 21
-19.0737
  0
LINE
  8
0
 10
-10.4064
 20
-19.0737
 11
-10.1776
 21
-19.2886
  0
LINE
  8
0
 10
-10.1776
 20
-19.2886
 11
-9.97745
 21
-19.5305
  0
LINE
  8
0
 10
-9.97745
 20
-19.5305
 11
-9.80922
 21
-19.7956
  0
LINE
  8
0
 10
-9.80922
 20
-19.7956
 11
-9.67555
 21
-20.0797
  0
LINE
  8
0
 10
-9.67555
 20
-20.0797
 11
-9.57854
 21
-20.3783
  0
LINE
  8
0
 10
-9.57854
 20
-20.3783
 11
-9.5197
 21
-20.6867
  0
LINE
  8
0
 10
-9.5197
 20
-20.6867
 11
-9.5
 21
-21
  0
LINE
  8
0
 10
-9.5
 20
-21
 11
-9.5197
 21
-21.3133
  0
LINE
  8
0
 10
-9.5197
 20
-21.3133
 11
-9.57854
 21
-21.6217
  0
LINE
  8
0
 10
-9.57854
 20
-21.6217
 11
-9.67555
 21
-21.9203
  0
LINE
  8
0
 10
-9.67555
 20
-21.9203
 11
-9.80922
 21
-22.2044
  0
LINE
  8
0
 10
-9.80922
 20
-22.2044
 11
-9.97745
 21
-22.4695
  0
LINE
  8
0
 10
-9.97745
 20
-22.4695
 11
-10.1776
 21
-22.7114
  0
LINE
  8
0
 10
-10.1776
 20
-22.7114
 11
-10.4064
 21
-22.9263
  0
LINE
  8
0
 10
-10.4064
 20
-22.9263
 11
-10.6604
 21
-23.1108
  0
LINE
  8
0
 10
-10.6604
 20
-23.1108
 11
-10.9355
 21
-23.2621
  0
LINE
  8
0
 10
-10.9355
 20
-23.2621
 11
-11.2274
 21
-23.3776
  0
LINE
  8
0
 10
-11.2274
 20
-23.3776
 11
-11.5315
 21
-23.4557
  0
LINE
  8
0
 10
-11.5315
 20
-23.4557
 11
-11.843
 21
-23.4951
  0
LINE
  8
0
 10
-11.843
 20
-23.4951
 11
-12.157
 21
-23.4951
  0
LINE
  8
0
 10
11.843
 20
-23.4951
 11
11.5315
 21
-23.4557
  0
LINE
  8
0
 10
11.5315
 20
-23.4557
 11
11.2274
 21
-23.3776
  0
LINE
  8
0
 10
11.2274
 20
-23.3776
 11
10.9355
 21
-23.2621
  0
LINE
  8
0
 10
10.9355
 20
-23.2621
 11
10.6604
 21
-23.1108
  0
LINE
  8
0
 10
10.6604
 20
-23.1108
 11
10.4064
 21
-22.9263
  0
LINE
  8
0
 10
10.4064
 20
-22.9263
 11
10.1776
 21
-22.7114
  0
LINE
  8
0
 10
10.1776
 20
-22.7114
 11
9.97745
 21
-22.4695
  0
LINE
  8
0
 10
9.97745
 20
-22.4695
 11
9.80922
 21
-22.2044
  0
LINE
  8
0
 10
9.80922
 20
-22.2044
 11
9.67555
 21
-21.9203
  0
LINE
  8
0
 10
9.67555
 20
-21.9203
 11
9.57854
 21
-21.6217
  0
LINE
  8
0
 10
9.57854
 20
-21.6217
 11
9.5197
 21
-21.3133
  0
LINE
  8
0
 10
9.5197
 20
-21.3133
 11
9.5
 21
-21
  0
LINE
  8
0
 10
9.5
 20
-21
 11
9.5197
 21
-20.6867
  0
LINE
  8
0
 10
9.5197
 20
-20.6867
 11
9.57854
 21
-20.3783
  0
LINE
  8
0
 10
9.57854
 20
-20.3783
 11
9.67555
 21
-20.0797
  0
LINE
  8
0
 10
9.67555
 20
-20.0797
 11
9.80922
 21
-19.7956
  0
LINE
  8
0
 10
9.80922
 20
-19.7956
 11
9.97745
 21
-19.5305
  0
LINE
  8
0
 10
9.97745
 20
-19.5305
 11
10.1776
 21
-19.2886
  0
LINE
  8
0
 10
10.1776
 20
-19.2886
 11
10.4064
 21
-19.0737
  0
LINE
  8
0
 10
10.4064
 20
-19.0737
 11
10.6604
 21
-18.8892
  0
LINE
  8
0
 10
10.6604
 20
-18.8892
 11
10.9355
 21
-18.7379
  0
LINE
  8
0
 10
10.9355
 20
-18.7379
 11
11.2274
 21
-18.6223
  0
LINE
  8
0
 10
11.2274
 20
-18.6223
 11
11.5315
 21
-18.5443
  0
LINE
  8
0
 10
11.5315
 20
-18.5443
 11
11.843
 21
-18.5049
  0
LINE
  8
0
 10
11.843
 20
-18.5049
 11
12.157
 21
-18.5049
  0
LINE
  8
0
 10
12.157
 20
-18.5049
 11
12.4684
 21
-18.5443
  0
LINE
  8
0
 10
12.4684
 20
-18.5443
 11
12.7725
 21
-18.6223
  0
LINE
  8
0
 10
12.7725
 20
-18.6223
 11
13.0644
 21
-18.7379
  0
LINE
  8
0
 10
13.0644
 20
-18.7379
 11
13.3396
 21
-18.8892
  0
LINE
  8
0
 10
13.3396
 20
-18.8892
 11
13.5936
 21
-19.0737
  0
LINE
  8
0
 10
13.5936
 20
-19.0737
 11
13.8224
 21
-19.2886
  0
LINE
  8
0
 10
13.8224
 20
-19.2886
 11
14.0225
 21
-19.5305
  0
LINE
  8
0
 10
14.0225
 20
-19.5305
 11
14.1908
 21
-19.7956
  0
LINE
  8
0
 10
14.1908
 20
-19.7956
 11
14.3244
 21
-20.0797
  0
LINE
  8
0
 10
14.3244
 20
-20.0797
 11
14.4214
 21
-20.3783
  0
LINE
  8
0
 10
14.4214
 20
-20.3783
 11
14.4803
 21
-20.6867
  0
LINE
  8
0
 10
14.4803
 20
-20.6867
 11
14.5
 21
-21
  0
LINE
  8
0
 10
14.5
 20
-21
 11
14.4803
 21
-21.3133
  0
LINE
  8
0
 10
14.4803
 20
-21.3133
 11
14.4214
 21
-21.6217
  0
LINE
  8
0
 10
14.4214
 20
-21.6217
 11
14.3244
 21
-21.9203
  0
LINE
  8
0
 10
14.3244
 20
-21.9203
 11
14.1908
 21
-22.2044
  0
LINE
  8
0
 10
14.1908
 20
-22.2044
 11
14.0225
 21
-22.4695
  0
LINE
  8
0
 10
14.0225
 20
-22.4695
 11
13.8224
 21
-22.7114
  0
LINE
  8
0
 10
13.8224
 20
-22.7114
 11
13.5936
 21
-22.9263
  0
LINE
  8
0
 10
13.5936
 20
-22.9263
 11
13.3396
 21
-23.1108
  0
LINE
  8
0
 10
13.3396
 20
-23.1108
 11
13.0644
 21
-23.2621
  0
LINE
  8
0
 10
13.0644
 20
-23.2621
 11
12.7725
 21
-23.3776
  0
LINE
  8
0
 10
12.7725
 20
-23.3776
 11
12.4684
 21
-23.4557
  0
LINE
  8
0
 10
12.4684
 20
-23.4557
 11
12.157
 21
-23.4951
  0
LINE
  8
0
 10
12.157
 20
-23.4951
 11
11.843
 21
-23.4951
  0
LINE
  8
0
 10
26.5
 20
-41.25
 11
26.5
 21
-38.75
  0
LINE
  8
0
 10
26.5
 20
-38.75
 11
33.5
 21
-38.75
  0
LINE
  8
0
 10
33.5
 20
-38.75
 11
33.5
 21
-41.25
  0
LINE
  8
0
 10
33.5
 20
-41.25
 11
26.5
 21
-41.25
  0
LINE
  8
0
 10
-12.0942
 20
-46.497
 11
-12.2811
 21
-46.4734
  0
LINE
  8
0
 10
-12.2811
 20
-46.4734
 11
-12.4635
 21
-46.4266
  0
LINE
  8
0
 10
-12.4635
 20
-46.4266
 11
-12.6387
 21
-46.3572
  0
LINE
  8
0
 10
-12.6387
 20
-46.3572
 11
-12.8037
 21
-46.2665
  0
LINE
  8
0
 10
-12.8037
 20
-46.2665
 11
-12.9561
 21
-46.1558
  0
LINE
  8
0
 10
-12.9561
 20
-46.1558
 11
-13.0934
 21
-46.0268
  0
LINE
  8
0
 10
-13.0934
 20
-46.0268
 11
-13.2135
 21
-45.8817
  0
LINE
  8
0
 10
-13.2135
 20
-45.8817
 11
-13.3145
 21
-45.7226
  0
LINE
  8
0
 10
-13.3145
 20
-45.7226
 11
-13.3947
 21
-45.5522
  0
LINE
  8
0
 10
-13.3947
 20
-45.5522
 11
-13.4529
 21
-45.373
  0
LINE
  8
0
 10
-13.4529
 20
-45.373
 11
-13.4882
 21
-45.188
  0
LINE
  8
0
 10
-13.4882
 20
-45.188
 11
-13.5
 21
-45
  0
LINE
  8
0
 10
-13.5
 20
-45
 11
-13.4882
 21
-44.812
  0
LINE
  8
0
 10
-13.4882
 20
-44.812
 11
-13.4529
 21
-44.627
  0
LINE
  8
0
 10
-13.4529
 20
-44.627
 11
-13.3947
 21
-44.4478
  0
LINE
  8
0
 10
-13.3947
 20
-44.4478
 11
-13.3145
 21
-44.2774
  0
LINE
  8
0
 10
-13.3145
 20
-44.2774
 11
-13.2135
 21
-44.1183
  0
LINE
  8
0
 10
-13.2135
 20
-44.1183
 11
-13.0934
 21
-43.9732
  0
LINE
  8
0
 10
-13.0934
 20
-43.9732
 11
-12.9561
 21
-43.8442
  0
LINE
  8
0
 10
-12.9561
 20
-43.8442
 11
-12.8037
 21
-43.7335
  0
LINE
  8
0
 10
-12.8037
 20
-43.7335
 11
-12.6387
 21
-43.6427
  0
LINE
  8
0
 10
-12.6387
 20
-43.6427
 11
-12.4635
 21
-43.5734
  0
LINE
  8
0
 10
-12.4635
 20
-43.5734
 11
-12.2811
 21
-43.5266
  0
LINE
  8
0
 10
-12.2811
 20
-43.5266
 11
-12.0942
 21
-43.5029
  0
LINE
  8
0
 10
-12.0942
 20
-43.5029
 11
-11.9058
 21
-43.5029
  0
LINE
  8
0
 10
-11.9058
 20
-43.5029
 11
-11.7189
 21
-43.5266
  0
LINE
  8
0
 10
-11.7189
 20
-43.5266
 11
-11.5365
 21
-43.5734
  0
LINE
  8
0
 10
-11.5365
 20
-43.5734
 11
-11.3613
 21
-43.6427
  0
LINE
  8
0
 10
-11.3613
 20
-43.6427
 11
-11.1963
 21
-43.7335
  0
LINE
  8
0
 10
-11.1963
 20
-43.7335
 11
-11.0439
 21
-43.8442
  0
LINE
  8
0
 10
-11.0439
 20
-43.8442
 11
-10.9065
 21
-43.9732
  0
LINE
  8
0
 10
-10.9065
 20
-43.9732
 11
-10.7865
 21
-44.1183
  0
LINE
  8
0
 10
-10.7865
 20
-44.1183
 11
-10.6855
 21
-44.2774
  0
LINE
  8
0
 10
-10.6855
 20
-44.2774
 11
-10.6053
 21
-44.4478
  0
LINE
  8
0
 10
-10.6053
 20
-44.4478
 11
-10.5471
 21
-44.627
  0
LINE
  8
0
 10
-10.5471
 20
-44.627
 11
-10.5118
 21
-44.812
  0
LINE
  8
0
 10
-10.5118
 20
-44.812
 11
-10.5
 21
-45
  0
LINE
  8
0
 10
-10.5
 20
-45
 11
-10.5118
 21
-45.188
  0
LINE
  8
0
 10
-10.5118
 20
-45.188
 11
-10.5471
 21
-45.373
  0
LINE
  8
0
 10
-10.5471
 20
-45.373
 11
-10.6053
 21
-45.5522
  0
LINE
  8
0
 10
-10.6053
 20
-45.5522
 11
-10.6855
 21
-45.7226
  0
LINE
  8
0
 10
-10.6855
 20
-45.7226
 11
-10.7865
 21
-45.8817
  0
LINE
  8
0
 10
-10.7865
 20
-45.8817
 11
-10.9065
 21
-46.0268
  0
LINE
  8
0
 10
-10.9065
 20
-46.0268
 11
-11.0439
 21
-46.1558
  0
LINE
  8
0
 10
-11.0439
 20
-46.1558
 11
-11.1963
 21
-46.2665
  0
LINE
  8
0
 10
-11.1963
 20
-46.2665
 11
-11.3613
 21
-46.3572
  0
LINE
  8
0
 10
-11.3613
 20
-46.3572
 11
-11.5365
 21
-46.4266
  0
LINE
  8
0
 10
-11.5365
 20
-46.4266
 11
-11.7189
 21
-46.4734
  0
LINE
  8
0
 10
-11.7189
 20
-46.4734
 11
-11.9058
 21
-46.497
  0
LINE
  8
0
 10
-11.9058
 20
-46.497
 11
-12.0942
 21
-46.497
  0
LINE
  8
0
 10
11.9058
 20
-46.497
 11
11.7189
 21
-46.4734
  0
LINE
  8
0
 10
11.7189
 20
-46.4734
 11
11.5365
 21
-46.4266
  0
LINE
  8
0
 10
11.5365
 20
-46.4266
 11
11.3613
 21
-46.3572
  0
LINE
  8
0
 10
11.3613
 20
-46.3572
 11
11.1963
 21
-46.2665
  0
LINE
  8
0
 10
11.1963
 20
-46.2665
 11
11.0439
 21
-46.1558
  0
LINE
  8
0
 10
11.0439
 20
-46.1558
 11
10.9065
 21
-46.0268
  0
LINE
  8
0
 10
10.9065
 20
-46.0268
 11
10.7865
 21
-45.8817
  0
LINE
  8
0
 10
10.7865
 20
-45.8817
 11
10.6855
 21
-45.7226
  0
LINE
  8
0
 10
10.6855
 20
-45.7226
 11
10.6053
 21
-45.5522
  0
LINE
  8
0
 10
10.6053
 20
-45.5522
 11
10.5471
 21
-45.373
  0
LINE
  8
0
 10
10.5471
 20
-45.373
 11
10.5118
 21
-45.188
  0
LINE
  8
0
 10
10.5118
 20
-45.188
 11
10.5
 21
-45
  0
LINE
  8
0
 10
10.5
 20
-45
 11
10.5118
 21
-44.812
  0
LINE
  8
0
 10
10.5118
 20
-44.812
 11
10.5471
 21
-44.627
  0
LINE
  8
0
 10
10.5471
 20
-44.627
 11
10.6053
 21
-44.4478
  0
LINE
  8
0
 10
10.6053
 20
-44.4478
 11
10.6855
 21
-44.2774
  0
LINE
  8
0
 10
10.6855
 20
-44.2774
 11
10.7865
 21
-44.1183
  0
LINE
  8
0
 10
10.7865
 20
-44.1183
 11
10.9065
 21
-43.9732
  0
LINE
  8
0
 10
10.9065
 20
-43.9732
 11
11.0439
 21
-43.8442
  0
LINE
  8
0
 10
11.0439
 20
-43.8442
 11
11.1963
 21
-43.7335
  0
LINE
  8
0
 10
11.1963
 20
-43.7335
 11
11.3613
 21
-43.6427
  0
LINE
  8
0
 10
11.3613
 20
-43.6427
 11
11.5365
 21
-43.5734
  0
LINE
  8
0
 10
11.5365
 20
-43.5734
 11
11.7189
 21
-43.5266
  0
LINE
  8
0
 10
11.7189
 20
-43.5266
 11
11.9058
 21
-43.5029
  0
LINE
  8
0
 10
11.9058
 20
-43.5029
 11
12.0942
 21
-43.5029
  0
LINE
  8
0
 10
12.0942
 20
-43.5029
 11
12.2811
 21
-43.5266
  0
LINE
  8
0
 10
12.2811
 20
-43.5266
 11
12.4635
 21
-43.5734
  0
LINE
  8
0
 10
12.4635
 20
-43.5734
 11
12.6387
 21
-43.6427
  0
LINE
  8
0
 10
12.6387
 20
-43.6427
 11
12.8037
 21
-43.7335
  0
LINE
  8
0
 10
12.8037
 20
-43.7335
 11
12.9561
 21
-43.8442
  0
LINE
  8
0
 10
12.9561
 20
-43.8442
 11
13.0934
 21
-43.9732
  0
LINE
  8
0
 10
13.0934
 20
-43.9732
 11
13.2135
 21
-44.1183
  0
LINE
  8
0
 10
13.2135
 20
-44.1183
 11
13.3145
 21
-44.2774
  0
LINE
  8
0
 10
13.3145
 20
-44.2774
 11
13.3947
 21
-44.4478
  0
LINE
  8
0
 10
13.3947
 20
-44.4478
 11
13.4529
 21
-44.627
  0
LINE
  8
0
 10
13.4529
 20
-44.627
 11
13.4882
 21
-44.812
  0
LINE
  8
0
 10
13.4882
 20
-44.812
 11
13.5
 21
-45
  0
LINE
  8
0
 10
13.5
 20
-45
 11
13.4882
 21
-45.188
  0
LINE
  8
0
 10
13.4882
 20
-45.188
 11
13.4529
 21
-45.373
  0
LINE
  8
0
 10
13.4529
 20
-45.373
 11
13.3947
 21
-45.5522
  0
LINE
  8
0
 10
13.3947
 20
-45.5522
 11
13.3145
 21
-45.7226
  0
LINE
  8
0
 10
13.3145
 20
-45.7226
 11
13.2135
 21
-45.8817
  0
LINE
  8
0
 10
13.2135
 20
-45.8817
 11
13.0934
 21
-46.0268
  0
LINE
  8
0
 10
13.0934
 20
-46.0268
 11
12.9561
 21
-46.1558
  0
LINE
  8
0
 10
12.9561
 20
-46.1558
 11
12.8037
 21
-46.2665
  0
LINE
  8
0
 10
12.8037
 20
-46.2665
 11
12.6387
 21
-46.3572
  0
LINE
  8
0
 10
12.6387
 20
-46.3572
 11
12.4635
 21
-46.4266
  0
LINE
  8
0
 10
12.4635
 20
-46.4266
 11
12.2811
 21
-46.4734
  0
LINE
  8
0
 10
12.2811
 20
-46.4734
 11
12.0942
 21
-46.497
  0
LINE
  8
0
 10
12.0942
 20
-46.497
 11
11.9058
 21
-46.497
  0
ENDSEC
  0
SECTION
  2
OBJECTS
  0
DICTIONARY
  0
ENDSEC
  0
EOF
