  0
SECTION
  2
HEADER
  9
$ACADVER
  1
AC1014
  9
$HANDSEED
  5
FFFF
  9
$MEASUREMENT
 70
     1
  0
ENDSEC
  0
SECTION
  2
TABLES
  0
TABLE
  2
VPORT
  5
8
330
0
100
AcDbSymbolTable
 70
     4
  0
VPORT
  5
2E
330
8
100
AcDbSymbolTableRecord
100
AcDbViewportTableRecord
  2
*ACTIVE
 70
     0
 10
0.0
 20
0.0
 11
1.0
 21
1.0
 12
210.0
 22
148.5
 13
0.0
 23
0.0
 14
10.0
 24
10.0
 15
10.0
 25
10.0
 16
0.0
 26
0.0
 36
1.0
 17
0.0
 27
0.0
 37
0.0
 40
341.0
 41
1.24
 42
50.0
 43
0.0
 44
0.0
 50
0.0
 51
0.0
 71
     0
 72
   100
 73
     1
 74
     3
 75
     0
 76
     0
 77
     0
 78
     0
  0
ENDTAB
  0
TABLE
  2
LTYPE
  5
5
330
0
100
AcDbSymbolTable
 70
     1
  0
LTYPE
  5
14
330
5
100
AcDbSymbolTableRecord
100
AcDbLinetypeTableRecord
  2
BYBLOCK
 70
     0
  3

 72
    65
 73
     0
 40
0.0
  0
LTYPE
  5
15
330
5
100
AcDbSymbolTableRecord
100
AcDbLinetypeTableRecord
  2
BYLAYER
 70
     0
  3

 72
    65
 73
     0
 40
0.0
  0
LTYPE
  5
16
330
5
100
AcDbSymbolTableRecord
100
AcDbLinetypeTableRecord
  2
CONTINUOUS
 70
     0
  3
Solid line
 72
    65
 73
     0
 40
0.0
  0
ENDTAB
  0
TABLE
  2
LAYER
  5
2
100
AcDbSymbolTable
 70
2
  0
LAYER
  5
50
100
AcDbSymbolTableRecord
100
AcDbLayerTableRecord
  2
0
 70
0
  6
CONTINUOUS
  0
LAYER
  5
51
100
AcDbSymbolTableRecord
100
AcDbLayerTableRecord
  2
Ebene_1
 70
0
  6
CONTINUOUS
  0
ENDTAB
  0
TABLE
  2
STYLE
  5
3
330
0
100
AcDbSymbolTable
 70
     1
  0
STYLE
  5
11
330
3
100
AcDbSymbolTableRecord
100
AcDbTextStyleTableRecord
  2
STANDARD
 70
     0
 40
0.0
 41
1.0
 50
0.0
 71
     0
 42
2.5
  3
txt
  4

  0
ENDTAB
  0
TABLE
  2
VIEW
  5
6
330
0
100
AcDbSymbolTable
 70
     0
  0
ENDTAB
  0
TABLE
  2
UCS
  5
7
330
0
100
AcDbSymbolTable
 70
     0
  0
ENDTAB
  0
TABLE
  2
APPID
  5
9
330
0
100
AcDbSymbolTable
 70
     2
  0
APPID
  5
12
330
9
100
AcDbSymbolTableRecord
100
AcDbRegAppTableRecord
  2
ACAD
 70
     0
  0
ENDTAB
  0
TABLE
  2
DIMSTYLE
  5
A
330
0
100
AcDbSymbolTable
 70
     1
  0
DIMSTYLE
105
27
330
A
100
AcDbSymbolTableRecord
100
AcDbDimStyleTableRecord
  2
ISO-25
 70
     0
  3

  4

  5

  6

  7

 40
1.0
 41
2.5
 42
0.625
 43
3.75
 44
1.25
 45
0.0
 46
0.0
 47
0.0
 48
0.0
140
2.5
141
2.5
142
0.0
143
0.03937007874016
144
1.0
145
0.0
146
1.0
147
0.625
 71
     0
 72
     0
 73
     0
 74
     0
 75
     0
 76
     0
 77
     1
 78
     8
170
     0
171
     3
172
     1
173
     0
174
     0
175
     0
176
     0
177
     0
178
     0
270
     2
271
     2
272
     2
273
     2
274
     3
340
11
275
     0
280
     0
281
     0
282
     0
283
     0
284
     8
285
     0
286
     0
287
     3
288
     0
  0
ENDTAB
  0
TABLE
  2
BLOCK_RECORD
  5
1
330
0
100
AcDbSymbolTable
 70
     1
  0
BLOCK_RECORD
  5
1F
330
1
100
AcDbSymbolTableRecord
100
AcDbBlockTableRecord
  2
*MODEL_SPACE
  0
BLOCK_RECORD
  5
1B
330
1
100
AcDbSymbolTableRecord
100
AcDbBlockTableRecord
  2
*PAPER_SPACE
  0
ENDTAB
  0
ENDSEC
  0
SECTION
  2
BLOCKS
  0
BLOCK
  5
20
330
1F
100
AcDbEntity
  8
0
100
AcDbBlockBegin
  2
*MODEL_SPACE
 70
     0
 10
0.0
 20
0.0
 30
0.0
  3
*MODEL_SPACE
  1

  0
ENDBLK
  5
21
330
1F
100
AcDbEntity
  8
0
100
AcDbBlockEnd
  0
BLOCK
  5
1C
330
1B
100
AcDbEntity
 67
     1
  8
0
100
AcDbBlockBegin
  2
*PAPER_SPACE
  1

  0
ENDBLK
  5
1D
330
1B
100
AcDbEntity
 67
     1
  8
0
100
AcDbBlockEnd
  0
ENDSEC
  0
SECTION
  2
ENTITIES
  0
LWPOLYLINE
  5
100
100
AcDbEntity
  8
Ebene_1
 62
7
100
AcDbPolyline
 90
6
 70
0
 10
-187.631745
 20
244.968261
 30
0.0
 10
-227.631746
 20
294.968260
 30
0.0
 10
-277.631745
 20
294.968260
 30
0.0
 10
-277.631745
 20
204.968262
 30
0.0
 10
-187.631745
 20
204.968262
 30
0.0
 10
-187.631745
 20
244.968261
 30
0.0
  0
LWPOLYLINE
  5
101
100
AcDbEntity
  8
Ebene_1
 62
7
100
AcDbPolyline
 90
51
 70
0
 10
-261.725945
 20
273.471162
 30
0.0
 10
-261.912845
 20
273.494868
 30
0.0
 10
-262.095245
 20
273.541661
 30
0.0
 10
-262.270445
 20
273.610960
 30
0.0
 10
-262.435445
 20
273.701760
 30
0.0
 10
-262.587845
 20
273.812461
 30
0.0
 10
-262.725145
 20
273.941459
 30
0.0
 10
-262.845245
 20
274.086561
 30
0.0
 10
-262.946245
 20
274.245661
 30
0.0
 10
-263.026445
 20
274.416061
 30
0.0
 10
-263.084645
 20
274.595261
 30
0.0
 10
-263.119945
 20
274.780261
 30
0.0
 10
-263.131745
 20
274.968260
 30
0.0
 10
-263.119945
 20
275.156260
 30
0.0
 10
-263.084645
 20
275.341262
 30
0.0
 10
-263.026445
 20
275.520462
 30
0.0
 10
-262.946245
 20
275.690862
 30
0.0
 10
-262.845245
 20
275.849959
 30
0.0
 10
-262.725145
 20
275.995061
 30
0.0
 10
-262.587845
 20
276.124062
 30
0.0
 10
-262.435445
 20
276.234761
 30
0.0
 10
-262.270445
 20
276.325461
 30
0.0
 10
-262.095245
 20
276.394860
 30
0.0
 10
-261.912845
 20
276.441661
 30
0.0
 10
-261.725945
 20
276.465254
 30
0.0
 10
-261.537545
 20
276.465260
 30
0.0
 10
-261.350645
 20
276.441666
 30
0.0
 10
-261.168245
 20
276.394860
 30
0.0
 10
-260.993045
 20
276.325461
 30
0.0
 10
-260.828045
 20
276.234761
 30
0.0
 10
-260.675645
 20
276.124062
 30
0.0
 10
-260.538245
 20
275.995061
 30
0.0
 10
-260.418245
 20
275.849959
 30
0.0
 10
-260.317245
 20
275.690862
 30
0.0
 10
-260.237045
 20
275.520462
 30
0.0
 10
-260.178845
 20
275.341262
 30
0.0
 10
-260.143545
 20
275.156260
 30
0.0
 10
-260.131745
 20
274.968260
 30
0.0
 10
-260.143545
 20
274.780261
 30
0.0
 10
-260.178845
 20
274.595261
 30
0.0
 10
-260.237045
 20
274.416061
 30
0.0
 10
-260.317245
 20
274.245661
 30
0.0
 10
-260.418245
 20
274.086561
 30
0.0
 10
-260.538245
 20
273.941459
 30
0.0
 10
-260.675645
 20
273.812461
 30
0.0
 10
-260.828045
 20
273.701760
 30
0.0
 10
-260.993045
 20
273.610960
 30
0.0
 10
-261.168245
 20
273.541661
 30
0.0
 10
-261.350645
 20
273.494860
 30
0.0
 10
-261.537545
 20
273.471153
 30
0.0
 10
-261.725945
 20
273.471162
 30
0.0
  0
LWPOLYLINE
  5
102
100
AcDbEntity
  8
Ebene_1
 62
7
100
AcDbPolyline
 90
51
 70
0
 10
-243.725946
 20
273.471162
 30
0.0
 10
-243.912844
 20
273.494868
 30
0.0
 10
-244.095245
 20
273.541661
 30
0.0
 10
-244.270445
 20
273.610960
 30
0.0
 10
-244.435444
 20
273.701760
 30
0.0
 10
-244.587847
 20
273.812461
 30
0.0
 10
-244.725244
 20
273.941459
 30
0.0
 10
-244.845245
 20
274.086561
 30
0.0
 10
-244.946246
 20
274.245661
 30
0.0
 10
-245.026445
 20
274.416061
 30
0.0
 10
-245.084645
 20
274.595261
 30
0.0
 10
-245.119946
 20
274.780261
 30
0.0
 10
-245.131742
 20
274.968260
 30
0.0
 10
-245.119948
 20
275.156260
 30
0.0
 10
-245.084645
 20
275.341262
 30
0.0
 10
-245.026445
 20
275.520462
 30
0.0
 10
-244.946246
 20
275.690862
 30
0.0
 10
-244.845245
 20
275.849959
 30
0.0
 10
-244.725244
 20
275.995061
 30
0.0
 10
-244.587847
 20
276.124062
 30
0.0
 10
-244.435444
 20
276.234761
 30
0.0
 10
-244.270445
 20
276.325461
 30
0.0
 10
-244.095245
 20
276.394860
 30
0.0
 10
-243.912844
 20
276.441661
 30
0.0
 10
-243.725946
 20
276.465254
 30
0.0
 10
-243.537545
 20
276.465260
 30
0.0
 10
-243.350646
 20
276.441666
 30
0.0
 10
-243.168246
 20
276.394860
 30
0.0
 10
-242.993045
 20
276.325461
 30
0.0
 10
-242.828044
 20
276.234761
 30
0.0
 10
-242.675644
 20
276.124062
 30
0.0
 10
-242.538346
 20
275.995061
 30
0.0
 10
-242.418246
 20
275.849959
 30
0.0
 10
-242.317245
 20
275.690862
 30
0.0
 10
-242.237046
 20
275.520462
 30
0.0
 10
-242.178846
 20
275.341262
 30
0.0
 10
-242.143545
 20
275.156260
 30
0.0
 10
-242.131748
 20
274.968260
 30
0.0
 10
-242.143542
 20
274.780261
 30
0.0
 10
-242.178846
 20
274.595261
 30
0.0
 10
-242.237046
 20
274.416061
 30
0.0
 10
-242.317245
 20
274.245661
 30
0.0
 10
-242.418246
 20
274.086561
 30
0.0
 10
-242.538346
 20
273.941459
 30
0.0
 10
-242.675644
 20
273.812461
 30
0.0
 10
-242.828044
 20
273.701760
 30
0.0
 10
-242.993045
 20
273.610960
 30
0.0
 10
-243.168246
 20
273.541661
 30
0.0
 10
-243.350646
 20
273.494860
 30
0.0
 10
-243.537545
 20
273.471153
 30
0.0
 10
-243.725946
 20
273.471162
 30
0.0
  0
LWPOLYLINE
  5
103
100
AcDbEntity
  8
Ebene_1
 62
7
100
AcDbPolyline
 90
51
 70
0
 10
-252.788745
 20
263.473160
 30
0.0
 10
-253.100145
 20
263.512561
 30
0.0
 10
-253.404245
 20
263.590660
 30
0.0
 10
-253.696145
 20
263.706160
 30
0.0
 10
-253.971345
 20
263.857459
 30
0.0
 10
-254.225345
 20
264.041962
 30
0.0
 10
-254.454145
 20
264.256860
 30
0.0
 10
-254.654245
 20
264.498761
 30
0.0
 10
-254.822545
 20
264.763861
 30
0.0
 10
-254.956145
 20
265.047960
 30
0.0
 10
-255.053145
 20
265.346560
 30
0.0
 10
-255.112045
 20
265.654961
 30
0.0
 10
-255.131744
 20
265.968261
 30
0.0
 10
-255.112046
 20
266.281562
 30
0.0
 10
-255.053145
 20
266.589960
 30
0.0
 10
-254.956145
 20
266.888560
 30
0.0
 10
-254.822545
 20
267.172661
 30
0.0
 10
-254.654245
 20
267.437761
 30
0.0
 10
-254.454145
 20
267.679660
 30
0.0
 10
-254.225345
 20
267.894561
 30
0.0
 10
-253.971345
 20
268.079060
 30
0.0
 10
-253.696145
 20
268.230360
 30
0.0
 10
-253.404245
 20
268.345859
 30
0.0
 10
-253.100145
 20
268.423961
 30
0.0
 10
-252.788745
 20
268.463360
 30
0.0
 10
-252.474745
 20
268.463360
 30
0.0
 10
-252.163345
 20
268.423961
 30
0.0
 10
-251.859245
 20
268.345859
 30
0.0
 10
-251.567345
 20
268.230360
 30
0.0
 10
-251.292145
 20
268.079060
 30
0.0
 10
-251.038145
 20
267.894561
 30
0.0
 10
-250.809345
 20
267.679660
 30
0.0
 10
-250.609245
 20
267.437761
 30
0.0
 10
-250.440945
 20
267.172661
 30
0.0
 10
-250.307345
 20
266.888560
 30
0.0
 10
-250.210345
 20
266.589960
 30
0.0
 10
-250.151445
 20
266.281562
 30
0.0
 10
-250.131746
 20
265.968261
 30
0.0
 10
-250.151444
 20
265.654961
 30
0.0
 10
-250.210345
 20
265.346560
 30
0.0
 10
-250.307345
 20
265.047960
 30
0.0
 10
-250.440945
 20
264.763861
 30
0.0
 10
-250.609245
 20
264.498761
 30
0.0
 10
-250.809345
 20
264.256860
 30
0.0
 10
-251.038145
 20
264.041962
 30
0.0
 10
-251.292145
 20
263.857459
 30
0.0
 10
-251.567345
 20
263.706160
 30
0.0
 10
-251.859245
 20
263.590660
 30
0.0
 10
-252.163345
 20
263.512561
 30
0.0
 10
-252.474745
 20
263.473160
 30
0.0
 10
-252.788745
 20
263.473160
 30
0.0
  0
LWPOLYLINE
  5
104
100
AcDbEntity
  8
Ebene_1
 62
7
100
AcDbPolyline
 90
51
 70
0
 10
-261.725945
 20
255.471260
 30
0.0
 10
-261.912845
 20
255.494853
 30
0.0
 10
-262.095245
 20
255.541660
 30
0.0
 10
-262.270445
 20
255.611061
 30
0.0
 10
-262.435445
 20
255.701759
 30
0.0
 10
-262.587845
 20
255.812461
 30
0.0
 10
-262.725145
 20
255.941462
 30
0.0
 10
-262.845245
 20
256.086561
 30
0.0
 10
-262.946245
 20
256.245660
 30
0.0
 10
-263.026445
 20
256.416061
 30
0.0
 10
-263.084645
 20
256.595260
 30
0.0
 10
-263.119945
 20
256.780260
 30
0.0
 10
-263.131745
 20
256.968259
 30
0.0
 10
-263.119945
 20
257.156262
 30
0.0
 10
-263.084645
 20
257.341261
 30
0.0
 10
-263.026445
 20
257.520461
 30
0.0
 10
-262.946245
 20
257.690861
 30
0.0
 10
-262.845245
 20
257.849961
 30
0.0
 10
-262.725145
 20
257.995060
 30
0.0
 10
-262.587845
 20
258.124061
 30
0.0
 10
-262.435445
 20
258.234760
 30
0.0
 10
-262.270445
 20
258.325559
 30
0.0
 10
-262.095245
 20
258.394862
 30
0.0
 10
-261.912845
 20
258.441660
 30
0.0
 10
-261.725945
 20
258.465366
 30
0.0
 10
-261.537545
 20
258.465361
 30
0.0
 10
-261.350645
 20
258.441654
 30
0.0
 10
-261.168245
 20
258.394862
 30
0.0
 10
-260.993045
 20
258.325559
 30
0.0
 10
-260.828045
 20
258.234760
 30
0.0
 10
-260.675645
 20
258.124061
 30
0.0
 10
-260.538245
 20
257.995060
 30
0.0
 10
-260.418245
 20
257.849961
 30
0.0
 10
-260.317245
 20
257.690861
 30
0.0
 10
-260.237045
 20
257.520461
 30
0.0
 10
-260.178845
 20
257.341261
 30
0.0
 10
-260.143545
 20
257.156262
 30
0.0
 10
-260.131745
 20
256.968259
 30
0.0
 10
-260.143545
 20
256.780260
 30
0.0
 10
-260.178845
 20
256.595260
 30
0.0
 10
-260.237045
 20
256.416061
 30
0.0
 10
-260.317245
 20
256.245660
 30
0.0
 10
-260.418245
 20
256.086561
 30
0.0
 10
-260.538245
 20
255.941462
 30
0.0
 10
-260.675645
 20
255.812461
 30
0.0
 10
-260.828045
 20
255.701759
 30
0.0
 10
-260.993045
 20
255.611061
 30
0.0
 10
-261.168245
 20
255.541660
 30
0.0
 10
-261.350645
 20
255.494859
 30
0.0
 10
-261.537545
 20
255.471265
 30
0.0
 10
-261.725945
 20
255.471260
 30
0.0
  0
LWPOLYLINE
  5
105
100
AcDbEntity
  8
Ebene_1
 62
7
100
AcDbPolyline
 90
51
 70
0
 10
-243.725946
 20
255.471260
 30
0.0
 10
-243.912844
 20
255.494853
 30
0.0
 10
-244.095245
 20
255.541660
 30
0.0
 10
-244.270445
 20
255.611061
 30
0.0
 10
-244.435444
 20
255.701759
 30
0.0
 10
-244.587847
 20
255.812461
 30
0.0
 10
-244.725244
 20
255.941462
 30
0.0
 10
-244.845245
 20
256.086561
 30
0.0
 10
-244.946246
 20
256.245660
 30
0.0
 10
-245.026445
 20
256.416061
 30
0.0
 10
-245.084645
 20
256.595260
 30
0.0
 10
-245.119946
 20
256.780260
 30
0.0
 10
-245.131742
 20
256.968259
 30
0.0
 10
-245.119948
 20
257.156262
 30
0.0
 10
-245.084645
 20
257.341261
 30
0.0
 10
-245.026445
 20
257.520461
 30
0.0
 10
-244.946246
 20
257.690861
 30
0.0
 10
-244.845245
 20
257.849961
 30
0.0
 10
-244.725244
 20
257.995060
 30
0.0
 10
-244.587847
 20
258.124061
 30
0.0
 10
-244.435444
 20
258.234760
 30
0.0
 10
-244.270445
 20
258.325559
 30
0.0
 10
-244.095245
 20
258.394862
 30
0.0
 10
-243.912844
 20
258.441660
 30
0.0
 10
-243.725946
 20
258.465366
 30
0.0
 10
-243.537545
 20
258.465361
 30
0.0
 10
-243.350646
 20
258.441654
 30
0.0
 10
-243.168246
 20
258.394862
 30
0.0
 10
-242.993045
 20
258.325559
 30
0.0
 10
-242.828044
 20
258.234760
 30
0.0
 10
-242.675644
 20
258.124061
 30
0.0
 10
-242.538346
 20
257.995060
 30
0.0
 10
-242.418246
 20
257.849961
 30
0.0
 10
-242.317245
 20
257.690861
 30
0.0
 10
-242.237046
 20
257.520461
 30
0.0
 10
-242.178846
 20
257.341261
 30
0.0
 10
-242.143545
 20
257.156262
 30
0.0
 10
-242.131748
 20
256.968259
 30
0.0
 10
-242.143542
 20
256.780260
 30
0.0
 10
-242.178846
 20
256.595260
 30
0.0
 10
-242.237046
 20
256.416061
 30
0.0
 10
-242.317245
 20
256.245660
 30
0.0
 10
-242.418246
 20
256.086561
 30
0.0
 10
-242.538346
 20
255.941462
 30
0.0
 10
-242.675644
 20
255.812461
 30
0.0
 10
-242.828044
 20
255.701759
 30
0.0
 10
-242.993045
 20
255.611061
 30
0.0
 10
-243.168246
 20
255.541660
 30
0.0
 10
-243.350646
 20
255.494859
 30
0.0
 10
-243.537545
 20
255.471265
 30
0.0
 10
-243.725946
 20
255.471260
 30
0.0
  0
LWPOLYLINE
  5
106
100
AcDbEntity
  8
Ebene_1
 62
7
100
AcDbPolyline
 90
51
 70
0
 10
-262.788745
 20
232.473160
 30
0.0
 10
-263.100145
 20
232.512561
 30
0.0
 10
-263.404245
 20
232.590561
 30
0.0
 10
-263.696145
 20
232.706160
 30
0.0
 10
-263.971345
 20
232.857462
 30
0.0
 10
-264.225345
 20
233.041962
 30
0.0
 10
-264.454145
 20
233.256860
 30
0.0
 10
-264.654245
 20
233.498761
 30
0.0
 10
-264.822545
 20
233.763861
 30
0.0
 10
-264.956145
 20
234.047960
 30
0.0
 10
-265.053145
 20
234.346559
 30
0.0
 10
-265.112045
 20
234.654961
 30
0.0
 10
-265.131744
 20
234.968261
 30
0.0
 10
-265.112046
 20
235.281562
 30
0.0
 10
-265.053145
 20
235.589960
 30
0.0
 10
-264.956145
 20
235.888560
 30
0.0
 10
-264.822545
 20
236.172661
 30
0.0
 10
-264.654245
 20
236.437761
 30
0.0
 10
-264.454145
 20
236.679659
 30
0.0
 10
-264.225345
 20
236.894560
 30
0.0
 10
-263.971345
 20
237.079060
 30
0.0
 10
-263.696145
 20
237.230360
 30
0.0
 10
-263.404245
 20
237.345862
 30
0.0
 10
-263.100145
 20
237.423961
 30
0.0
 10
-262.788745
 20
237.463360
 30
0.0
 10
-262.474745
 20
237.463360
 30
0.0
 10
-262.163245
 20
237.423961
 30
0.0
 10
-261.859145
 20
237.345862
 30
0.0
 10
-261.567245
 20
237.230360
 30
0.0
 10
-261.292145
 20
237.079060
 30
0.0
 10
-261.038145
 20
236.894560
 30
0.0
 10
-260.809345
 20
236.679659
 30
0.0
 10
-260.609145
 20
236.437761
 30
0.0
 10
-260.440945
 20
236.172661
 30
0.0
 10
-260.307345
 20
235.888560
 30
0.0
 10
-260.210245
 20
235.589960
 30
0.0
 10
-260.151445
 20
235.281562
 30
0.0
 10
-260.131746
 20
234.968261
 30
0.0
 10
-260.151444
 20
234.654961
 30
0.0
 10
-260.210245
 20
234.346559
 30
0.0
 10
-260.307345
 20
234.047960
 30
0.0
 10
-260.440945
 20
233.763861
 30
0.0
 10
-260.609145
 20
233.498761
 30
0.0
 10
-260.809345
 20
233.256860
 30
0.0
 10
-261.038145
 20
233.041962
 30
0.0
 10
-261.292145
 20
232.857462
 30
0.0
 10
-261.567245
 20
232.706160
 30
0.0
 10
-261.859145
 20
232.590561
 30
0.0
 10
-262.163245
 20
232.512561
 30
0.0
 10
-262.474745
 20
232.473160
 30
0.0
 10
-262.788745
 20
232.473160
 30
0.0
  0
LWPOLYLINE
  5
107
100
AcDbEntity
  8
Ebene_1
 62
7
100
AcDbPolyline
 90
51
 70
0
 10
-242.788745
 20
232.473160
 30
0.0
 10
-243.100245
 20
232.512561
 30
0.0
 10
-243.404345
 20
232.590561
 30
0.0
 10
-243.696244
 20
232.706160
 30
0.0
 10
-243.971346
 20
232.857462
 30
0.0
 10
-244.225346
 20
233.041962
 30
0.0
 10
-244.454144
 20
233.256860
 30
0.0
 10
-244.654344
 20
233.498761
 30
0.0
 10
-244.822545
 20
233.763861
 30
0.0
 10
-244.956144
 20
234.047960
 30
0.0
 10
-245.053245
 20
234.346559
 30
0.0
 10
-245.112046
 20
234.654961
 30
0.0
 10
-245.131745
 20
234.968261
 30
0.0
 10
-245.112046
 20
235.281562
 30
0.0
 10
-245.053245
 20
235.589960
 30
0.0
 10
-244.956144
 20
235.888560
 30
0.0
 10
-244.822545
 20
236.172661
 30
0.0
 10
-244.654344
 20
236.437761
 30
0.0
 10
-244.454144
 20
236.679659
 30
0.0
 10
-244.225346
 20
236.894560
 30
0.0
 10
-243.971346
 20
237.079060
 30
0.0
 10
-243.696244
 20
237.230360
 30
0.0
 10
-243.404345
 20
237.345862
 30
0.0
 10
-243.100245
 20
237.423961
 30
0.0
 10
-242.788745
 20
237.463360
 30
0.0
 10
-242.474744
 20
237.463360
 30
0.0
 10
-242.163346
 20
237.423961
 30
0.0
 10
-241.859246
 20
237.345862
 30
0.0
 10
-241.567346
 20
237.230360
 30
0.0
 10
-241.292146
 20
237.079060
 30
0.0
 10
-241.038146
 20
236.894560
 30
0.0
 10
-240.809345
 20
236.679659
 30
0.0
 10
-240.609244
 20
236.437761
 30
0.0
 10
-240.440947
 20
236.172661
 30
0.0
 10
-240.307345
 20
235.888560
 30
0.0
 10
-240.210346
 20
235.589960
 30
0.0
 10
-240.151446
 20
235.281562
 30
0.0
 10
-240.131747
 20
234.968261
 30
0.0
 10
-240.151443
 20
234.654961
 30
0.0
 10
-240.210346
 20
234.346559
 30
0.0
 10
-240.307345
 20
234.047960
 30
0.0
 10
-240.440947
 20
233.763861
 30
0.0
 10
-240.609244
 20
233.498761
 30
0.0
 10
-240.809345
 20
233.256860
 30
0.0
 10
-241.038146
 20
233.041962
 30
0.0
 10
-241.292146
 20
232.857462
 30
0.0
 10
-241.567346
 20
232.706160
 30
0.0
 10
-241.859246
 20
232.590561
 30
0.0
 10
-242.163346
 20
232.512561
 30
0.0
 10
-242.474744
 20
232.473160
 30
0.0
 10
-242.788745
 20
232.473160
 30
0.0
  0
LWPOLYLINE
  5
108
100
AcDbEntity
  8
Ebene_1
 62
7
100
AcDbPolyline
 90
51
 70
0
 10
-217.788744
 20
232.473160
 30
0.0
 10
-218.100145
 20
232.512561
 30
0.0
 10
-218.404245
 20
232.590561
 30
0.0
 10
-218.696145
 20
232.706160
 30
0.0
 10
-218.971345
 20
232.857462
 30
0.0
 10
-219.225345
 20
233.041962
 30
0.0
 10
-219.454146
 20
233.256860
 30
0.0
 10
-219.654244
 20
233.498761
 30
0.0
 10
-219.822545
 20
233.763861
 30
0.0
 10
-219.956146
 20
234.047960
 30
0.0
 10
-220.053146
 20
234.346559
 30
0.0
 10
-220.112045
 20
234.654961
 30
0.0
 10
-220.131744
 20
234.968261
 30
0.0
 10
-220.112045
 20
235.281562
 30
0.0
 10
-220.053146
 20
235.589960
 30
0.0
 10
-219.956146
 20
235.888560
 30
0.0
 10
-219.822545
 20
236.172661
 30
0.0
 10
-219.654244
 20
236.437761
 30
0.0
 10
-219.454146
 20
236.679659
 30
0.0
 10
-219.225345
 20
236.894560
 30
0.0
 10
-218.971345
 20
237.079060
 30
0.0
 10
-218.696145
 20
237.230360
 30
0.0
 10
-218.404245
 20
237.345862
 30
0.0
 10
-218.100145
 20
237.423961
 30
0.0
 10
-217.788744
 20
237.463360
 30
0.0
 10
-217.474746
 20
237.463360
 30
0.0
 10
-217.163246
 20
237.423961
 30
0.0
 10
-216.859146
 20
237.345862
 30
0.0
 10
-216.567244
 20
237.230360
 30
0.0
 10
-216.292145
 20
237.079060
 30
0.0
 10
-216.038145
 20
236.894560
 30
0.0
 10
-215.809345
 20
236.679659
 30
0.0
 10
-215.609145
 20
236.437761
 30
0.0
 10
-215.440946
 20
236.172661
 30
0.0
 10
-215.307345
 20
235.888560
 30
0.0
 10
-215.210246
 20
235.589960
 30
0.0
 10
-215.151445
 20
235.281562
 30
0.0
 10
-215.131746
 20
234.968261
 30
0.0
 10
-215.151445
 20
234.654961
 30
0.0
 10
-215.210246
 20
234.346559
 30
0.0
 10
-215.307345
 20
234.047960
 30
0.0
 10
-215.440946
 20
233.763861
 30
0.0
 10
-215.609145
 20
233.498761
 30
0.0
 10
-215.809345
 20
233.256860
 30
0.0
 10
-216.038145
 20
233.041962
 30
0.0
 10
-216.292145
 20
232.857462
 30
0.0
 10
-216.567244
 20
232.706160
 30
0.0
 10
-216.859146
 20
232.590561
 30
0.0
 10
-217.163246
 20
232.512561
 30
0.0
 10
-217.474746
 20
232.473160
 30
0.0
 10
-217.788744
 20
232.473160
 30
0.0
  0
LWPOLYLINE
  5
109
100
AcDbEntity
  8
Ebene_1
 62
7
100
AcDbPolyline
 90
51
 70
0
 10
-197.788744
 20
232.473160
 30
0.0
 10
-198.100244
 20
232.512561
 30
0.0
 10
-198.404345
 20
232.590561
 30
0.0
 10
-198.696244
 20
232.706160
 30
0.0
 10
-198.971346
 20
232.857462
 30
0.0
 10
-199.225346
 20
233.041962
 30
0.0
 10
-199.454146
 20
233.256860
 30
0.0
 10
-199.654346
 20
233.498761
 30
0.0
 10
-199.822545
 20
233.763861
 30
0.0
 10
-199.956146
 20
234.047960
 30
0.0
 10
-200.053245
 20
234.346559
 30
0.0
 10
-200.112046
 20
234.654961
 30
0.0
 10
-200.131745
 20
234.968261
 30
0.0
 10
-200.112046
 20
235.281562
 30
0.0
 10
-200.053245
 20
235.589960
 30
0.0
 10
-199.956146
 20
235.888560
 30
0.0
 10
-199.822545
 20
236.172661
 30
0.0
 10
-199.654346
 20
236.437761
 30
0.0
 10
-199.454146
 20
236.679659
 30
0.0
 10
-199.225346
 20
236.894560
 30
0.0
 10
-198.971346
 20
237.079060
 30
0.0
 10
-198.696244
 20
237.230360
 30
0.0
 10
-198.404345
 20
237.345862
 30
0.0
 10
-198.100244
 20
237.423961
 30
0.0
 10
-197.788744
 20
237.463360
 30
0.0
 10
-197.474744
 20
237.463360
 30
0.0
 10
-197.163346
 20
237.423961
 30
0.0
 10
-196.859246
 20
237.345862
 30
0.0
 10
-196.567346
 20
237.230360
 30
0.0
 10
-196.292145
 20
237.079060
 30
0.0
 10
-196.038145
 20
236.894560
 30
0.0
 10
-195.809345
 20
236.679659
 30
0.0
 10
-195.609244
 20
236.437761
 30
0.0
 10
-195.440946
 20
236.172661
 30
0.0
 10
-195.307345
 20
235.888560
 30
0.0
 10
-195.210345
 20
235.589960
 30
0.0
 10
-195.151446
 20
235.281562
 30
0.0
 10
-195.131746
 20
234.968261
 30
0.0
 10
-195.151446
 20
234.654961
 30
0.0
 10
-195.210345
 20
234.346559
 30
0.0
 10
-195.307345
 20
234.047960
 30
0.0
 10
-195.440946
 20
233.763861
 30
0.0
 10
-195.609244
 20
233.498761
 30
0.0
 10
-195.809345
 20
233.256860
 30
0.0
 10
-196.038145
 20
233.041962
 30
0.0
 10
-196.292145
 20
232.857462
 30
0.0
 10
-196.567346
 20
232.706160
 30
0.0
 10
-196.859246
 20
232.590561
 30
0.0
 10
-197.163346
 20
232.512561
 30
0.0
 10
-197.474744
 20
232.473160
 30
0.0
 10
-197.788744
 20
232.473160
 30
0.0
  0
LWPOLYLINE
  5
10a
100
AcDbEntity
  8
Ebene_1
 62
7
100
AcDbPolyline
 90
51
 70
0
 10
-262.788745
 20
212.473200
 30
0.0
 10
-263.100145
 20
212.512570
 30
0.0
 10
-263.404245
 20
212.590633
 30
0.0
 10
-263.696145
 20
212.706203
 30
0.0
 10
-263.971345
 20
212.857445
 30
0.0
 10
-264.225345
 20
213.041991
 30
0.0
 10
-264.454145
 20
213.256903
 30
0.0
 10
-264.654245
 20
213.498824
 30
0.0
 10
-264.822545
 20
213.763887
 30
0.0
 10
-264.956145
 20
214.047972
 30
0.0
 10
-265.053145
 20
214.346535
 30
0.0
 10
-265.112045
 20
214.654947
 30
0.0
 10
-265.131744
 20
214.968270
 30
0.0
 10
-265.112046
 20
215.281565
 30
0.0
 10
-265.053145
 20
215.589949
 30
0.0
 10
-264.956145
 20
215.888569
 30
0.0
 10
-264.822545
 20
216.172653
 30
0.0
 10
-264.654245
 20
216.437773
 30
0.0
 10
-264.454145
 20
216.679666
 30
0.0
 10
-264.225345
 20
216.894550
 30
0.0
 10
-263.971345
 20
217.079067
 30
0.0
 10
-263.696145
 20
217.230366
 30
0.0
 10
-263.404245
 20
217.345964
 30
0.0
 10
-263.100145
 20
217.423970
 30
0.0
 10
-262.788745
 20
217.463369
 30
0.0
 10
-262.474745
 20
217.463369
 30
0.0
 10
-262.163245
 20
217.423970
 30
0.0
 10
-261.859145
 20
217.345964
 30
0.0
 10
-261.567245
 20
217.230366
 30
0.0
 10
-261.292145
 20
217.079067
 30
0.0
 10
-261.038145
 20
216.894550
 30
0.0
 10
-260.809345
 20
216.679666
 30
0.0
 10
-260.609145
 20
216.437773
 30
0.0
 10
-260.440945
 20
216.172653
 30
0.0
 10
-260.307345
 20
215.888569
 30
0.0
 10
-260.210245
 20
215.589949
 30
0.0
 10
-260.151445
 20
215.281565
 30
0.0
 10
-260.131746
 20
214.968270
 30
0.0
 10
-260.151444
 20
214.654947
 30
0.0
 10
-260.210245
 20
214.346535
 30
0.0
 10
-260.307345
 20
214.047972
 30
0.0
 10
-260.440945
 20
213.763887
 30
0.0
 10
-260.609145
 20
213.498824
 30
0.0
 10
-260.809345
 20
213.256903
 30
0.0
 10
-261.038145
 20
213.041991
 30
0.0
 10
-261.292145
 20
212.857445
 30
0.0
 10
-261.567245
 20
212.706203
 30
0.0
 10
-261.859145
 20
212.590633
 30
0.0
 10
-262.163245
 20
212.512570
 30
0.0
 10
-262.474745
 20
212.473200
 30
0.0
 10
-262.788745
 20
212.473200
 30
0.0
  0
LWPOLYLINE
  5
10b
100
AcDbEntity
  8
Ebene_1
 62
7
100
AcDbPolyline
 90
51
 70
0
 10
-242.788745
 20
212.473200
 30
0.0
 10
-243.100245
 20
212.512570
 30
0.0
 10
-243.404345
 20
212.590633
 30
0.0
 10
-243.696244
 20
212.706203
 30
0.0
 10
-243.971346
 20
212.857445
 30
0.0
 10
-244.225346
 20
213.041991
 30
0.0
 10
-244.454144
 20
213.256903
 30
0.0
 10
-244.654344
 20
213.498824
 30
0.0
 10
-244.822545
 20
213.763887
 30
0.0
 10
-244.956144
 20
214.047972
 30
0.0
 10
-245.053245
 20
214.346535
 30
0.0
 10
-245.112046
 20
214.654947
 30
0.0
 10
-245.131745
 20
214.968270
 30
0.0
 10
-245.112046
 20
215.281565
 30
0.0
 10
-245.053245
 20
215.589949
 30
0.0
 10
-244.956144
 20
215.888569
 30
0.0
 10
-244.822545
 20
216.172653
 30
0.0
 10
-244.654344
 20
216.437773
 30
0.0
 10
-244.454144
 20
216.679666
 30
0.0
 10
-244.225346
 20
216.894550
 30
0.0
 10
-243.971346
 20
217.079067
 30
0.0
 10
-243.696244
 20
217.230366
 30
0.0
 10
-243.404345
 20
217.345964
 30
0.0
 10
-243.100245
 20
217.423970
 30
0.0
 10
-242.788745
 20
217.463369
 30
0.0
 10
-242.474744
 20
217.463369
 30
0.0
 10
-242.163346
 20
217.423970
 30
0.0
 10
-241.859246
 20
217.345964
 30
0.0
 10
-241.567346
 20
217.230366
 30
0.0
 10
-241.292146
 20
217.079067
 30
0.0
 10
-241.038146
 20
216.894550
 30
0.0
 10
-240.809345
 20
216.679666
 30
0.0
 10
-240.609244
 20
216.437773
 30
0.0
 10
-240.440947
 20
216.172653
 30
0.0
 10
-240.307345
 20
215.888569
 30
0.0
 10
-240.210346
 20
215.589949
 30
0.0
 10
-240.151446
 20
215.281565
 30
0.0
 10
-240.131747
 20
214.968270
 30
0.0
 10
-240.151443
 20
214.654947
 30
0.0
 10
-240.210346
 20
214.346535
 30
0.0
 10
-240.307345
 20
214.047972
 30
0.0
 10
-240.440947
 20
213.763887
 30
0.0
 10
-240.609244
 20
213.498824
 30
0.0
 10
-240.809345
 20
213.256903
 30
0.0
 10
-241.038146
 20
213.041991
 30
0.0
 10
-241.292146
 20
212.857445
 30
0.0
 10
-241.567346
 20
212.706203
 30
0.0
 10
-241.859246
 20
212.590633
 30
0.0
 10
-242.163346
 20
212.512570
 30
0.0
 10
-242.474744
 20
212.473200
 30
0.0
 10
-242.788745
 20
212.473200
 30
0.0
  0
LWPOLYLINE
  5
10c
100
AcDbEntity
  8
Ebene_1
 62
7
100
AcDbPolyline
 90
51
 70
0
 10
-217.788744
 20
212.473200
 30
0.0
 10
-218.100145
 20
212.512570
 30
0.0
 10
-218.404245
 20
212.590633
 30
0.0
 10
-218.696145
 20
212.706203
 30
0.0
 10
-218.971345
 20
212.857445
 30
0.0
 10
-219.225345
 20
213.041991
 30
0.0
 10
-219.454146
 20
213.256903
 30
0.0
 10
-219.654244
 20
213.498824
 30
0.0
 10
-219.822545
 20
213.763887
 30
0.0
 10
-219.956146
 20
214.047972
 30
0.0
 10
-220.053146
 20
214.346535
 30
0.0
 10
-220.112045
 20
214.654947
 30
0.0
 10
-220.131744
 20
214.968270
 30
0.0
 10
-220.112045
 20
215.281565
 30
0.0
 10
-220.053146
 20
215.589949
 30
0.0
 10
-219.956146
 20
215.888569
 30
0.0
 10
-219.822545
 20
216.172653
 30
0.0
 10
-219.654244
 20
216.437773
 30
0.0
 10
-219.454146
 20
216.679666
 30
0.0
 10
-219.225345
 20
216.894550
 30
0.0
 10
-218.971345
 20
217.079067
 30
0.0
 10
-218.696145
 20
217.230366
 30
0.0
 10
-218.404245
 20
217.345964
 30
0.0
 10
-218.100145
 20
217.423970
 30
0.0
 10
-217.788744
 20
217.463369
 30
0.0
 10
-217.474746
 20
217.463369
 30
0.0
 10
-217.163246
 20
217.423970
 30
0.0
 10
-216.859146
 20
217.345964
 30
0.0
 10
-216.567244
 20
217.230366
 30
0.0
 10
-216.292145
 20
217.079067
 30
0.0
 10
-216.038145
 20
216.894550
 30
0.0
 10
-215.809345
 20
216.679666
 30
0.0
 10
-215.609145
 20
216.437773
 30
0.0
 10
-215.440946
 20
216.172653
 30
0.0
 10
-215.307345
 20
215.888569
 30
0.0
 10
-215.210246
 20
215.589949
 30
0.0
 10
-215.151445
 20
215.281565
 30
0.0
 10
-215.131746
 20
214.968270
 30
0.0
 10
-215.151445
 20
214.654947
 30
0.0
 10
-215.210246
 20
214.346535
 30
0.0
 10
-215.307345
 20
214.047972
 30
0.0
 10
-215.440946
 20
213.763887
 30
0.0
 10
-215.609145
 20
213.498824
 30
0.0
 10
-215.809345
 20
213.256903
 30
0.0
 10
-216.038145
 20
213.041991
 30
0.0
 10
-216.292145
 20
212.857445
 30
0.0
 10
-216.567244
 20
212.706203
 30
0.0
 10
-216.859146
 20
212.590633
 30
0.0
 10
-217.163246
 20
212.512570
 30
0.0
 10
-217.474746
 20
212.473200
 30
0.0
 10
-217.788744
 20
212.473200
 30
0.0
  0
LWPOLYLINE
  5
10d
100
AcDbEntity
  8
Ebene_1
 62
7
100
AcDbPolyline
 90
51
 70
0
 10
-197.788744
 20
212.473200
 30
0.0
 10
-198.100244
 20
212.512570
 30
0.0
 10
-198.404345
 20
212.590633
 30
0.0
 10
-198.696244
 20
212.706203
 30
0.0
 10
-198.971346
 20
212.857445
 30
0.0
 10
-199.225346
 20
213.041991
 30
0.0
 10
-199.454146
 20
213.256903
 30
0.0
 10
-199.654346
 20
213.498824
 30
0.0
 10
-199.822545
 20
213.763887
 30
0.0
 10
-199.956146
 20
214.047972
 30
0.0
 10
-200.053245
 20
214.346535
 30
0.0
 10
-200.112046
 20
214.654947
 30
0.0
 10
-200.131745
 20
214.968270
 30
0.0
 10
-200.112046
 20
215.281565
 30
0.0
 10
-200.053245
 20
215.589949
 30
0.0
 10
-199.956146
 20
215.888569
 30
0.0
 10
-199.822545
 20
216.172653
 30
0.0
 10
-199.654346
 20
216.437773
 30
0.0
 10
-199.454146
 20
216.679666
 30
0.0
 10
-199.225346
 20
216.894550
 30
0.0
 10
-198.971346
 20
217.079067
 30
0.0
 10
-198.696244
 20
217.230366
 30
0.0
 10
-198.404345
 20
217.345964
 30
0.0
 10
-198.100244
 20
217.423970
 30
0.0
 10
-197.788744
 20
217.463369
 30
0.0
 10
-197.474744
 20
217.463369
 30
0.0
 10
-197.163346
 20
217.423970
 30
0.0
 10
-196.859246
 20
217.345964
 30
0.0
 10
-196.567346
 20
217.230366
 30
0.0
 10
-196.292145
 20
217.079067
 30
0.0
 10
-196.038145
 20
216.894550
 30
0.0
 10
-195.809345
 20
216.679666
 30
0.0
 10
-195.609244
 20
216.437773
 30
0.0
 10
-195.440946
 20
216.172653
 30
0.0
 10
-195.307345
 20
215.888569
 30
0.0
 10
-195.210345
 20
215.589949
 30
0.0
 10
-195.151446
 20
215.281565
 30
0.0
 10
-195.131746
 20
214.968270
 30
0.0
 10
-195.151446
 20
214.654947
 30
0.0
 10
-195.210345
 20
214.346535
 30
0.0
 10
-195.307345
 20
214.047972
 30
0.0
 10
-195.440946
 20
213.763887
 30
0.0
 10
-195.609244
 20
213.498824
 30
0.0
 10
-195.809345
 20
213.256903
 30
0.0
 10
-196.038145
 20
213.041991
 30
0.0
 10
-196.292145
 20
212.857445
 30
0.0
 10
-196.567346
 20
212.706203
 30
0.0
 10
-196.859246
 20
212.590633
 30
0.0
 10
-197.163346
 20
212.512570
 30
0.0
 10
-197.474744
 20
212.473200
 30
0.0
 10
-197.788744
 20
212.473200
 30
0.0
  0
LWPOLYLINE
  5
10e
100
AcDbEntity
  8
Ebene_1
 62
7
100
AcDbPolyline
 90
3
 70
0
 10
-367.631746
 20
244.968261
 30
0.0
 10
-327.631744
 20
294.968260
 30
0.0
 10
-277.631745
 20
294.968260
 30
0.0
  0
LWPOLYLINE
  5
10f
100
AcDbEntity
  8
Ebene_1
 62
7
100
AcDbPolyline
 90
3
 70
0
 10
-277.631745
 20
204.968262
 30
0.0
 10
-367.631746
 20
204.968262
 30
0.0
 10
-367.631746
 20
244.968261
 30
0.0
  0
LWPOLYLINE
  5
110
100
AcDbEntity
  8
Ebene_1
 62
7
100
AcDbPolyline
 90
51
 70
0
 10
-293.537545
 20
273.471162
 30
0.0
 10
-293.350645
 20
273.494868
 30
0.0
 10
-293.168245
 20
273.541661
 30
0.0
 10
-292.993045
 20
273.610960
 30
0.0
 10
-292.828045
 20
273.701760
 30
0.0
 10
-292.675645
 20
273.812461
 30
0.0
 10
-292.538345
 20
273.941459
 30
0.0
 10
-292.418245
 20
274.086561
 30
0.0
 10
-292.317245
 20
274.245661
 30
0.0
 10
-292.237045
 20
274.416061
 30
0.0
 10
-292.178845
 20
274.595261
 30
0.0
 10
-292.143545
 20
274.780261
 30
0.0
 10
-292.131745
 20
274.968260
 30
0.0
 10
-292.143545
 20
275.156260
 30
0.0
 10
-292.178845
 20
275.341262
 30
0.0
 10
-292.237045
 20
275.520462
 30
0.0
 10
-292.317245
 20
275.690862
 30
0.0
 10
-292.418245
 20
275.849959
 30
0.0
 10
-292.538345
 20
275.995061
 30
0.0
 10
-292.675645
 20
276.124062
 30
0.0
 10
-292.828045
 20
276.234761
 30
0.0
 10
-292.993045
 20
276.325461
 30
0.0
 10
-293.168245
 20
276.394860
 30
0.0
 10
-293.350645
 20
276.441661
 30
0.0
 10
-293.537545
 20
276.465254
 30
0.0
 10
-293.725945
 20
276.465260
 30
0.0
 10
-293.912845
 20
276.441666
 30
0.0
 10
-294.095245
 20
276.394860
 30
0.0
 10
-294.270445
 20
276.325461
 30
0.0
 10
-294.435445
 20
276.234761
 30
0.0
 10
-294.587845
 20
276.124062
 30
0.0
 10
-294.725245
 20
275.995061
 30
0.0
 10
-294.845245
 20
275.849959
 30
0.0
 10
-294.946245
 20
275.690862
 30
0.0
 10
-295.026445
 20
275.520462
 30
0.0
 10
-295.084645
 20
275.341262
 30
0.0
 10
-295.119945
 20
275.156260
 30
0.0
 10
-295.131745
 20
274.968260
 30
0.0
 10
-295.119945
 20
274.780261
 30
0.0
 10
-295.084645
 20
274.595261
 30
0.0
 10
-295.026445
 20
274.416061
 30
0.0
 10
-294.946245
 20
274.245661
 30
0.0
 10
-294.845245
 20
274.086561
 30
0.0
 10
-294.725245
 20
273.941459
 30
0.0
 10
-294.587845
 20
273.812461
 30
0.0
 10
-294.435445
 20
273.701760
 30
0.0
 10
-294.270445
 20
273.610960
 30
0.0
 10
-294.095245
 20
273.541661
 30
0.0
 10
-293.912845
 20
273.494860
 30
0.0
 10
-293.725945
 20
273.471153
 30
0.0
 10
-293.537545
 20
273.471162
 30
0.0
  0
LWPOLYLINE
  5
111
100
AcDbEntity
  8
Ebene_1
 62
7
100
AcDbPolyline
 90
51
 70
0
 10
-311.537545
 20
273.471162
 30
0.0
 10
-311.350646
 20
273.494868
 30
0.0
 10
-311.168246
 20
273.541661
 30
0.0
 10
-310.993045
 20
273.610960
 30
0.0
 10
-310.828047
 20
273.701760
 30
0.0
 10
-310.675644
 20
273.812461
 30
0.0
 10
-310.538247
 20
273.941459
 30
0.0
 10
-310.418246
 20
274.086561
 30
0.0
 10
-310.317244
 20
274.245661
 30
0.0
 10
-310.237045
 20
274.416061
 30
0.0
 10
-310.178845
 20
274.595261
 30
0.0
 10
-310.143545
 20
274.780261
 30
0.0
 10
-310.131748
 20
274.968260
 30
0.0
 10
-310.143542
 20
275.156260
 30
0.0
 10
-310.178845
 20
275.341262
 30
0.0
 10
-310.237045
 20
275.520462
 30
0.0
 10
-310.317244
 20
275.690862
 30
0.0
 10
-310.418246
 20
275.849959
 30
0.0
 10
-310.538247
 20
275.995061
 30
0.0
 10
-310.675644
 20
276.124062
 30
0.0
 10
-310.828047
 20
276.234761
 30
0.0
 10
-310.993045
 20
276.325461
 30
0.0
 10
-311.168246
 20
276.394860
 30
0.0
 10
-311.350646
 20
276.441661
 30
0.0
 10
-311.537545
 20
276.465254
 30
0.0
 10
-311.725945
 20
276.465260
 30
0.0
 10
-311.912844
 20
276.441666
 30
0.0
 10
-312.095244
 20
276.394860
 30
0.0
 10
-312.270445
 20
276.325461
 30
0.0
 10
-312.435446
 20
276.234761
 30
0.0
 10
-312.587846
 20
276.124062
 30
0.0
 10
-312.725144
 20
275.995061
 30
0.0
 10
-312.845244
 20
275.849959
 30
0.0
 10
-312.946246
 20
275.690862
 30
0.0
 10
-313.026445
 20
275.520462
 30
0.0
 10
-313.084645
 20
275.341262
 30
0.0
 10
-313.119945
 20
275.156260
 30
0.0
 10
-313.131742
 20
274.968260
 30
0.0
 10
-313.119948
 20
274.780261
 30
0.0
 10
-313.084645
 20
274.595261
 30
0.0
 10
-313.026445
 20
274.416061
 30
0.0
 10
-312.946246
 20
274.245661
 30
0.0
 10
-312.845244
 20
274.086561
 30
0.0
 10
-312.725144
 20
273.941459
 30
0.0
 10
-312.587846
 20
273.812461
 30
0.0
 10
-312.435446
 20
273.701760
 30
0.0
 10
-312.270445
 20
273.610960
 30
0.0
 10
-312.095244
 20
273.541661
 30
0.0
 10
-311.912844
 20
273.494860
 30
0.0
 10
-311.725945
 20
273.471153
 30
0.0
 10
-311.537545
 20
273.471162
 30
0.0
  0
LWPOLYLINE
  5
112
100
AcDbEntity
  8
Ebene_1
 62
7
100
AcDbPolyline
 90
51
 70
0
 10
-302.474745
 20
263.473160
 30
0.0
 10
-302.163345
 20
263.512561
 30
0.0
 10
-301.859245
 20
263.590660
 30
0.0
 10
-301.567345
 20
263.706160
 30
0.0
 10
-301.292145
 20
263.857459
 30
0.0
 10
-301.038145
 20
264.041962
 30
0.0
 10
-300.809345
 20
264.256860
 30
0.0
 10
-300.609245
 20
264.498761
 30
0.0
 10
-300.440945
 20
264.763861
 30
0.0
 10
-300.307345
 20
265.047960
 30
0.0
 10
-300.210345
 20
265.346560
 30
0.0
 10
-300.151445
 20
265.654961
 30
0.0
 10
-300.131746
 20
265.968261
 30
0.0
 10
-300.151444
 20
266.281562
 30
0.0
 10
-300.210345
 20
266.589960
 30
0.0
 10
-300.307345
 20
266.888560
 30
0.0
 10
-300.440945
 20
267.172661
 30
0.0
 10
-300.609245
 20
267.437761
 30
0.0
 10
-300.809345
 20
267.679660
 30
0.0
 10
-301.038145
 20
267.894561
 30
0.0
 10
-301.292145
 20
268.079060
 30
0.0
 10
-301.567345
 20
268.230360
 30
0.0
 10
-301.859245
 20
268.345859
 30
0.0
 10
-302.163345
 20
268.423961
 30
0.0
 10
-302.474745
 20
268.463360
 30
0.0
 10
-302.788745
 20
268.463360
 30
0.0
 10
-303.100145
 20
268.423961
 30
0.0
 10
-303.404245
 20
268.345859
 30
0.0
 10
-303.696145
 20
268.230360
 30
0.0
 10
-303.971345
 20
268.079060
 30
0.0
 10
-304.225345
 20
267.894561
 30
0.0
 10
-304.454145
 20
267.679660
 30
0.0
 10
-304.654245
 20
267.437761
 30
0.0
 10
-304.822545
 20
267.172661
 30
0.0
 10
-304.956145
 20
266.888560
 30
0.0
 10
-305.053145
 20
266.589960
 30
0.0
 10
-305.112045
 20
266.281562
 30
0.0
 10
-305.131744
 20
265.968261
 30
0.0
 10
-305.112046
 20
265.654961
 30
0.0
 10
-305.053145
 20
265.346560
 30
0.0
 10
-304.956145
 20
265.047960
 30
0.0
 10
-304.822545
 20
264.763861
 30
0.0
 10
-304.654245
 20
264.498761
 30
0.0
 10
-304.454145
 20
264.256860
 30
0.0
 10
-304.225345
 20
264.041962
 30
0.0
 10
-303.971345
 20
263.857459
 30
0.0
 10
-303.696145
 20
263.706160
 30
0.0
 10
-303.404245
 20
263.590660
 30
0.0
 10
-303.100145
 20
263.512561
 30
0.0
 10
-302.788745
 20
263.473160
 30
0.0
 10
-302.474745
 20
263.473160
 30
0.0
  0
LWPOLYLINE
  5
113
100
AcDbEntity
  8
Ebene_1
 62
7
100
AcDbPolyline
 90
51
 70
0
 10
-293.537545
 20
255.471260
 30
0.0
 10
-293.350645
 20
255.494853
 30
0.0
 10
-293.168245
 20
255.541660
 30
0.0
 10
-292.993045
 20
255.611061
 30
0.0
 10
-292.828045
 20
255.701759
 30
0.0
 10
-292.675645
 20
255.812461
 30
0.0
 10
-292.538345
 20
255.941462
 30
0.0
 10
-292.418245
 20
256.086561
 30
0.0
 10
-292.317245
 20
256.245660
 30
0.0
 10
-292.237045
 20
256.416061
 30
0.0
 10
-292.178845
 20
256.595260
 30
0.0
 10
-292.143545
 20
256.780260
 30
0.0
 10
-292.131745
 20
256.968259
 30
0.0
 10
-292.143545
 20
257.156262
 30
0.0
 10
-292.178845
 20
257.341261
 30
0.0
 10
-292.237045
 20
257.520461
 30
0.0
 10
-292.317245
 20
257.690861
 30
0.0
 10
-292.418245
 20
257.849961
 30
0.0
 10
-292.538345
 20
257.995060
 30
0.0
 10
-292.675645
 20
258.124061
 30
0.0
 10
-292.828045
 20
258.234760
 30
0.0
 10
-292.993045
 20
258.325559
 30
0.0
 10
-293.168245
 20
258.394862
 30
0.0
 10
-293.350645
 20
258.441660
 30
0.0
 10
-293.537545
 20
258.465366
 30
0.0
 10
-293.725945
 20
258.465361
 30
0.0
 10
-293.912845
 20
258.441654
 30
0.0
 10
-294.095245
 20
258.394862
 30
0.0
 10
-294.270445
 20
258.325559
 30
0.0
 10
-294.435445
 20
258.234760
 30
0.0
 10
-294.587845
 20
258.124061
 30
0.0
 10
-294.725245
 20
257.995060
 30
0.0
 10
-294.845245
 20
257.849961
 30
0.0
 10
-294.946245
 20
257.690861
 30
0.0
 10
-295.026445
 20
257.520461
 30
0.0
 10
-295.084645
 20
257.341261
 30
0.0
 10
-295.119945
 20
257.156262
 30
0.0
 10
-295.131745
 20
256.968259
 30
0.0
 10
-295.119945
 20
256.780260
 30
0.0
 10
-295.084645
 20
256.595260
 30
0.0
 10
-295.026445
 20
256.416061
 30
0.0
 10
-294.946245
 20
256.245660
 30
0.0
 10
-294.845245
 20
256.086561
 30
0.0
 10
-294.725245
 20
255.941462
 30
0.0
 10
-294.587845
 20
255.812461
 30
0.0
 10
-294.435445
 20
255.701759
 30
0.0
 10
-294.270445
 20
255.611061
 30
0.0
 10
-294.095245
 20
255.541660
 30
0.0
 10
-293.912845
 20
255.494859
 30
0.0
 10
-293.725945
 20
255.471265
 30
0.0
 10
-293.537545
 20
255.471260
 30
0.0
  0
LWPOLYLINE
  5
114
100
AcDbEntity
  8
Ebene_1
 62
7
100
AcDbPolyline
 90
51
 70
0
 10
-311.537545
 20
255.471260
 30
0.0
 10
-311.350646
 20
255.494853
 30
0.0
 10
-311.168246
 20
255.541660
 30
0.0
 10
-310.993045
 20
255.611061
 30
0.0
 10
-310.828047
 20
255.701759
 30
0.0
 10
-310.675644
 20
255.812461
 30
0.0
 10
-310.538247
 20
255.941462
 30
0.0
 10
-310.418246
 20
256.086561
 30
0.0
 10
-310.317244
 20
256.245660
 30
0.0
 10
-310.237045
 20
256.416061
 30
0.0
 10
-310.178845
 20
256.595260
 30
0.0
 10
-310.143545
 20
256.780260
 30
0.0
 10
-310.131748
 20
256.968259
 30
0.0
 10
-310.143542
 20
257.156262
 30
0.0
 10
-310.178845
 20
257.341261
 30
0.0
 10
-310.237045
 20
257.520461
 30
0.0
 10
-310.317244
 20
257.690861
 30
0.0
 10
-310.418246
 20
257.849961
 30
0.0
 10
-310.538247
 20
257.995060
 30
0.0
 10
-310.675644
 20
258.124061
 30
0.0
 10
-310.828047
 20
258.234760
 30
0.0
 10
-310.993045
 20
258.325559
 30
0.0
 10
-311.168246
 20
258.394862
 30
0.0
 10
-311.350646
 20
258.441660
 30
0.0
 10
-311.537545
 20
258.465366
 30
0.0
 10
-311.725945
 20
258.465361
 30
0.0
 10
-311.912844
 20
258.441654
 30
0.0
 10
-312.095244
 20
258.394862
 30
0.0
 10
-312.270445
 20
258.325559
 30
0.0
 10
-312.435446
 20
258.234760
 30
0.0
 10
-312.587846
 20
258.124061
 30
0.0
 10
-312.725144
 20
257.995060
 30
0.0
 10
-312.845244
 20
257.849961
 30
0.0
 10
-312.946246
 20
257.690861
 30
0.0
 10
-313.026445
 20
257.520461
 30
0.0
 10
-313.084645
 20
257.341261
 30
0.0
 10
-313.119945
 20
257.156262
 30
0.0
 10
-313.131742
 20
256.968259
 30
0.0
 10
-313.119948
 20
256.780260
 30
0.0
 10
-313.084645
 20
256.595260
 30
0.0
 10
-313.026445
 20
256.416061
 30
0.0
 10
-312.946246
 20
256.245660
 30
0.0
 10
-312.845244
 20
256.086561
 30
0.0
 10
-312.725144
 20
255.941462
 30
0.0
 10
-312.587846
 20
255.812461
 30
0.0
 10
-312.435446
 20
255.701759
 30
0.0
 10
-312.270445
 20
255.611061
 30
0.0
 10
-312.095244
 20
255.541660
 30
0.0
 10
-311.912844
 20
255.494859
 30
0.0
 10
-311.725945
 20
255.471265
 30
0.0
 10
-311.537545
 20
255.471260
 30
0.0
  0
LWPOLYLINE
  5
115
100
AcDbEntity
  8
Ebene_1
 62
7
100
AcDbPolyline
 90
51
 70
0
 10
-292.474745
 20
232.473160
 30
0.0
 10
-292.163345
 20
232.512561
 30
0.0
 10
-291.859245
 20
232.590561
 30
0.0
 10
-291.567345
 20
232.706160
 30
0.0
 10
-291.292145
 20
232.857462
 30
0.0
 10
-291.038145
 20
233.041962
 30
0.0
 10
-290.809345
 20
233.256860
 30
0.0
 10
-290.609245
 20
233.498761
 30
0.0
 10
-290.440945
 20
233.763861
 30
0.0
 10
-290.307345
 20
234.047960
 30
0.0
 10
-290.210345
 20
234.346559
 30
0.0
 10
-290.151445
 20
234.654961
 30
0.0
 10
-290.131746
 20
234.968261
 30
0.0
 10
-290.151444
 20
235.281562
 30
0.0
 10
-290.210345
 20
235.589960
 30
0.0
 10
-290.307345
 20
235.888560
 30
0.0
 10
-290.440945
 20
236.172661
 30
0.0
 10
-290.609245
 20
236.437761
 30
0.0
 10
-290.809345
 20
236.679659
 30
0.0
 10
-291.038145
 20
236.894560
 30
0.0
 10
-291.292145
 20
237.079060
 30
0.0
 10
-291.567345
 20
237.230360
 30
0.0
 10
-291.859245
 20
237.345862
 30
0.0
 10
-292.163345
 20
237.423961
 30
0.0
 10
-292.474745
 20
237.463360
 30
0.0
 10
-292.788745
 20
237.463360
 30
0.0
 10
-293.100245
 20
237.423961
 30
0.0
 10
-293.404345
 20
237.345862
 30
0.0
 10
-293.696245
 20
237.230360
 30
0.0
 10
-293.971345
 20
237.079060
 30
0.0
 10
-294.225345
 20
236.894560
 30
0.0
 10
-294.454145
 20
236.679659
 30
0.0
 10
-294.654345
 20
236.437761
 30
0.0
 10
-294.822545
 20
236.172661
 30
0.0
 10
-294.956145
 20
235.888560
 30
0.0
 10
-295.053245
 20
235.589960
 30
0.0
 10
-295.112045
 20
235.281562
 30
0.0
 10
-295.131744
 20
234.968261
 30
0.0
 10
-295.112046
 20
234.654961
 30
0.0
 10
-295.053245
 20
234.346559
 30
0.0
 10
-294.956145
 20
234.047960
 30
0.0
 10
-294.822545
 20
233.763861
 30
0.0
 10
-294.654345
 20
233.498761
 30
0.0
 10
-294.454145
 20
233.256860
 30
0.0
 10
-294.225345
 20
233.041962
 30
0.0
 10
-293.971345
 20
232.857462
 30
0.0
 10
-293.696245
 20
232.706160
 30
0.0
 10
-293.404345
 20
232.590561
 30
0.0
 10
-293.100245
 20
232.512561
 30
0.0
 10
-292.788745
 20
232.473160
 30
0.0
 10
-292.474745
 20
232.473160
 30
0.0
  0
LWPOLYLINE
  5
116
100
AcDbEntity
  8
Ebene_1
 62
7
100
AcDbPolyline
 90
51
 70
0
 10
-312.474745
 20
232.473160
 30
0.0
 10
-312.163246
 20
232.512561
 30
0.0
 10
-311.859145
 20
232.590561
 30
0.0
 10
-311.567246
 20
232.706160
 30
0.0
 10
-311.292144
 20
232.857462
 30
0.0
 10
-311.038144
 20
233.041962
 30
0.0
 10
-310.809346
 20
233.256860
 30
0.0
 10
-310.609147
 20
233.498761
 30
0.0
 10
-310.440945
 20
233.763861
 30
0.0
 10
-310.307347
 20
234.047960
 30
0.0
 10
-310.210245
 20
234.346559
 30
0.0
 10
-310.151444
 20
234.654961
 30
0.0
 10
-310.131745
 20
234.968261
 30
0.0
 10
-310.151444
 20
235.281562
 30
0.0
 10
-310.210245
 20
235.589960
 30
0.0
 10
-310.307347
 20
235.888560
 30
0.0
 10
-310.440945
 20
236.172661
 30
0.0
 10
-310.609147
 20
236.437761
 30
0.0
 10
-310.809346
 20
236.679659
 30
0.0
 10
-311.038144
 20
236.894560
 30
0.0
 10
-311.292144
 20
237.079060
 30
0.0
 10
-311.567246
 20
237.230360
 30
0.0
 10
-311.859145
 20
237.345862
 30
0.0
 10
-312.163246
 20
237.423961
 30
0.0
 10
-312.474745
 20
237.463360
 30
0.0
 10
-312.788746
 20
237.463360
 30
0.0
 10
-313.100144
 20
237.423961
 30
0.0
 10
-313.404244
 20
237.345862
 30
0.0
 10
-313.696144
 20
237.230360
 30
0.0
 10
-313.971345
 20
237.079060
 30
0.0
 10
-314.225345
 20
236.894560
 30
0.0
 10
-314.454145
 20
236.679659
 30
0.0
 10
-314.654246
 20
236.437761
 30
0.0
 10
-314.822544
 20
236.172661
 30
0.0
 10
-314.956145
 20
235.888560
 30
0.0
 10
-315.053145
 20
235.589960
 30
0.0
 10
-315.112044
 20
235.281562
 30
0.0
 10
-315.131744
 20
234.968261
 30
0.0
 10
-315.112047
 20
234.654961
 30
0.0
 10
-315.053145
 20
234.346559
 30
0.0
 10
-314.956145
 20
234.047960
 30
0.0
 10
-314.822544
 20
233.763861
 30
0.0
 10
-314.654246
 20
233.498761
 30
0.0
 10
-314.454145
 20
233.256860
 30
0.0
 10
-314.225345
 20
233.041962
 30
0.0
 10
-313.971345
 20
232.857462
 30
0.0
 10
-313.696144
 20
232.706160
 30
0.0
 10
-313.404244
 20
232.590561
 30
0.0
 10
-313.100144
 20
232.512561
 30
0.0
 10
-312.788746
 20
232.473160
 30
0.0
 10
-312.474745
 20
232.473160
 30
0.0
  0
LWPOLYLINE
  5
117
100
AcDbEntity
  8
Ebene_1
 62
7
100
AcDbPolyline
 90
51
 70
0
 10
-337.474746
 20
232.473160
 30
0.0
 10
-337.163345
 20
232.512561
 30
0.0
 10
-336.859245
 20
232.590561
 30
0.0
 10
-336.567345
 20
232.706160
 30
0.0
 10
-336.292145
 20
232.857462
 30
0.0
 10
-336.038145
 20
233.041962
 30
0.0
 10
-335.809344
 20
233.256860
 30
0.0
 10
-335.609246
 20
233.498761
 30
0.0
 10
-335.440946
 20
233.763861
 30
0.0
 10
-335.307345
 20
234.047960
 30
0.0
 10
-335.210345
 20
234.346559
 30
0.0
 10
-335.151445
 20
234.654961
 30
0.0
 10
-335.131746
 20
234.968261
 30
0.0
 10
-335.151445
 20
235.281562
 30
0.0
 10
-335.210345
 20
235.589960
 30
0.0
 10
-335.307345
 20
235.888560
 30
0.0
 10
-335.440946
 20
236.172661
 30
0.0
 10
-335.609246
 20
236.437761
 30
0.0
 10
-335.809344
 20
236.679659
 30
0.0
 10
-336.038145
 20
236.894560
 30
0.0
 10
-336.292145
 20
237.079060
 30
0.0
 10
-336.567345
 20
237.230360
 30
0.0
 10
-336.859245
 20
237.345862
 30
0.0
 10
-337.163345
 20
237.423961
 30
0.0
 10
-337.474746
 20
237.463360
 30
0.0
 10
-337.788744
 20
237.463360
 30
0.0
 10
-338.100244
 20
237.423961
 30
0.0
 10
-338.404344
 20
237.345862
 30
0.0
 10
-338.696246
 20
237.230360
 30
0.0
 10
-338.971345
 20
237.079060
 30
0.0
 10
-339.225345
 20
236.894560
 30
0.0
 10
-339.454146
 20
236.679659
 30
0.0
 10
-339.654346
 20
236.437761
 30
0.0
 10
-339.822544
 20
236.172661
 30
0.0
 10
-339.956146
 20
235.888560
 30
0.0
 10
-340.053244
 20
235.589960
 30
0.0
 10
-340.112045
 20
235.281562
 30
0.0
 10
-340.131744
 20
234.968261
 30
0.0
 10
-340.112045
 20
234.654961
 30
0.0
 10
-340.053244
 20
234.346559
 30
0.0
 10
-339.956146
 20
234.047960
 30
0.0
 10
-339.822544
 20
233.763861
 30
0.0
 10
-339.654346
 20
233.498761
 30
0.0
 10
-339.454146
 20
233.256860
 30
0.0
 10
-339.225345
 20
233.041962
 30
0.0
 10
-338.971345
 20
232.857462
 30
0.0
 10
-338.696246
 20
232.706160
 30
0.0
 10
-338.404344
 20
232.590561
 30
0.0
 10
-338.100244
 20
232.512561
 30
0.0
 10
-337.788744
 20
232.473160
 30
0.0
 10
-337.474746
 20
232.473160
 30
0.0
  0
LWPOLYLINE
  5
118
100
AcDbEntity
  8
Ebene_1
 62
7
100
AcDbPolyline
 90
51
 70
0
 10
-357.474746
 20
232.473160
 30
0.0
 10
-357.163246
 20
232.512561
 30
0.0
 10
-356.859146
 20
232.590561
 30
0.0
 10
-356.567246
 20
232.706160
 30
0.0
 10
-356.292144
 20
232.857462
 30
0.0
 10
-356.038144
 20
233.041962
 30
0.0
 10
-355.809344
 20
233.256860
 30
0.0
 10
-355.609144
 20
233.498761
 30
0.0
 10
-355.440945
 20
233.763861
 30
0.0
 10
-355.307344
 20
234.047960
 30
0.0
 10
-355.210245
 20
234.346559
 30
0.0
 10
-355.151444
 20
234.654961
 30
0.0
 10
-355.131745
 20
234.968261
 30
0.0
 10
-355.151444
 20
235.281562
 30
0.0
 10
-355.210245
 20
235.589960
 30
0.0
 10
-355.307344
 20
235.888560
 30
0.0
 10
-355.440945
 20
236.172661
 30
0.0
 10
-355.609144
 20
236.437761
 30
0.0
 10
-355.809344
 20
236.679659
 30
0.0
 10
-356.038144
 20
236.894560
 30
0.0
 10
-356.292144
 20
237.079060
 30
0.0
 10
-356.567246
 20
237.230360
 30
0.0
 10
-356.859146
 20
237.345862
 30
0.0
 10
-357.163246
 20
237.423961
 30
0.0
 10
-357.474746
 20
237.463360
 30
0.0
 10
-357.788746
 20
237.463360
 30
0.0
 10
-358.100145
 20
237.423961
 30
0.0
 10
-358.404245
 20
237.345862
 30
0.0
 10
-358.696144
 20
237.230360
 30
0.0
 10
-358.971345
 20
237.079060
 30
0.0
 10
-359.225345
 20
236.894560
 30
0.0
 10
-359.454145
 20
236.679659
 30
0.0
 10
-359.654246
 20
236.437761
 30
0.0
 10
-359.822544
 20
236.172661
 30
0.0
 10
-359.956145
 20
235.888560
 30
0.0
 10
-360.053145
 20
235.589960
 30
0.0
 10
-360.112045
 20
235.281562
 30
0.0
 10
-360.131744
 20
234.968261
 30
0.0
 10
-360.112045
 20
234.654961
 30
0.0
 10
-360.053145
 20
234.346559
 30
0.0
 10
-359.956145
 20
234.047960
 30
0.0
 10
-359.822544
 20
233.763861
 30
0.0
 10
-359.654246
 20
233.498761
 30
0.0
 10
-359.454145
 20
233.256860
 30
0.0
 10
-359.225345
 20
233.041962
 30
0.0
 10
-358.971345
 20
232.857462
 30
0.0
 10
-358.696144
 20
232.706160
 30
0.0
 10
-358.404245
 20
232.590561
 30
0.0
 10
-358.100145
 20
232.512561
 30
0.0
 10
-357.788746
 20
232.473160
 30
0.0
 10
-357.474746
 20
232.473160
 30
0.0
  0
LWPOLYLINE
  5
119
100
AcDbEntity
  8
Ebene_1
 62
7
100
AcDbPolyline
 90
51
 70
0
 10
-292.474745
 20
212.473200
 30
0.0
 10
-292.163345
 20
212.512570
 30
0.0
 10
-291.859245
 20
212.590633
 30
0.0
 10
-291.567345
 20
212.706203
 30
0.0
 10
-291.292145
 20
212.857445
 30
0.0
 10
-291.038145
 20
213.041991
 30
0.0
 10
-290.809345
 20
213.256903
 30
0.0
 10
-290.609245
 20
213.498824
 30
0.0
 10
-290.440945
 20
213.763887
 30
0.0
 10
-290.307345
 20
214.047972
 30
0.0
 10
-290.210345
 20
214.346535
 30
0.0
 10
-290.151445
 20
214.654947
 30
0.0
 10
-290.131746
 20
214.968270
 30
0.0
 10
-290.151444
 20
215.281565
 30
0.0
 10
-290.210345
 20
215.589949
 30
0.0
 10
-290.307345
 20
215.888569
 30
0.0
 10
-290.440945
 20
216.172653
 30
0.0
 10
-290.609245
 20
216.437773
 30
0.0
 10
-290.809345
 20
216.679666
 30
0.0
 10
-291.038145
 20
216.894550
 30
0.0
 10
-291.292145
 20
217.079067
 30
0.0
 10
-291.567345
 20
217.230366
 30
0.0
 10
-291.859245
 20
217.345964
 30
0.0
 10
-292.163345
 20
217.423970
 30
0.0
 10
-292.474745
 20
217.463369
 30
0.0
 10
-292.788745
 20
217.463369
 30
0.0
 10
-293.100245
 20
217.423970
 30
0.0
 10
-293.404345
 20
217.345964
 30
0.0
 10
-293.696245
 20
217.230366
 30
0.0
 10
-293.971345
 20
217.079067
 30
0.0
 10
-294.225345
 20
216.894550
 30
0.0
 10
-294.454145
 20
216.679666
 30
0.0
 10
-294.654345
 20
216.437773
 30
0.0
 10
-294.822545
 20
216.172653
 30
0.0
 10
-294.956145
 20
215.888569
 30
0.0
 10
-295.053245
 20
215.589949
 30
0.0
 10
-295.112045
 20
215.281565
 30
0.0
 10
-295.131744
 20
214.968270
 30
0.0
 10
-295.112046
 20
214.654947
 30
0.0
 10
-295.053245
 20
214.346535
 30
0.0
 10
-294.956145
 20
214.047972
 30
0.0
 10
-294.822545
 20
213.763887
 30
0.0
 10
-294.654345
 20
213.498824
 30
0.0
 10
-294.454145
 20
213.256903
 30
0.0
 10
-294.225345
 20
213.041991
 30
0.0
 10
-293.971345
 20
212.857445
 30
0.0
 10
-293.696245
 20
212.706203
 30
0.0
 10
-293.404345
 20
212.590633
 30
0.0
 10
-293.100245
 20
212.512570
 30
0.0
 10
-292.788745
 20
212.473200
 30
0.0
 10
-292.474745
 20
212.473200
 30
0.0
  0
LWPOLYLINE
  5
11a
100
AcDbEntity
  8
Ebene_1
 62
7
100
AcDbPolyline
 90
51
 70
0
 10
-312.474745
 20
212.473200
 30
0.0
 10
-312.163246
 20
212.512570
 30
0.0
 10
-311.859145
 20
212.590633
 30
0.0
 10
-311.567246
 20
212.706203
 30
0.0
 10
-311.292144
 20
212.857445
 30
0.0
 10
-311.038144
 20
213.041991
 30
0.0
 10
-310.809346
 20
213.256903
 30
0.0
 10
-310.609147
 20
213.498824
 30
0.0
 10
-310.440945
 20
213.763887
 30
0.0
 10
-310.307347
 20
214.047972
 30
0.0
 10
-310.210245
 20
214.346535
 30
0.0
 10
-310.151444
 20
214.654947
 30
0.0
 10
-310.131745
 20
214.968270
 30
0.0
 10
-310.151444
 20
215.281565
 30
0.0
 10
-310.210245
 20
215.589949
 30
0.0
 10
-310.307347
 20
215.888569
 30
0.0
 10
-310.440945
 20
216.172653
 30
0.0
 10
-310.609147
 20
216.437773
 30
0.0
 10
-310.809346
 20
216.679666
 30
0.0
 10
-311.038144
 20
216.894550
 30
0.0
 10
-311.292144
 20
217.079067
 30
0.0
 10
-311.567246
 20
217.230366
 30
0.0
 10
-311.859145
 20
217.345964
 30
0.0
 10
-312.163246
 20
217.423970
 30
0.0
 10
-312.474745
 20
217.463369
 30
0.0
 10
-312.788746
 20
217.463369
 30
0.0
 10
-313.100144
 20
217.423970
 30
0.0
 10
-313.404244
 20
217.345964
 30
0.0
 10
-313.696144
 20
217.230366
 30
0.0
 10
-313.971345
 20
217.079067
 30
0.0
 10
-314.225345
 20
216.894550
 30
0.0
 10
-314.454145
 20
216.679666
 30
0.0
 10
-314.654246
 20
216.437773
 30
0.0
 10
-314.822544
 20
216.172653
 30
0.0
 10
-314.956145
 20
215.888569
 30
0.0
 10
-315.053145
 20
215.589949
 30
0.0
 10
-315.112044
 20
215.281565
 30
0.0
 10
-315.131744
 20
214.968270
 30
0.0
 10
-315.112047
 20
214.654947
 30
0.0
 10
-315.053145
 20
214.346535
 30
0.0
 10
-314.956145
 20
214.047972
 30
0.0
 10
-314.822544
 20
213.763887
 30
0.0
 10
-314.654246
 20
213.498824
 30
0.0
 10
-314.454145
 20
213.256903
 30
0.0
 10
-314.225345
 20
213.041991
 30
0.0
 10
-313.971345
 20
212.857445
 30
0.0
 10
-313.696144
 20
212.706203
 30
0.0
 10
-313.404244
 20
212.590633
 30
0.0
 10
-313.100144
 20
212.512570
 30
0.0
 10
-312.788746
 20
212.473200
 30
0.0
 10
-312.474745
 20
212.473200
 30
0.0
  0
LWPOLYLINE
  5
11b
100
AcDbEntity
  8
Ebene_1
 62
7
100
AcDbPolyline
 90
51
 70
0
 10
-337.474746
 20
212.473200
 30
0.0
 10
-337.163345
 20
212.512570
 30
0.0
 10
-336.859245
 20
212.590633
 30
0.0
 10
-336.567345
 20
212.706203
 30
0.0
 10
-336.292145
 20
212.857445
 30
0.0
 10
-336.038145
 20
213.041991
 30
0.0
 10
-335.809344
 20
213.256903
 30
0.0
 10
-335.609246
 20
213.498824
 30
0.0
 10
-335.440946
 20
213.763887
 30
0.0
 10
-335.307345
 20
214.047972
 30
0.0
 10
-335.210345
 20
214.346535
 30
0.0
 10
-335.151445
 20
214.654947
 30
0.0
 10
-335.131746
 20
214.968270
 30
0.0
 10
-335.151445
 20
215.281565
 30
0.0
 10
-335.210345
 20
215.589949
 30
0.0
 10
-335.307345
 20
215.888569
 30
0.0
 10
-335.440946
 20
216.172653
 30
0.0
 10
-335.609246
 20
216.437773
 30
0.0
 10
-335.809344
 20
216.679666
 30
0.0
 10
-336.038145
 20
216.894550
 30
0.0
 10
-336.292145
 20
217.079067
 30
0.0
 10
-336.567345
 20
217.230366
 30
0.0
 10
-336.859245
 20
217.345964
 30
0.0
 10
-337.163345
 20
217.423970
 30
0.0
 10
-337.474746
 20
217.463369
 30
0.0
 10
-337.788744
 20
217.463369
 30
0.0
 10
-338.100244
 20
217.423970
 30
0.0
 10
-338.404344
 20
217.345964
 30
0.0
 10
-338.696246
 20
217.230366
 30
0.0
 10
-338.971345
 20
217.079067
 30
0.0
 10
-339.225345
 20
216.894550
 30
0.0
 10
-339.454146
 20
216.679666
 30
0.0
 10
-339.654346
 20
216.437773
 30
0.0
 10
-339.822544
 20
216.172653
 30
0.0
 10
-339.956146
 20
215.888569
 30
0.0
 10
-340.053244
 20
215.589949
 30
0.0
 10
-340.112045
 20
215.281565
 30
0.0
 10
-340.131744
 20
214.968270
 30
0.0
 10
-340.112045
 20
214.654947
 30
0.0
 10
-340.053244
 20
214.346535
 30
0.0
 10
-339.956146
 20
214.047972
 30
0.0
 10
-339.822544
 20
213.763887
 30
0.0
 10
-339.654346
 20
213.498824
 30
0.0
 10
-339.454146
 20
213.256903
 30
0.0
 10
-339.225345
 20
213.041991
 30
0.0
 10
-338.971345
 20
212.857445
 30
0.0
 10
-338.696246
 20
212.706203
 30
0.0
 10
-338.404344
 20
212.590633
 30
0.0
 10
-338.100244
 20
212.512570
 30
0.0
 10
-337.788744
 20
212.473200
 30
0.0
 10
-337.474746
 20
212.473200
 30
0.0
  0
LWPOLYLINE
  5
11c
100
AcDbEntity
  8
Ebene_1
 62
7
100
AcDbPolyline
 90
51
 70
0
 10
-357.474746
 20
212.473200
 30
0.0
 10
-357.163246
 20
212.512570
 30
0.0
 10
-356.859146
 20
212.590633
 30
0.0
 10
-356.567246
 20
212.706203
 30
0.0
 10
-356.292144
 20
212.857445
 30
0.0
 10
-356.038144
 20
213.041991
 30
0.0
 10
-355.809344
 20
213.256903
 30
0.0
 10
-355.609144
 20
213.498824
 30
0.0
 10
-355.440945
 20
213.763887
 30
0.0
 10
-355.307344
 20
214.047972
 30
0.0
 10
-355.210245
 20
214.346535
 30
0.0
 10
-355.151444
 20
214.654947
 30
0.0
 10
-355.131745
 20
214.968270
 30
0.0
 10
-355.151444
 20
215.281565
 30
0.0
 10
-355.210245
 20
215.589949
 30
0.0
 10
-355.307344
 20
215.888569
 30
0.0
 10
-355.440945
 20
216.172653
 30
0.0
 10
-355.609144
 20
216.437773
 30
0.0
 10
-355.809344
 20
216.679666
 30
0.0
 10
-356.038144
 20
216.894550
 30
0.0
 10
-356.292144
 20
217.079067
 30
0.0
 10
-356.567246
 20
217.230366
 30
0.0
 10
-356.859146
 20
217.345964
 30
0.0
 10
-357.163246
 20
217.423970
 30
0.0
 10
-357.474746
 20
217.463369
 30
0.0
 10
-357.788746
 20
217.463369
 30
0.0
 10
-358.100145
 20
217.423970
 30
0.0
 10
-358.404245
 20
217.345964
 30
0.0
 10
-358.696144
 20
217.230366
 30
0.0
 10
-358.971345
 20
217.079067
 30
0.0
 10
-359.225345
 20
216.894550
 30
0.0
 10
-359.454145
 20
216.679666
 30
0.0
 10
-359.654246
 20
216.437773
 30
0.0
 10
-359.822544
 20
216.172653
 30
0.0
 10
-359.956145
 20
215.888569
 30
0.0
 10
-360.053145
 20
215.589949
 30
0.0
 10
-360.112045
 20
215.281565
 30
0.0
 10
-360.131744
 20
214.968270
 30
0.0
 10
-360.112045
 20
214.654947
 30
0.0
 10
-360.053145
 20
214.346535
 30
0.0
 10
-359.956145
 20
214.047972
 30
0.0
 10
-359.822544
 20
213.763887
 30
0.0
 10
-359.654246
 20
213.498824
 30
0.0
 10
-359.454145
 20
213.256903
 30
0.0
 10
-359.225345
 20
213.041991
 30
0.0
 10
-358.971345
 20
212.857445
 30
0.0
 10
-358.696144
 20
212.706203
 30
0.0
 10
-358.404245
 20
212.590633
 30
0.0
 10
-358.100145
 20
212.512570
 30
0.0
 10
-357.788746
 20
212.473200
 30
0.0
 10
-357.474746
 20
212.473200
 30
0.0
  0
LWPOLYLINE
  5
11d
100
AcDbEntity
  8
Ebene_1
 62
7
100
AcDbPolyline
 90
4
 70
0
 10
-367.631732
 20
204.968262
 30
0.0
 10
-367.631732
 20
104.968250
 30
0.0
 10
-247.631735
 20
104.968250
 30
0.0
 10
-247.631735
 20
204.968262
 30
0.0
  0
LWPOLYLINE
  5
11e
100
AcDbEntity
  8
Ebene_1
 62
7
100
AcDbPolyline
 90
5
 70
0
 10
-253.881732
 20
195.468261
 30
0.0
 10
-253.881732
 20
202.468261
 30
0.0
 10
-251.381734
 20
202.468261
 30
0.0
 10
-251.381734
 20
195.468261
 30
0.0
 10
-253.881732
 20
195.468261
 30
0.0
  0
LWPOLYLINE
  5
11f
100
AcDbEntity
  8
Ebene_1
 62
7
100
AcDbPolyline
 90
5
 70
0
 10
-363.881732
 20
195.468261
 30
0.0
 10
-363.881732
 20
202.468261
 30
0.0
 10
-361.381734
 20
202.468261
 30
0.0
 10
-361.381734
 20
195.468261
 30
0.0
 10
-363.881732
 20
195.468261
 30
0.0
  0
LWPOLYLINE
  5
120
100
AcDbEntity
  8
Ebene_1
 62
7
100
AcDbPolyline
 90
5
 70
0
 10
-336.631734
 20
197.968262
 30
0.0
 10
-336.631734
 20
199.968261
 30
0.0
 10
-330.631733
 20
199.968261
 30
0.0
 10
-330.631733
 20
197.968262
 30
0.0
 10
-336.631734
 20
197.968262
 30
0.0
  0
LWPOLYLINE
  5
121
100
AcDbEntity
  8
Ebene_1
 62
7
100
AcDbPolyline
 90
5
 70
0
 10
-266.631733
 20
197.968262
 30
0.0
 10
-266.631733
 20
199.968261
 30
0.0
 10
-260.631734
 20
199.968261
 30
0.0
 10
-260.631734
 20
197.968262
 30
0.0
 10
-266.631733
 20
197.968262
 30
0.0
  0
LWPOLYLINE
  5
122
100
AcDbEntity
  8
Ebene_1
 62
7
100
AcDbPolyline
 90
5
 70
0
 10
-354.631732
 20
197.968262
 30
0.0
 10
-354.631732
 20
199.968261
 30
0.0
 10
-348.631733
 20
199.968261
 30
0.0
 10
-348.631733
 20
197.968262
 30
0.0
 10
-354.631732
 20
197.968262
 30
0.0
  0
LWPOLYLINE
  5
123
100
AcDbEntity
  8
Ebene_1
 62
7
100
AcDbPolyline
 90
5
 70
0
 10
-284.631733
 20
197.968262
 30
0.0
 10
-284.631733
 20
199.968261
 30
0.0
 10
-278.631732
 20
199.968261
 30
0.0
 10
-278.631732
 20
197.968262
 30
0.0
 10
-284.631733
 20
197.968262
 30
0.0
  0
LWPOLYLINE
  5
124
100
AcDbEntity
  8
Ebene_1
 62
7
100
AcDbPolyline
 90
5
 70
0
 10
-354.631732
 20
181.907562
 30
0.0
 10
-354.631732
 20
196.028963
 30
0.0
 10
-330.631733
 20
196.028963
 30
0.0
 10
-330.631733
 20
181.907562
 30
0.0
 10
-354.631732
 20
181.907562
 30
0.0
  0
LWPOLYLINE
  5
125
100
AcDbEntity
  8
Ebene_1
 62
7
100
AcDbPolyline
 90
5
 70
0
 10
-284.631733
 20
181.907562
 30
0.0
 10
-284.631733
 20
196.028963
 30
0.0
 10
-260.631734
 20
196.028963
 30
0.0
 10
-260.631734
 20
181.907562
 30
0.0
 10
-284.631733
 20
181.907562
 30
0.0
  0
LWPOLYLINE
  5
126
100
AcDbEntity
  8
Ebene_1
 62
7
100
AcDbPolyline
 90
5
 70
0
 10
-266.631733
 20
177.968262
 30
0.0
 10
-266.631733
 20
179.968261
 30
0.0
 10
-260.631734
 20
179.968261
 30
0.0
 10
-260.631734
 20
177.968262
 30
0.0
 10
-266.631733
 20
177.968262
 30
0.0
  0
LWPOLYLINE
  5
127
100
AcDbEntity
  8
Ebene_1
 62
7
100
AcDbPolyline
 90
5
 70
0
 10
-354.631732
 20
177.968262
 30
0.0
 10
-354.631732
 20
179.968261
 30
0.0
 10
-348.631733
 20
179.968261
 30
0.0
 10
-348.631733
 20
177.968262
 30
0.0
 10
-354.631732
 20
177.968262
 30
0.0
  0
LWPOLYLINE
  5
128
100
AcDbEntity
  8
Ebene_1
 62
7
100
AcDbPolyline
 90
5
 70
0
 10
-336.631734
 20
177.968262
 30
0.0
 10
-336.631734
 20
179.968261
 30
0.0
 10
-330.631733
 20
179.968261
 30
0.0
 10
-330.631733
 20
177.968262
 30
0.0
 10
-336.631734
 20
177.968262
 30
0.0
  0
LWPOLYLINE
  5
129
100
AcDbEntity
  8
Ebene_1
 62
7
100
AcDbPolyline
 90
5
 70
0
 10
-284.631733
 20
177.968262
 30
0.0
 10
-284.631733
 20
179.968261
 30
0.0
 10
-278.631732
 20
179.968261
 30
0.0
 10
-278.631732
 20
177.968262
 30
0.0
 10
-284.631733
 20
177.968262
 30
0.0
  0
LWPOLYLINE
  5
12a
100
AcDbEntity
  8
Ebene_1
 62
7
100
AcDbPolyline
 90
51
 70
0
 10
-308.573582
 20
139.997870
 30
0.0
 10
-310.442443
 20
140.233949
 30
0.0
 10
-312.266983
 20
140.702466
 30
0.0
 10
-314.018423
 20
141.395858
 30
0.0
 10
-315.669133
 20
142.303372
 30
0.0
 10
-317.193093
 20
143.410558
 30
0.0
 10
-318.566233
 20
144.700059
 30
0.0
 10
-319.767033
 20
146.151500
 30
0.0
 10
-320.776333
 20
147.741963
 30
0.0
 10
-321.578333
 20
149.446388
 30
0.0
 10
-322.160433
 20
151.237906
 30
0.0
 10
-322.513433
 20
153.088268
 30
0.0
 10
-322.631733
 20
154.968263
 30
0.0
 10
-322.513433
 20
156.848258
 30
0.0
 10
-322.160433
 20
158.698620
 30
0.0
 10
-321.578333
 20
160.490138
 30
0.0
 10
-320.776333
 20
162.194563
 30
0.0
 10
-319.767033
 20
163.785026
 30
0.0
 10
-318.566233
 20
165.236467
 30
0.0
 10
-317.193093
 20
166.525969
 30
0.0
 10
-315.669133
 20
167.633155
 30
0.0
 10
-314.018423
 20
168.540668
 30
0.0
 10
-312.266983
 20
169.234060
 30
0.0
 10
-310.442443
 20
169.702549
 30
0.0
 10
-308.573582
 20
169.938662
 30
0.0
 10
-306.689884
 20
169.938662
 30
0.0
 10
-304.821023
 20
169.702549
 30
0.0
 10
-302.996483
 20
169.234060
 30
0.0
 10
-301.245043
 20
168.540668
 30
0.0
 10
-299.594333
 20
167.633155
 30
0.0
 10
-298.070373
 20
166.525969
 30
0.0
 10
-296.697233
 20
165.236467
 30
0.0
 10
-295.496433
 20
163.785026
 30
0.0
 10
-294.487133
 20
162.194563
 30
0.0
 10
-293.685133
 20
160.490138
 30
0.0
 10
-293.103033
 20
158.698620
 30
0.0
 10
-292.750033
 20
156.848258
 30
0.0
 10
-292.631733
 20
154.968263
 30
0.0
 10
-292.750033
 20
153.088268
 30
0.0
 10
-293.103033
 20
151.237906
 30
0.0
 10
-293.685133
 20
149.446388
 30
0.0
 10
-294.487133
 20
147.741963
 30
0.0
 10
-295.496433
 20
146.151500
 30
0.0
 10
-296.697233
 20
144.700059
 30
0.0
 10
-298.070373
 20
143.410558
 30
0.0
 10
-299.594333
 20
142.303372
 30
0.0
 10
-301.245043
 20
141.395858
 30
0.0
 10
-302.996483
 20
140.702466
 30
0.0
 10
-304.821023
 20
140.233949
 30
0.0
 10
-306.689884
 20
139.997870
 30
0.0
 10
-308.573582
 20
139.997870
 30
0.0
  0
LWPOLYLINE
  5
12b
100
AcDbEntity
  8
Ebene_1
 62
7
100
AcDbPolyline
 90
5
 70
0
 10
-336.631734
 20
129.968257
 30
0.0
 10
-336.631734
 20
131.968253
 30
0.0
 10
-330.631733
 20
131.968253
 30
0.0
 10
-330.631733
 20
129.968257
 30
0.0
 10
-336.631734
 20
129.968257
 30
0.0
  0
LWPOLYLINE
  5
12c
100
AcDbEntity
  8
Ebene_1
 62
7
100
AcDbPolyline
 90
5
 70
0
 10
-354.631732
 20
129.968257
 30
0.0
 10
-354.631732
 20
131.968253
 30
0.0
 10
-348.631733
 20
131.968253
 30
0.0
 10
-348.631733
 20
129.968257
 30
0.0
 10
-354.631732
 20
129.968257
 30
0.0
  0
LWPOLYLINE
  5
12d
100
AcDbEntity
  8
Ebene_1
 62
7
100
AcDbPolyline
 90
5
 70
0
 10
-284.631733
 20
129.968257
 30
0.0
 10
-284.631733
 20
131.968253
 30
0.0
 10
-278.631732
 20
131.968253
 30
0.0
 10
-278.631732
 20
129.968257
 30
0.0
 10
-284.631733
 20
129.968257
 30
0.0
  0
LWPOLYLINE
  5
12e
100
AcDbEntity
  8
Ebene_1
 62
7
100
AcDbPolyline
 90
5
 70
0
 10
-266.631733
 20
129.968257
 30
0.0
 10
-266.631733
 20
131.968253
 30
0.0
 10
-260.631734
 20
131.968253
 30
0.0
 10
-260.631734
 20
129.968257
 30
0.0
 10
-266.631733
 20
129.968257
 30
0.0
  0
LWPOLYLINE
  5
12f
100
AcDbEntity
  8
Ebene_1
 62
7
100
AcDbPolyline
 90
5
 70
0
 10
-354.631732
 20
113.907554
 30
0.0
 10
-354.631732
 20
128.028967
 30
0.0
 10
-330.631733
 20
128.028967
 30
0.0
 10
-330.631733
 20
113.907554
 30
0.0
 10
-354.631732
 20
113.907554
 30
0.0
  0
LWPOLYLINE
  5
130
100
AcDbEntity
  8
Ebene_1
 62
7
100
AcDbPolyline
 90
5
 70
0
 10
-284.631733
 20
113.907554
 30
0.0
 10
-284.631733
 20
128.028967
 30
0.0
 10
-260.631734
 20
128.028967
 30
0.0
 10
-260.631734
 20
113.907554
 30
0.0
 10
-284.631733
 20
113.907554
 30
0.0
  0
LWPOLYLINE
  5
131
100
AcDbEntity
  8
Ebene_1
 62
7
100
AcDbPolyline
 90
5
 70
0
 10
-336.631734
 20
109.968268
 30
0.0
 10
-336.631734
 20
111.968264
 30
0.0
 10
-330.631733
 20
111.968264
 30
0.0
 10
-330.631733
 20
109.968268
 30
0.0
 10
-336.631734
 20
109.968268
 30
0.0
  0
LWPOLYLINE
  5
132
100
AcDbEntity
  8
Ebene_1
 62
7
100
AcDbPolyline
 90
5
 70
0
 10
-354.631732
 20
109.968268
 30
0.0
 10
-354.631732
 20
111.968264
 30
0.0
 10
-348.631733
 20
111.968264
 30
0.0
 10
-348.631733
 20
109.968268
 30
0.0
 10
-354.631732
 20
109.968268
 30
0.0
  0
LWPOLYLINE
  5
133
100
AcDbEntity
  8
Ebene_1
 62
7
100
AcDbPolyline
 90
5
 70
0
 10
-284.631733
 20
109.968268
 30
0.0
 10
-284.631733
 20
111.968264
 30
0.0
 10
-278.631732
 20
111.968264
 30
0.0
 10
-278.631732
 20
109.968268
 30
0.0
 10
-284.631733
 20
109.968268
 30
0.0
  0
LWPOLYLINE
  5
134
100
AcDbEntity
  8
Ebene_1
 62
7
100
AcDbPolyline
 90
5
 70
0
 10
-266.631733
 20
109.968268
 30
0.0
 10
-266.631733
 20
111.968264
 30
0.0
 10
-260.631734
 20
111.968264
 30
0.0
 10
-260.631734
 20
109.968268
 30
0.0
 10
-266.631733
 20
109.968268
 30
0.0
  0
ENDSEC
  0
SECTION
  2
OBJECTS
  0
DICTIONARY
  5
C
330
0
100
AcDbDictionary
  3
ACAD_GROUP
350
D
  3
ACAD_MLINESTYLE
350
17
  0
DICTIONARY
  5
D
330
C
100
AcDbDictionary
  0
DICTIONARY
  5
1A
330
C
100
AcDbDictionary
  0
DICTIONARY
  5
17
330
C
100
AcDbDictionary
  3
STANDARD
350
18
  0
DICTIONARY
  5
19
330
C
100
AcDbDictionary
  0
ENDSEC
  0
EOF
